<svg width="201" height="45" viewBox="0 0 201 45" fill="none" xmlns="http://www.w3.org/2000/svg">
<path d="M59.8807 30.5101H60.701L65.2125 24.3876H69.2113L63.6745 31.8366L69.724 39.8978H65.7252L61.0086 33.7754H59.8807V39.8978H56.292V24.3876H59.8807V30.5101Z" fill="white"/>
<path d="M75.7729 40.1022C74.7476 40.1022 73.9273 39.8981 73.107 39.592C72.3893 39.2858 71.6715 38.8777 71.1589 38.2654C70.6462 37.7552 70.236 37.0409 69.9284 36.3267C69.6208 35.6124 69.5183 34.8981 69.5183 34.0818C69.5183 33.2654 69.6208 32.5512 69.9284 31.8369C70.236 31.1226 70.6462 30.5103 71.1589 29.8981C71.6715 29.3879 72.2867 28.8777 73.107 28.5716C73.8248 28.2655 74.7476 28.0614 75.7729 28.0614C76.7983 28.0614 77.6185 28.2655 78.3363 28.5716C79.054 28.8777 79.7718 29.2859 80.2844 29.8981C80.7971 30.4083 81.2072 31.1226 81.5148 31.8369C81.8224 32.5512 81.925 33.2654 81.925 34.0818C81.925 34.8981 81.8224 35.6124 81.5148 36.3267C81.2072 37.0409 80.7971 37.6532 80.2844 38.2654C79.7718 38.7756 79.1566 39.2858 78.3363 39.592C77.6185 39.8981 76.6957 40.1022 75.7729 40.1022ZM73.2096 34.1838C73.2096 35.1022 73.4146 35.8165 73.9273 36.3267C74.44 36.8369 75.0552 37.143 75.7729 37.143C76.1831 37.143 76.4907 37.041 76.7983 36.9389C77.1059 36.8369 77.4135 36.6328 77.6185 36.3267C77.8236 36.0205 78.0287 35.7144 78.1312 35.4083C78.2337 35.0001 78.3363 34.592 78.3363 34.1838C78.3363 33.2654 78.1312 32.5512 77.6185 32.041C77.1059 31.5308 76.4907 31.2246 75.7729 31.2246C75.3628 31.2246 75.0552 31.3267 74.7476 31.4287C74.44 31.5308 74.1324 31.7348 73.9273 32.041C73.7222 32.3471 73.5172 32.6532 73.4146 32.9593C73.2095 33.2654 73.2096 33.6736 73.2096 34.1838Z" fill="white"/>
<path d="M134.627 31.7344C134.32 31.0201 134.012 30.4078 133.499 29.8976C132.987 29.3874 132.474 28.9793 131.859 28.6731C131.244 28.367 130.526 28.265 129.706 28.265C128.783 28.265 128.065 28.4691 127.45 28.7752C127.04 28.9793 126.629 29.2854 126.322 29.6936V28.4691H122.836V44.5915H126.322V38.0609C126.629 38.6731 127.142 39.1833 127.86 39.5915C128.475 39.9997 129.295 40.1017 130.116 40.1017C130.833 40.1017 131.449 39.9997 132.064 39.6935C132.679 39.3874 133.192 38.9793 133.602 38.4691C134.012 37.9588 134.422 37.3466 134.627 36.6323C134.832 35.918 135.037 35.1017 135.037 34.2854C135.037 33.265 134.935 32.4487 134.627 31.7344ZM131.551 35.3058C131.449 35.714 131.244 36.0201 131.038 36.2242C130.833 36.5303 130.526 36.7344 130.218 36.8364C129.911 36.9384 129.603 37.0405 129.193 37.0405C128.475 37.0405 127.86 36.7344 127.347 36.2242C126.835 35.714 126.629 34.9997 126.629 34.0813C126.629 33.6731 126.732 33.265 126.835 32.8568C126.937 32.4487 127.142 32.1425 127.347 31.9384C127.552 31.6323 127.86 31.4282 128.167 31.3262C128.475 31.2242 128.783 31.1221 129.193 31.1221C129.911 31.1221 130.526 31.4282 131.038 31.9384C131.551 32.4487 131.756 33.1629 131.756 34.0813C131.756 34.5915 131.654 34.9997 131.551 35.3058Z" fill="white"/>
<path d="M199.84 31.7344C199.533 31.0201 199.225 30.4078 198.712 29.8976C198.2 29.3874 197.687 28.9793 197.072 28.6731C196.457 28.367 195.739 28.265 194.919 28.265C193.996 28.265 193.278 28.4691 192.663 28.7752C192.253 28.9793 191.843 29.2854 191.535 29.6936V28.4691H188.049V44.5915H191.535V38.0609C191.843 38.6731 192.355 39.1833 193.073 39.5915C193.688 39.9997 194.509 40.1017 195.329 40.1017C196.047 40.1017 196.662 39.9997 197.277 39.6935C197.892 39.3874 198.405 38.9793 198.815 38.4691C199.225 37.9588 199.635 37.3466 199.84 36.6323C200.045 35.918 200.25 35.1017 200.25 34.2854C200.25 33.265 200.148 32.4487 199.84 31.7344ZM196.764 35.3058C196.662 35.714 196.457 36.0201 196.252 36.2242C196.047 36.5303 195.739 36.7344 195.431 36.8364C195.124 36.9384 194.816 37.0405 194.406 37.0405C193.688 37.0405 193.073 36.7344 192.56 36.2242C192.048 35.714 191.843 34.9997 191.843 34.0813C191.843 33.6731 191.945 33.265 192.048 32.8568C192.15 32.4487 192.355 32.1425 192.56 31.9384C192.765 31.6323 193.073 31.4282 193.381 31.3262C193.688 31.2242 193.996 31.1221 194.406 31.1221C195.124 31.1221 195.739 31.4282 196.252 31.9384C196.764 32.4487 196.969 33.1629 196.969 34.0813C196.969 34.5915 196.867 34.9997 196.764 35.3058Z" fill="white"/>
<path d="M87.5643 32.4489H91.4606V28.3673H94.9468V39.8979H91.4606V35.5102H87.5643V39.8979H84.0781V28.3673H87.5643V32.4489Z" fill="white"/>
<path d="M117.299 39.8979H113.813V31.4285H110.327V28.3673H120.683V31.4285H117.299V39.8979Z" fill="white"/>
<path d="M137.499 41.5306C137.704 41.6326 138.011 41.7346 138.216 41.7346C138.422 41.7346 138.627 41.8367 138.832 41.8367C139.139 41.8367 139.447 41.7346 139.652 41.4285C139.857 41.1224 140.267 40.6122 140.165 39.8979C140.062 39.1836 135.756 28.4694 135.756 28.4694H139.447L142.01 36.1224L144.266 28.4694H147.65L143.446 41.3265C143.036 42.551 142.523 43.4693 141.805 44.0816C141.087 44.6938 140.267 44.9999 139.242 44.9999C138.934 44.9999 138.627 45 138.422 44.8979C138.114 44.7959 137.909 44.7959 137.601 44.6938V41.5306H137.499Z" fill="white"/>
<path d="M156.672 28.3673H160.466L155.955 33.9795L160.876 39.8979H156.775L153.494 35.8163H152.981V39.8979H149.495V28.3673H152.981V32.653H153.391L156.672 28.3673Z" fill="white"/>
<path d="M168.977 39.8979H165.491V31.4285H162.004V28.3673H172.36V31.4285H168.977V39.8979Z" fill="white"/>
<path d="M179.742 40.1022C178.717 40.1022 177.897 39.8981 177.077 39.592C176.359 39.2858 175.641 38.8777 175.128 38.2654C174.616 37.7552 174.206 37.0409 173.898 36.3267C173.59 35.6124 173.488 34.8981 173.488 34.0818C173.488 33.2654 173.59 32.5512 173.898 31.8369C174.206 31.1226 174.616 30.5103 175.128 29.8981C175.641 29.3879 176.256 28.8777 177.077 28.5716C177.794 28.2655 178.717 28.0614 179.742 28.0614C180.768 28.0614 181.588 28.2655 182.306 28.5716C183.024 28.8777 183.741 29.2859 184.254 29.8981C184.767 30.4083 185.177 31.1226 185.484 31.8369C185.792 32.5512 185.894 33.2654 185.894 34.0818C185.894 34.8981 185.792 35.6124 185.484 36.3267C185.177 37.0409 184.767 37.6532 184.254 38.2654C183.741 38.7756 183.126 39.2858 182.306 39.592C181.588 39.8981 180.665 40.1022 179.742 40.1022ZM177.179 34.1838C177.179 35.1022 177.384 35.8165 177.897 36.3267C178.409 36.8369 179.025 37.143 179.742 37.143C180.153 37.143 180.46 37.041 180.768 36.9389C181.075 36.8369 181.383 36.6328 181.588 36.3267C181.793 36.0205 181.998 35.7144 182.101 35.4083C182.203 35.0001 182.306 34.592 182.306 34.1838C182.306 33.2654 182.101 32.5512 181.588 32.041C181.075 31.5308 180.46 31.2246 179.742 31.2246C179.332 31.2246 179.025 31.3267 178.717 31.4287C178.409 31.5308 178.102 31.7348 177.897 32.041C177.692 32.3471 177.487 32.6532 177.384 32.9593C177.179 33.2654 177.179 33.6736 177.179 34.1838Z" fill="white"/>
<path d="M56.292 3.46936H67.9809V6.63262H59.9832V9.5918H63.777C65.4176 9.5918 66.7505 9.99996 67.6733 10.8163C68.5961 11.6326 69.1088 12.7551 69.1088 14.1836C69.1088 15.7142 68.6987 16.8367 67.7759 17.653C66.853 18.4693 65.6226 18.8775 63.9821 18.8775H56.3945V3.46936H56.292ZM63.3669 15.9183C63.9821 15.9183 64.4948 15.7142 64.8024 15.4081C65.11 15.102 65.315 14.6938 65.315 14.0816C65.315 13.5714 65.11 13.1632 64.8024 12.8571C64.4948 12.551 63.9821 12.3469 63.3669 12.3469H59.8807V15.8163H63.3669V15.9183Z" fill="white"/>
<path d="M74.5428 13.9794L79.567 7.55084H82.1304V18.9794H78.6442V12.6529L73.62 18.9794H71.0566V7.55084H74.5428V13.9794Z" fill="white"/>
<path d="M84.489 8.57141C85.1042 8.06121 85.8219 7.65305 86.6422 7.44896C87.36 7.24488 88.1802 7.0408 88.898 7.0408C89.4106 7.0408 89.9233 7.14284 90.436 7.24488C90.9487 7.34692 91.3588 7.55101 91.7689 7.85713C92.1791 8.06121 92.4867 8.46937 92.6918 8.87753C92.8968 9.2857 92.9994 9.69386 92.9994 10.3061C92.9994 10.9183 92.7943 11.4286 92.4867 11.9388C92.1791 12.449 91.6664 12.7551 91.0512 12.8571C91.8715 13.0612 92.4867 13.4694 92.8968 13.9796C93.307 14.4898 93.512 15.102 93.512 15.9183C93.512 16.4285 93.4095 16.9387 93.1019 17.3469C92.8968 17.7551 92.4867 18.1632 92.0765 18.4694C91.6664 18.7755 91.1537 18.9796 90.5385 19.1836C89.9233 19.3877 89.3081 19.4898 88.6929 19.4898C87.6676 19.4898 86.8473 19.3877 85.9245 19.0816C85.1042 18.7755 84.489 18.3673 83.9763 17.8571L85.6169 15.6122C85.8219 15.9183 86.2321 16.1224 86.6422 16.3265C87.0524 16.5306 87.565 16.6326 88.0777 16.6326C88.6929 16.6326 89.103 16.5306 89.4106 16.3265C89.7182 16.1224 89.9233 15.8163 89.9233 15.4081C89.9233 15 89.7182 14.6939 89.4106 14.3877C89.103 14.1836 88.4878 14.0816 87.565 14.0816H86.5397V12.2449H87.4625C88.1802 12.2449 88.6929 12.1428 89.0005 11.8367C89.3081 11.6326 89.5132 11.2245 89.5132 10.9183C89.5132 10.6122 89.4106 10.3061 89.103 10.2041C88.898 9.99998 88.4878 9.99998 88.1802 9.99998C87.7701 9.99998 87.36 10.102 86.8473 10.3061C86.3346 10.5102 85.9245 10.7143 85.6169 11.0204L84.489 8.57141Z" fill="white"/>
<path d="M99.2545 11.6325H103.048V7.55084H106.534V18.9794H103.048V14.5916H99.2545V18.9794H95.7683V7.55084H99.2545V11.6325Z" fill="white"/>
<path d="M120.58 15.8163C120.273 16.8367 119.35 17.7551 118.325 18.3673C117.402 18.9796 116.274 19.1837 114.941 19.1837C114.018 19.1837 113.095 18.9796 112.378 18.6734C111.66 18.3673 110.942 17.9592 110.429 17.3469C109.917 16.8367 109.507 16.2245 109.199 15.5102C108.891 14.7959 108.789 14.0816 108.789 13.2653C108.789 12.449 108.891 11.6326 109.199 10.9184C109.507 10.2041 109.917 9.48979 110.429 8.97959C110.942 8.46938 111.557 7.95918 112.378 7.65306C113.095 7.34693 114.018 7.14285 115.043 7.14285C116.069 7.14285 116.889 7.34693 117.607 7.65306C118.325 7.95918 119.042 8.36734 119.555 8.97959C120.068 9.48979 120.478 10.2041 120.785 10.8163C121.093 11.5306 121.195 12.2449 121.195 13.0612C121.195 13.2653 121.195 13.4694 121.195 13.6735C121.195 13.8775 121.195 14.0816 121.093 14.1837H112.583C112.685 15 112.89 15.5102 113.403 15.9184C113.916 16.3265 114.531 16.5306 115.146 16.5306C115.659 16.5306 116.171 16.4286 116.581 16.1224C116.889 16.0204 117.094 15.8163 117.197 15.6122L120.58 15.8163ZM117.402 12.1428C117.299 11.4286 117.094 10.8163 116.581 10.4082C116.171 9.99999 115.556 9.79591 114.941 9.79591C114.223 9.79591 113.71 9.99999 113.198 10.4082C112.788 10.8163 112.48 11.4286 112.378 12.1428H117.402Z" fill="white"/>
<path d="M44.5 29.0816V19.8979L39.9885 16.8367V7.14285L30.5553 1.02041L25.4286 4.79591L17.841 0L8.9205 6.5306V8.57142L0 15.2041V24.3877L5.12673 27.7551V37.7551L14.5599 43.8775L19.8917 40L27.4792 44.8979L36.3998 38.3673V35.3061L44.5 29.0816ZM9.63824 16.8367V9.48978L16.8157 4.18367V11.6326L9.63824 16.8367ZM17.9435 11.5306V4.08163L26.1463 9.48978V16.6326L17.9435 11.5306ZM10.356 32.4489L17.841 26.9387L25.7362 32.0408L18.2511 37.551L10.356 32.4489ZM17.2258 18.7755V26.0204L9.94585 31.4285V24.1836L17.2258 18.7755ZM9.94585 17.8571L17.4309 12.449L25.7362 17.449L22.3525 20L17.841 17.1428L13.6371 20.2041L9.94585 17.8571ZM8.81797 28.9796L1.43548 24.0816L9.02304 18.5714L12.7143 20.8163L8.81797 23.6734V28.9796ZM26.0438 28.2653V31.0204L18.3537 26.0204V18.6734L21.8399 20.9183V25.5102L26.0438 28.2653ZM8.6129 10.2041V17.551L1.12788 22.9592V15.7143L8.6129 10.2041ZM18.8664 39.2857L14.4574 42.551L6.56221 37.4489L10.9712 34.1836L18.8664 39.2857ZM34.8617 38.0612L27.3767 43.5714L19.0714 38.1632L26.5564 32.653L34.8617 38.0612ZM39.9885 25.8163V18.1632L43.4746 20.5102V27.8571L39.9885 25.8163ZM31.068 10.2041V2.65306L38.8606 7.75509V15.5102L31.068 10.2041ZM31.068 18.8775V11.4286L38.8606 16.6326V23.8775L37.015 22.653L31.068 18.8775ZM38.553 25L31.1705 30.4081L23.2753 25.3061L30.5553 19.8979L38.553 25ZM27.0691 28.9796L31.1705 31.6326L35.2719 28.6734V29.6938V37.1428L27.0691 31.8367V28.9796ZM38.6555 26.2245L43.0645 28.8775L36.3998 33.8775V29.1836V27.8571L38.6555 26.2245ZM24.5058 5.5102L23.3779 6.32652L18.3537 3.06122V1.53061L24.5058 5.5102Z" fill="white"/>
<path d="M131.655 14.4898C131.552 14.898 131.347 15.2041 131.142 15.5102C130.937 15.8164 130.63 16.0204 130.322 16.1225C130.014 16.2245 129.707 16.3266 129.297 16.3266C128.579 16.3266 127.964 16.0204 127.451 15.5102C126.938 15 126.733 14.1837 126.733 13.3674C126.733 12.9592 126.836 12.5511 126.938 12.1429C127.041 11.7347 127.246 11.4286 127.451 11.2245C127.656 10.9184 127.964 10.7143 128.271 10.6123C128.579 10.5102 128.886 10.4082 129.297 10.4082C130.014 10.4082 130.63 10.7143 131.142 11.2245C131.347 11.5307 131.552 11.8368 131.655 12.2449H135.346C135.244 11.8368 135.141 11.5307 135.039 11.1225C134.731 10.4082 134.321 9.79596 133.808 9.18372C133.295 8.67351 132.68 8.16331 131.86 7.85719C131.142 7.55107 130.219 7.34698 129.194 7.34698C128.169 7.34698 127.348 7.55107 126.528 7.85719C125.708 8.16331 125.093 8.67351 124.58 9.18372C124.067 9.69392 123.657 10.4082 123.35 11.1225C123.042 11.8368 122.939 12.6531 122.939 13.3674C122.939 14.1837 123.042 14.898 123.35 15.6123C123.657 16.3266 124.067 16.9388 124.58 17.5511C125.093 18.0613 125.81 18.5715 126.528 18.8776C127.348 19.1837 128.169 19.3878 129.194 19.3878C130.219 19.3878 131.04 19.1837 131.86 18.8776C132.68 18.5715 133.295 18.1633 133.808 17.5511C134.321 17.0408 134.731 16.3266 135.039 15.6123C135.141 15.2041 135.244 14.898 135.346 14.4898H131.655Z" fill="white"/>
<path d="M105.405 35.3063C105.405 35.4083 105.405 35.4083 105.405 35.3063C105.303 35.7144 105.098 36.0206 104.892 36.3267C104.687 36.6328 104.38 36.8369 104.072 36.9389C103.765 37.041 103.457 37.143 103.047 37.143C102.329 37.143 101.714 36.8369 101.201 36.3267C100.689 35.8165 100.483 35.0001 100.483 34.1838C100.483 33.7757 100.586 33.3675 100.689 32.9593C100.791 32.5512 100.996 32.245 101.201 32.041C101.406 31.7348 101.714 31.5308 102.021 31.4287C102.329 31.3267 102.637 31.2246 103.047 31.2246C103.765 31.2246 104.38 31.5308 104.892 32.041C105.098 32.3471 105.303 32.6532 105.405 33.0614H109.096C108.994 32.6532 108.891 32.3471 108.789 31.9389C108.481 31.2246 108.071 30.6124 107.558 30.0002C107.046 29.4899 106.43 28.9797 105.61 28.6736C104.892 28.3675 103.97 28.1634 102.944 28.1634C101.919 28.1634 101.099 28.3675 100.278 28.6736C99.4581 28.9797 98.8429 29.4899 98.3302 30.0002C97.8176 30.5104 97.4074 31.2246 97.0998 31.9389C96.7922 32.6532 96.6897 33.4695 96.6897 34.1838C96.6897 35.0001 96.7922 35.7144 97.0998 36.4287C97.4074 37.143 97.8176 37.7552 98.3302 38.3675C98.8429 38.8777 99.5607 39.3879 100.278 39.694C101.099 40.0001 101.919 40.2042 102.944 40.2042C103.97 40.2042 104.79 40.0001 105.61 39.694C106.43 39.3879 107.046 38.9797 107.558 38.3675C108.071 37.8573 108.481 37.143 108.789 36.4287C108.891 36.0206 108.994 35.7144 109.096 35.3063H105.405Z" fill="white"/>
</svg>
