<svg width="41" height="27" viewBox="0 0 41 27" fill="none" xmlns="http://www.w3.org/2000/svg">
<path d="M23.83 13.67C23.83 17.75 22.75 20.9 20.59 23.12C18.46 25.34 15.55 26.45 11.86 26.45C9.58 26.45 7.54 25.955 5.74 24.965C3.97 23.975 2.575 22.535 1.555 20.645C0.535 18.725 0.0250001 16.4 0.0250001 13.67C0.0250001 9.59 1.09 6.455 3.22 4.265C5.35 2.075 8.275 0.979998 11.995 0.979998C14.305 0.979998 16.345 1.475 18.115 2.465C19.885 3.455 21.28 4.895 22.3 6.785C23.32 8.645 23.83 10.94 23.83 13.67ZM6.865 13.67C6.865 16.1 7.255 17.945 8.035 19.205C8.845 20.435 10.15 21.05 11.95 21.05C13.72 21.05 14.995 20.435 15.775 19.205C16.585 17.945 16.99 16.1 16.99 13.67C16.99 11.24 16.585 9.425 15.775 8.225C14.995 6.995 13.705 6.38 11.905 6.38C10.135 6.38 8.845 6.995 8.035 8.225C7.255 9.425 6.865 11.24 6.865 13.67ZM40.795 13.67C40.795 17.75 39.715 20.9 37.555 23.12C35.425 25.34 32.515 26.45 28.825 26.45C26.545 26.45 24.505 25.955 22.705 24.965C20.935 23.975 19.54 22.535 18.52 20.645C17.5 18.725 16.99 16.4 16.99 13.67C16.99 9.59 18.055 6.455 20.185 4.265C22.315 2.075 25.24 0.979998 28.96 0.979998C31.27 0.979998 33.31 1.475 35.08 2.465C36.85 3.455 38.245 4.895 39.265 6.785C40.285 8.645 40.795 10.94 40.795 13.67ZM23.83 13.67C23.83 16.1 24.22 17.945 25 19.205C25.81 20.435 27.115 21.05 28.915 21.05C30.685 21.05 31.96 20.435 32.74 19.205C33.55 17.945 33.955 16.1 33.955 13.67C33.955 11.24 33.55 9.425 32.74 8.225C31.96 6.995 30.67 6.38 28.87 6.38C27.1 6.38 25.81 6.995 25 8.225C24.22 9.425 23.83 11.24 23.83 13.67Z" fill="#EE3561"/>
</svg>
