<svg width="31" height="31" viewBox="0 0 31 31" fill="none" xmlns="http://www.w3.org/2000/svg">
<g id="icon/maps/place_24px">
<path id="Subtract" opacity="0.4" fill-rule="evenodd" clip-rule="evenodd" d="M6.36914 11.8104C6.36914 6.96598 10.2873 3.04785 15.1317 3.04785C19.9762 3.04785 23.8943 6.96598 23.8943 11.8104C23.8943 18.3824 15.1317 28.0838 15.1317 28.0838C15.1317 28.0838 6.36914 18.3824 6.36914 11.8104ZM15.1316 5.55174C11.6766 5.55174 8.87259 8.35577 8.87259 11.8107C8.87259 15.3784 12.5278 20.8362 15.1316 24.1785C17.7854 20.8112 21.3906 15.4159 21.3906 11.8107C21.3906 8.35577 18.5865 5.55174 15.1316 5.55174Z" fill="white"/>
<path id="Path" d="M15.1324 8.68091C13.4041 8.68091 12.0029 10.082 12.0029 11.8104C12.0029 13.5388 13.4041 14.9399 15.1324 14.9399C16.2505 14.9399 17.2836 14.3434 17.8427 13.3752C18.4017 12.4069 18.4017 11.2139 17.8427 10.2457C17.2836 9.27739 16.2505 8.68091 15.1324 8.68091V8.68091Z" fill="#EE3561"/>
</g>
</svg>
