<svg width="335" height="116" viewBox="0 0 335 116" fill="none" xmlns="http://www.w3.org/2000/svg">
<g filter="url(#filter0_d)">
<path d="M29.7757 35.738C29.7757 28.7544 26.7544 24.9901 16.9971 24.9901H11.8461V19.5419H26.903V12.1126H2.93086V47.1792H17.2448C25.0209 47.1792 29.7757 42.672 29.7757 35.738ZM11.8461 39.4031V31.4289H16.9476C19.7212 31.4289 21.009 32.7662 21.009 35.2922C21.009 37.8182 20.0184 39.4031 16.9971 39.4031H11.8461ZM55.888 47.1792H64.8032V12.1126H56.6804L47.7157 27.0208L44.7934 33.311L44.5953 33.2615C44.6944 32.3205 44.7934 31.4289 44.942 30.6365C45.1401 29.2992 45.2887 28.0114 45.3383 28.0114V12.1126H36.423V47.1792H44.7934L53.2134 33.3606L56.5318 26.5255L56.7795 26.5751C56.6309 27.8133 56.4823 28.9525 56.3337 29.8935C56.1851 30.7355 56.1851 31.528 56.0366 32.1223L55.888 33.1624V47.1792ZM92.3697 28.5067C94.8957 27.1694 96.1834 24.0491 96.1834 21.7707C96.1834 15.3815 91.8744 11.6173 84.0983 11.6173C78.9473 11.6173 75.1831 13.5489 72.4094 16.9664L77.0652 21.5231C78.2539 20.7306 80.8294 19.0466 83.4544 19.0466C86.4262 19.0466 87.912 20.3839 87.912 22.3651C87.912 24.693 86.3271 26.0303 83.7021 26.0303H78.6996V32.1223H83.9002C86.8224 32.1223 88.4569 33.6082 88.4569 36.1342C88.4569 38.6602 86.3766 39.8984 82.8105 39.8984C80.6313 39.8984 78.1053 38.6107 76.1241 36.3818L70.4778 40.7899C73.1028 45.1485 77.8081 47.6745 83.3058 47.6745C92.2211 47.6745 97.3721 43.6626 97.3721 36.679C97.3721 33.5092 96.0844 30.3393 92.3697 28.5067ZM113.435 33.9549H123.539V47.1792H132.454V12.1126H123.539V25.3864H113.435V12.1126H104.52V47.1792H113.435V33.9549ZM149.927 20.4335H165.38V12.1126H140.962V47.1792H165.38V38.8088H149.927V33.5587H164.142V25.8817H149.927V20.4335ZM190.69 36.2333C188.758 41.0376 180.834 39.9479 180.834 35.6884V23.6033C180.834 19.2448 188.659 18.2542 191.037 22.6127L198.268 19.6905C195.494 13.4498 190.244 11.6173 185.935 11.6173C178.902 11.6173 171.968 15.6787 171.968 23.6033V35.6884C171.968 43.6626 178.902 47.6745 185.787 47.6745C190.195 47.6745 195.494 45.4952 198.417 39.7994L190.69 36.2333ZM26.5876 76.2301V68.3611H0.805256V76.2301H9.50737V101.179H17.8855V76.2301H26.5876ZM31.2145 101.179H39.5001V91.5976H44.3603C52.2755 91.5976 56.3025 85.8116 56.3025 79.9794C56.3025 74.1934 52.3218 68.4074 44.314 68.4074H31.2145V101.179ZM39.5001 84.2379V76.1375H44.314C49.3131 76.1375 49.3131 84.2379 44.314 84.2379H39.5001ZM69.5947 76.1838H84.0365V68.4074H61.2166V101.179H84.0365V93.3566H69.5947V88.45H82.8793V81.2754H69.5947V76.1838ZM98.1493 88.8204H107.592V101.179H115.924V68.4074H107.592V80.8126H98.1493V68.4074H89.8175V101.179H98.1493V88.8204ZM129.198 107.752V101.179H145.214V107.752H153.546V93.7269H149.565V68.4074H128.18L127.393 79.3776C126.884 86.7837 127.208 93.7269 120.728 93.7269V107.752H129.198ZM141.233 93.7269H133.596C134.475 91.5513 134.845 88.6815 134.984 86.2282L135.679 76.2764H141.233V93.7269ZM183.452 89.9313C183.452 83.6824 180.536 79.5628 171.649 79.5628H166.742V68.4074H158.41V101.179H171.88C179.147 101.179 183.452 96.3653 183.452 89.9313ZM195.579 68.4074H187.294V101.179H195.579V68.4074ZM166.742 93.912V86.1357H171.649C173.917 86.1357 175.305 87.4317 175.305 89.8387C175.305 91.9216 174.426 93.912 171.649 93.912H166.742Z" fill="white"/>
</g>
<g filter="url(#filter1_d)">
<path d="M281.492 23.2071C285.256 16.0749 293.131 21.1764 288.426 26.476L274.162 42.5235L276.39 47.1297H298.976V38.7097H291.051L286.94 39.5517L294.667 32.2214C297.837 29.2496 299.025 25.7331 299.025 22.4146C299.025 16.9169 295.013 11.6173 287.287 11.6173C282.483 11.6173 277.777 14.0442 274.855 19.5915L281.492 23.2071ZM318.671 47.6745C324.664 47.6745 331.35 44.3065 331.35 36.9267V22.4146C331.35 14.9357 324.664 11.6173 318.671 11.6173C312.727 11.6173 305.991 14.9357 305.991 22.4146V36.9267C305.991 44.3065 312.727 47.6745 318.671 47.6745ZM318.671 19.3933C320.652 19.3933 322.93 20.5325 322.93 22.6623V37.0257C322.93 39.0564 320.701 40.1461 318.671 40.1461C316.541 40.1461 314.411 39.0564 314.411 37.0257V22.6623C314.411 20.582 316.541 19.3933 318.671 19.3933ZM281.492 77.2071C285.256 70.0749 293.131 75.1764 288.426 80.476L274.162 96.5235L276.39 101.13H298.976V92.7097H291.051L286.94 93.5517L294.667 86.2214C297.837 83.2496 299.025 79.7331 299.025 76.4146C299.025 70.9169 295.013 65.6173 287.287 65.6173C282.483 65.6173 277.777 68.0442 274.855 73.5915L281.492 77.2071ZM318.671 101.674C324.664 101.674 331.35 98.3065 331.35 90.9267V76.4146C331.35 68.9357 324.664 65.6173 318.671 65.6173C312.727 65.6173 305.991 68.9357 305.991 76.4146V90.9267C305.991 98.3065 312.727 101.674 318.671 101.674ZM318.671 73.3933C320.652 73.3933 322.93 74.5325 322.93 76.6623V91.0257C322.93 93.0564 320.701 94.1461 318.671 94.1461C316.541 94.1461 314.411 93.0564 314.411 91.0257V76.6623C314.411 74.582 316.541 73.3933 318.671 73.3933Z" fill="white"/>
</g>
<g filter="url(#filter2_d)">
<rect x="220.455" y="0.159912" width="35.6364" height="112.848" fill="#7035EE"/>
</g>
<path d="M241.358 94.9912C243.437 95.8269 242.965 99.2552 241.123 99.2552L235.895 99.2552C234.009 99.2552 233.58 95.8697 235.466 94.8412L234.202 91.7129C231.502 92.9128 230.709 95.1841 230.709 97.0482C230.709 100.091 232.466 103.091 235.895 103.091L241.123 103.091C244.572 103.091 246.308 100.091 246.308 97.1125C246.308 95.2055 245.365 92.9128 242.901 91.6486L241.358 94.9912ZM230.923 81.6176L230.923 85.1102L246.094 90.4027L246.094 86.2887L243.051 85.3459L243.051 81.2962L246.094 80.3106L246.094 76.1966L230.923 81.6176ZM239.644 84.4888L235.209 83.3746L235.209 83.2675L239.644 82.2176L239.644 84.4888ZM246.094 73.8945L246.094 70.0591L241.723 70.0591L238.659 70.3162L238.637 70.2091L243.844 68.1735L243.844 65.538L238.637 63.5453L238.659 63.4168L241.723 63.6524L246.094 63.6739L246.094 59.817L230.923 59.817L230.923 63.6524L238.337 66.8665L230.923 70.0591L230.923 73.8945L246.094 73.8945ZM246.094 56.1411L246.094 52.3057L241.723 52.3057L238.659 52.5628L238.637 52.4557L243.844 50.4201L243.844 47.7846L238.637 45.7919L238.659 45.6633L241.723 45.899L246.094 45.9205L246.094 42.0636L230.923 42.0636L230.923 45.899L238.337 49.1131L230.923 52.3057L230.923 56.1411L246.094 56.1411ZM246.094 29.9669L246.094 26.1101L230.923 26.1101L230.923 29.6241L237.373 33.5024L240.094 34.7666L240.073 34.8523C239.666 34.8094 239.28 34.7666 238.937 34.7023C238.359 34.6166 237.802 34.5523 237.802 34.5309L230.923 34.5309L230.923 38.3877L246.094 38.3877L246.094 34.7666L240.116 31.124L237.159 29.6884L237.18 29.5812C237.716 29.6455 238.209 29.7098 238.616 29.7741C238.98 29.8384 239.323 29.8384 239.58 29.9026L240.03 29.9669L246.094 29.9669ZM234.545 11.3989L230.902 11.3989L230.902 23.3338L234.545 23.3338L234.545 19.3055L246.094 19.3055L246.094 15.4272L234.545 15.4272L234.545 11.3989Z" fill="white"/>
<defs>
<filter id="filter0_d" x="0.805664" y="11.6172" width="200.311" height="98.8345" filterUnits="userSpaceOnUse" color-interpolation-filters="sRGB">
<feFlood flood-opacity="0" result="BackgroundImageFix"/>
<feColorMatrix in="SourceAlpha" type="matrix" values="0 0 0 0 0 0 0 0 0 0 0 0 0 0 0 0 0 0 127 0"/>
<feOffset dx="2.69972" dy="2.69972"/>
<feColorMatrix type="matrix" values="0 0 0 0 0.439216 0 0 0 0 0.207843 0 0 0 0 0.933333 0 0 0 1 0"/>
<feBlend mode="normal" in2="BackgroundImageFix" result="effect1_dropShadow"/>
<feBlend mode="normal" in="SourceGraphic" in2="effect1_dropShadow" result="shape"/>
</filter>
<filter id="filter1_d" x="274.161" y="11.6172" width="59.8881" height="92.7569" filterUnits="userSpaceOnUse" color-interpolation-filters="sRGB">
<feFlood flood-opacity="0" result="BackgroundImageFix"/>
<feColorMatrix in="SourceAlpha" type="matrix" values="0 0 0 0 0 0 0 0 0 0 0 0 0 0 0 0 0 0 127 0"/>
<feOffset dx="2.69972" dy="2.69972"/>
<feColorMatrix type="matrix" values="0 0 0 0 0.439216 0 0 0 0 0.207843 0 0 0 0 0.933333 0 0 0 1 0"/>
<feBlend mode="normal" in2="BackgroundImageFix" result="effect1_dropShadow"/>
<feBlend mode="normal" in="SourceGraphic" in2="effect1_dropShadow" result="shape"/>
</filter>
<filter id="filter2_d" x="220.455" y="0.159912" width="38.3361" height="115.548" filterUnits="userSpaceOnUse" color-interpolation-filters="sRGB">
<feFlood flood-opacity="0" result="BackgroundImageFix"/>
<feColorMatrix in="SourceAlpha" type="matrix" values="0 0 0 0 0 0 0 0 0 0 0 0 0 0 0 0 0 0 127 0"/>
<feOffset dx="2.69972" dy="2.69972"/>
<feColorMatrix type="matrix" values="0 0 0 0 1 0 0 0 0 1 0 0 0 0 1 0 0 0 1 0"/>
<feBlend mode="normal" in2="BackgroundImageFix" result="effect1_dropShadow"/>
<feBlend mode="normal" in="SourceGraphic" in2="effect1_dropShadow" result="shape"/>
</filter>
</defs>
</svg>
