<svg width="317" height="119" viewBox="0 0 317 119" fill="none" xmlns="http://www.w3.org/2000/svg">
<g filter="url(#filter0_d)">
<path d="M30.6467 37.4464C30.6467 30.3202 27.5638 26.4792 17.6074 26.4792H12.3513V20.9198H27.7154V13.3388H3.25407V49.1211H17.8601C25.7949 49.1211 30.6467 44.522 30.6467 37.4464ZM12.3513 41.1863V33.0494H17.5569C20.3871 33.0494 21.7011 34.414 21.7011 36.9915C21.7011 39.569 20.6903 41.1863 17.6074 41.1863H12.3513ZM57.2919 49.1211H66.3891V13.3388H58.1006L48.9528 28.5513L45.971 34.9699L45.7688 34.9194C45.8699 33.9591 45.971 33.0494 46.1226 32.2408C46.3248 30.8762 46.4764 29.5621 46.5269 29.5621V13.3388H37.4297V49.1211H45.971L54.5628 35.0204L57.949 28.0459L58.2017 28.0965C58.05 29.36 57.8984 30.5224 57.7468 31.4827C57.5952 32.3418 57.5952 33.1505 57.4436 33.7569L57.2919 34.8183V49.1211ZM94.5182 30.0675C97.0957 28.703 98.4097 25.5189 98.4097 23.1941C98.4097 16.6744 94.0128 12.8334 86.078 12.8334C80.8218 12.8334 76.9808 14.8045 74.1506 18.2917L78.9013 22.9414C80.1143 22.1328 82.7424 20.4144 85.421 20.4144C88.4534 20.4144 89.9696 21.779 89.9696 23.8006C89.9696 26.176 88.3523 27.5405 85.6737 27.5405H80.5691V33.7569H85.8758C88.8577 33.7569 90.5255 35.2731 90.5255 37.8507C90.5255 40.4282 88.4028 41.6917 84.7639 41.6917C82.5402 41.6917 79.9627 40.3777 77.9411 38.1034L72.1795 42.6014C74.8581 47.049 79.6594 49.6265 85.2693 49.6265C94.3665 49.6265 99.6227 45.5328 99.6227 38.4066C99.6227 35.1721 98.3087 31.9375 94.5182 30.0675ZM116.013 35.6269H126.324V49.1211H135.421V13.3388H126.324V26.8835H116.013V13.3388H106.916V49.1211H116.013V35.6269ZM153.25 21.8295H169.019V13.3388H144.103V49.1211H169.019V40.5798H153.25V35.2226H167.755V27.3889H153.25V21.8295ZM194.845 37.9518C192.874 42.8541 184.788 41.7423 184.788 37.3958V25.0641C184.788 20.6166 192.773 19.6058 195.199 24.0533L202.578 21.0714C199.747 14.7034 194.39 12.8334 189.993 12.8334C182.817 12.8334 175.741 16.9777 175.741 25.0641V37.3958C175.741 45.5328 182.817 49.6265 189.842 49.6265C194.34 49.6265 199.747 47.4027 202.729 41.5906L194.845 37.9518ZM27.3936 78.6628V70.6333H1.08508V78.6628H9.96479V104.121H18.5139V78.6628H27.3936ZM32.115 104.121H40.5696V94.344H45.529C53.6057 94.344 57.715 88.4399 57.715 82.4886C57.715 76.5846 53.653 70.6805 45.4818 70.6805H32.115V104.121ZM40.5696 86.834V78.5683H45.4818C50.5829 78.5683 50.5829 86.834 45.4818 86.834H40.5696ZM71.2784 78.6156H86.015V70.6805H62.7294V104.121H86.015V96.1388H71.2784V91.1322H84.8342V83.8111H71.2784V78.6156ZM100.416 91.51H110.051V104.121H118.553V70.6805H110.051V83.3388H100.416V70.6805H91.9139V104.121H100.416V91.51ZM132.098 110.828V104.121H148.441V110.828H156.943V96.5167H152.881V70.6805H131.059L130.256 81.8746C129.737 89.4318 130.067 96.5167 123.455 96.5167V110.828H132.098ZM144.379 96.5167H136.585C137.483 94.2967 137.861 91.3683 138.002 88.865L138.711 78.71H144.379V96.5167ZM187.459 92.6436C187.459 86.2672 184.484 82.0635 175.415 82.0635H170.408V70.6805H161.906V104.121H175.651C183.067 104.121 187.459 99.2089 187.459 92.6436ZM199.834 70.6805H191.38V104.121H199.834V70.6805ZM170.408 96.7056V88.7705H175.415C177.729 88.7705 179.146 90.093 179.146 92.5491C179.146 94.6746 178.249 96.7056 175.415 96.7056H170.408Z" fill="white"/>
</g>
<g filter="url(#filter1_d)">
<path d="M262.707 24.6598C266.548 17.382 274.583 22.5876 269.782 27.9954L255.227 44.3703L257.501 49.0706H280.547V40.4788H272.461L268.266 41.3379L276.15 33.858C279.385 30.8256 280.598 27.2373 280.598 23.8511C280.598 18.2412 276.504 12.8334 268.62 12.8334C263.717 12.8334 258.916 15.3099 255.934 20.9703L262.707 24.6598ZM300.644 49.6265C306.759 49.6265 313.582 46.1898 313.582 38.6593V23.8511C313.582 16.2196 306.759 12.8334 300.644 12.8334C294.579 12.8334 287.706 16.2196 287.706 23.8511V38.6593C287.706 46.1898 294.579 49.6265 300.644 49.6265ZM300.644 20.7682C302.665 20.7682 304.99 21.9306 304.99 24.1038V38.7604C304.99 40.8325 302.716 41.9444 300.644 41.9444C298.471 41.9444 296.297 40.8325 296.297 38.7604V24.1038C296.297 21.9811 298.471 20.7682 300.644 20.7682ZM262.707 79.6598C266.548 72.382 274.583 77.5876 269.782 82.9954L255.227 99.3703L257.501 104.071H280.547V95.4788H272.461L268.266 96.3379L276.15 88.858C279.385 85.8256 280.598 82.2373 280.598 78.8511C280.598 73.2412 276.504 67.8334 268.62 67.8334C263.717 67.8334 258.916 70.3099 255.934 75.9703L262.707 79.6598ZM300.644 104.626C306.759 104.626 313.582 101.19 313.582 93.6593V78.8511C313.582 71.2196 306.759 67.8334 300.644 67.8334C294.579 67.8334 287.706 71.2196 287.706 78.8511V93.6593C287.706 101.19 294.579 104.626 300.644 104.626ZM300.644 75.7682C302.665 75.7682 304.99 76.9306 304.99 79.1038V93.7604C304.99 95.8325 302.716 96.9444 300.644 96.9444C298.471 96.9444 296.297 95.8325 296.297 93.7604V79.1038C296.297 76.9811 298.471 75.7682 300.644 75.7682Z" fill="white"/>
</g>
<g filter="url(#filter2_d)">
<rect x="226.87" y="0.95874" width="5.50964" height="115.152" fill="#7035EE"/>
</g>
<defs>
<filter id="filter0_d" x="1.08496" y="12.8335" width="204.399" height="100.75" filterUnits="userSpaceOnUse" color-interpolation-filters="sRGB">
<feFlood flood-opacity="0" result="BackgroundImageFix"/>
<feColorMatrix in="SourceAlpha" type="matrix" values="0 0 0 0 0 0 0 0 0 0 0 0 0 0 0 0 0 0 127 0"/>
<feOffset dx="2.75482" dy="2.75482"/>
<feColorMatrix type="matrix" values="0 0 0 0 0.439216 0 0 0 0 0.207843 0 0 0 0 0.933333 0 0 0 1 0"/>
<feBlend mode="normal" in2="BackgroundImageFix" result="effect1_dropShadow"/>
<feBlend mode="normal" in="SourceGraphic" in2="effect1_dropShadow" result="shape"/>
</filter>
<filter id="filter1_d" x="255.227" y="12.8335" width="61.1103" height="94.5479" filterUnits="userSpaceOnUse" color-interpolation-filters="sRGB">
<feFlood flood-opacity="0" result="BackgroundImageFix"/>
<feColorMatrix in="SourceAlpha" type="matrix" values="0 0 0 0 0 0 0 0 0 0 0 0 0 0 0 0 0 0 127 0"/>
<feOffset dx="2.75482" dy="2.75482"/>
<feColorMatrix type="matrix" values="0 0 0 0 0.439216 0 0 0 0 0.207843 0 0 0 0 0.933333 0 0 0 1 0"/>
<feBlend mode="normal" in2="BackgroundImageFix" result="effect1_dropShadow"/>
<feBlend mode="normal" in="SourceGraphic" in2="effect1_dropShadow" result="shape"/>
</filter>
<filter id="filter2_d" x="226.87" y="0.95874" width="8.26446" height="117.906" filterUnits="userSpaceOnUse" color-interpolation-filters="sRGB">
<feFlood flood-opacity="0" result="BackgroundImageFix"/>
<feColorMatrix in="SourceAlpha" type="matrix" values="0 0 0 0 0 0 0 0 0 0 0 0 0 0 0 0 0 0 127 0"/>
<feOffset dx="2.75482" dy="2.75482"/>
<feColorMatrix type="matrix" values="0 0 0 0 1 0 0 0 0 1 0 0 0 0 1 0 0 0 1 0"/>
<feBlend mode="normal" in2="BackgroundImageFix" result="effect1_dropShadow"/>
<feBlend mode="normal" in="SourceGraphic" in2="effect1_dropShadow" result="shape"/>
</filter>
</defs>
</svg>
