<svg width="265" height="93" viewBox="0 0 265 93" fill="none" xmlns="http://www.w3.org/2000/svg">
<g filter="url(#filter0_d)">
<path d="M23.4644 29.2118C23.4644 23.691 21.0759 20.7152 13.3624 20.7152H9.29034V16.4082H21.1934V10.535H2.24247V38.2566H13.5582C19.7055 38.2566 23.4644 34.6935 23.4644 29.2118ZM9.29034 32.1093V25.8054H13.3233C15.516 25.8054 16.534 26.8625 16.534 28.8594C16.534 30.8563 15.7509 32.1093 13.3624 32.1093H9.29034ZM44.1072 38.2566H51.1551V10.535H44.7337L37.6467 22.3206L35.3365 27.2932L35.1799 27.2541C35.2582 26.5102 35.3365 25.8054 35.454 25.1789C35.6106 24.1217 35.7281 23.1037 35.7672 23.1037V10.535H28.7194V38.2566H35.3365L41.9929 27.3324L44.6162 21.929L44.812 21.9682C44.6945 22.9471 44.5771 23.8476 44.4596 24.5916C44.3421 25.2572 44.3421 25.8837 44.2247 26.3535L44.1072 27.1758V38.2566ZM72.9475 23.4952C74.9444 22.4381 75.9624 19.9713 75.9624 18.1702C75.9624 13.1192 72.5559 10.1434 66.4086 10.1434C62.3365 10.1434 59.3608 11.6705 57.1681 14.3722L60.8486 17.9744C61.7884 17.3479 63.8244 16.0167 65.8996 16.0167C68.2489 16.0167 69.4235 17.0738 69.4235 18.64C69.4235 20.4803 68.1706 21.5375 66.0954 21.5375H62.1408V26.3535H66.252C68.5621 26.3535 69.8543 27.5282 69.8543 29.5251C69.8543 31.522 68.2098 32.5008 65.3906 32.5008C63.6678 32.5008 61.6709 31.4828 60.1047 29.7208L55.6411 33.2056C57.7163 36.6512 61.436 38.6481 65.7822 38.6481C72.83 38.6481 76.9021 35.4766 76.9021 29.9558C76.9021 27.4499 75.8841 24.944 72.9475 23.4952ZM89.6005 27.8023H97.5881V38.2566H104.636V10.535H97.5881V21.0285H89.6005V10.535H82.5526V38.2566H89.6005V27.8023ZM118.449 17.113H130.665V10.535H111.362V38.2566H130.665V31.6394H118.449V27.489H129.686V21.42H118.449V17.113ZM150.674 29.6034C149.147 33.4014 142.882 32.54 142.882 29.1727V19.6189C142.882 16.1733 149.068 15.3902 150.948 18.8358L156.664 16.5257C154.472 11.5922 150.321 10.1434 146.915 10.1434C141.355 10.1434 135.873 13.3541 135.873 19.6189V29.1727C135.873 35.4766 141.355 38.6481 146.797 38.6481C150.282 38.6481 154.472 36.9253 156.782 32.4225L150.674 29.6034ZM20.9441 60.5333V54.3126H0.562098V60.5333H7.44147V80.2566H14.0647V60.5333H20.9441ZM24.6019 80.2566H31.1519V72.682H34.9941C41.2514 72.682 44.435 68.1079 44.435 63.4973C44.435 58.9232 41.288 54.3492 34.9575 54.3492H24.6019V80.2566ZM31.1519 66.8638V60.4601H34.9575C38.9095 60.4601 38.9095 66.8638 34.9575 66.8638H31.1519ZM54.943 60.4967H66.3598V54.3492H48.3198V80.2566H66.3598V74.0725H54.943V70.1937H65.445V64.5219H54.943V60.4967ZM77.5165 70.4864H84.9813V80.2566H91.568V54.3492H84.9813V64.1559H77.5165V54.3492H70.9299V80.2566H77.5165V70.4864ZM102.062 85.4527V80.2566H114.723V85.4527H121.31V74.3652H118.163V54.3492H101.257L100.635 63.0216C100.232 68.8764 100.489 74.3652 95.3656 74.3652V85.4527H102.062ZM111.576 74.3652H105.538C106.234 72.6454 106.526 70.3766 106.636 68.4372L107.185 60.5699H111.576V74.3652ZM144.952 71.3646C144.952 66.4247 142.646 63.1679 135.621 63.1679H131.742V54.3492H125.155V80.2566H135.804C141.549 80.2566 144.952 76.451 144.952 71.3646ZM154.539 54.3492H147.989V80.2566H154.539V54.3492ZM131.742 74.5116V68.3641H135.621C137.414 68.3641 138.511 69.3886 138.511 71.2915C138.511 72.9381 137.816 74.5116 135.621 74.5116H131.742Z" fill="white"/>
</g>
<g filter="url(#filter1_d)">
<path d="M222.457 19.3057C225.432 13.6674 231.658 17.7003 227.938 21.8899L216.662 34.576L218.424 38.2174H236.278V31.5611H230.013L226.764 32.2268L232.872 26.4318C235.378 24.0826 236.317 21.3026 236.317 18.6792C236.317 14.333 233.146 10.1434 227.038 10.1434C223.24 10.1434 219.52 12.062 217.21 16.4474L222.457 19.3057ZM251.848 38.6481C256.585 38.6481 261.871 35.9856 261.871 30.1515V18.6792C261.871 12.7668 256.585 10.1434 251.848 10.1434C247.149 10.1434 241.824 12.7668 241.824 18.6792V30.1515C241.824 35.9856 247.149 38.6481 251.848 38.6481ZM251.848 16.2907C253.414 16.2907 255.215 17.1913 255.215 18.875V30.2299C255.215 31.8352 253.453 32.6966 251.848 32.6966C250.164 32.6966 248.48 31.8352 248.48 30.2299V18.875C248.48 17.2305 250.164 16.2907 251.848 16.2907ZM222.457 61.3057C225.432 55.6674 231.658 59.7003 227.938 63.8899L216.662 76.576L218.424 80.2174H236.278V73.5611H230.013L226.764 74.2268L232.872 68.4318C235.378 66.0826 236.317 63.3026 236.317 60.6792C236.317 56.333 233.146 52.1434 227.038 52.1434C223.24 52.1434 219.52 54.062 217.21 58.4474L222.457 61.3057ZM251.848 80.6481C256.585 80.6481 261.871 77.9856 261.871 72.1515V60.6792C261.871 54.7668 256.585 52.1434 251.848 52.1434C247.149 52.1434 241.824 54.7668 241.824 60.6792V72.1515C241.824 77.9856 247.149 80.6481 251.848 80.6481ZM251.848 58.2907C253.414 58.2907 255.215 59.1913 255.215 60.875V72.2299C255.215 73.8352 253.453 74.6966 251.848 74.6966C250.164 74.6966 248.48 73.8352 248.48 72.2299V60.875C248.48 59.2305 250.164 58.2907 251.848 58.2907Z" fill="white"/>
</g>
<g filter="url(#filter2_d)">
<rect x="174.204" y="0.70752" width="28.172" height="89.2113" fill="#7035EE"/>
</g>
<path d="M191.29 75.6755C192.933 76.3361 192.56 79.0463 191.103 79.0463L186.97 79.0463C185.48 79.0463 185.141 76.37 186.632 75.5569L185.632 73.0838C183.498 74.0324 182.871 75.8279 182.871 77.3016C182.871 79.707 184.26 82.0784 186.97 82.0784L191.103 82.0784C193.831 82.0784 195.203 79.707 195.203 77.3524C195.203 75.8449 194.457 74.0324 192.509 73.033L191.29 75.6755ZM183.04 65.1031L183.04 67.8642L195.033 72.0481L195.033 68.7958L192.628 68.0505L192.628 64.849L195.033 64.0698L195.033 60.8176L183.04 65.1031ZM189.935 67.3729L186.428 66.4921L186.428 66.4074L189.935 65.5774L189.935 67.3729ZM195.033 58.9977L195.033 55.9657L191.578 55.9657L189.155 56.1689L189.138 56.0842L193.255 54.475L193.255 52.3915L189.138 50.8162L189.155 50.7146L191.578 50.9009L195.033 50.9179L195.033 47.8689L183.04 47.8689L183.04 50.9009L188.901 53.4418L183.04 55.9657L183.04 58.9977L195.033 58.9977ZM195.033 44.9629L195.033 41.9309L191.578 41.9309L189.155 42.1341L189.138 42.0494L193.255 40.4402L193.255 38.3568L189.138 36.7814L189.155 36.6798L191.578 36.8661L195.033 36.8831L195.033 33.8341L183.04 33.8341L183.04 36.8661L188.901 39.407L183.04 41.9309L183.04 44.9629L195.033 44.9629ZM195.033 24.2711L195.033 21.2221L183.04 21.2221L183.04 24.0001L188.139 27.0661L190.29 28.0655L190.273 28.1332C189.952 28.0993 189.647 28.0655 189.376 28.0146C188.918 27.9469 188.478 27.8961 188.478 27.8791L183.04 27.8791L183.04 30.9281L195.033 30.9281L195.033 28.0655L190.307 25.1858L187.97 24.0509L187.987 23.9662C188.41 24.0171 188.8 24.0679 189.122 24.1187C189.409 24.1695 189.681 24.1695 189.884 24.2203L190.239 24.2711L195.033 24.2711ZM185.903 9.59241L183.024 9.59241L183.024 19.0274L185.903 19.0274L185.903 15.8429L195.033 15.8429L195.033 12.7769L185.903 12.7769L185.903 9.59241Z" fill="white"/>
<defs>
<filter id="filter0_d" x="0.5625" y="10.1436" width="158.354" height="77.4435" filterUnits="userSpaceOnUse" color-interpolation-filters="sRGB">
<feFlood flood-opacity="0" result="BackgroundImageFix"/>
<feColorMatrix in="SourceAlpha" type="matrix" values="0 0 0 0 0 0 0 0 0 0 0 0 0 0 0 0 0 0 127 0"/>
<feOffset dx="2.13424" dy="2.13424"/>
<feColorMatrix type="matrix" values="0 0 0 0 0.439216 0 0 0 0 0.207843 0 0 0 0 0.933333 0 0 0 1 0"/>
<feBlend mode="normal" in2="BackgroundImageFix" result="effect1_dropShadow"/>
<feBlend mode="normal" in="SourceGraphic" in2="effect1_dropShadow" result="shape"/>
</filter>
<filter id="filter1_d" x="216.662" y="10.1436" width="47.344" height="72.6389" filterUnits="userSpaceOnUse" color-interpolation-filters="sRGB">
<feFlood flood-opacity="0" result="BackgroundImageFix"/>
<feColorMatrix in="SourceAlpha" type="matrix" values="0 0 0 0 0 0 0 0 0 0 0 0 0 0 0 0 0 0 127 0"/>
<feOffset dx="2.13424" dy="2.13424"/>
<feColorMatrix type="matrix" values="0 0 0 0 0.439216 0 0 0 0 0.207843 0 0 0 0 0.933333 0 0 0 1 0"/>
<feBlend mode="normal" in2="BackgroundImageFix" result="effect1_dropShadow"/>
<feBlend mode="normal" in="SourceGraphic" in2="effect1_dropShadow" result="shape"/>
</filter>
<filter id="filter2_d" x="174.204" y="0.70752" width="30.3062" height="91.3455" filterUnits="userSpaceOnUse" color-interpolation-filters="sRGB">
<feFlood flood-opacity="0" result="BackgroundImageFix"/>
<feColorMatrix in="SourceAlpha" type="matrix" values="0 0 0 0 0 0 0 0 0 0 0 0 0 0 0 0 0 0 127 0"/>
<feOffset dx="2.13424" dy="2.13424"/>
<feColorMatrix type="matrix" values="0 0 0 0 1 0 0 0 0 1 0 0 0 0 1 0 0 0 1 0"/>
<feBlend mode="normal" in2="BackgroundImageFix" result="effect1_dropShadow"/>
<feBlend mode="normal" in="SourceGraphic" in2="effect1_dropShadow" result="shape"/>
</filter>
</defs>
</svg>
