<svg width="100" height="41" viewBox="0 0 100 41" fill="none" xmlns="http://www.w3.org/2000/svg">
<path d="M51.4402 31.8002H47.6602V34.1202H53.7602V9.2002H51.4402V31.8002Z" fill="#7C66FF"/>
<path d="M58.9902 31.8001V34.1201H75.0902V28.8901H72.7702V31.8001H58.9902Z" fill="#7C66FF"/>
<path d="M40.4998 12.1099V15.1099C40.4998 25.9399 37.5598 30.8399 32.0498 31.8399V34.3999C39.0498 34.3999 42.8198 29.7299 42.8198 17.4599V14.4599H45.3398V12.1099H40.4998Z" fill="#7C66FF"/>
<path d="M11.76 22.52C12.1798 22.5215 12.5972 22.5821 13 22.7C12.7862 21.9279 12.3095 21.2546 11.6523 20.7964C10.995 20.3382 10.1985 20.1237 9.40002 20.19C8.01002 20.19 6.82002 20.54 6.82002 21.69C6.77778 22.6751 7.0277 23.6506 7.53835 24.494C8.04901 25.3373 8.7976 26.0109 9.69002 26.43C9.34033 25.6684 9.16605 24.838 9.18002 24C9.18002 22.86 10.36 22.52 11.76 22.52Z" fill="#D9C7FF"/>
<path d="M17.7296 18.8398C18.6894 20.3303 19.1965 22.0671 19.1896 23.8398C19.2076 24.9564 18.9993 26.065 18.5772 27.0989C18.1552 28.1327 17.5281 29.0704 16.7338 29.8553C15.9395 30.6403 14.9945 31.2562 13.9557 31.666C12.9169 32.0759 11.8059 32.271 10.6896 32.2398C8.70512 32.2419 6.76782 31.6345 5.13965 30.4998C6.03037 31.7536 7.20928 32.775 8.57712 33.4781C9.94497 34.1811 11.4617 34.5453 12.9996 34.5398C14.1167 34.5724 15.2288 34.3782 16.2688 33.9691C17.3087 33.5599 18.255 32.9441 19.0503 32.159C19.8457 31.374 20.4737 30.4358 20.8964 29.4013C21.3191 28.3667 21.5277 27.2573 21.5096 26.1398C21.5355 24.7048 21.2034 23.286 20.5435 22.0115C19.8835 20.737 18.9165 19.6469 17.7296 18.8398Z" fill="#7C66FF"/>
<path d="M62.7598 21.86V26.57H65.0898V24.19H72.6798V18.96H70.3598V21.86H62.7598Z" fill="#7C66FF"/>
<path d="M12.9198 12C11.6923 11.9786 10.4936 12.373 9.51861 13.1192C8.54365 13.8654 7.84978 14.9195 7.5498 16.11H7.6198C8.66593 15.5725 9.82369 15.2882 10.9998 15.28C11.334 15.2803 11.6679 15.3003 11.9998 15.34C12.9224 14.6687 14.0391 14.3176 15.1798 14.34C16.3547 14.3737 17.5136 14.6211 18.5998 15.07L20.2998 9.86C19.4102 9.45586 18.4726 9.16687 17.5098 9L16.3298 12.75C15.2499 12.2895 14.0933 12.0351 12.9198 12V12Z" fill="#7C66FF"/>
<path d="M95.8097 9.2002V12.1102H88.2497V31.8002H84.4697V34.1202H90.5697V14.4302H98.1297V9.2002H95.8097Z" fill="#7C66FF"/>
<path d="M74.5798 9.2002H72.2798V12.1102H62.7598V16.6402H65.0898V14.4302H74.5998V12.1102H74.5798V9.2002Z" fill="#7C66FF"/>
<path d="M82.1502 12.1099H76.9102V14.4299H82.1502V12.1099Z" fill="#7C66FF"/>
<path d="M13.0002 29.0002C13.3492 28.9876 13.6922 28.905 14.0087 28.7574C14.3253 28.6098 14.609 28.4002 14.843 28.141C15.0771 27.8817 15.2567 27.5782 15.3713 27.2482C15.4859 26.9183 15.5331 26.5687 15.5102 26.2202C15.5536 25.4357 15.3288 24.6597 14.8726 24.0199C14.4164 23.3802 13.756 22.9147 13.0002 22.7002C13.1104 23.0737 13.1676 23.4608 13.1702 23.8502C13.1945 24.1995 13.1484 24.5502 13.0344 24.8813C12.9204 25.2124 12.741 25.5172 12.5068 25.7775C12.2726 26.0378 11.9884 26.2483 11.6712 26.3966C11.3539 26.5448 11.0101 26.6276 10.6602 26.6402C10.3168 26.6317 9.97792 26.5605 9.66016 26.4302C9.92253 27.127 10.3742 27.7367 10.9642 28.1907C11.5543 28.6448 12.2594 28.9251 13.0002 29.0002Z" fill="white"/>
<path d="M13.0002 29.0002C13.3492 28.9876 13.6922 28.905 14.0087 28.7574C14.3253 28.6098 14.609 28.4002 14.843 28.141C15.0771 27.8817 15.2567 27.5782 15.3713 27.2482C15.4859 26.9183 15.5331 26.5687 15.5102 26.2202C15.5536 25.4357 15.3288 24.6597 14.8726 24.0199C14.4164 23.3802 13.756 22.9147 13.0002 22.7002C13.1104 23.0737 13.1676 23.4608 13.1702 23.8502C13.1945 24.1995 13.1484 24.5502 13.0344 24.8813C12.9204 25.2124 12.741 25.5172 12.5068 25.7775C12.2726 26.0378 11.9884 26.2483 11.6712 26.3966C11.3539 26.5448 11.0101 26.6276 10.6602 26.6402C10.3168 26.6317 9.97792 26.5605 9.66016 26.4302C9.92253 27.127 10.3742 27.7367 10.9642 28.1907C11.5543 28.6448 12.2594 28.9251 13.0002 29.0002Z" fill="#D9C7FF"/>
<path d="M84.4704 14.4302H82.1504V31.8002H84.4704V14.4302Z" fill="white"/>
<path d="M84.4704 14.4302H82.1504V31.8002H84.4704V14.4302Z" fill="#D9C7FF"/>
<path d="M37 17.3899V9.19988H51.44V6.87988H34.71V15.0699C34.71 23.9899 32.71 26.1499 29.71 26.5399V32.0799C30.4882 32.0836 31.265 32.0132 32.03 31.8699V28.8699C35 28.4799 37 26.3099 37 17.3899Z" fill="white"/>
<path d="M37 17.3899V9.19988H51.44V6.87988H34.71V15.0699C34.71 23.9899 32.71 26.1499 29.71 26.5399V32.0799C30.4882 32.0836 31.265 32.0132 32.03 31.8699V28.8699C35 28.4799 37 26.3099 37 17.3899Z" fill="#D9C7FF"/>
<path d="M9.87012 18.4698H9.94012C10.9952 17.9134 12.1673 17.6152 13.3601 17.5998C14.906 17.5822 16.4239 18.0129 17.7301 18.8398C17.1085 17.8681 16.2761 17.0488 15.2945 16.4429C14.3129 15.837 13.2074 15.46 12.0601 15.3398C11.0209 16.1286 10.255 17.2232 9.87012 18.4698V18.4698Z" fill="white"/>
<path opacity="0.6" d="M9.87012 18.4698H9.94012C10.9952 17.9134 12.1673 17.6152 13.3601 17.5998C14.906 17.5822 16.4239 18.0129 17.7301 18.8398C17.1085 17.8681 16.2761 17.0488 15.2945 16.4429C14.3129 15.837 13.2074 15.46 12.0601 15.3398C11.0209 16.1286 10.255 17.2232 9.87012 18.4698V18.4698Z" fill="white"/>
<path d="M70.3598 16.6401H65.0898V18.9601H70.3598V16.6401Z" fill="white"/>
<path opacity="0.6" d="M70.3598 16.6401H65.0898V18.9601H70.3598V16.6401Z" fill="white"/>
<path d="M14.7901 8.7798C15.7013 8.77626 16.6112 8.84986 17.5101 8.9998L18.0001 7.5398C16.2631 6.79697 14.389 6.42896 12.5001 6.4598C4.73008 6.4598 0.580078 13.5398 0.580078 20.2998C0.580078 25.2998 2.50008 28.6298 5.14008 30.4798C3.58446 28.161 2.80055 25.4103 2.90008 22.6198C2.90008 15.8598 7.05008 8.7798 14.7901 8.7798Z" fill="white"/>
<path d="M14.7901 8.7798C15.7013 8.77626 16.6112 8.84986 17.5101 8.9998L18.0001 7.5398C16.2631 6.79697 14.389 6.42896 12.5001 6.4598C4.73008 6.4598 0.580078 13.5398 0.580078 20.2998C0.580078 25.2998 2.50008 28.6298 5.14008 30.4798C3.58446 28.161 2.80055 25.4103 2.90008 22.6198C2.90008 15.8598 7.05008 8.7798 14.7901 8.7798Z" fill="#D9C7FF"/>
<path d="M95.8101 9.19988V6.87988H74.5801V9.19988H74.6001V12.1099H76.9101V9.19988H95.8101Z" fill="white"/>
<path d="M95.8101 9.19988V6.87988H74.5801V9.19988H74.6001V12.1099H76.9101V9.19988H95.8101Z" fill="#D9C7FF"/>
<path d="M72.2802 9.19988V6.87988H56.6602V31.7999H58.9902V9.19988H72.2802Z" fill="white"/>
<path d="M72.2802 9.19988V6.87988H56.6602V31.7999H58.9902V9.19988H72.2802Z" fill="#D9C7FF"/>
<path d="M72.7698 26.5698H65.0898V28.8898H72.7698V26.5698Z" fill="white"/>
<path opacity="0.6" d="M72.7698 26.5698H65.0898V28.8898H72.7698V26.5698Z" fill="white"/>
<path d="M47.6598 14.4302H45.3398V31.8002H47.6598V14.4302Z" fill="white"/>
<path d="M47.6598 14.4302H45.3398V31.8002H47.6598V14.4302Z" fill="#D9C7FF"/>
<path d="M62.7602 12.1102H72.2802V9.2002H58.9902V31.8002H72.7702V28.8902H65.0902V26.5702H62.7602V21.8602H70.3602V18.9602H65.0902V16.6402H62.7602V12.1102Z" fill="white"/>
<path opacity="0.6" d="M62.7602 12.1102H72.2802V9.2002H58.9902V31.8002H72.7702V28.8902H65.0902V26.5702H62.7602V21.8602H70.3602V18.9602H65.0902V16.6402H62.7602V12.1102Z" fill="white"/>
<path d="M88.2502 12.1102H95.8102V9.2002H76.9102V12.1102H82.1502V14.4302H84.4702V31.8002H88.2502V12.1102Z" fill="white"/>
<path opacity="0.6" d="M88.2502 12.1102H95.8102V9.2002H76.9102V12.1102H82.1502V14.4302H84.4702V31.8002H88.2502V12.1102Z" fill="white"/>
<path d="M19.19 23.8198C19.1969 22.047 18.6898 20.3103 17.73 18.8198C16.4238 17.9929 14.9059 17.5622 13.36 17.5798C12.1673 17.5952 10.9952 17.8933 9.94003 18.4498H9.87003C10.2549 17.2031 11.0208 16.1085 12.06 15.3198C11.7282 15.2801 11.3943 15.26 11.06 15.2598C9.86711 15.274 8.69475 15.5722 7.64003 16.1298H7.55003C7.84616 14.9355 8.53838 13.877 9.51369 13.1268C10.489 12.3767 11.6898 11.9794 12.92 11.9998C14.0923 12.0285 15.2488 12.2761 16.33 12.7298L17.51 8.99977C16.6118 8.84312 15.7018 8.76284 14.79 8.75977C7.05003 8.77977 2.90003 15.8598 2.90003 22.6198C2.8005 25.4103 3.58442 28.161 5.14003 30.4798C6.76821 31.6144 8.7055 32.2218 10.69 32.2198C11.8063 32.251 12.9173 32.0558 13.9561 31.646C14.9949 31.2362 15.9399 30.6202 16.7342 29.8353C17.5285 29.0503 18.1555 28.1127 18.5776 27.0788C18.9997 26.0449 19.208 24.9363 19.19 23.8198ZM6.85003 21.6898C6.85003 20.5398 8.04003 20.1898 9.43003 20.1898C10.2236 20.1307 11.0131 20.3485 11.664 20.8062C12.315 21.2639 12.7871 21.933 13 22.6998C13.7452 22.9165 14.3959 23.3775 14.8475 24.0087C15.2991 24.6398 15.5254 25.4045 15.49 26.1798C15.5186 26.5299 15.4762 26.8821 15.3654 27.2155C15.2546 27.5488 15.0777 27.8563 14.8452 28.1197C14.6127 28.383 14.3294 28.5966 14.0123 28.7479C13.6953 28.8991 13.351 28.9848 13 28.9998C12.2727 28.9193 11.5813 28.6409 11.0012 28.1948C10.4211 27.7488 9.97453 27.1521 9.71003 26.4698C8.81295 26.0466 8.06202 25.3661 7.55274 24.5149C7.04347 23.6638 6.79886 22.6803 6.85003 21.6898V21.6898Z" fill="white"/>
<path opacity="0.6" d="M19.19 23.8198C19.1969 22.047 18.6898 20.3103 17.73 18.8198C16.4238 17.9929 14.9059 17.5622 13.36 17.5798C12.1673 17.5952 10.9952 17.8933 9.94003 18.4498H9.87003C10.2549 17.2031 11.0208 16.1085 12.06 15.3198C11.7282 15.2801 11.3943 15.26 11.06 15.2598C9.86711 15.274 8.69475 15.5722 7.64003 16.1298H7.55003C7.84616 14.9355 8.53838 13.877 9.51369 13.1268C10.489 12.3767 11.6898 11.9794 12.92 11.9998C14.0923 12.0285 15.2488 12.2761 16.33 12.7298L17.51 8.99977C16.6118 8.84312 15.7018 8.76284 14.79 8.75977C7.05003 8.77977 2.90003 15.8598 2.90003 22.6198C2.8005 25.4103 3.58442 28.161 5.14003 30.4798C6.76821 31.6144 8.7055 32.2218 10.69 32.2198C11.8063 32.251 12.9173 32.0558 13.9561 31.646C14.9949 31.2362 15.9399 30.6202 16.7342 29.8353C17.5285 29.0503 18.1555 28.1127 18.5776 27.0788C18.9997 26.0449 19.208 24.9363 19.19 23.8198ZM6.85003 21.6898C6.85003 20.5398 8.04003 20.1898 9.43003 20.1898C10.2236 20.1307 11.0131 20.3485 11.664 20.8062C12.315 21.2639 12.7871 21.933 13 22.6998C13.7452 22.9165 14.3959 23.3775 14.8475 24.0087C15.2991 24.6398 15.5254 25.4045 15.49 26.1798C15.5186 26.5299 15.4762 26.8821 15.3654 27.2155C15.2546 27.5488 15.0777 27.8563 14.8452 28.1197C14.6127 28.383 14.3294 28.5966 14.0123 28.7479C13.6953 28.8991 13.351 28.9848 13 28.9998C12.2727 28.9193 11.5813 28.6409 11.0012 28.1948C10.4211 27.7488 9.97453 27.1521 9.71003 26.4698C8.81295 26.0466 8.06202 25.3661 7.55274 24.5149C7.04347 23.6638 6.79886 22.6803 6.85003 21.6898V21.6898Z" fill="white"/>
<path d="M51.44 9.2002H37V17.3902C37 26.3102 35 28.4802 32 28.8602V31.8602C37.51 30.8602 40.45 25.9602 40.45 15.1302V12.1302H45.29V14.4502H47.61V31.8002H51.39L51.44 9.2002Z" fill="white"/>
<path opacity="0.6" d="M51.44 9.2002H37V17.3902C37 26.3102 35 28.4802 32 28.8602V31.8602C37.51 30.8602 40.45 25.9602 40.45 15.1302V12.1302H45.29V14.4502H47.61V31.8002H51.39L51.44 9.2002Z" fill="white"/>
<path d="M74.6001 9.2002H74.5801V12.1002H74.6001V9.2002Z" fill="white"/>
<path opacity="0.6" d="M74.6001 9.2002H74.5801V12.1002H74.6001V9.2002Z" fill="white"/>
</svg>
