<svg width="131" height="42" viewBox="0 0 131 42" fill="none" xmlns="http://www.w3.org/2000/svg">
<path d="M73.4901 26.62C73.2123 25.2311 73.0849 23.8162 73.1101 22.4C73.1101 18.4 73.8101 15.15 76.2201 15.15C76.5664 15.1514 76.908 15.23 77.2201 15.38C76.8001 13.48 75.9701 12.25 74.4701 12.25C72.0701 12.25 71.3701 15.45 71.3701 19.5C71.3701 23 71.8701 25.81 73.4901 26.62Z" fill="#7C66FF"/>
<path d="M51.3302 26.62C51.0696 25.2292 50.9589 23.8144 51.0002 22.4C51.0002 18.4 51.6902 15.15 54.1002 15.15C54.4465 15.1514 54.7881 15.23 55.1002 15.38C54.6802 13.48 53.8502 12.25 52.3602 12.25C49.9502 12.25 49.2502 15.45 49.2502 19.5C49.2102 23 49.7202 25.81 51.3302 26.62Z" fill="#7C66FF"/>
<path d="M61.6896 19.5002C61.6896 26.6402 59.3896 32.4302 52.3196 32.4302C51.1133 32.4939 49.9078 32.2903 48.7893 31.8339C47.6708 31.3775 46.667 30.6796 45.8496 29.7902C46.4183 31.488 47.5308 32.951 49.0151 33.9525C50.4993 34.9541 52.2723 35.4383 54.0596 35.3302C61.1296 35.3302 63.4296 29.5402 63.4296 22.4002C63.4296 18.2102 62.6296 14.5302 60.5496 12.2002C61.3692 14.5442 61.7555 17.0179 61.6896 19.5002V19.5002Z" fill="#7C66FF"/>
<path d="M40 23.5402C40 28.7002 36.2 32.4302 30.76 32.4302C28.6655 32.4241 26.6048 31.902 24.76 30.9102L24 32.0502C26.3107 34.1886 29.3518 35.3622 32.5 35.3302C37.94 35.3302 41.74 31.6002 41.74 26.4402C41.7686 25.3897 41.5899 24.3438 41.2141 23.3623C40.8383 22.3809 40.2729 21.4831 39.55 20.7202C39.8491 21.6303 40.001 22.5823 40 23.5402V23.5402Z" fill="#7C66FF"/>
<path d="M9.81035 12.42C9.01405 12.494 8.25175 12.7784 7.60157 13.2441C6.9514 13.7098 6.43674 14.3399 6.11035 15.07L4.11035 13.71C3.83428 14.1036 3.58377 14.5144 3.36035 14.94L7.89035 17.94C8.2193 17.2118 8.73465 16.5832 9.38432 16.1179C10.034 15.6526 10.795 15.367 11.5904 15.29C11.8775 15.2956 12.1629 15.3359 12.4404 15.41C12.4959 15.2318 12.5262 15.0467 12.5304 14.86C12.5295 14.5156 12.4563 14.1751 12.3155 13.8608C12.1747 13.5464 11.9694 13.2651 11.713 13.0351C11.4566 12.8051 11.1548 12.6315 10.827 12.5255C10.4992 12.4196 10.1529 12.3836 9.81035 12.42V12.42Z" fill="#7C66FF"/>
<path d="M8.48047 26.78H13.0005C16.0805 24.78 20.6005 22.41 20.6005 17.21C20.6295 16.2463 20.4608 15.2868 20.1048 14.3907C19.7488 13.4947 19.213 12.681 18.5305 12C18.7581 12.7556 18.8727 13.5408 18.8705 14.33C18.8705 22.07 8.79047 23.57 8.48047 26.78Z" fill="#7C66FF"/>
<path d="M19.2497 32.0002H3.46973C3.46973 32.0702 3.46973 32.1402 3.46973 32.2202C3.48539 33.1199 3.57907 34.0166 3.74973 34.9002H20.9997V29.6802H19.2497V32.0002Z" fill="#7C66FF"/>
<path d="M29.4499 12.32L29.3099 14.62C29.2869 14.9562 29.2401 15.2904 29.1699 15.62H29.2399C29.8337 15.4797 30.4401 15.3993 31.0499 15.38H31.1899V15.25H39.8399V10H38.0899V12.33L29.4499 12.32Z" fill="#7C66FF"/>
<path d="M83.85 19.5002C83.85 26.6402 81.55 32.4302 74.47 32.4302C73.2637 32.4939 72.0582 32.2903 70.9397 31.8339C69.8212 31.3775 68.8174 30.6796 68 29.7902C68.5686 31.488 69.6812 32.951 71.1655 33.9525C72.6497 34.9541 74.4227 35.4383 76.21 35.3302C83.28 35.3302 85.58 29.5402 85.58 22.4002C85.58 18.2102 84.78 14.5302 82.69 12.2002C83.5215 14.5417 83.9147 17.0163 83.85 19.5002Z" fill="#7C66FF"/>
<path d="M29.7299 20.5098C28.5644 20.5262 27.4182 20.8102 26.3799 21.3398L25.0499 20.8398L24.8799 22.9998L28.1299 24.2198C29.1618 23.6813 30.306 23.3936 31.4699 23.3798C32.2272 23.3677 32.9781 23.5213 33.6699 23.8298C33.6748 23.7465 33.6748 23.663 33.6699 23.5798C33.6999 21.6598 31.9999 20.5098 29.7299 20.5098Z" fill="#7C66FF"/>
<path d="M115.79 24.27H110.39V27.17H115.79V24.27Z" fill="#D9C7FF"/>
<path d="M95.6395 26.62C95.3704 25.2299 95.2464 23.8157 95.2695 22.4C95.2695 18.4 95.9695 15.15 98.3695 15.15C98.7158 15.1517 99.0573 15.2303 99.3695 15.38C98.9495 13.48 98.1095 12.25 96.6195 12.25C94.2195 12.25 93.5195 15.45 93.5195 19.5C93.5295 23 93.9995 25.81 95.6395 26.62Z" fill="#7C66FF"/>
<path d="M127.68 22.6401V24.2701H120.53V32.0101H117.53V34.9101H122.28V27.1801H129.42V22.6401H127.68Z" fill="#7C66FF"/>
<path d="M106 19.5002C106 26.6402 103.7 32.4302 96.6202 32.4302C95.4155 32.4924 94.2119 32.288 93.0953 31.8317C91.9787 31.3754 90.9765 30.6783 90.1602 29.7902C90.7254 31.4882 91.8358 32.9518 93.3187 33.9537C94.8016 34.9555 96.5739 35.4394 98.3602 35.3302C105.44 35.3302 107.74 29.5402 107.74 22.4002C107.74 18.2102 106.94 14.5302 104.85 12.2002C105.678 14.5423 106.068 17.0169 106 19.5002V19.5002Z" fill="#7C66FF"/>
<path d="M122.27 14.8701H120.53V19.7401H122.27V14.8701Z" fill="#7C66FF"/>
<path d="M117.53 22.6402V14.8702H120.53V11.9702H115.79V19.7402H108.65V24.2702H110.39V22.6402H117.53Z" fill="white"/>
<path d="M117.53 22.6402V14.8702H120.53V11.9702H115.79V19.7402H108.65V24.2702H110.39V22.6402H117.53Z" fill="#D9C7FF"/>
<path d="M32.0003 29.5799C32.4326 29.6152 32.8677 29.5632 33.2795 29.4268C33.6913 29.2903 34.0714 29.0724 34.3971 28.7858C34.7228 28.4993 34.9875 28.1501 35.1753 27.7591C35.3631 27.3681 35.4702 26.9432 35.4903 26.5099C35.4933 25.9406 35.3252 25.3836 35.0078 24.9111C34.6904 24.4386 34.2384 24.0723 33.7103 23.8599C33.6005 24.68 33.1829 25.4276 32.5423 25.9513C31.9016 26.4749 31.0858 26.7354 30.2603 26.6799C28.3608 26.5589 26.5668 25.7647 25.2003 24.4399L22.2803 29.1499C23.015 29.8429 23.8389 30.4348 24.7303 30.9099L26.9503 27.3499C28.3157 28.6688 30.1057 29.4593 32.0003 29.5799Z" fill="white"/>
<path d="M32.0003 29.5799C32.4326 29.6152 32.8677 29.5632 33.2795 29.4268C33.6913 29.2903 34.0714 29.0724 34.3971 28.7858C34.7228 28.4993 34.9875 28.1501 35.1753 27.7591C35.3631 27.3681 35.4702 26.9432 35.4903 26.5099C35.4933 25.9406 35.3252 25.3836 35.0078 24.9111C34.6904 24.4386 34.2384 24.0723 33.7103 23.8599C33.6005 24.68 33.1829 25.4276 32.5423 25.9513C31.9016 26.4749 31.0858 26.7354 30.2603 26.6799C28.3608 26.5589 26.5668 25.7647 25.2003 24.4399L22.2803 29.1499C23.015 29.8429 23.8389 30.4348 24.7303 30.9099L26.9503 27.3499C28.3157 28.6688 30.1057 29.4593 32.0003 29.5799Z" fill="#D9C7FF"/>
<path d="M12.1101 9.5701C14.4833 9.52254 16.7832 10.3931 18.5301 12.0001C17.4301 8.3501 13.7801 6.7001 10.3601 6.7001C8.54383 6.65581 6.7527 7.13105 5.19732 8.06995C3.64194 9.00884 2.387 10.3723 1.58008 12.0001L4.07008 13.6701C4.96129 12.3697 6.16397 11.3132 7.56837 10.5971C8.97278 9.88087 10.5342 9.52782 12.1101 9.5701V9.5701Z" fill="white"/>
<path d="M12.1101 9.5701C14.4833 9.52254 16.7832 10.3931 18.5301 12.0001C17.4301 8.3501 13.7801 6.7001 10.3601 6.7001C8.54383 6.65581 6.7527 7.13105 5.19732 8.06995C3.64194 9.00884 2.387 10.3723 1.58008 12.0001L4.07008 13.6701C4.96129 12.3697 6.16397 11.3132 7.56837 10.5971C8.97278 9.88087 10.5342 9.52782 12.1101 9.5701V9.5701Z" fill="#D9C7FF"/>
<path d="M38.0896 9.98984V7.08984H24.1496L23.1396 20.1198L25.0496 20.8398L25.8996 9.98984H38.0896Z" fill="white"/>
<path d="M38.0896 9.98984V7.08984H24.1496L23.1396 20.1198L25.0496 20.8398L25.8996 9.98984H38.0896Z" fill="#D9C7FF"/>
<path d="M117.53 27.1699H115.79V31.9999H117.53V27.1699Z" fill="white"/>
<path d="M117.53 27.1699H115.79V31.9999H117.53V27.1699Z" fill="#D9C7FF"/>
<path d="M30.9102 18.5001H31.0002C31.5959 18.3506 32.2062 18.2668 32.8202 18.2501C34.0508 18.1841 35.282 18.369 36.4389 18.7936C37.5959 19.2182 38.6544 19.8737 39.5502 20.7201C38.5502 17.6301 35.7502 15.4001 31.2102 15.3501L31.0702 17.5201C31.0397 17.8501 30.9862 18.1775 30.9102 18.5001V18.5001Z" fill="white"/>
<path d="M30.9102 18.5001H31.0002C31.5959 18.3506 32.2062 18.2668 32.8202 18.2501C34.0508 18.1841 35.282 18.369 36.4389 18.7936C37.5959 19.2182 38.6544 19.8737 39.5502 20.7201C38.5502 17.6301 35.7502 15.4001 31.2102 15.3501L31.0702 17.5201C31.0397 17.8501 30.9862 18.1775 30.9102 18.5001V18.5001Z" fill="#D9C7FF"/>
<path d="M98.3698 9.57005C99.5785 9.5028 100.787 9.70372 101.909 10.1584C103.031 10.6131 104.039 11.3103 104.86 12.2C104.291 10.4987 103.176 9.03344 101.687 8.03301C100.198 7.03259 98.4197 6.55333 96.6298 6.67005C89.5598 6.67005 87.2598 12.35 87.2598 19.5C87.2598 23.71 88.0598 27.43 90.1698 29.79C89.3262 27.4203 88.9294 24.9145 88.9998 22.4C88.9998 15.25 91.2998 9.57005 98.3698 9.57005Z" fill="white"/>
<path d="M98.3698 9.57005C99.5785 9.5028 100.787 9.70372 101.909 10.1584C103.031 10.6131 104.039 11.3103 104.86 12.2C104.291 10.4987 103.176 9.03344 101.687 8.03301C100.198 7.03259 98.4197 6.55333 96.6298 6.67005C89.5598 6.67005 87.2598 12.35 87.2598 19.5C87.2598 23.71 88.0598 27.43 90.1698 29.79C89.3262 27.4203 88.9294 24.9145 88.9998 22.4C88.9998 15.25 91.2998 9.57005 98.3698 9.57005Z" fill="#D9C7FF"/>
<path d="M54.0604 9.57006C55.269 9.50421 56.4773 9.70577 57.5991 10.1604C58.7209 10.615 59.7286 11.3114 60.5504 12.2001C59.9806 10.4997 58.8646 9.03538 57.376 8.0352C55.8875 7.03502 54.1101 6.55506 52.3204 6.67006C45.2404 6.67006 42.9404 12.3501 42.9404 19.5001C42.9404 23.7101 43.7504 27.4301 45.8504 29.7901C45.0115 27.4191 44.6149 24.9142 44.6804 22.4001C44.6804 15.2501 47.0004 9.57006 54.0604 9.57006Z" fill="white"/>
<path d="M54.0604 9.57006C55.269 9.50421 56.4773 9.70577 57.5991 10.1604C58.7209 10.615 59.7286 11.3114 60.5504 12.2001C59.9806 10.4997 58.8646 9.03538 57.376 8.0352C55.8875 7.03502 54.1101 6.55506 52.3204 6.67006C45.2404 6.67006 42.9404 12.3501 42.9404 19.5001C42.9404 23.7101 43.7504 27.4301 45.8504 29.7901C45.0115 27.4191 44.6149 24.9142 44.6804 22.4001C44.6804 15.2501 47.0004 9.57006 54.0604 9.57006Z" fill="#D9C7FF"/>
<path d="M76.2196 9.57004C77.4269 9.5029 78.6341 9.7039 79.7544 10.1586C80.8748 10.6133 81.8806 11.3105 82.6996 12.2C82.1327 10.4977 81.0174 9.03149 79.5282 8.03083C78.0389 7.03016 76.2599 6.55159 74.4696 6.67004C67.3996 6.67004 65.0996 12.35 65.0996 19.5C65.0996 23.71 65.9096 27.43 68.0096 29.79C67.1707 27.4191 66.7741 24.9142 66.8396 22.4C66.8396 15.25 69.1396 9.57004 76.2196 9.57004Z" fill="white"/>
<path d="M76.2196 9.57004C77.4269 9.5029 78.6341 9.7039 79.7544 10.1586C80.8748 10.6133 81.8806 11.3105 82.6996 12.2C82.1327 10.4977 81.0174 9.03149 79.5282 8.03083C78.0389 7.03016 76.2599 6.55159 74.4696 6.67004C67.3996 6.67004 65.0996 12.35 65.0996 19.5C65.0996 23.71 65.9096 27.43 68.0096 29.79C67.1707 27.4191 66.7741 24.9142 66.8396 22.4C66.8396 15.25 69.1396 9.57004 76.2196 9.57004Z" fill="#D9C7FF"/>
<path d="M96.6299 26.8499C96.2834 26.8499 95.9415 26.7712 95.6299 26.6199C96.0599 28.5199 96.8899 29.7499 98.3599 29.7499C100.77 29.7499 101.47 26.4799 101.47 22.3999C101.47 18.9899 100.96 16.1799 99.3699 15.3999C99.6265 16.7577 99.7438 18.1382 99.7199 19.5199C99.7299 23.5699 98.9999 26.8499 96.6299 26.8499Z" fill="white"/>
<path d="M96.6299 26.8499C96.2834 26.8499 95.9415 26.7712 95.6299 26.6199C96.0599 28.5199 96.8899 29.7499 98.3599 29.7499C100.77 29.7499 101.47 26.4799 101.47 22.3999C101.47 18.9899 100.96 16.1799 99.3699 15.3999C99.6265 16.7577 99.7438 18.1382 99.7199 19.5199C99.7299 23.5699 98.9999 26.8499 96.6299 26.8499Z" fill="#D9C7FF"/>
<path d="M10.2197 29.6798H19.2197V26.7798H12.9997C11.4997 27.7498 10.3297 28.6298 10.2197 29.6798Z" fill="white"/>
<path d="M10.2197 29.6798H19.2197V26.7798H12.9997C11.4997 27.7498 10.3297 28.6298 10.2197 29.6798Z" fill="#D9C7FF"/>
<path d="M74.4697 26.8499C74.123 26.8528 73.7804 26.774 73.4697 26.6199C73.8897 28.5199 74.7197 29.7499 76.1997 29.7499C78.5997 29.7499 79.2997 26.4799 79.2997 22.3999C79.2997 18.9899 78.7997 16.1799 77.1997 15.3999C77.4563 16.7577 77.5736 18.1382 77.5497 19.5199C77.5697 23.5699 76.8797 26.8499 74.4697 26.8499Z" fill="white"/>
<path d="M74.4697 26.8499C74.123 26.8528 73.7804 26.774 73.4697 26.6199C73.8897 28.5199 74.7197 29.7499 76.1997 29.7499C78.5997 29.7499 79.2997 26.4799 79.2997 22.3999C79.2997 18.9899 78.7997 16.1799 77.1997 15.3999C77.4563 16.7577 77.5736 18.1382 77.5497 19.5199C77.5697 23.5699 76.8797 26.8499 74.4697 26.8499Z" fill="#D9C7FF"/>
<path d="M52.3203 26.8499C51.9738 26.8509 51.6316 26.7722 51.3203 26.6199C51.7403 28.5199 52.5703 29.7499 54.0503 29.7499C56.4503 29.7499 57.1503 26.4799 57.1503 22.3999C57.1503 18.9899 56.6503 16.1799 55.0503 15.3999C55.3156 16.7567 55.4362 18.1377 55.4103 19.5199C55.4203 23.5699 54.7203 26.8499 52.3203 26.8499Z" fill="white"/>
<path d="M52.3203 26.8499C51.9738 26.8509 51.6316 26.7722 51.3203 26.6199C51.7403 28.5199 52.5703 29.7499 54.0503 29.7499C56.4503 29.7499 57.1503 26.4799 57.1503 22.3999C57.1503 18.9899 56.6503 16.1799 55.0503 15.3999C55.3156 16.7567 55.4362 18.1377 55.4103 19.5199C55.4203 23.5699 54.7203 26.8499 52.3203 26.8499Z" fill="#D9C7FF"/>
<path d="M14.2297 17.7999C14.2514 17.2541 14.0797 16.7181 13.7449 16.2863C13.4102 15.8546 12.9338 15.5549 12.3997 15.4399C11.3997 18.6799 1.71973 20.5999 1.71973 29.3199C1.73148 30.2199 1.8252 31.117 1.99973 31.9999H3.46973C3.63973 22.9999 14.2297 21.3599 14.2297 17.7999Z" fill="white"/>
<path opacity="0.6" d="M14.2297 17.7999C14.2514 17.2541 14.0797 16.7181 13.7449 16.2863C13.4102 15.8546 12.9338 15.5549 12.3997 15.4399C11.3997 18.6799 1.71973 20.5999 1.71973 29.3199C1.73148 30.2199 1.8252 31.117 1.99973 31.9999H3.46973C3.63973 22.9999 14.2297 21.3599 14.2297 17.7999Z" fill="white"/>
<path d="M127.67 19.7402H122.27V22.6402H127.67V19.7402Z" fill="white"/>
<path d="M127.67 19.7402H122.27V22.6402H127.67V19.7402Z" fill="#D9C7FF"/>
<path d="M120.53 24.2701H127.68V22.6401H122.28V19.7401H120.53V14.8701H117.53V22.6401H110.39V24.2701H115.79V27.1801H117.53V32.0101H120.53V24.2701Z" fill="white"/>
<path opacity="0.6" d="M120.53 24.2701H127.68V22.6401H122.28V19.7401H120.53V14.8701H117.53V22.6401H110.39V24.2701H115.79V27.1801H117.53V32.0101H120.53V24.2701Z" fill="white"/>
<path d="M52.3198 32.4298C59.3898 32.4298 61.6898 26.6398 61.6898 19.4998C61.7557 17.0175 61.3695 14.5438 60.5498 12.1998C59.728 11.3111 58.7203 10.6147 57.5985 10.1601C56.4767 9.70552 55.2684 9.50396 54.0598 9.5698C46.9798 9.5698 44.6798 15.2498 44.6798 22.3998C44.6143 24.914 45.0109 27.4188 45.8498 29.7898C46.6672 30.6793 47.6711 31.3771 48.7895 31.8335C49.908 32.2899 51.1135 32.4935 52.3198 32.4298V32.4298ZM52.3198 12.2498C53.8098 12.2498 54.6398 13.4798 55.0598 15.3798C56.6598 16.1798 57.1598 18.9898 57.1598 22.3798C57.1598 26.4598 56.4598 29.7298 54.0598 29.7298C52.5798 29.7298 51.7498 28.4998 51.3298 26.5998C49.7198 25.7898 49.2098 22.9298 49.2098 19.4798C49.2098 15.4498 49.9098 12.2498 52.3198 12.2498Z" fill="white"/>
<path opacity="0.6" d="M52.3198 32.4298C59.3898 32.4298 61.6898 26.6398 61.6898 19.4998C61.7557 17.0175 61.3695 14.5438 60.5498 12.1998C59.728 11.3111 58.7203 10.6147 57.5985 10.1601C56.4767 9.70552 55.2684 9.50396 54.0598 9.5698C46.9798 9.5698 44.6798 15.2498 44.6798 22.3998C44.6143 24.914 45.0109 27.4188 45.8498 29.7898C46.6672 30.6793 47.6711 31.3771 48.7895 31.8335C49.908 32.2899 51.1135 32.4935 52.3198 32.4298V32.4298ZM52.3198 12.2498C53.8098 12.2498 54.6398 13.4798 55.0598 15.3798C56.6598 16.1798 57.1598 18.9898 57.1598 22.3798C57.1598 26.4598 56.4598 29.7298 54.0598 29.7298C52.5798 29.7298 51.7498 28.4998 51.3298 26.5998C49.7198 25.7898 49.2098 22.9298 49.2098 19.4798C49.2098 15.4498 49.9098 12.2498 52.3198 12.2498Z" fill="white"/>
<path d="M96.6301 32.4298C103.71 32.4298 106.01 26.6398 106.01 19.4998C106.078 17.0165 105.688 14.5419 104.86 12.1998C104.039 11.31 103.032 10.6128 101.91 10.1582C100.788 9.70348 99.5789 9.50256 98.3701 9.5698C91.3001 9.5698 89.0001 15.2498 89.0001 22.3998C88.9298 24.9143 89.3265 27.42 90.1701 29.7898C90.9864 30.6779 91.9886 31.375 93.1053 31.8313C94.2219 32.2877 95.4255 32.492 96.6301 32.4298V32.4298ZM96.6301 12.2498C98.1201 12.2498 98.9601 13.4798 99.3801 15.3798C100.97 16.1798 101.48 18.9898 101.48 22.3798C101.48 26.4598 100.78 29.7298 98.3701 29.7298C96.9001 29.7298 96.0701 28.4998 95.6401 26.5998C94.0001 25.8098 93.5301 22.9998 93.5301 19.4998C93.5301 15.4498 94.2301 12.2498 96.6301 12.2498Z" fill="white"/>
<path opacity="0.6" d="M96.6301 32.4298C103.71 32.4298 106.01 26.6398 106.01 19.4998C106.078 17.0165 105.688 14.5419 104.86 12.1998C104.039 11.31 103.032 10.6128 101.91 10.1582C100.788 9.70348 99.5789 9.50256 98.3701 9.5698C91.3001 9.5698 89.0001 15.2498 89.0001 22.3998C88.9298 24.9143 89.3265 27.42 90.1701 29.7898C90.9864 30.6779 91.9886 31.375 93.1053 31.8313C94.2219 32.2877 95.4255 32.492 96.6301 32.4298V32.4298ZM96.6301 12.2498C98.1201 12.2498 98.9601 13.4798 99.3801 15.3798C100.97 16.1798 101.48 18.9898 101.48 22.3798C101.48 26.4598 100.78 29.7298 98.3701 29.7298C96.9001 29.7298 96.0701 28.4998 95.6401 26.5998C94.0001 25.8098 93.5301 22.9998 93.5301 19.4998C93.5301 15.4498 94.2301 12.2498 96.6301 12.2498Z" fill="white"/>
<path d="M19.2497 29.6802H10.2497C10.3597 28.6302 11.5297 27.7502 13.0397 26.7802H8.47973C8.78973 23.5702 18.8697 22.0702 18.8697 14.3002C18.869 13.5211 18.7545 12.7462 18.5297 12.0002C16.7782 10.4041 14.4788 9.54448 12.1097 9.60021C10.5369 9.56905 8.98122 9.93144 7.58408 10.6545C6.18694 11.3775 4.99264 12.4382 4.10973 13.7402L6.10973 15.1002C6.43612 14.3701 6.95078 13.7399 7.60095 13.2743C8.25112 12.8086 9.01343 12.5242 9.80973 12.4502C10.1516 12.4195 10.4962 12.4607 10.8212 12.5711C11.1462 12.6815 11.4446 12.8588 11.697 13.0914C11.9494 13.3241 12.1503 13.607 12.2869 13.9219C12.4234 14.2369 12.4925 14.5769 12.4897 14.9202C12.4855 15.1068 12.4552 15.292 12.3997 15.4702C12.9338 15.5852 13.4102 15.8849 13.7449 16.3166C14.0797 16.7483 14.2514 17.2843 14.2297 17.8302C14.2297 21.3602 3.63973 23.0002 3.46973 32.0002H19.2497V29.6802Z" fill="white"/>
<path opacity="0.6" d="M19.2497 29.6802H10.2497C10.3597 28.6302 11.5297 27.7502 13.0397 26.7802H8.47973C8.78973 23.5702 18.8697 22.0702 18.8697 14.3002C18.869 13.5211 18.7545 12.7462 18.5297 12.0002C16.7782 10.4041 14.4788 9.54448 12.1097 9.60021C10.5369 9.56905 8.98122 9.93144 7.58408 10.6545C6.18694 11.3775 4.99264 12.4382 4.10973 13.7402L6.10973 15.1002C6.43612 14.3701 6.95078 13.7399 7.60095 13.2743C8.25112 12.8086 9.01343 12.5242 9.80973 12.4502C10.1516 12.4195 10.4962 12.4607 10.8212 12.5711C11.1462 12.6815 11.4446 12.8588 11.697 13.0914C11.9494 13.3241 12.1503 13.607 12.2869 13.9219C12.4234 14.2369 12.4925 14.5769 12.4897 14.9202C12.4855 15.1068 12.4552 15.292 12.3997 15.4702C12.9338 15.5852 13.4102 15.8849 13.7449 16.3166C14.0797 16.7483 14.2514 17.2843 14.2297 17.8302C14.2297 21.3602 3.63973 23.0002 3.46973 32.0002H19.2497V29.6802Z" fill="white"/>
<path d="M74.4697 32.4298C81.5497 32.4298 83.8497 26.6398 83.8497 19.4998C83.9176 17.0165 83.5278 14.5419 82.6997 12.1998C81.8807 11.3102 80.8749 10.6131 79.7545 10.1583C78.6342 9.70363 77.427 9.50262 76.2197 9.56977C69.1397 9.56977 66.8397 15.2498 66.8397 22.3998C66.771 24.9133 67.1642 27.4182 67.9997 29.7898C68.8171 30.6792 69.8209 31.3771 70.9394 31.8335C72.0579 32.2898 73.2634 32.4935 74.4697 32.4298V32.4298ZM74.4697 12.2498C75.9697 12.2498 76.7997 13.4798 77.2197 15.3798C78.8197 16.1798 79.3197 18.9898 79.3197 22.3798C79.3197 26.4598 78.6197 29.7298 76.2197 29.7298C74.7397 29.7298 73.9097 28.4998 73.4897 26.5998C71.8697 25.7898 71.3697 22.9298 71.3697 19.4798C71.3697 15.4498 72.0697 12.2498 74.4697 12.2498Z" fill="white"/>
<path opacity="0.6" d="M74.4697 32.4298C81.5497 32.4298 83.8497 26.6398 83.8497 19.4998C83.9176 17.0165 83.5278 14.5419 82.6997 12.1998C81.8807 11.3102 80.8749 10.6131 79.7545 10.1583C78.6342 9.70363 77.427 9.50262 76.2197 9.56977C69.1397 9.56977 66.8397 15.2498 66.8397 22.3998C66.771 24.9133 67.1642 27.4182 67.9997 29.7898C68.8171 30.6792 69.8209 31.3771 70.9394 31.8335C72.0579 32.2898 73.2634 32.4935 74.4697 32.4298V32.4298ZM74.4697 12.2498C75.9697 12.2498 76.7997 13.4798 77.2197 15.3798C78.8197 16.1798 79.3197 18.9898 79.3197 22.3798C79.3197 26.4598 78.6197 29.7298 76.2197 29.7298C74.7397 29.7298 73.9097 28.4998 73.4897 26.5998C71.8697 25.7898 71.3697 22.9298 71.3697 19.4798C71.3697 15.4498 72.0697 12.2498 74.4697 12.2498Z" fill="white"/>
<path d="M40.0005 23.54C40.0015 22.582 39.8496 21.6301 39.5505 20.72C38.6547 19.8736 37.5962 19.2181 36.4393 18.7935C35.2823 18.3689 34.0511 18.184 32.8205 18.25C32.2065 18.2667 31.5962 18.3505 31.0005 18.5H30.9305C31.0007 18.1704 31.0475 17.8362 31.0705 17.5L31.2105 15.33H31.0705C30.4606 15.3493 29.8543 15.4297 29.2605 15.57H29.1905C29.2607 15.2404 29.3075 14.9062 29.3305 14.57L29.4705 12.27H38.1105V10H25.9005L25.0505 20.85L26.3805 21.35C27.4188 20.8204 28.565 20.5365 29.7305 20.52C31.9905 20.52 33.7305 21.67 33.7305 23.62C33.7354 23.7033 33.7354 23.7867 33.7305 23.87C34.2586 24.0825 34.7106 24.4487 35.028 24.9212C35.3454 25.3938 35.5135 25.9508 35.5105 26.52C35.4893 26.9543 35.3806 27.3799 35.1909 27.7712C35.0013 28.1625 34.7346 28.5114 34.4069 28.7972C34.0791 29.0829 33.697 29.2995 33.2835 29.4341C32.87 29.5686 32.4336 29.6182 32.0005 29.58C30.1059 29.4594 28.3159 28.669 26.9505 27.35L24.7305 30.91C26.5753 31.9018 28.636 32.4238 30.7305 32.43C36.1805 32.43 40.0005 28.7 40.0005 23.54Z" fill="white"/>
<path opacity="0.6" d="M40.0005 23.54C40.0015 22.582 39.8496 21.6301 39.5505 20.72C38.6547 19.8736 37.5962 19.2181 36.4393 18.7935C35.2823 18.3689 34.0511 18.184 32.8205 18.25C32.2065 18.2667 31.5962 18.3505 31.0005 18.5H30.9305C31.0007 18.1704 31.0475 17.8362 31.0705 17.5L31.2105 15.33H31.0705C30.4606 15.3493 29.8543 15.4297 29.2605 15.57H29.1905C29.2607 15.2404 29.3075 14.9062 29.3305 14.57L29.4705 12.27H38.1105V10H25.9005L25.0505 20.85L26.3805 21.35C27.4188 20.8204 28.565 20.5365 29.7305 20.52C31.9905 20.52 33.7305 21.67 33.7305 23.62C33.7354 23.7033 33.7354 23.7867 33.7305 23.87C34.2586 24.0825 34.7106 24.4487 35.028 24.9212C35.3454 25.3938 35.5135 25.9508 35.5105 26.52C35.4893 26.9543 35.3806 27.3799 35.1909 27.7712C35.0013 28.1625 34.7346 28.5114 34.4069 28.7972C34.0791 29.0829 33.697 29.2995 33.2835 29.4341C32.87 29.5686 32.4336 29.6182 32.0005 29.58C30.1059 29.4594 28.3159 28.669 26.9505 27.35L24.7305 30.91C26.5753 31.9018 28.636 32.4238 30.7305 32.43C36.1805 32.43 40.0005 28.7 40.0005 23.54Z" fill="white"/>
</svg>
