<svg width="64" height="29" viewBox="0 0 64 29" fill="none" xmlns="http://www.w3.org/2000/svg">
<path d="M32.3496 10.25C33.3344 10.4596 34.2708 10.8531 35.1096 11.41L39.7196 6.09004V2.29004H37.3996V4.43004L32.3496 10.25Z" fill="#7C66FF"/>
<path d="M30 5.75018V5.68018C29.2179 5.81846 28.424 5.87875 27.63 5.86018H24V7.52018H28.32C29.29 6.42018 30 5.75018 30 5.75018Z" fill="#7C66FF"/>
<path d="M7.12988 20.3201H10.5099C13.1699 18.0001 19.8399 15.8301 19.8399 9.51006C19.8951 8.09781 19.5215 6.70192 18.7683 5.50603C18.015 4.31015 16.9174 3.37027 15.6199 2.81006C16.8809 4.1646 17.5596 5.9601 17.5099 7.81006C17.5099 15.6101 7.43988 17.1101 7.12988 20.3201Z" fill="#7C66FF"/>
<path d="M27.61 15H27.46L28.19 16.66H29.93C30.6498 16.6536 31.3679 16.7308 32.07 16.89C31.56 15.56 29.85 15 27.61 15Z" fill="#7C66FF"/>
<path d="M8.44984 6.0001C7.65894 6.07003 6.90072 6.34844 6.25249 6.80695C5.60426 7.26545 5.08921 7.88765 4.75984 8.6101L2.58984 7.1601C2.58984 7.1601 2.58984 7.1601 2.58984 7.2401L7.11984 10.2401C7.44593 9.51265 7.95942 8.88488 8.60777 8.42101C9.25612 7.95715 10.0161 7.67385 10.8098 7.6001H10.9998C10.8009 7.0964 10.4462 6.66946 9.98742 6.38162C9.52867 6.09378 8.98994 5.96011 8.44984 6.0001V6.0001Z" fill="#7C66FF"/>
<path d="M17.9 25.55H2.75C2.80267 26.1075 2.88613 26.6617 3 27.21H20.22V22H17.9V25.55Z" fill="#7C66FF"/>
<path d="M36.4304 12.5298C37.7073 13.8541 38.4238 15.6202 38.4304 17.4598C38.4304 21.7098 35.4304 25.9698 29.1904 25.9698C27.1019 25.9748 25.0432 25.4739 23.1904 24.5098C25.4661 26.5699 28.4413 27.6856 31.5104 27.6298C37.7504 27.6298 40.7504 23.3798 40.7504 19.1298C40.7545 17.7278 40.3474 16.3554 39.5796 15.1823C38.8118 14.0093 37.7169 13.0871 36.4304 12.5298V12.5298Z" fill="#7C66FF"/>
<path d="M57.32 2.68994C59.5 5.00994 60.32 8.74994 60.32 13.0399C60.34 20.1799 58 25.9999 51 25.9999C49.6237 26.0236 48.2587 25.7471 47 25.1899C47.8154 26.027 48.8001 26.6803 49.8883 27.1063C50.9765 27.5323 52.143 27.721 53.31 27.6599C60.39 27.6599 62.69 21.8799 62.69 14.7299C62.66 9.14994 61.26 4.48994 57.32 2.68994Z" fill="#7C66FF"/>
<path d="M51.0004 20.38C50.3369 18.5634 50.0478 16.6313 50.1504 14.7C50.1504 10.7 50.8404 7.50004 53.1504 7.46004C52.9973 7.00026 52.7114 6.59619 52.3287 6.29893C51.946 6.00167 51.4837 5.82457 51.0004 5.79004C48.6004 5.79004 47.9004 8.99004 47.9004 13.04C47.9004 17.09 48.6004 20.39 51.0004 20.39V20.38Z" fill="#7C66FF"/>
<path d="M36.4299 12.5302C36.0372 12.1045 35.5939 11.7283 35.1099 11.4102L34.6699 11.9102C35.2784 12.0487 35.869 12.2567 36.4299 12.5302V12.5302Z" fill="white"/>
<path opacity="0.6" d="M36.4299 12.5302C36.0372 12.1045 35.5939 11.7283 35.1099 11.4102L34.6699 11.9102C35.2784 12.0487 35.869 12.2567 36.4299 12.5302V12.5302Z" fill="white"/>
<path d="M13.4601 10.1C13.4655 9.77544 13.4056 9.45313 13.2839 9.15222C13.1622 8.85132 12.9812 8.57797 12.7517 8.34845C12.5221 8.11893 12.2488 7.93793 11.9479 7.81622C11.647 7.69451 11.3247 7.63457 11.0001 7.63998C11.0778 7.8962 11.1182 8.16226 11.1201 8.42999C11.1301 12 0.370117 13.66 0.370117 22.86C0.382604 23.7627 0.472939 24.6627 0.640117 25.55H2.75012C2.75012 25.2 2.69012 24.86 2.69012 24.55C2.69012 15.33 13.4601 13.69 13.4601 10.1Z" fill="white"/>
<path d="M13.4601 10.1C13.4655 9.77544 13.4056 9.45313 13.2839 9.15222C13.1622 8.85132 12.9812 8.57797 12.7517 8.34845C12.5221 8.11893 12.2488 7.93793 11.9479 7.81622C11.647 7.69451 11.3247 7.63457 11.0001 7.63998C11.0778 7.8962 11.1182 8.16226 11.1201 8.42999C11.1301 12 0.370117 13.66 0.370117 22.86C0.382604 23.7627 0.472939 24.6627 0.640117 25.55H2.75012C2.75012 25.2 2.69012 24.86 2.69012 24.55C2.69012 15.33 13.4601 13.69 13.4601 10.1Z" fill="#D9C7FF"/>
<path d="M25.8896 19.6499C27.2579 21.0006 29.0789 21.7952 30.9996 21.8799C33.2696 21.8799 34.5597 20.7699 34.5597 19.4099C34.5597 18.0499 33.5597 17.2399 32.0597 16.8799C32.1698 17.1533 32.2274 17.4451 32.2296 17.7399C32.2296 19.0999 30.9396 20.2099 28.6796 20.2099C26.759 20.1293 24.9357 19.3423 23.5596 17.9999L20.6396 22.7099C21.3736 23.4425 22.217 24.0565 23.1396 24.5299L22.9996 24.3499L25.8896 19.6499Z" fill="white"/>
<path d="M25.8896 19.6499C27.2579 21.0006 29.0789 21.7952 30.9996 21.8799C33.2696 21.8799 34.5597 20.7699 34.5597 19.4099C34.5597 18.0499 33.5597 17.2399 32.0597 16.8799C32.1698 17.1533 32.2274 17.4451 32.2296 17.7399C32.2296 19.0999 30.9396 20.2099 28.6796 20.2099C26.759 20.1293 24.9357 19.3423 23.5596 17.9999L20.6396 22.7099C21.3736 23.4425 22.217 24.0565 23.1396 24.5299L22.9996 24.3499L25.8896 19.6499Z" fill="#D9C7FF"/>
<path d="M51 20.3802C51.1568 20.8568 51.4572 21.2731 51.8601 21.5722C52.2629 21.8712 52.7484 22.0382 53.25 22.0502C55.66 22.0502 56.36 18.7802 56.36 14.7002C56.36 10.6202 55.66 7.4502 53.25 7.4502H53.2C53.8515 9.22496 54.1438 11.1115 54.06 13.0002C54.06 17.0702 53.38 20.3202 51 20.3802Z" fill="white"/>
<path d="M51 20.3802C51.1568 20.8568 51.4572 21.2731 51.8601 21.5722C52.2629 21.8712 52.7484 22.0382 53.25 22.0502C55.66 22.0502 56.36 18.7802 56.36 14.7002C56.36 10.6202 55.66 7.4502 53.25 7.4502H53.2C53.8515 9.22496 54.1438 11.1115 54.06 13.0002C54.06 17.0702 53.38 20.3202 51 20.3802Z" fill="#D9C7FF"/>
<path d="M9.4502 21.9998H17.9002V20.3198H10.5102C9.9577 20.7262 9.57909 21.3262 9.4502 21.9998V21.9998Z" fill="white"/>
<path opacity="0.6" d="M9.4502 21.9998H17.9002V20.3198H10.5102C9.9577 20.7262 9.57909 21.3262 9.4502 21.9998V21.9998Z" fill="white"/>
<path d="M30.1701 9.7501C30.8458 8.93042 31.5705 8.15233 32.3401 7.4201V7.3501C31.5669 7.47811 30.7836 7.53502 30.0001 7.5201H28.3301L27.8501 8.0901L24.5801 12.0001L25.8701 15.0001H27.4601L26.9001 13.7001L30.1701 9.7501Z" fill="white"/>
<path d="M30.1701 9.7501C30.8458 8.93042 31.5705 8.15233 32.3401 7.4201V7.3501C31.5669 7.47811 30.7836 7.53502 30.0001 7.5201H28.3301L27.8501 8.0901L24.5801 12.0001L25.8701 15.0001H27.4601L26.9001 13.7001L30.1701 9.7501Z" fill="#D9C7FF"/>
<path d="M11.3305 1.86992C12.812 1.86545 14.2765 2.18633 15.6205 2.80992C14.7481 1.95428 13.7124 1.28309 12.575 0.836394C11.4376 0.389695 10.222 0.176635 9.00047 0.20992C7.17818 0.172639 5.38342 0.658713 3.829 1.61051C2.27459 2.5623 1.02571 3.93989 0.230469 5.57992L2.59047 7.15992C3.39687 5.54106 4.64638 4.18446 6.19363 3.24797C7.74088 2.31148 9.52225 1.83359 11.3305 1.86992V1.86992Z" fill="white"/>
<path d="M11.3305 1.86992C12.812 1.86545 14.2765 2.18633 15.6205 2.80992C14.7481 1.95428 13.7124 1.28309 12.575 0.836394C11.4376 0.389695 10.222 0.176635 9.00047 0.20992C7.17818 0.172639 5.38342 0.658713 3.829 1.61051C2.27459 2.5623 1.02571 3.93989 0.230469 5.57992L2.59047 7.15992C3.39687 5.54106 4.64638 4.18446 6.19363 3.24797C7.74088 2.31148 9.52225 1.83359 11.3305 1.86992V1.86992Z" fill="#D9C7FF"/>
<path d="M37.3997 2.28988V0.629883H21.6797V5.85988H24.0097V2.28988H37.3997Z" fill="white"/>
<path d="M37.3997 2.28988V0.629883H21.6797V5.85988H24.0097V2.28988H37.3997Z" fill="#D9C7FF"/>
<path d="M53.2798 1.87011C54.6568 1.85124 56.0214 2.131 57.2798 2.69011C56.466 1.85875 55.4862 1.20821 54.4041 0.780905C53.3221 0.353595 52.1621 0.159105 50.9998 0.210111C43.8898 0.210111 41.5898 5.89011 41.5898 13.0001C41.5898 18.5701 42.9998 23.3001 46.9698 25.1201C44.7498 22.8101 43.9098 19.0001 43.9098 14.7001C43.9098 7.56011 46.2098 1.87011 53.2798 1.87011Z" fill="white"/>
<path d="M53.2798 1.87011C54.6568 1.85124 56.0214 2.131 57.2798 2.69011C56.466 1.85875 55.4862 1.20821 54.4041 0.780905C53.3221 0.353595 52.1621 0.159105 50.9998 0.210111C43.8898 0.210111 41.5898 5.89011 41.5898 13.0001C41.5898 18.5701 42.9998 23.3001 46.9698 25.1201C44.7498 22.8101 43.9098 19.0001 43.9098 14.7001C43.9098 7.56011 46.2098 1.87011 53.2798 1.87011Z" fill="#D9C7FF"/>
<path d="M60.3397 13C60.3397 8.71 59.4997 5 57.3397 2.65C56.0813 2.09088 54.7166 1.81113 53.3397 1.83C46.2697 1.83 43.9697 7.52 43.9697 14.66C43.9697 18.97 44.8097 22.77 47.0297 25.12C48.2738 25.697 49.6283 25.9973 50.9997 26C57.9997 26 60.3397 20.18 60.3397 13ZM47.8597 13C47.8597 9 48.5597 5.75 50.9597 5.75C51.464 5.76085 51.9526 5.92706 52.3589 6.22595C52.7651 6.52484 53.0693 6.94183 53.2297 7.42H53.2797C55.6897 7.42 56.3897 10.63 56.3897 14.67C56.3897 18.71 55.6897 22.02 53.2797 22.02C52.7767 22.0163 52.2872 21.8565 51.8788 21.5627C51.4704 21.269 51.1633 20.8557 50.9997 20.38V20.38C48.5597 20.39 47.8597 17.11 47.8597 13Z" fill="white"/>
<path opacity="0.6" d="M60.3397 13C60.3397 8.71 59.4997 5 57.3397 2.65C56.0813 2.09088 54.7166 1.81113 53.3397 1.83C46.2697 1.83 43.9697 7.52 43.9697 14.66C43.9697 18.97 44.8097 22.77 47.0297 25.12C48.2738 25.697 49.6283 25.9973 50.9997 26C57.9997 26 60.3397 20.18 60.3397 13ZM47.8597 13C47.8597 9 48.5597 5.75 50.9597 5.75C51.464 5.76085 51.9526 5.92706 52.3589 6.22595C52.7651 6.52484 53.0693 6.94183 53.2297 7.42H53.2797C55.6897 7.42 56.3897 10.63 56.3897 14.67C56.3897 18.71 55.6897 22.02 53.2797 22.02C52.7767 22.0163 52.2872 21.8565 51.8788 21.5627C51.4704 21.269 51.1633 20.8557 50.9997 20.38V20.38C48.5597 20.39 47.8597 17.11 47.8597 13Z" fill="white"/>
<path d="M17.8998 21.9999H9.44984C9.5834 21.3336 9.96155 20.7414 10.5098 20.3399H7.12984C7.43984 17.1299 17.5098 15.6299 17.5098 7.85994C17.5595 6.00998 16.8808 4.21448 15.6198 2.85994C14.2759 2.23635 12.8114 1.91547 11.3298 1.91994C9.52691 1.87903 7.74924 2.34945 6.20252 3.27677C4.65581 4.20409 3.40327 5.55041 2.58984 7.15994L4.75984 8.60994C5.08921 7.88748 5.60426 7.26529 6.25249 6.80678C6.90072 6.34828 7.65894 6.06987 8.44984 5.99994C8.99471 5.96283 9.53703 6.10233 9.99637 6.39775C10.4557 6.69316 10.8076 7.12876 10.9998 7.63994C11.3236 7.63588 11.6448 7.69681 11.9445 7.81913C12.2443 7.94145 12.5164 8.12266 12.7449 8.35204C12.9733 8.58142 13.1534 8.8543 13.2745 9.15454C13.3956 9.45477 13.4552 9.77625 13.4498 10.0999C13.4498 13.6899 2.67984 15.3299 2.67984 24.5299C2.67984 24.8599 2.67984 25.1999 2.73984 25.5299H17.8998V21.9999Z" fill="white"/>
<path opacity="0.6" d="M17.8998 21.9999H9.44984C9.5834 21.3336 9.96155 20.7414 10.5098 20.3399H7.12984C7.43984 17.1299 17.5098 15.6299 17.5098 7.85994C17.5595 6.00998 16.8808 4.21448 15.6198 2.85994C14.2759 2.23635 12.8114 1.91547 11.3298 1.91994C9.52691 1.87903 7.74924 2.34945 6.20252 3.27677C4.65581 4.20409 3.40327 5.55041 2.58984 7.15994L4.75984 8.60994C5.08921 7.88748 5.60426 7.26529 6.25249 6.80678C6.90072 6.34828 7.65894 6.06987 8.44984 5.99994C8.99471 5.96283 9.53703 6.10233 9.99637 6.39775C10.4557 6.69316 10.8076 7.12876 10.9998 7.63994C11.3236 7.63588 11.6448 7.69681 11.9445 7.81913C12.2443 7.94145 12.5164 8.12266 12.7449 8.35204C12.9733 8.58142 13.1534 8.8543 13.2745 9.15454C13.3956 9.45477 13.4552 9.77625 13.4498 10.0999C13.4498 13.6899 2.67984 15.3299 2.67984 24.5299C2.67984 24.8599 2.67984 25.1999 2.73984 25.5299H17.8998V21.9999Z" fill="white"/>
<path d="M38.38 17.46C38.3733 15.6204 37.6569 13.8544 36.38 12.53C35.819 12.2566 35.2285 12.0486 34.62 11.91L35.06 11.41C34.2212 10.8531 33.2848 10.4596 32.3 10.25L37.3 4.43004V2.29004H24V5.86004H27.63C28.424 5.87862 29.2179 5.81832 30 5.68004V5.75004C30 5.75004 29.28 6.42004 28.32 7.52004H30C30.7936 7.53681 31.587 7.47989 32.37 7.35004V7.42004C31.6004 8.15227 30.8757 8.93036 30.2 9.75004L26.9 13.69L27.46 14.99H27.61C29.85 14.99 31.56 15.56 32.07 16.88C33.59 17.24 34.57 18.03 34.57 19.41C34.57 20.79 33.28 21.88 31 21.88C29.0757 21.7979 27.2508 21.003 25.88 19.65L23 24.35L23.18 24.51C25.0327 25.4742 27.0914 25.9751 29.18 25.97C35.38 26 38.38 21.71 38.38 17.46Z" fill="white"/>
<path opacity="0.6" d="M38.38 17.46C38.3733 15.6204 37.6569 13.8544 36.38 12.53C35.819 12.2566 35.2285 12.0486 34.62 11.91L35.06 11.41C34.2212 10.8531 33.2848 10.4596 32.3 10.25L37.3 4.43004V2.29004H24V5.86004H27.63C28.424 5.87862 29.2179 5.81832 30 5.68004V5.75004C30 5.75004 29.28 6.42004 28.32 7.52004H30C30.7936 7.53681 31.587 7.47989 32.37 7.35004V7.42004C31.6004 8.15227 30.8757 8.93036 30.2 9.75004L26.9 13.69L27.46 14.99H27.61C29.85 14.99 31.56 15.56 32.07 16.88C33.59 17.24 34.57 18.03 34.57 19.41C34.57 20.79 33.28 21.88 31 21.88C29.0757 21.7979 27.2508 21.003 25.88 19.65L23 24.35L23.18 24.51C25.0327 25.4742 27.0914 25.9751 29.18 25.97C35.38 26 38.38 21.71 38.38 17.46Z" fill="white"/>
</svg>
