<svg width="50" height="52" viewBox="0 0 50 52" fill="none" xmlns="http://www.w3.org/2000/svg">
<path d="M21.35 32.562L16.025 27.237L13.375 29.887L21.325 37.837L36.325 22.837L33.675 20.187L21.35 32.562Z" fill="#EE3561"/>
<path d="M38.3413 0.764526L49.8598 10.3735L46.6568 14.213L35.1383 4.60403L38.3413 0.764526Z" fill="#EE3561"/>
<path d="M11.6584 0.763062L14.8614 4.60256L3.34286 14.2116L0.140106 10.3721L11.6584 0.763062Z" fill="#EE3561"/>
<path fill-rule="evenodd" clip-rule="evenodd" d="M2.50006 28.7371C2.50006 16.3121 12.5751 6.23706 25.0001 6.23706C37.4251 6.23706 47.5001 16.3121 47.5001 28.7371C47.5001 41.1621 37.4251 51.2371 25.0001 51.2371C12.5751 51.2371 2.50006 41.1621 2.50006 28.7371ZM7.50006 28.7371C7.50006 38.3871 15.3501 46.2371 25.0001 46.2371C34.6501 46.2371 42.5001 38.3871 42.5001 28.7371C42.5001 19.0871 34.6501 11.2371 25.0001 11.2371C15.3501 11.2371 7.50006 19.0871 7.50006 28.7371Z" fill="#7035EE"/>
</svg>
