<svg width="48" height="42" viewBox="0 0 48 42" fill="none" xmlns="http://www.w3.org/2000/svg">
<path fill-rule="evenodd" clip-rule="evenodd" d="M30.25 10.375C30.25 15.9 25.775 20.375 20.25 20.375C14.725 20.375 10.25 15.9 10.25 10.375C10.25 4.85 14.725 0.375 20.25 0.375C25.775 0.375 30.25 4.85 30.25 10.375ZM25.25 10.375C25.25 7.625 23 5.375 20.25 5.375C17.5 5.375 15.25 7.625 15.25 10.375C15.25 13.125 17.5 15.375 20.25 15.375C23 15.375 25.25 13.125 25.25 10.375Z" fill="#7035EE"/>
<path d="M5.25 35.375C5.75 33.8 11.675 31.175 17.65 30.525L22.75 25.525C21.775 25.425 21.05 25.375 20.25 25.375C13.575 25.375 0.25 28.725 0.25 35.375V40.375H22.75L17.75 35.375H5.25Z" fill="#7035EE"/>
<path d="M44.25 21.625L31.425 34.55L26.25 29.35L22.75 32.875L31.425 41.625L47.75 25.15L44.25 21.625Z" fill="#EE3561"/>
</svg>
