<svg width="50" height="36" viewBox="0 0 50 36" fill="none" xmlns="http://www.w3.org/2000/svg">
<path fill-rule="evenodd" clip-rule="evenodd" d="M0 31.125C0 25.3 11.65 22.375 17.5 22.375C23.35 22.375 35 25.3 35 31.125V35.5H0V31.125ZM17.4999 27.375C13.0249 27.375 7.94994 29.05 5.84995 30.5H29.1499C27.0499 29.05 21.9749 27.375 17.4999 27.375Z" fill="#7035EE"/>
<path fill-rule="evenodd" clip-rule="evenodd" d="M26.25 9.25C26.25 14.075 22.325 18 17.5 18C12.675 18 8.75 14.075 8.75 9.25C8.75 4.425 12.675 0.5 17.5 0.5C22.325 0.5 26.25 4.425 26.25 9.25ZM21.25 9.25C21.25 7.175 19.575 5.5 17.5 5.5C15.425 5.5 13.75 7.175 13.75 9.25C13.75 11.325 15.425 13 17.5 13C19.575 13 21.25 11.325 21.25 9.25Z" fill="#7035EE"/>
<path d="M35.1001 22.525C38.0001 24.625 40.0001 27.425 40.0001 31.125V35.5H50.0001V31.125C50.0001 26.075 41.2501 23.2 35.1001 22.525Z" fill="#EE3561"/>
<path d="M32.5 18C37.325 18 41.25 14.075 41.25 9.25C41.25 4.425 37.325 0.5 32.5 0.5C31.15 0.5 29.9 0.825 28.75 1.375C30.325 3.6 31.25 6.325 31.25 9.25C31.25 12.175 30.325 14.9 28.75 17.125C29.9 17.675 31.15 18 32.5 18Z" fill="#EE3561"/>
</svg>
