<svg width="50" height="25" viewBox="0 0 50 25" fill="none" xmlns="http://www.w3.org/2000/svg">
<path d="M38.5713 0C31.4777 0 26.7834 5.79975 22.6418 10.9178C19.1034 15.29 15.762 19.4186 11.6924 19.4186C7.46229 19.4186 4.86513 15.071 4.86513 11.9543C4.86513 9.06458 7.71425 4.86513 12.1796 4.86513C16.5126 4.86513 18.7699 8.333 18.8837 8.51074C19.5857 9.64672 21.0761 10.0042 22.2178 9.30789C23.3651 8.60892 23.7285 7.11214 23.0293 5.96484C22.8808 5.72186 19.3124 0.000332658 12.1796 0.000332658C5.00226 0.000332658 0 6.30101 0 11.9546C0 17.7863 4.80189 24.2841 11.692 24.2841C18.0822 24.2841 22.323 19.0451 26.4232 13.9783C30.2163 9.29258 33.7993 4.86547 38.5713 4.86547C41.4104 4.86547 43.276 5.82871 44.2731 7.80778C45.1372 9.52524 45.1365 11.4687 45.1359 12.142C45.1359 12.5281 44.9318 14.4646 43.9872 16.2083C42.9102 18.1947 41.3811 19.1194 39.1714 19.1194C34.7216 19.1194 32.3175 16.227 31.4122 15.1376C31.1769 14.854 31.0074 14.65 30.7811 14.4563C29.762 13.5832 28.2256 13.7004 27.3509 14.7209C26.5074 15.7051 26.5886 17.1683 27.51 18.0539C27.5539 18.1039 27.6068 18.1694 27.6697 18.2457C28.8496 19.6656 32.4373 23.9838 39.1704 23.9838C47.3536 23.9838 50 16.0046 50 12.1087C50.0007 9.62742 49.536 7.44465 48.6174 5.61968C47.3276 3.05681 44.5371 0 38.5713 0Z" fill="#EE3561"/>
<path d="M11.6924 19.4186C15.762 19.4186 19.1034 15.2901 22.6418 10.9179L26.4232 13.9783C22.323 19.0452 18.0822 24.2841 11.692 24.2841C4.80189 24.2841 0 17.7864 0 11.9547C0 6.30104 5.00226 0.000366211 12.1796 0.000366211C19.3124 0.000366211 22.8808 5.7219 23.0292 5.96487C23.7285 7.11218 23.3651 8.60896 22.2178 9.30793C21.0761 10.0042 19.5857 9.64676 18.8837 8.51077C18.7699 8.33303 16.5126 4.86517 12.1796 4.86517C7.71425 4.86517 4.86513 9.06462 4.86513 11.9543C4.86513 15.0711 7.46229 19.4186 11.6924 19.4186Z" fill="#7035EE"/>
</svg>
