<svg width="117" height="66" viewBox="0 0 117 66" fill="none" xmlns="http://www.w3.org/2000/svg">
<path d="M3.3692 23.19C3.3692 36.471 11.6912 42.684 19.8992 42.684C28.7342 42.684 33.8072 35.844 33.8072 28.947C33.8072 21.936 28.9622 14.982 20.4692 14.982C18.5312 14.982 15.8522 15.723 14.8832 16.407H14.7692C16.0232 12.645 18.7592 9.681 23.5472 9.681C25.3712 9.681 28.2212 10.365 29.1332 10.878L31.8122 2.328C29.1902 1.074 25.7132 0.560997 22.8062 0.560997C10.1522 0.560997 3.3692 12.132 3.3692 23.19ZM19.8992 33.564C17.0492 33.564 13.6292 30.315 13.6292 25.47C13.6292 23.589 15.5672 23.019 17.8472 23.019C22.2362 23.019 24.0032 26.097 24.0032 29.004C24.0032 31.398 22.4072 33.564 19.8992 33.564ZM39.0076 42H66.1396V33.45H57.4186V1.245H48.8116L37.8106 11.562L43.5676 17.718L46.0186 15.495C47.1016 14.469 47.6146 13.329 47.6146 13.329H47.7286C47.7286 13.329 47.6716 14.925 47.6716 16.464V33.45H39.0076V42ZM79.5778 20.226C85.2778 20.226 89.8948 15.894 89.8948 10.422C89.8948 5.064 85.2778 0.560997 79.5778 0.560997C73.8208 0.560997 69.2608 5.064 69.2608 10.422C69.2608 15.894 73.8208 20.226 79.5778 20.226ZM71.5408 42H80.2048L111.669 1.245H103.005L71.5408 42ZM79.5778 13.386C77.8678 13.386 76.4428 12.075 76.4428 10.365C76.4428 8.769 77.8678 7.401 79.5778 7.401C81.2878 7.401 82.7128 8.769 82.7128 10.365C82.7128 12.075 81.2878 13.386 79.5778 13.386ZM93.5998 32.88C93.5998 38.352 98.1598 42.684 103.917 42.684C109.617 42.684 114.234 38.352 114.234 32.88C114.234 27.522 109.617 23.019 103.917 23.019C98.1598 23.019 93.5998 27.522 93.5998 32.88ZM100.782 32.823C100.782 31.227 102.207 29.859 103.917 29.859C105.627 29.859 107.052 31.227 107.052 32.823C107.052 34.533 105.627 35.844 103.917 35.844C102.207 35.844 100.782 34.533 100.782 32.823Z" fill="#343434"/>
<rect x="2" y="59.3715" width="113.552" height="6" fill="#1EAF35"/>
</svg>
