<svg width="117" height="65" viewBox="0 0 117 65" fill="none" xmlns="http://www.w3.org/2000/svg">
<path d="M1.47528 32.139H19.5443V42H29.4053V32.139H34.2503V23.874H29.4053V1.245H17.2073L1.47528 26.097V32.139ZM11.6213 23.874V23.76L17.7773 14.412C18.9173 12.702 19.7723 10.194 19.7723 10.194H19.8863C19.8863 10.194 19.5443 12.531 19.5443 14.754V23.874H11.6213ZM38.1726 42H66.3876V33.45H48.7746C49.2876 28.206 65.7606 25.755 65.7606 13.044C65.7606 4.38 58.5216 0.560997 51.8526 0.560997C44.4996 0.560997 39.8826 4.722 37.4886 9.339L44.8986 14.298C46.0956 12.018 48.3186 9.966 50.9406 9.966C53.0496 9.966 55.3296 11.163 55.3296 14.013C55.3296 19.884 37.7166 22.563 37.7166 37.611C37.7166 38.979 37.8876 40.404 38.1726 42ZM80.2747 20.226C85.9747 20.226 90.5917 15.894 90.5917 10.422C90.5917 5.064 85.9747 0.560997 80.2747 0.560997C74.5177 0.560997 69.9577 5.064 69.9577 10.422C69.9577 15.894 74.5177 20.226 80.2747 20.226ZM72.2377 42H80.9017L112.366 1.245H103.702L72.2377 42ZM80.2747 13.386C78.5647 13.386 77.1397 12.075 77.1397 10.365C77.1397 8.769 78.5647 7.401 80.2747 7.401C81.9847 7.401 83.4097 8.769 83.4097 10.365C83.4097 12.075 81.9847 13.386 80.2747 13.386ZM94.2967 32.88C94.2967 38.352 98.8567 42.684 104.614 42.684C110.314 42.684 114.931 38.352 114.931 32.88C114.931 27.522 110.314 23.019 104.614 23.019C98.8567 23.019 94.2967 27.522 94.2967 32.88ZM101.479 32.823C101.479 31.227 102.904 29.859 104.614 29.859C106.324 29.859 107.749 31.227 107.749 32.823C107.749 34.533 106.324 35.844 104.614 35.844C102.904 35.844 101.479 34.533 101.479 32.823Z" fill="#343434"/>
<rect x="1" y="59" width="113.552" height="6" fill="#FFA115"/>
</svg>
