<svg width="117" height="66" viewBox="0 0 117 66" fill="none" xmlns="http://www.w3.org/2000/svg">
<path d="M4.25114 40.917C6.98714 42.228 10.2361 42.684 13.2571 42.684C25.9111 42.684 32.6941 31.113 32.6941 20.055C32.6941 6.774 24.3721 0.560997 16.1641 0.560997C7.32914 0.560997 2.25614 7.401 2.25614 14.298C2.25614 21.309 7.10114 28.263 15.5941 28.263C17.5321 28.263 20.2681 27.579 21.1801 26.838H21.2941C20.0401 30.6 17.3041 33.564 12.5161 33.564C10.5211 33.564 8.52614 33.051 6.93014 32.367L4.25114 40.917ZM18.2161 20.226C13.8271 20.226 12.0601 17.148 12.0601 14.241C12.0601 11.847 13.6561 9.681 16.1641 9.681C19.0141 9.681 22.4341 12.93 22.4341 17.775C22.4341 19.656 20.4961 20.226 18.2161 20.226ZM34.9305 32.139H52.9995V42H62.8605V32.139H67.7055V23.874H62.8605V1.245H50.6625L34.9305 26.097V32.139ZM45.0765 23.874V23.76L51.2325 14.412C52.3725 12.702 53.2275 10.194 53.2275 10.194H53.3415C53.3415 10.194 52.9995 12.531 52.9995 14.754V23.874H45.0765ZM80.1778 20.226C85.8778 20.226 90.4948 15.894 90.4948 10.422C90.4948 5.064 85.8778 0.560997 80.1778 0.560997C74.4208 0.560997 69.8608 5.064 69.8608 10.422C69.8608 15.894 74.4208 20.226 80.1778 20.226ZM72.1408 42H80.8048L112.269 1.245H103.605L72.1408 42ZM80.1778 13.386C78.4678 13.386 77.0428 12.075 77.0428 10.365C77.0428 8.769 78.4678 7.401 80.1778 7.401C81.8878 7.401 83.3128 8.769 83.3128 10.365C83.3128 12.075 81.8878 13.386 80.1778 13.386ZM94.1998 32.88C94.1998 38.352 98.7598 42.684 104.517 42.684C110.217 42.684 114.834 38.352 114.834 32.88C114.834 27.522 110.217 23.019 104.517 23.019C98.7598 23.019 94.1998 27.522 94.1998 32.88ZM101.382 32.823C101.382 31.227 102.807 29.859 104.517 29.859C106.227 29.859 107.652 31.227 107.652 32.823C107.652 34.533 106.227 35.844 104.517 35.844C102.807 35.844 101.382 34.533 101.382 32.823Z" fill="#343434"/>
<rect x="2" y="59.3715" width="113.552" height="6" fill="#FFDB5B"/>
</svg>
