<svg width="117" height="66" viewBox="0 0 117 66" fill="none" xmlns="http://www.w3.org/2000/svg">
<path d="M4.33174 42H14.7627L31.8627 8.199V1.245H2.62174V9.795H18.7527C20.8047 9.795 21.1467 9.624 21.1467 9.624V9.738C21.1467 9.738 20.1777 10.65 18.7527 13.443L4.33174 42ZM50.1299 42.684C61.7009 42.684 65.4629 33.222 65.4629 21.537C65.4629 9.852 61.7009 0.560997 50.1299 0.560997C38.5589 0.560997 34.7969 9.852 34.7969 21.537C34.7969 33.222 38.5589 42.684 50.1299 42.684ZM50.1299 33.564C46.1969 33.564 45.0569 28.206 45.0569 21.537C45.0569 14.925 46.1969 9.681 50.1299 9.681C54.0629 9.681 55.2029 14.925 55.2029 21.537C55.2029 28.206 54.0629 33.564 50.1299 33.564ZM79.6412 20.226C85.3412 20.226 89.9582 15.894 89.9582 10.422C89.9582 5.064 85.3412 0.560997 79.6412 0.560997C73.8842 0.560997 69.3242 5.064 69.3242 10.422C69.3242 15.894 73.8842 20.226 79.6412 20.226ZM71.6042 42H80.2682L111.732 1.245H103.068L71.6042 42ZM79.6412 13.386C77.9312 13.386 76.5062 12.075 76.5062 10.365C76.5062 8.769 77.9312 7.401 79.6412 7.401C81.3512 7.401 82.7762 8.769 82.7762 10.365C82.7762 12.075 81.3512 13.386 79.6412 13.386ZM93.6632 32.88C93.6632 38.352 98.2232 42.684 103.98 42.684C109.68 42.684 114.297 38.352 114.297 32.88C114.297 27.522 109.68 23.019 103.98 23.019C98.2232 23.019 93.6632 27.522 93.6632 32.88ZM100.845 32.823C100.845 31.227 102.27 29.859 103.98 29.859C105.69 29.859 107.115 31.227 107.115 32.823C107.115 34.533 105.69 35.844 103.98 35.844C102.27 35.844 100.845 34.533 100.845 32.823Z" fill="#343434"/>
<rect x="2" y="59.3715" width="113.552" height="6" fill="#343434"/>
</svg>
