<svg width="45" height="39" viewBox="0 0 45 39" fill="none" xmlns="http://www.w3.org/2000/svg">
<path d="M17.1592 10.725L10.1882 17.696C10.8531 17.9534 11.3894 18.2752 11.8398 18.5326C12.6334 19.0259 13.1053 19.3047 14.3065 19.3047C15.5076 19.3047 15.9795 19.0259 16.7731 18.5326C17.7598 17.9534 19.0897 17.1598 21.4705 17.1598C23.8514 17.1598 25.1813 17.9534 26.1465 18.5326C26.9401 19.0044 27.4335 19.3047 28.6132 19.3047C29.7929 19.3047 30.2862 19.0259 31.0798 18.5326C31.3372 18.3824 31.6375 18.2108 31.9593 18.0392L18.1888 4.2902C14.8642 0.96556 11.7969 -0.0211086 6.43457 0.000340692V5.36267C10.3383 5.34122 12.6334 6.19919 15.0143 8.58007L17.1592 10.725Z" fill="#FFDB5B"/>
<path d="M7.18552 26.8121C8.36523 26.8121 8.85857 27.1124 9.65219 27.5843C10.6174 28.1634 11.9473 28.957 14.3281 28.957C16.709 28.957 18.0389 28.1634 19.0041 27.5843C19.7977 27.0909 20.2696 26.8121 21.4708 26.8121C22.6505 26.8121 23.1438 27.1124 23.9374 27.5843C24.9027 28.1634 26.2325 28.957 28.6134 28.957C30.9943 28.957 32.3241 28.1634 33.2893 27.5843C34.083 27.0909 34.5549 26.8121 35.756 26.8121C36.9357 26.8121 37.4291 27.1124 38.2227 27.5843C39.1879 28.1634 40.4963 28.9356 42.8557 28.957V24.6671C41.676 24.6671 41.1827 24.3669 40.3891 23.895C39.4238 23.3158 38.094 22.5222 35.7131 22.5222C33.3322 22.5222 32.0024 23.3158 31.0372 23.895C30.2435 24.3883 29.7502 24.6671 28.5705 24.6671C27.3908 24.6671 26.8974 24.3669 26.1038 23.895C25.1386 23.3158 23.8087 22.5222 21.4279 22.5222C19.047 22.5222 17.7171 23.3158 16.7519 23.895C15.9583 24.3883 15.4864 24.6671 14.2852 24.6671C13.1055 24.6671 12.6122 24.3669 11.8186 23.895C10.8534 23.3158 9.5235 22.5222 7.14262 22.5222C4.76175 22.5222 3.43189 23.3158 2.46667 23.895C1.67305 24.3883 1.20116 24.6671 0 24.6671V28.957C2.38087 28.957 3.71073 28.1634 4.71885 27.5843C5.51248 27.0909 6.00581 26.8121 7.18552 26.8121Z" fill="#1EAF35"/>
<path d="M35.756 32.1744C33.3751 32.1744 32.0453 32.9681 31.0801 33.5472C30.2864 34.0405 29.7931 34.3194 28.6134 34.3194C27.4337 34.3194 26.9403 34.0191 26.1467 33.5472C25.1815 32.9681 23.8516 32.1744 21.4708 32.1744C19.0899 32.1744 17.76 32.9681 16.7734 33.5472C15.9797 34.0405 15.5079 34.3194 14.3067 34.3194C13.1055 34.3194 12.6336 34.0405 11.84 33.5472C10.8748 32.9681 9.54495 32.1744 7.16407 32.1744C4.7832 32.1744 3.45334 32.9681 2.46667 33.5472C1.67305 34.0405 1.20116 34.3194 0 34.3194V38.6092C2.38087 38.6092 3.71073 37.8156 4.6974 37.2365C5.49103 36.7431 5.98436 36.4643 7.16407 36.4643C8.34378 36.4643 8.83712 36.7431 9.63074 37.2365C10.596 37.8156 11.9258 38.6092 14.3067 38.6092C16.6876 38.6092 18.0174 37.8156 19.0041 37.2365C19.7977 36.7431 20.2696 36.4643 21.4708 36.4643C22.6505 36.4643 23.1438 36.7646 23.9374 37.2365C24.9027 37.8156 26.2325 38.6092 28.6134 38.6092C30.9943 38.6092 32.3027 37.8156 33.2893 37.2365C34.083 36.7431 34.5549 36.4643 35.756 36.4643C36.9357 36.4643 37.4291 36.7646 38.2227 37.2365C39.1879 37.8156 40.5178 38.6092 42.8986 38.6092V34.3194C41.6975 34.3194 41.2256 34.0405 40.432 33.5472C39.4667 32.9681 38.1369 32.1744 35.756 32.1744Z" fill="#1EAF35"/>
<path d="M31.1016 0.000366211C28.1401 0.000366211 25.7393 2.40116 25.7393 5.3627C25.7393 8.32423 28.1401 10.725 31.1016 10.725C34.0631 10.725 36.4639 8.32423 36.4639 5.3627C36.4639 2.40116 34.0631 0.000366211 31.1016 0.000366211Z" fill="#FFDB5B"/>
</svg>
