<svg width="45" height="40" viewBox="0 0 45 40" fill="none" xmlns="http://www.w3.org/2000/svg">
<path d="M18.9473 18.9474C24.1815 18.9474 28.421 14.7079 28.421 9.47368C28.421 4.23947 24.1815 0 18.9473 0C13.7131 0 9.47363 4.23947 9.47363 9.47368C9.47363 14.7079 13.7131 18.9474 18.9473 18.9474Z" fill="#1EAF35"/>
<path d="M18.9473 4.73682C21.5526 4.73682 23.6841 6.8684 23.6841 9.47366C23.6841 12.0789 21.5526 14.2105 18.9473 14.2105C16.342 14.2105 14.2104 12.0789 14.2104 9.47366C14.2104 6.8684 16.342 4.73682 18.9473 4.73682Z" fill="white"/>
<path d="M4.73684 33.1579C5.21053 31.6658 10.8237 29.1789 16.4842 28.5632L21.3158 23.8263C20.3921 23.7316 19.7053 23.6842 18.9474 23.6842C12.6237 23.6842 0 26.8579 0 33.1579V37.8947H21.3158L16.5789 33.1579H4.73684Z" fill="#1EAF35"/>
<path d="M41.6843 20.1316L29.5343 32.3763L24.6317 27.45L21.3159 30.7895L29.5343 39.079L45.0001 23.4711L41.6843 20.1316Z" fill="#FFDB5B"/>
</svg>
