<svg width="45" height="41" viewBox="0 0 45 41" fill="none" xmlns="http://www.w3.org/2000/svg">
<path d="M40.9093 14.3182H28.0025L29.9457 4.97045L30.007 4.31591C30.007 3.47727 29.6593 2.7 29.107 2.14773L26.9389 0L13.4798 13.4795C12.7229 14.2159 12.2729 15.2386 12.2729 16.3636V36.8182C12.2729 39.0682 14.1139 40.9091 16.3639 40.9091H34.7729C36.4707 40.9091 37.9229 39.8864 38.5366 38.4136L44.7139 23.9932C44.8979 23.5227 45.0002 23.0318 45.0002 22.5V18.4091C45.0002 16.1591 43.1593 14.3182 40.9093 14.3182Z" fill="#1EAF35"/>
<path d="M40.9092 22.5L34.7729 36.8181H16.3638V16.3636L25.241 7.48633L22.9706 18.4091H40.9092V22.5Z" fill="white"/>
<path d="M0 16.3636H8.18182V40.9091H0V16.3636Z" fill="#FFDB5B"/>
</svg>
