<svg width="25" height="25" viewBox="0 0 25 25" fill="none" xmlns="http://www.w3.org/2000/svg">
<path d="M9.37559 4.68779C15.4182 4.68779 20.3122 9.58654 20.3122 15.6244H17.9683C17.9683 13.3274 17.0729 11.171 15.451 9.54903C13.829 7.92706 11.6726 7.03169 9.37559 7.03169V4.68779ZM9.37559 0C18.0058 0 25 6.99419 25 15.6244H22.6561C22.6561 13.829 22.3045 12.0898 21.6154 10.4538C20.9451 8.87399 19.9888 7.45359 18.7699 6.23008C17.5511 5.01125 16.1307 4.05025 14.5462 3.38459C12.9102 2.69548 11.171 2.3439 9.37559 2.3439V0ZM14.0259 10.9788C15.0947 12.0476 15.6291 13.4493 15.6291 14.8462C14.0634 17.1901 14.0634 20.3122 14.0634 20.3122C7.81455 20.3122 3.12676 25 3.12676 25L2.78455 24.6578L2.22201 24.0953L9.1412 17.1714C9.2162 17.1808 9.29589 17.1901 9.37559 17.1901C10.2381 17.1901 10.9366 16.4917 10.9366 15.6291C10.9366 14.7665 10.2381 14.0634 9.37559 14.0634C8.51303 14.0634 7.81455 14.7619 7.81455 15.6244C7.81455 15.7041 7.81924 15.7838 7.8333 15.8588L0.904744 22.7827L0 21.8779C0 21.8779 4.68779 17.1901 4.68779 10.9413C4.68779 10.9413 7.81455 10.9413 10.1584 9.38027C11.5554 9.37559 12.9571 9.91 14.0259 10.9788Z" fill="#D6D6D6" fill-opacity="0.6"/>
</svg>
