<svg width="30" height="30" viewBox="0 0 30 30" fill="none" xmlns="http://www.w3.org/2000/svg">
<path fill-rule="evenodd" clip-rule="evenodd" d="M24.7297 0.945953V3.51352H27.2973C28.782 3.51352 30 4.73158 30 6.21622V27.2973C30 28.782 28.782 30 27.2973 30H2.7027C1.21808 30 0 28.782 0 27.2973V6.21622C0 4.73158 1.21808 3.51352 2.7027 3.51352H5.27026V0.770279C5.27026 0.612839 5.34924 0.427933 5.53949 0.263062C5.73199 0.0962067 5.98566 0 6.21625 0H6.39191C6.54932 0 6.73425 0.0789795 6.89911 0.269211C7.06598 0.461731 7.16217 0.715363 7.16217 0.945953V3.51352H22.8378V0.945953C22.8378 0.60318 22.9485 0.380539 23.0835 0.245636C23.2184 0.110718 23.441 0 23.7838 0C24.1266 0 24.3492 0.110718 24.4841 0.245636C24.619 0.380539 24.7297 0.60318 24.7297 0.945953ZM1.89191 28.1081H28.1082V12.4324H1.89191V28.1081ZM1.89191 10.5405H28.1082V5.40541H1.89191V10.5405Z" fill="#00FFF0" fill-opacity="0.5"/>
</svg>
