<svg width="26" height="25" viewBox="0 0 26 25" fill="none" xmlns="http://www.w3.org/2000/svg">
<path d="M25.0388 19.8529C25.0388 20.4412 25.0388 21.1765 24.8915 21.6176C24.7442 22.2059 24.7442 22.6471 24.4496 23.0882C24.3023 23.3824 24.0078 23.6765 23.8605 23.9706C23.5659 24.2647 23.124 24.5588 22.5349 24.7059C21.9457 24.8529 21.2093 25 20.1783 25C17.969 25 15.7597 25 13.5504 25C11.6357 25 9.72093 25 8.10077 25C7.65891 25 7.21705 25 6.77519 25H6.62791C6.33333 25 6.18605 25 5.89147 25C5.5969 25 5.30233 25 5.00775 25C4.56589 25 3.97674 25 3.24031 24.8529C2.65116 24.7059 2.06202 24.5588 1.47287 24.1176C1.17829 23.8235 0.736434 23.5294 0.589147 23.0882C0.294574 22.5 0.147287 21.7647 0 21.1765C0 20.4412 0 19.8529 0 19.1176C0 18.8235 0 18.5294 0 18.2353C0 17.9412 0 17.7941 0 17.6471V14.5588V11.4706V6.17647C0 5.44118 0 4.70588 0.147287 3.97059C0.294574 3.08824 0.44186 2.35294 0.736434 1.91176C1.03101 1.32353 1.47287 1.02941 1.91473 0.735294C2.50388 0.294118 3.3876 0.147059 4.27132 0.147059C5.44961 0 6.62791 0 7.8062 0C8.39535 0 8.9845 0 9.57364 0C10.1628 0 10.7519 0 11.1938 0H11.7829C11.9302 0 12.2248 0 12.6667 0C12.9612 0 13.2558 0 13.845 0C15.1705 0 16.7907 0 18.5581 0H19.8837H20.031C20.7674 0 21.3566 0 21.7985 0.147059C22.3876 0.294118 22.8295 0.294118 23.2713 0.588235C23.5659 0.735294 23.8605 0.882353 24.0078 1.17647C24.3023 1.47059 24.4496 1.91176 24.5969 2.35294C24.7442 2.79412 24.7442 3.38235 24.7442 4.26471V4.55882V4.70588C24.7442 5.29412 24.7442 7.64706 24.8915 9.85294V10.1471V10.8824V13.3824V17.0588C25.0388 18.6765 25.0388 19.5588 25.0388 19.8529ZM22.9767 4.55882V4.26471C22.9767 3.82353 22.9767 3.38235 22.8295 2.94118C22.8295 2.79412 22.6822 2.5 22.5349 2.35294C22.5349 2.20588 22.3876 2.20588 22.2403 2.20588C22.093 2.05882 21.7985 2.05882 21.5039 1.91176C21.062 1.76471 20.4729 1.76471 19.7364 1.76471H19.5891H18.2636C16.2015 1.76471 14.2868 1.76471 12.2248 1.61765C11.9302 1.61765 11.6357 1.61765 11.4884 1.61765H10.8992C10.3101 1.61765 9.72093 1.61765 9.27907 1.61765C8.68992 1.61765 8.10077 1.61765 7.51163 1.61765C6.03876 1.61765 5.00775 1.61765 3.97674 1.61765C3.24031 1.61765 2.65116 1.76471 2.35659 2.05882C2.35659 2.5 2.2093 2.79412 2.06202 3.23529C1.91473 3.52941 1.91473 3.97059 1.76744 4.26471C1.76744 4.85294 1.76744 5.44118 1.76744 6.17647V9.70588C3.82946 9.85294 5.44961 9.85294 7.21705 9.85294C7.51163 9.41176 7.8062 8.82353 8.24806 8.52941C9.27907 7.35294 10.8992 6.76471 12.6667 6.76471C13.6977 6.76471 14.7287 6.91176 15.6124 7.35294C16.3488 7.64706 17.0853 8.23529 17.6744 8.82353C17.969 9.26471 18.2636 9.55882 18.4109 10.1471C18.8527 10.1471 19.2946 10.1471 19.7364 10.1471H21.3566C21.9457 10.1471 22.5349 10.1471 23.2713 10.1471C23.124 8.23529 22.9767 6.47059 22.9767 4.55882C22.9767 4.70588 22.9767 4.55882 22.9767 4.55882ZM8.24806 13.0882C8.24806 13.8235 8.39535 14.4118 8.68992 15C8.9845 15.4412 9.27907 15.8824 9.72093 16.3235C10.4574 16.9118 11.6357 17.3529 12.6667 17.3529C13.9922 17.3529 15.1705 16.9118 16.0543 16.0294C16.7907 15.2941 17.2326 14.2647 17.2326 13.0882C17.2326 12.5 17.0853 11.7647 16.938 11.1765C16.938 11.0294 16.7907 10.7353 16.6434 10.5882C16.2016 9.85294 15.6124 9.26471 14.876 8.82353C14.1395 8.52941 13.4031 8.38235 12.6667 8.38235C11.3411 8.38235 10.1628 8.82353 9.42636 9.70588C8.68992 10.4412 8.24806 11.7647 8.24806 13.0882ZM23.2713 17.2059C23.2713 16.3235 23.2713 15.2941 23.2713 14.1176V12.5V12.0588V11.7647H21.3566C20.4729 11.7647 19.7364 11.7647 19 11.7647C19 12.2059 19.1473 12.6471 19.1473 13.0882C19.1473 14.5588 18.5581 16.0294 17.5271 17.2059C16.3488 18.3824 14.7287 18.9706 12.9612 18.9706C11.9302 18.9706 10.8992 18.6765 9.86822 18.2353C8.83721 17.6471 7.95349 16.7647 7.36434 15.7353C6.92248 14.8529 6.77519 13.9706 6.77519 13.0882C6.77519 12.6471 6.77519 12.0588 6.92248 11.6176C5.30233 11.6176 3.68217 11.6176 2.06202 11.4706V14.4118V17.5C2.06202 17.6471 2.06202 17.9412 2.06202 18.2353C2.06202 18.5294 2.06202 18.8235 2.06202 19.1176C2.06202 19.8529 2.06202 20.4412 2.2093 21.0294C2.2093 21.6176 2.35659 22.0588 2.50388 22.3529C2.65116 22.5 2.79845 22.7941 2.94574 22.9412C3.09302 23.0882 3.24031 23.2353 3.53488 23.2353C3.97674 23.3824 4.56589 23.3824 5.30233 23.3824C5.5969 23.3824 5.89147 23.3824 6.18605 23.3824C6.48062 23.3824 6.77519 23.3824 7.06977 23.3824H7.21705C7.65892 23.3824 8.10078 23.3824 8.54264 23.3824C10.1628 23.3824 11.9302 23.3824 13.845 23.3824C16.0543 23.3824 18.2636 23.3824 20.4729 23.3824C21.2093 23.3824 21.7985 23.3824 22.2403 23.2353C22.5349 23.0882 22.8295 23.0882 22.9767 22.9412C23.124 22.7941 23.124 22.7941 23.2713 22.6471C23.4186 22.5 23.4186 22.2059 23.5659 21.9118C23.7132 21.4706 23.7132 20.8824 23.7132 20C23.2713 19.4118 23.2713 18.5294 23.2713 17.2059ZM12.6667 9.11765C13.2558 9.11765 13.845 9.26471 14.4341 9.41177C14.876 9.55882 15.3178 10 15.6124 10.2941C16.3488 11.1765 16.4961 12.0588 16.4961 12.7941C16.4961 13.6765 16.2015 14.5588 15.4651 15.2941C14.7287 16.1765 13.845 16.4706 12.6667 16.4706C12.0775 16.4706 11.3411 16.3235 10.8992 16.0294C10.3101 15.7353 9.72093 15.1471 9.42636 14.5588C9.13178 14.1176 8.9845 13.5294 8.9845 12.9412C8.9845 11.9118 9.27907 10.8824 10.0155 10.1471C10.6047 9.55882 11.6357 9.11765 12.6667 9.11765ZM10.7519 12.9412C10.7519 13.2353 10.7519 13.5294 10.8992 13.6765C11.0465 13.8235 11.1938 14.1176 11.3411 14.2647C11.6357 14.5588 12.2248 14.7059 12.6667 14.7059C13.2558 14.7059 13.845 14.5588 14.1395 14.1176C14.5814 13.8235 14.7287 13.5294 14.7287 12.9412C14.7287 12.6471 14.5814 12.2059 14.4341 11.7647C14.2868 11.4706 13.9922 11.1765 13.6977 11.0294C13.4031 11.0294 12.9612 10.8824 12.6667 10.8824C12.0775 10.8824 11.6357 11.0294 11.3411 11.4706C11.0465 11.7647 10.7519 12.3529 10.7519 12.9412Z" fill="#D6D6D6" fill-opacity="0.6"/>
</svg>
