<svg width="25" height="30" viewBox="0 0 25 30" fill="none" xmlns="http://www.w3.org/2000/svg">
<path fill-rule="evenodd" clip-rule="evenodd" d="M12.8039 1.70158L12.7826 1.70097L12.7614 1.70158C6.86497 1.87108 2.10862 6.46153 2.27855 12.3132C2.28227 15.2667 3.75102 17.8543 5.68083 20.2068C7.03618 21.8591 8.68339 23.4666 10.2914 25.036L10.2921 25.0366C10.9615 25.6899 11.6241 26.3365 12.2561 26.977L12.7826 27.5107L13.3092 26.977C13.9389 26.3388 14.599 25.6945 15.266 25.0436L15.2732 25.0366C16.8815 23.4671 18.5289 21.8593 19.8845 20.2068C21.8143 17.8543 23.2831 15.2667 23.2867 12.3133C23.4566 6.46155 18.7003 1.87108 12.8039 1.70158ZM0.503339 12.3021V12.2935L0.503095 12.2849C0.35069 5.72992 5.84599 0.159058 12.7826 0C19.7169 0.158997 25.2049 5.72362 24.9 12.4275L24.8993 12.4443V12.4611C24.8993 15.2012 23.8412 17.6388 22.2467 19.9089C20.6452 22.1891 18.5406 24.2491 16.4968 26.2465L14.5348 28.164L12.7815 30L10.8672 28.0044L8.90037 26.0822L8.89488 26.077C4.77946 22.2158 0.503339 17.9755 0.503339 12.3021Z" fill="#00FFF0" fill-opacity="0.5"/>
<path fill-rule="evenodd" clip-rule="evenodd" d="M12.7698 18.4442C9.58203 18.4442 7 15.8966 7 12.822C7 9.74741 9.58203 7.19981 12.7698 7.19981C15.9576 7.19981 18.5396 9.74741 18.5396 12.822C18.5396 15.8966 15.9576 18.4442 12.7698 18.4442ZM12.7698 8.90128C10.5872 8.90128 8.77527 10.648 8.77527 12.822C8.77527 14.996 10.5872 16.7428 12.7698 16.7428C14.9524 16.7428 16.7643 14.996 16.7643 12.822C16.7643 10.648 14.9524 8.90128 12.7698 8.90128Z" fill="#00FFF0" fill-opacity="0.5"/>
</svg>
