<svg width="129" height="129" viewBox="0 0 129 129" fill="none" xmlns="http://www.w3.org/2000/svg">
<rect width="129" height="129" fill="#0066CC"/>
<path fill-rule="evenodd" clip-rule="evenodd" d="M85.8574 88.2527L72.6375 98L61.4105 90.6497L53.5815 96.5112L39.5544 87.3802L39.5589 72.4444L32.0074 67.4434L32 53.7909L45.257 43.9155L45.2481 40.8203L58.5051 31L69.6297 38.2342L77.2405 32.5171L91.2662 41.6778L91.2647 56.3457L97.9985 60.8509L98 74.5272L85.8559 83.6299L85.8574 88.2527ZM84.2652 73.8126L78.2243 78.2776L72.1671 74.3143V78.4503L84.2578 86.3425V75.288L84.2652 73.8126ZM72.5722 96.0496L83.6642 87.8552L71.3658 79.8096L60.3184 88.0323L72.5722 96.0496ZM64.2952 62.2831L59.1698 58.9884V69.9282L70.5571 77.3694V73.2319L64.2922 69.1496L64.2952 62.2831ZM47.3062 79.5207L58.9947 87.1673L70.0437 78.9446L58.3982 71.3248L47.3062 79.5207ZM57.5717 69.9565V59.1075L46.7127 67.1308V77.9798L57.5717 69.9565ZM53.5237 94.5549L59.9949 89.7221L48.2796 82.0592L41.7521 86.8964L53.5237 94.5549ZM44.6961 46.3215L33.6056 54.6127V65.4216L44.6961 57.2881V46.3215ZM34.1947 66.964L45.1145 74.2295L45.113 66.3164L50.9031 62.0539L45.5018 58.6698L34.1947 66.964ZM56.9767 37.1399L46.3016 45.1185V56.103L56.9767 48.2808V37.1399ZM57.8165 49.6386L46.7824 57.7259L52.1808 61.1055L58.3389 56.5497L65.0594 60.8836L70.0971 57.1378L57.8165 49.6386ZM59.1698 33.3419V35.5171L66.6649 40.457L68.2749 39.2511L59.1698 33.3419ZM70.7189 45.0366L58.5748 37.0297V48.2391L70.7189 55.6519V45.0366ZM66.4809 68.6583L78.1679 76.3346L89.0715 68.292L77.3058 60.6023L66.4809 68.6583ZM89.6665 42.5428L78.0745 34.9677V46.3006L89.6665 54.1437V42.5428ZM89.6665 55.9854L78.0745 48.1438V59.2028L86.8679 64.9496H86.8664L89.6665 66.7794V55.9854ZM96.4033 61.7025L91.2647 58.2618L91.2662 69.632L96.4033 72.6454V61.7025ZM95.7935 74.1401L89.2792 70.1158L85.8633 72.6349L85.8559 74.63V81.6363L95.7935 74.1401Z" fill="white"/>
</svg>
