<svg width="343" height="197" viewBox="0 0 343 197" fill="none" xmlns="http://www.w3.org/2000/svg">
<rect x="145" width="55" height="55" fill="url(#paint0_linear)"/>
<rect x="145" width="55" height="55" fill="#7035EE"/>
<path d="M186.799 31.7252V25.8752L183.9 23.9252V17.7502L177.837 13.8502L174.542 16.2552L169.666 13.2002L163.932 17.3602V18.6602L158.199 22.8852V28.7352L161.494 30.8802V37.2502L167.557 41.1502L170.984 38.6802L175.86 41.8002L181.593 37.6402V35.6902L186.799 31.7252ZM164.394 23.9252V19.2452L169.007 15.8652V20.6102L164.394 23.9252ZM169.731 20.5452V15.8002L175.003 19.2452V23.7952L169.731 20.5452ZM164.855 33.8702L169.666 30.3602L174.74 33.6102L169.929 37.1202L164.855 33.8702ZM169.27 25.1602V29.7752L164.591 33.2202V28.6052L169.27 25.1602ZM164.591 24.5752L169.402 21.1302L174.74 24.3152L172.565 25.9402L169.666 24.1202L166.964 26.0702L164.591 24.5752ZM163.866 31.6602L159.122 28.5402L163.998 25.0302L166.371 26.4602L163.866 28.2802V31.6602ZM174.937 31.2052V32.9602L169.995 29.7752V25.0952L172.236 26.5252V29.4502L174.937 31.2052ZM163.735 19.7002V24.3802L158.924 27.8252V23.2102L163.735 19.7002ZM170.325 38.2252L167.491 40.3052L162.417 37.0552L165.25 34.9752L170.325 38.2252ZM180.605 37.4452L175.794 40.9552L170.456 37.5102L175.267 34.0002L180.605 37.4452ZM183.9 29.6452V24.7702L186.14 26.2652V30.9452L183.9 29.6452ZM178.166 19.7002V14.8902L183.175 18.1402V23.0802L178.166 19.7002ZM178.166 25.2252V20.4802L183.175 23.7952V28.4102L181.989 27.6302L178.166 25.2252ZM182.977 29.1252L178.232 32.5702L173.158 29.3202L177.837 25.8752L182.977 29.1252ZM175.596 31.6602L178.232 33.3502L180.868 31.4652V32.1152V36.8602L175.596 33.4802V31.6602ZM183.043 29.9052L185.877 31.5952L181.593 34.7802V31.7902V30.9452L183.043 29.9052ZM173.949 16.7102L173.224 17.2302L169.995 15.1502V14.1752L173.949 16.7102Z" fill="white"/>
<path d="M140.064 185.257C139.403 186.9 136.693 186.527 136.693 185.07V180.937C136.693 179.446 139.369 179.108 140.182 180.598L142.655 179.599C141.707 177.465 139.911 176.838 138.437 176.838C136.032 176.838 133.661 178.227 133.661 180.937V185.07C133.661 187.797 136.032 189.169 138.387 189.169C139.894 189.169 141.707 188.424 142.706 186.476L140.064 185.257ZM150.636 177.007H147.875L143.691 189H146.943L147.689 186.595H150.89L151.669 189H154.921L150.636 177.007ZM148.366 183.901L149.247 180.395H149.332L150.162 183.901H148.366ZM156.741 189H159.773V185.544L159.57 183.122L159.655 183.105L161.264 187.221H163.347L164.923 183.105L165.024 183.122L164.838 185.544L164.821 189H167.87V177.007H164.838L162.297 182.868L159.773 177.007H156.741V189ZM170.776 189H173.808V185.544L173.605 183.122L173.69 183.105L175.299 187.221H177.382L178.958 183.105L179.059 183.122L178.873 185.544L178.856 189H181.905V177.007H178.873L176.332 182.868L173.808 177.007H170.776V189ZM191.468 189H194.517V177.007H191.739L188.673 182.106L187.674 184.257L187.606 184.24C187.64 183.918 187.674 183.613 187.724 183.342C187.792 182.885 187.843 182.445 187.86 182.445V177.007H184.811V189H187.674L190.553 184.274L191.688 181.936L191.773 181.953C191.722 182.377 191.671 182.766 191.62 183.088C191.57 183.376 191.57 183.647 191.519 183.851L191.468 184.206V189ZM206.147 179.87V176.99H196.712V179.87H199.896V189H202.962V179.87H206.147Z" fill="#7035ED"/>
<path d="M64.2334 109.092C71.7563 94.8378 87.4948 105.033 78.0913 115.625L49.5838 147.695L54.038 156.901H99.1749V140.074H83.3374L75.1217 141.756L90.5633 127.107C96.8983 121.168 99.2739 114.14 99.2739 107.508C99.2739 96.5205 91.2562 85.9292 75.8146 85.9292C66.2131 85.9292 56.8096 90.7794 50.9695 101.866L64.2334 109.092ZM135.566 157.99C147.543 157.99 160.906 151.259 160.906 136.51V107.508C160.906 92.5612 147.543 85.9292 135.566 85.9292C123.687 85.9292 110.226 92.5612 110.226 107.508V136.51C110.226 151.259 123.687 157.99 135.566 157.99ZM135.566 101.47C139.525 101.47 144.078 103.746 144.078 108.003V136.708C144.078 140.767 139.624 142.944 135.566 142.944C131.309 142.944 127.053 140.767 127.053 136.708V108.003C127.053 103.845 131.309 101.47 135.566 101.47ZM184.237 109.092C191.759 94.8378 207.498 105.033 198.094 115.625L169.587 147.695L174.041 156.901H219.178V140.074H203.341L195.125 141.756L210.566 127.107C216.901 121.168 219.277 114.14 219.277 107.508C219.277 96.5205 211.259 85.9292 195.818 85.9292C186.216 85.9292 176.813 90.7794 170.973 101.866L184.237 109.092ZM255.569 157.99C267.546 157.99 280.909 151.259 280.909 136.51V107.508C280.909 92.5612 267.546 85.9292 255.569 85.9292C243.691 85.9292 230.229 92.5612 230.229 107.508V136.51C230.229 151.259 243.691 157.99 255.569 157.99ZM255.569 101.47C259.528 101.47 264.081 103.746 264.081 108.003V136.708C264.081 140.767 259.627 142.944 255.569 142.944C251.312 142.944 247.056 140.767 247.056 136.708V108.003C247.056 103.845 251.312 101.47 255.569 101.47Z" fill="#EE3561"/>
<g filter="url(#filter0_d)">
<path d="M35.1763 163.434C35.1763 158.205 32.9142 155.386 25.6086 155.386H21.7519V151.307H33.0255V145.744H15.0767V172H25.794C31.6163 172 35.1763 168.625 35.1763 163.434ZM21.7519 166.178V160.207H25.5715C27.6483 160.207 28.6124 161.209 28.6124 163.1C28.6124 164.991 27.8708 166.178 25.6086 166.178H21.7519ZM53.615 172H60.2902V145.744H54.2084L47.4961 156.907L45.3081 161.616L45.1598 161.579C45.234 160.875 45.3081 160.207 45.4194 159.614C45.5677 158.613 45.679 157.648 45.7161 157.648V145.744H39.0409V172H45.3081L51.6125 161.654L54.0971 156.536L54.2825 156.573C54.1713 157.5 54.06 158.353 53.9488 159.058C53.8375 159.688 53.8375 160.281 53.7263 160.726L53.615 161.505V172ZM79.8176 158.019C81.7089 157.018 82.6731 154.682 82.6731 152.976C82.6731 148.192 79.4467 145.374 73.6245 145.374C69.7678 145.374 66.9494 146.82 64.8727 149.379L68.3586 152.79C69.2486 152.197 71.177 150.936 73.1424 150.936C75.3675 150.936 76.48 151.937 76.48 153.421C76.48 155.164 75.2933 156.165 73.3279 156.165H69.5823V160.726H73.4762C75.6642 160.726 76.8879 161.839 76.8879 163.73C76.8879 165.622 75.3304 166.549 72.6603 166.549C71.0286 166.549 69.1373 165.584 67.654 163.916L63.4264 167.216C65.3918 170.48 68.9148 172.371 73.0312 172.371C79.7063 172.371 83.5631 169.367 83.5631 164.138C83.5631 161.765 82.5989 159.391 79.8176 158.019ZM94.4774 162.099H102.043V172H108.718V145.744H102.043V155.683H94.4774V145.744H87.8023V172H94.4774V162.099ZM120.688 151.975H132.258V145.744H113.976V172H132.258V165.733H120.688V161.802H131.331V156.054H120.688V151.975ZM150.096 163.804C148.65 167.402 142.716 166.586 142.716 163.396V154.348C142.716 151.085 148.575 150.343 150.355 153.606L155.77 151.418C153.693 146.746 149.762 145.374 146.536 145.374C141.27 145.374 136.078 148.414 136.078 154.348V163.396C136.078 169.367 141.27 172.371 146.425 172.371C149.725 172.371 153.693 170.739 155.881 166.474L150.096 163.804ZM170.605 158.093H159.034V164.398H170.605V158.093ZM192.581 152.012V145.707H171.925V152.012H178.897V172H185.609V152.012H192.581ZM196.288 172H202.926V164.324H206.82C213.161 164.324 216.388 159.688 216.388 155.015C216.388 150.38 213.198 145.744 206.783 145.744H196.288V172ZM202.926 158.427V151.937H206.783C210.788 151.937 210.788 158.427 206.783 158.427H202.926ZM227.037 151.975H238.607V145.744H220.325V172H238.607V165.733H227.037V161.802H237.68V156.054H227.037V151.975ZM249.914 162.099H257.479V172H264.154V145.744H257.479V155.683H249.914V145.744H243.239V172H249.914V162.099ZM274.789 177.266V172H287.62V177.266H294.295V166.029H291.106V145.744H273.973L273.343 154.533C272.935 160.467 273.195 166.029 268.003 166.029V177.266H274.789ZM284.431 166.029H278.312C279.017 164.286 279.313 161.987 279.425 160.022L279.981 152.049H284.431V166.029ZM318.255 162.989C318.255 157.982 315.919 154.682 308.799 154.682H304.868V145.744H298.193V172H308.984C314.806 172 318.255 168.143 318.255 162.989ZM327.971 145.744H321.333V172H327.971V145.744ZM304.868 166.178V159.948H308.799C310.616 159.948 311.728 160.986 311.728 162.914C311.728 164.583 311.024 166.178 308.799 166.178H304.868Z" fill="white"/>
</g>
<defs>
<filter id="filter0_d" x="0.0761719" y="134.374" width="342.895" height="61.8924" filterUnits="userSpaceOnUse" color-interpolation-filters="sRGB">
<feFlood flood-opacity="0" result="BackgroundImageFix"/>
<feColorMatrix in="SourceAlpha" type="matrix" values="0 0 0 0 0 0 0 0 0 0 0 0 0 0 0 0 0 0 127 0"/>
<feOffset dy="4"/>
<feGaussianBlur stdDeviation="7.5"/>
<feColorMatrix type="matrix" values="0 0 0 0 0 0 0 0 0 0 0 0 0 0 0 0 0 0 0.4 0"/>
<feBlend mode="normal" in2="BackgroundImageFix" result="effect1_dropShadow"/>
<feBlend mode="normal" in="SourceGraphic" in2="effect1_dropShadow" result="shape"/>
</filter>
<linearGradient id="paint0_linear" x1="156.185" y1="50.8848" x2="180.42" y2="-5.74621" gradientUnits="userSpaceOnUse">
<stop stop-color="#003BCC"/>
<stop offset="0.957528" stop-color="#005EED"/>
</linearGradient>
</defs>
</svg>
