<svg width="15" height="35" viewBox="0 0 15 35" fill="none" xmlns="http://www.w3.org/2000/svg">
<path d="M13.7588 28.0077C12.6283 26.8722 11.6622 25.5841 10.8887 24.1809C10.7132 23.8629 10.4607 23.594 10.1542 23.3989C9.84776 23.2039 9.49722 23.089 9.13478 23.0648L5.30801 22.5864C4.19163 19.2219 4.19163 15.5868 5.30801 12.2222L8.97533 11.7439C9.36001 11.7233 9.73424 11.6113 10.067 11.4172C10.3998 11.2231 10.6814 10.9525 10.8887 10.6278C11.6622 9.22452 12.6283 7.93643 13.7588 6.80098C14.1264 6.45494 14.3478 5.98137 14.3774 5.47737C14.4071 4.97336 14.2428 4.47711 13.9182 4.09035L13.7588 3.9309L10.2509 0.598424C9.84025 0.213933 9.29873 1.05007e-10 8.73616 1.05008e-10C8.17359 1.05007e-10 7.63207 0.213933 7.22139 0.598424C2.89818 4.75115 0.32517 10.3989 0.0287706 16.3862C-0.267629 22.3734 1.73499 28.2477 5.6269 32.8071C6.07568 33.4153 6.61315 33.9528 7.22139 34.4016C7.63207 34.7861 8.17359 35 8.73616 35C9.29873 35 9.84025 34.7861 10.2509 34.4016L13.7588 31.0532C14.1433 30.6425 14.3572 30.101 14.3572 29.5384C14.3572 28.9758 14.1433 28.4343 13.7588 28.0236C13.9182 28.0236 13.7588 28.0236 13.7588 28.0077Z" fill="#D6D6D6"/>
</svg>
