<svg width="26" height="25" viewBox="0 0 26 25" fill="none" xmlns="http://www.w3.org/2000/svg">
<path d="M23.1609 11.5625L19.718 15C18.6226 16.25 16.9012 16.875 15.3362 16.875C13.6148 16.875 12.0499 16.25 10.9545 15L9.54603 13.5938C9.07655 13.2812 9.07655 12.6562 9.38954 12.3438C9.70252 11.875 10.3285 11.875 10.798 12.3438L12.2064 13.75C12.9889 14.5312 14.0843 15 15.1797 15C16.2752 15 17.3706 14.5312 18.1531 13.75L21.5959 10.3125C22.3784 9.53125 22.8479 8.4375 22.8479 7.34375C22.8479 6.25 22.3784 5.15625 21.5959 4.375L20.657 3.4375C19.8745 2.65625 18.7791 2.1875 17.6836 2.1875C16.5882 2.1875 15.4927 2.65625 14.7103 3.4375L11.8934 6.25C11.4239 6.5625 10.798 6.5625 10.485 6.25C10.0155 5.9375 10.0155 5.3125 10.485 4.84375L13.4583 1.875C14.5538 0.625 16.1187 0 17.8401 0C19.5615 0 21.1265 0.625 22.2219 1.875L23.1609 2.8125C24.4128 3.90625 25.0388 5.625 25.0388 7.1875C25.0388 8.90625 24.4128 10.4688 23.1609 11.5625ZM14.5538 9.53125L16.1187 10.9375C16.5882 11.25 16.5882 11.875 16.1187 12.3438C15.8057 12.8125 15.1797 12.8125 14.7103 12.3438L13.1453 10.9375C11.5804 9.21875 8.92006 9.21875 7.19864 10.9375L3.28634 14.8438C2.50388 15.625 2.0344 16.7188 2.0344 17.8125C2.0344 18.9062 2.50388 20 3.28634 20.7812L4.22529 21.7188C5.00775 22.5 6.1032 22.9688 7.19864 22.9688C8.29409 22.9688 9.38954 22.5 10.172 21.7188L13.6148 18.2812C14.0843 17.8125 14.7103 17.8125 15.0233 18.2812C15.4927 18.5938 15.4927 19.2188 15.0233 19.6875L11.5804 23.125C10.485 24.375 8.92006 25 7.19864 25C5.47723 25 3.91231 24.375 2.81686 23.125L1.87791 22.1875C0.625969 21.0938 0 19.5312 0 17.8125C0 16.0938 0.625969 14.5313 1.87791 13.4375L5.79021 9.53125C8.1376 7.03125 12.2064 7.03125 14.5538 9.53125Z" fill="#D6D6D6" fill-opacity="0.6"/>
</svg>
