<svg width="21" height="25" viewBox="0 0 21 25" fill="none" xmlns="http://www.w3.org/2000/svg">
<path d="M19.1473 10L3.82946 0.441176C2.94574 -0.147059 2.06202 -0.147059 1.32558 0.441176C0.44186 0.882353 0 1.91176 0 2.94118V22.3529C0 23.3824 0.44186 24.2647 1.32558 24.8529C1.76744 25 2.2093 25 2.65116 25C3.09302 25 3.53488 24.8529 3.97674 24.5588L19.2946 14.8529C20.1783 14.2647 20.6202 13.3824 20.6202 12.3529C20.6202 11.3235 20.031 10.5882 19.1473 10ZM18.2636 13.2353L2.94574 22.7941C2.65116 22.9412 2.35659 22.9412 2.2093 22.7941C2.06202 22.6471 1.76744 22.5 1.76744 22.2059V2.94118C1.76744 2.5 2.06202 2.35294 2.2093 2.35294C2.35659 2.35294 2.35659 2.20588 2.65116 2.20588C2.79845 2.20588 2.79845 2.20588 3.09302 2.35294L18.4109 12.0588C18.5581 12.2059 18.7054 12.5 18.8527 12.6471C18.7054 12.6471 18.5581 13.0882 18.2636 13.2353Z" fill="#D6D6D6" fill-opacity="0.6"/>
</svg>
