<svg width="55" height="55" viewBox="0 0 81 81" fill="none" xmlns="http://www.w3.org/2000/svg">
<path d="M79.4178 52.8401H40.4999V62.9651H1.58203V79.4182H40.4999H79.4178V52.8401Z" fill="#FFBE52"/>
<path d="M70.295 1.5824L56.6439 21.7287L56.3147 21.7263C51.6164 21.6929 47.1149 19.8356 43.76 16.5464L51.5743 1.5824H70.295Z" fill="#FED2A4"/>
<path d="M35.1921 30.1698L33.5545 32.662C32.6279 34.0722 33.0157 35.966 34.4218 36.8986L58.4493 52.8358H75.9388C77.8605 52.8358 79.4183 51.278 79.4183 49.3563V46.6484H60.5083L35.1921 30.1698Z" fill="white"/>
<path d="M79.4183 46.6483C79.4183 39.8837 73.9345 34.3999 67.1699 34.3999H62.0655L56.8744 21.7291L56.6442 21.7286C51.6325 21.7166 46.8379 19.6813 43.3481 16.0843L35.1934 30.1696L60.5083 46.6481H79.4183" fill="#FF6371"/>
<path d="M10.125 46.4487C10.5411 46.4487 10.9492 46.281 11.2433 45.9851C11.5376 45.6909 11.707 45.2827 11.707 44.8666C11.707 44.4506 11.5378 44.044 11.2433 43.7483C10.9492 43.454 10.5411 43.2846 10.125 43.2846C9.70893 43.2846 9.30076 43.4539 9.0065 43.7483C8.71225 44.0424 8.54297 44.4506 8.54297 44.8666C8.54297 45.2827 8.71209 45.6909 9.0065 45.9851C9.30076 46.281 9.70893 46.4487 10.125 46.4487Z" fill="black"/>
<path d="M80.9998 46.6483C80.9998 39.0222 74.7956 32.8179 67.1694 32.8179H63.1266L58.5725 21.7023L71.6043 2.46987C72.0946 1.74657 71.9054 0.762866 71.1821 0.272754C70.4588 -0.2172 69.4752 -0.028306 68.985 0.694997L55.8201 20.1237C52.1321 19.9318 48.5713 18.5237 45.7475 16.1576L52.9764 2.31468C53.3809 1.54012 53.0808 0.584413 52.3064 0.180047C51.5316 -0.224477 50.576 0.0756333 50.1718 0.850036L43.0239 14.5379C42.5861 14.6295 42.2047 14.901 41.9785 15.2916L33.8554 29.3223L32.2321 31.7929C31.5233 32.8714 31.3249 34.1418 31.5763 35.3164H16.6115C15.7379 35.3164 15.0294 36.0247 15.0294 36.8984C15.0294 37.7722 15.7379 38.4805 16.6115 38.4805H33.9446L41.1883 43.2851H16.4533C15.5797 43.2851 14.8712 43.9935 14.8712 44.8671C14.8712 45.7407 15.5797 46.4492 16.4533 46.4492H45.9584L53.2019 51.2536H25.8926C25.019 51.2536 24.3106 51.962 24.3106 52.8356C24.3106 53.7092 25.019 54.4177 25.8926 54.4177H38.9179V61.3829H31.788C30.9144 61.3829 30.206 62.0913 30.206 62.9649C30.206 63.8385 30.9144 64.5469 31.788 64.5469H38.9179V71.8223C38.9179 72.6959 39.6263 73.4044 40.4999 73.4044C41.3735 73.4044 42.0819 72.6959 42.0819 71.8223V62.9649V54.4219H77.8358V77.836H3.16406V64.5469H19.1554C20.029 64.5469 20.7374 63.8385 20.7374 62.9649C20.7374 62.0913 20.029 61.3829 19.1554 61.3829H1.58203C0.708432 61.3829 0 62.0913 0 62.9649V79.418C0 80.2916 0.708432 81 1.58203 81H79.4178C80.2914 81 80.9998 80.2916 80.9998 79.418V52.8399C80.9998 52.3617 80.7866 51.9339 80.4512 51.6437C80.8011 50.956 80.9998 50.1791 80.9998 49.3561V46.6483ZM75.9383 51.2538H58.9258L35.3074 35.5879C35.3061 35.5869 35.3047 35.5862 35.3033 35.5852L35.2957 35.5801C34.6175 35.1302 34.4292 34.2107 34.8763 33.5305L35.6491 32.3542L59.6447 47.9741C59.9014 48.1413 60.2014 48.2302 60.5077 48.2302H77.8356V49.3561C77.8358 50.4025 76.9845 51.2538 75.9383 51.2538ZM43.7246 18.5904C47.109 21.4213 51.384 23.0937 55.804 23.2909L60.601 34.9995C60.8445 35.5937 61.4229 35.9818 62.065 35.9818H67.1694C72.5134 35.9818 76.9522 39.9321 77.7187 45.0661H60.9774L37.3143 29.6627L43.7246 18.5904Z" fill="black"/>
<path d="M26.5907 64.0836C26.8848 63.7895 27.0542 63.3813 27.0542 62.9652C27.0542 62.5491 26.8849 62.141 26.5907 61.8467C26.2948 61.5525 25.8882 61.3832 25.4722 61.3832C25.0545 61.3832 24.6479 61.5523 24.3537 61.8467C24.0578 62.141 23.8901 62.5476 23.8901 62.9652C23.8901 63.3813 24.0578 63.7895 24.3537 64.0836C24.6479 64.3778 25.0547 64.5472 25.4722 64.5472C25.8882 64.5471 26.2948 64.3778 26.5907 64.0836Z" fill="black"/>
</svg>
