<svg width="25" height="25" viewBox="0 0 25 25" fill="none" xmlns="http://www.w3.org/2000/svg">
                                <path fill-rule="evenodd" clip-rule="evenodd" d="M20.6082 0.788292V2.92793H22.7477C23.985 2.92793 25 3.94299 25 5.18018V22.7477C25 23.9849 23.985 25 22.7477 25H2.25226C1.01508 25 0 23.9849 0 22.7477V5.18018C0 3.94299 1.01508 2.92793 2.25226 2.92793H4.39191V0.641891C4.39191 0.510696 4.4577 0.356606 4.61627 0.219215C4.77667 0.0801697 4.98804 0 5.18018 0H5.3266C5.45776 0 5.61188 0.0658112 5.74927 0.224335C5.88831 0.384781 5.96851 0.59613 5.96851 0.788292V2.92793H19.0316V0.788292C19.0316 0.502647 19.1238 0.317116 19.2363 0.204689C19.3486 0.0922699 19.5342 0 19.8198 0C20.1055 0 20.291 0.0922699 20.4034 0.204689C20.5159 0.317116 20.6082 0.502647 20.6082 0.788292ZM1.5766 23.4234H23.4235V10.3604H1.5766V23.4234ZM1.5766 8.78378H23.4235V4.50451H1.5766V8.78378Z"
                                    fill="#fff" fill-opacity="0.5" />
                            </svg>