<svg width="91" height="26" viewBox="0 0 91 26" fill="none" xmlns="http://www.w3.org/2000/svg">
<rect width="91" height="26" fill="black" fill-opacity="0"/>
<path d="M0 0H85L91 13L85 26H0V0Z" fill="#FFEC96"/>
<path d="M15.832 18H14.6699V9.03809H9.53613V18H8.37402V8.00586H15.832V18ZM21.9023 18.1367C21.4147 18.1367 20.9681 18.0479 20.5625 17.8701C20.1615 17.6878 19.8242 17.4098 19.5508 17.0361H19.4688C19.5234 17.4736 19.5508 17.8883 19.5508 18.2803V21.3633H18.416V10.5078H19.3389L19.4961 11.5332H19.5508C19.8424 11.123 20.182 10.8268 20.5693 10.6445C20.9567 10.4622 21.401 10.3711 21.9023 10.3711C22.8958 10.3711 23.6615 10.7106 24.1992 11.3896C24.7415 12.0687 25.0127 13.0212 25.0127 14.2471C25.0127 15.4775 24.737 16.4346 24.1855 17.1182C23.6387 17.7972 22.8776 18.1367 21.9023 18.1367ZM21.7383 11.335C20.9727 11.335 20.4189 11.5469 20.0771 11.9707C19.7354 12.3945 19.5599 13.069 19.5508 13.9941V14.2471C19.5508 15.2998 19.7262 16.054 20.0771 16.5098C20.4281 16.9609 20.9909 17.1865 21.7656 17.1865C22.4128 17.1865 22.9186 16.9245 23.2832 16.4004C23.6523 15.8763 23.8369 15.154 23.8369 14.2334C23.8369 13.2992 23.6523 12.5837 23.2832 12.0869C22.9186 11.5856 22.4036 11.335 21.7383 11.335ZM31.6094 18L31.3838 16.9336H31.3291C30.9554 17.403 30.5817 17.722 30.208 17.8906C29.8389 18.0547 29.3763 18.1367 28.8203 18.1367C28.0775 18.1367 27.4941 17.9453 27.0703 17.5625C26.651 17.1797 26.4414 16.6351 26.4414 15.9287C26.4414 14.4157 27.6514 13.6227 30.0713 13.5498L31.3428 13.5088V13.0439C31.3428 12.4561 31.2152 12.0231 30.96 11.7451C30.7093 11.4626 30.306 11.3213 29.75 11.3213C29.1257 11.3213 28.4193 11.5127 27.6309 11.8955L27.2822 11.0273C27.6514 10.8268 28.0547 10.6696 28.4922 10.5557C28.9342 10.4417 29.3763 10.3848 29.8184 10.3848C30.7116 10.3848 31.3724 10.583 31.8008 10.9795C32.2337 11.376 32.4502 12.0117 32.4502 12.8867V18H31.6094ZM29.0459 17.2002C29.7523 17.2002 30.306 17.0065 30.707 16.6191C31.1126 16.2318 31.3154 15.6895 31.3154 14.9922V14.3154L30.1807 14.3633C29.2783 14.3952 28.6266 14.5365 28.2256 14.7871C27.8291 15.0332 27.6309 15.4183 27.6309 15.9424C27.6309 16.3525 27.7539 16.6647 28 16.8789C28.2507 17.0931 28.5993 17.2002 29.0459 17.2002ZM39.1631 10.5078H40.4072L37.1738 14.124L40.6738 18H39.3477L35.9297 14.2061V18H34.7949V10.5078H35.9297V14.1514L39.1631 10.5078ZM47.1201 11.4785H44.6865V18H43.5518V11.4785H41.1455V10.5078H47.1201V11.4785ZM49.6699 10.5078V15.2588L49.6221 16.5029L49.6016 16.8926L53.6553 10.5078H55.0703V18H54.0107V13.4199L54.0312 12.5176L54.0654 11.6289L50.0186 18H48.6035V10.5078H49.6699ZM61.8447 10.5078H63.0889L59.8555 14.124L63.3555 18H62.0293L58.6113 14.2061V18H57.4766V10.5078H58.6113V14.1514L61.8447 10.5078ZM63.5605 10.5078H64.7773L66.418 14.7803C66.778 15.7555 67.0013 16.4596 67.0879 16.8926H67.1426C67.2018 16.6602 67.3249 16.2637 67.5117 15.7031C67.7031 15.138 68.3229 13.4062 69.3711 10.5078H70.5879L67.3682 19.0391C67.0492 19.8822 66.6755 20.4792 66.2471 20.8301C65.8232 21.1855 65.3014 21.3633 64.6816 21.3633C64.3353 21.3633 63.9935 21.3245 63.6562 21.2471V20.3379C63.9069 20.3926 64.1872 20.4199 64.4971 20.4199C65.2764 20.4199 65.8324 19.9824 66.165 19.1074L66.582 18.041L63.5605 10.5078ZM75.6943 16.9062L75.9062 16.2705L76.2002 15.4639L78.2305 10.5215H79.6729V18H78.668V11.8135L78.5312 12.21L78.1348 13.2559L76.2002 18H75.25L73.3154 13.2422C73.0739 12.6315 72.9076 12.1553 72.8164 11.8135V18H71.8047V10.5215H73.1924L75.1543 15.2725C75.3503 15.7738 75.5303 16.3184 75.6943 16.9062Z" fill="black" fill-opacity="0.65"/>
</svg>
