<svg width="251" height="26" viewBox="0 0 251 26" fill="none" xmlns="http://www.w3.org/2000/svg">
<path d="M0 0H245L251 13L245 26H0V0Z" fill="#FFEC96"/>
<path d="M16.2559 20.6045H15.1484V18H8.20312V20.6045H7.0957V16.9473H7.86816C8.56999 15.7669 9.16927 14.3314 9.66602 12.6406C10.1673 10.9499 10.4453 9.40495 10.5 8.00586H14.9912V16.9473H16.2559V20.6045ZM13.8291 16.9473V9.05176H11.5527C11.4707 10.1546 11.195 11.4808 10.7256 13.0303C10.2562 14.5752 9.70931 15.8809 9.08496 16.9473H13.8291ZM23.8506 12.3877C23.8506 12.8753 23.7093 13.2467 23.4268 13.502C23.1488 13.7526 22.7568 13.9212 22.251 14.0078V14.0693C22.889 14.1559 23.3538 14.3428 23.6455 14.6299C23.9417 14.917 24.0898 15.3135 24.0898 15.8193C24.0898 16.5166 23.8324 17.0544 23.3174 17.4326C22.807 17.8109 22.0596 18 21.0752 18H17.7734V10.5078H21.0615C22.9209 10.5078 23.8506 11.1344 23.8506 12.3877ZM22.9551 15.7441C22.9551 15.3385 22.8001 15.0446 22.4902 14.8623C22.1849 14.6755 21.6768 14.582 20.9658 14.582H18.9082V17.0498H20.9932C22.3011 17.0498 22.9551 16.6146 22.9551 15.7441ZM22.7432 12.4971C22.7432 12.1325 22.6019 11.875 22.3193 11.7246C22.0413 11.5697 21.6175 11.4922 21.0479 11.4922H18.9082V13.6045H20.8291C21.5309 13.6045 22.0254 13.5179 22.3125 13.3447C22.5996 13.1715 22.7432 12.889 22.7432 12.4971ZM24.5547 10.5078H25.7715L27.4121 14.7803C27.7721 15.7555 27.9954 16.4596 28.082 16.8926H28.1367C28.196 16.6602 28.319 16.2637 28.5059 15.7031C28.6973 15.138 29.3171 13.4062 30.3652 10.5078H31.582L28.3623 19.0391C28.0433 19.8822 27.6696 20.4792 27.2412 20.8301C26.8174 21.1855 26.2956 21.3633 25.6758 21.3633C25.3294 21.3633 24.9876 21.3245 24.6504 21.2471V20.3379C24.901 20.3926 25.1813 20.4199 25.4912 20.4199C26.2705 20.4199 26.8265 19.9824 27.1592 19.1074L27.5762 18.041L24.5547 10.5078ZM34.6035 14.165L31.999 10.5078H33.291L35.2666 13.3789L37.2354 10.5078H38.5137L35.9092 14.165L38.6504 18H37.3652L35.2666 14.9648L33.1475 18H31.8623L34.6035 14.165ZM41.2754 10.5078V13.6455H45.4727V10.5078H46.6074V18H45.4727V14.623H41.2754V18H40.1406V10.5078H41.2754ZM52.1787 18.1367C51.0713 18.1367 50.1963 17.7995 49.5537 17.125C48.9157 16.4505 48.5967 15.514 48.5967 14.3154C48.5967 13.1077 48.8929 12.1484 49.4854 11.4375C50.0824 10.7266 50.8822 10.3711 51.8848 10.3711C52.8236 10.3711 53.5664 10.681 54.1133 11.3008C54.6602 11.916 54.9336 12.7295 54.9336 13.7412V14.459H49.7725C49.7952 15.3385 50.0163 16.0062 50.4355 16.4619C50.8594 16.9176 51.4541 17.1455 52.2197 17.1455C53.0264 17.1455 53.8239 16.9769 54.6123 16.6396V17.6514C54.2113 17.8245 53.8307 17.9476 53.4707 18.0205C53.1152 18.098 52.6846 18.1367 52.1787 18.1367ZM51.8711 11.3213C51.2695 11.3213 50.7887 11.5173 50.4287 11.9092C50.0732 12.3011 49.8636 12.8434 49.7998 13.5361H53.7168C53.7168 12.8206 53.5573 12.2738 53.2383 11.8955C52.9193 11.5127 52.4635 11.3213 51.8711 11.3213ZM63.3828 20.5908H62.2822V18H57.0459V20.5908H55.9521V17.0225H56.54C57.1507 16.193 57.6292 15.2201 57.9756 14.1035C58.3219 12.987 58.502 11.7884 58.5156 10.5078H62.3096V17.0225H63.3828V20.5908ZM61.2158 17.0225V11.4033H59.5342C59.4749 12.415 59.279 13.4404 58.9463 14.4795C58.6182 15.514 58.208 16.3617 57.7158 17.0225H61.2158ZM68.0518 18.1367C66.9443 18.1367 66.0693 17.7995 65.4268 17.125C64.7887 16.4505 64.4697 15.514 64.4697 14.3154C64.4697 13.1077 64.766 12.1484 65.3584 11.4375C65.9554 10.7266 66.7552 10.3711 67.7578 10.3711C68.6966 10.3711 69.4395 10.681 69.9863 11.3008C70.5332 11.916 70.8066 12.7295 70.8066 13.7412V14.459H65.6455C65.6683 15.3385 65.8893 16.0062 66.3086 16.4619C66.7324 16.9176 67.3271 17.1455 68.0928 17.1455C68.8994 17.1455 69.6969 16.9769 70.4854 16.6396V17.6514C70.0843 17.8245 69.7038 17.9476 69.3438 18.0205C68.9883 18.098 68.5576 18.1367 68.0518 18.1367ZM67.7441 11.3213C67.1426 11.3213 66.6618 11.5173 66.3018 11.9092C65.9463 12.3011 65.7367 12.8434 65.6729 13.5361H69.5898C69.5898 12.8206 69.4303 12.2738 69.1113 11.8955C68.7923 11.5127 68.3366 11.3213 67.7441 11.3213ZM78.333 18H77.1846V11.4785H74.9355C74.8125 13.1009 74.6416 14.3883 74.4229 15.3408C74.2041 16.2933 73.9193 16.9906 73.5684 17.4326C73.222 17.8747 72.7799 18.0957 72.2422 18.0957C71.9961 18.0957 71.8001 18.0684 71.6543 18.0137V17.1729C71.7546 17.2002 71.8685 17.2139 71.9961 17.2139C72.5202 17.2139 72.9372 16.6602 73.2471 15.5527C73.557 14.4453 73.7917 12.7637 73.9512 10.5078H78.333V18ZM81.8809 13.6045H84.1914C86.1055 13.6045 87.0625 14.3086 87.0625 15.7168C87.0625 16.4551 86.8118 17.0202 86.3105 17.4121C85.8138 17.804 85.0846 18 84.123 18H80.7461V10.5078H81.8809V13.6045ZM81.8809 14.582V17.0498H84.0684C84.6699 17.0498 85.1302 16.945 85.4492 16.7354C85.7682 16.5257 85.9277 16.209 85.9277 15.7852C85.9277 15.3704 85.7796 15.0674 85.4834 14.876C85.1917 14.68 84.7087 14.582 84.0342 14.582H81.8809ZM90.166 10.5078V13.6455H94.3633V10.5078H95.498V18H94.3633V14.623H90.166V18H89.0312V10.5078H90.166ZM99.0391 13.6045H101.083C102.035 13.6045 102.74 13.7822 103.195 14.1377C103.656 14.4886 103.886 15.015 103.886 15.7168C103.886 16.4688 103.642 17.0384 103.154 17.4258C102.671 17.8086 101.958 18 101.015 18H97.9043V10.5078H99.0391V13.6045ZM106.278 18H105.144V10.5078H106.278V18ZM99.0391 14.582V17.0498H100.96C102.163 17.0498 102.765 16.6283 102.765 15.7852C102.765 15.3659 102.626 15.0605 102.348 14.8691C102.07 14.6777 101.596 14.582 100.926 14.582H99.0391ZM109.758 10.5078V15.2588L109.71 16.5029L109.689 16.8926L113.743 10.5078H115.158V18H114.099V13.4199L114.119 12.5176L114.153 11.6289L110.106 18H108.691V10.5078H109.758ZM111.897 9.5166C111.054 9.5166 110.439 9.35482 110.052 9.03125C109.664 8.70312 109.448 8.16536 109.402 7.41797H110.469C110.51 7.89193 110.633 8.22233 110.838 8.40918C111.048 8.59603 111.41 8.68945 111.925 8.68945C112.394 8.68945 112.741 8.58919 112.964 8.38867C113.192 8.18815 113.331 7.86458 113.381 7.41797H114.454C114.399 8.13802 114.169 8.66895 113.764 9.01074C113.358 9.34798 112.736 9.5166 111.897 9.5166ZM127.668 14.2471C127.668 15.4684 127.36 16.4232 126.745 17.1113C126.13 17.7949 125.28 18.1367 124.195 18.1367C123.525 18.1367 122.931 17.9795 122.411 17.665C121.892 17.3506 121.491 16.8994 121.208 16.3115C120.925 15.7236 120.784 15.0355 120.784 14.2471C120.784 13.0257 121.09 12.0755 121.7 11.3965C122.311 10.7129 123.159 10.3711 124.243 10.3711C125.291 10.3711 126.123 10.7197 126.738 11.417C127.358 12.1143 127.668 13.0576 127.668 14.2471ZM121.96 14.2471C121.96 15.2041 122.151 15.9333 122.534 16.4346C122.917 16.9359 123.48 17.1865 124.223 17.1865C124.965 17.1865 125.528 16.9382 125.911 16.4414C126.299 15.9401 126.492 15.2087 126.492 14.2471C126.492 13.2946 126.299 12.5723 125.911 12.0801C125.528 11.5833 124.961 11.335 124.209 11.335C123.466 11.335 122.906 11.5788 122.527 12.0664C122.149 12.554 121.96 13.2809 121.96 14.2471ZM130.799 10.5078V13.6455H134.996V10.5078H136.131V18H134.996V14.623H130.799V18H129.664V10.5078H130.799ZM144.122 18H142.974V11.4785H140.725C140.602 13.1009 140.431 14.3883 140.212 15.3408C139.993 16.2933 139.708 16.9906 139.357 17.4326C139.011 17.8747 138.569 18.0957 138.031 18.0957C137.785 18.0957 137.589 18.0684 137.443 18.0137V17.1729C137.544 17.2002 137.658 17.2139 137.785 17.2139C138.309 17.2139 138.726 16.6602 139.036 15.5527C139.346 14.4453 139.581 12.7637 139.74 10.5078H144.122V18ZM151.143 18L150.917 16.9336H150.862C150.489 17.403 150.115 17.722 149.741 17.8906C149.372 18.0547 148.91 18.1367 148.354 18.1367C147.611 18.1367 147.027 17.9453 146.604 17.5625C146.184 17.1797 145.975 16.6351 145.975 15.9287C145.975 14.4157 147.185 13.6227 149.604 13.5498L150.876 13.5088V13.0439C150.876 12.4561 150.748 12.0231 150.493 11.7451C150.243 11.4626 149.839 11.3213 149.283 11.3213C148.659 11.3213 147.952 11.5127 147.164 11.8955L146.815 11.0273C147.185 10.8268 147.588 10.6696 148.025 10.5557C148.467 10.4417 148.91 10.3848 149.352 10.3848C150.245 10.3848 150.906 10.583 151.334 10.9795C151.767 11.376 151.983 12.0117 151.983 12.8867V18H151.143ZM148.579 17.2002C149.285 17.2002 149.839 17.0065 150.24 16.6191C150.646 16.2318 150.849 15.6895 150.849 14.9922V14.3154L149.714 14.3633C148.812 14.3952 148.16 14.5365 147.759 14.7871C147.362 15.0332 147.164 15.4183 147.164 15.9424C147.164 16.3525 147.287 16.6647 147.533 16.8789C147.784 17.0931 148.132 17.2002 148.579 17.2002ZM155.395 10.5078V15.2588L155.347 16.5029L155.326 16.8926L159.38 10.5078H160.795V18H159.735V13.4199L159.756 12.5176L159.79 11.6289L155.743 18H154.328V10.5078H155.395ZM157.534 9.5166C156.691 9.5166 156.076 9.35482 155.688 9.03125C155.301 8.70312 155.085 8.16536 155.039 7.41797H156.105C156.146 7.89193 156.27 8.22233 156.475 8.40918C156.684 8.59603 157.047 8.68945 157.562 8.68945C158.031 8.68945 158.377 8.58919 158.601 8.38867C158.828 8.18815 158.967 7.86458 159.018 7.41797H160.091C160.036 8.13802 159.806 8.66895 159.4 9.01074C158.995 9.34798 158.373 9.5166 157.534 9.5166ZM164.336 10.5078V13.6455H168.533V10.5078H169.668V18H168.533V14.623H164.336V18H163.201V10.5078H164.336ZM171.445 14.7666V13.7275H174.802V14.7666H171.445ZM177.652 10.5078V15.2588L177.604 16.5029L177.584 16.8926L181.638 10.5078H183.053V18H181.993V13.4199L182.014 12.5176L182.048 11.6289L178.001 18H176.586V10.5078H177.652ZM186.594 10.5078V13.6455H190.791V10.5078H191.926V18H190.791V14.623H186.594V18H185.459V10.5078H186.594ZM199.384 11.4785H196.95V18H195.815V11.4785H193.409V10.5078H199.384V11.4785ZM204.032 18.1367C202.925 18.1367 202.05 17.7995 201.407 17.125C200.769 16.4505 200.45 15.514 200.45 14.3154C200.45 13.1077 200.746 12.1484 201.339 11.4375C201.936 10.7266 202.736 10.3711 203.738 10.3711C204.677 10.3711 205.42 10.681 205.967 11.3008C206.514 11.916 206.787 12.7295 206.787 13.7412V14.459H201.626C201.649 15.3385 201.87 16.0062 202.289 16.4619C202.713 16.9176 203.308 17.1455 204.073 17.1455C204.88 17.1455 205.677 16.9769 206.466 16.6396V17.6514C206.065 17.8245 205.684 17.9476 205.324 18.0205C204.969 18.098 204.538 18.1367 204.032 18.1367ZM203.725 11.3213C203.123 11.3213 202.642 11.5173 202.282 11.9092C201.927 12.3011 201.717 12.8434 201.653 13.5361H205.57C205.57 12.8206 205.411 12.2738 205.092 11.8955C204.773 11.5127 204.317 11.3213 203.725 11.3213ZM209.863 10.5078V13.6455H214.061V10.5078H215.195V18H214.061V14.623H209.863V18H208.729V10.5078H209.863ZM220.596 18.1367C219.511 18.1367 218.67 17.804 218.073 17.1387C217.481 16.4688 217.185 15.5231 217.185 14.3018C217.185 13.0485 217.485 12.0801 218.087 11.3965C218.693 10.7129 219.554 10.3711 220.671 10.3711C221.031 10.3711 221.391 10.4098 221.751 10.4873C222.111 10.5648 222.394 10.6559 222.599 10.7607L222.25 11.7246C221.999 11.6243 221.726 11.5423 221.43 11.4785C221.133 11.4102 220.871 11.376 220.644 11.376C219.121 11.376 218.36 12.3467 218.36 14.2881C218.36 15.2087 218.545 15.915 218.914 16.4072C219.288 16.8994 219.839 17.1455 220.568 17.1455C221.193 17.1455 221.833 17.0111 222.489 16.7422V17.7471C221.988 18.0068 221.357 18.1367 220.596 18.1367ZM225.34 10.5078V15.2588L225.292 16.5029L225.271 16.8926L229.325 10.5078H230.74V18H229.681V13.4199L229.701 12.5176L229.735 11.6289L225.688 18H224.273V10.5078H225.34ZM239.224 12.3877C239.224 12.8753 239.082 13.2467 238.8 13.502C238.522 13.7526 238.13 13.9212 237.624 14.0078V14.0693C238.262 14.1559 238.727 14.3428 239.019 14.6299C239.315 14.917 239.463 15.3135 239.463 15.8193C239.463 16.5166 239.205 17.0544 238.69 17.4326C238.18 17.8109 237.433 18 236.448 18H233.146V10.5078H236.435C238.294 10.5078 239.224 11.1344 239.224 12.3877ZM238.328 15.7441C238.328 15.3385 238.173 15.0446 237.863 14.8623C237.558 14.6755 237.05 14.582 236.339 14.582H234.281V17.0498H236.366C237.674 17.0498 238.328 16.6146 238.328 15.7441ZM238.116 12.4971C238.116 12.1325 237.975 11.875 237.692 11.7246C237.414 11.5697 236.991 11.4922 236.421 11.4922H234.281V13.6045H236.202C236.904 13.6045 237.398 13.5179 237.686 13.3447C237.973 13.1715 238.116 12.889 238.116 12.4971Z" fill="black" fill-opacity="0.65"/>
</svg>
