<svg width="21" height="25" viewBox="0 0 21 25" fill="none" xmlns="http://www.w3.org/2000/svg">
                                <path fill-rule="evenodd" clip-rule="evenodd" d="M10.2533 1.41798L10.2356 1.41747L10.2178 1.41798C5.30415 1.55923 1.34053 5.38461 1.48213 10.261C1.48521 12.7222 2.70915 14.8786 4.31734 16.839C5.44682 18.2159 6.81954 19.5556 8.15953 20.8633L8.16008 20.8638C8.71794 21.4082 9.2701 21.9471 9.79671 22.4809L10.2356 22.9256L10.6744 22.4809C11.2004 21.9477 11.7519 21.4094 12.3092 20.8656L12.311 20.8638C13.6512 19.5559 15.0241 18.2161 16.1537 16.839C17.7619 14.8786 18.9859 12.7222 18.9889 10.2611C19.1306 5.38462 15.1669 1.55923 10.2533 1.41798ZM0.0027626 10.2517V10.2446L0.0025795 10.2374C-0.124435 4.77494 4.455 0.132545 10.2356 0C16.0141 0.1325 20.5874 4.76968 20.3334 10.3563L20.3327 10.3703V10.3843C20.3327 12.6676 19.451 14.699 18.1223 16.5907C16.7877 18.4909 15.0338 20.2076 13.3307 21.8721L11.6957 23.47L10.2345 25L8.6393 23.337L7.00032 21.7352L6.99571 21.7309C3.56621 18.5132 0.0027626 14.9796 0.0027626 10.2517Z"
                                    fill="#fff" fill-opacity="0.5" />
                                <path fill-rule="evenodd" clip-rule="evenodd" d="M9.80817 15.3702C7.1517 15.3702 5 13.2472 5 10.685C5 8.12283 7.1517 5.99985 9.80817 5.99985C12.4647 5.99985 14.6163 8.12283 14.6163 10.685C14.6163 13.2472 12.4647 15.3702 9.80817 15.3702ZM9.80817 7.41772C7.98935 7.41772 6.4794 8.87335 6.4794 10.685C6.4794 12.4967 7.98935 13.9523 9.80817 13.9523C11.627 13.9523 13.137 12.4967 13.137 10.685C13.137 8.87335 11.627 7.41772 9.80817 7.41772Z"
                                    fill="#fff" fill-opacity="0.5" />
                            </svg>