<svg width="114" height="64" viewBox="0 0 114 64" fill="none"
          xmlns="http://www.w3.org/2000/svg">
          <path
            d="M7.38456 34.088C9.68856 35.192 12.4246 35.576 14.9686 35.576C25.6246 35.576 31.3366 25.832 31.3366 16.52C31.3366 5.336 24.3286 0.103997 17.4166 0.103997C9.97656 0.103997 5.70456 5.864 5.70456 11.672C5.70456 17.576 9.78456 23.432 16.9366 23.432C18.5686 23.432 20.8726 22.856 21.6406 22.232H21.7366C20.6806 25.4 18.3766 27.896 14.3446 27.896C12.6646 27.896 10.9846 27.464 9.64056 26.888L7.38456 34.088ZM19.1446 16.664C15.4486 16.664 13.9606 14.072 13.9606 11.624C13.9606 9.608 15.3046 7.784 17.4166 7.784C19.8166 7.784 22.6966 10.52 22.6966 14.6C22.6966 16.184 21.0646 16.664 19.1446 16.664ZM48.7718 35.576C58.5158 35.576 61.6838 27.608 61.6838 17.768C61.6838 7.928 58.5158 0.103997 48.7718 0.103997C39.0278 0.103997 35.8598 7.928 35.8598 17.768C35.8598 27.608 39.0278 35.576 48.7718 35.576ZM48.7718 27.896C45.4598 27.896 44.4998 23.384 44.4998 17.768C44.4998 12.2 45.4598 7.784 48.7718 7.784C52.0838 7.784 53.0438 12.2 53.0438 17.768C53.0438 23.384 52.0838 27.896 48.7718 27.896Z"
            fill="#606060"></path>
          <path
            d="M78.2047 35L85.3778 15.898H87.6632L80.5561 35H78.2047ZM93.4493 33.9564C92.8328 34.8195 91.8024 35.251 90.3581 35.251C88.9138 35.251 87.8878 34.8195 87.2801 33.9564C86.6812 33.0933 86.3818 31.856 86.3818 30.2443V29.5442C86.3818 27.9149 86.6768 26.6908 87.2669 25.8717C87.8658 25.0527 88.8918 24.6432 90.3449 24.6432C91.8068 24.6432 92.8372 25.0527 93.4361 25.8717C94.0438 26.682 94.3564 27.9017 94.374 29.531V30.2443C94.374 31.856 94.0658 33.0933 93.4493 33.9564ZM90.3581 33.5337C91.274 33.5249 91.8376 33.1065 92.049 32.2787C92.1723 31.8207 92.2295 31.2043 92.2207 30.4293V29.28C92.2207 28.0206 92.071 27.2192 91.7716 26.8757C91.4722 26.5322 91.0759 26.3605 90.5827 26.3605C89.4818 26.3605 88.8389 26.726 88.654 27.457C88.5483 27.9061 88.4955 28.505 88.4955 29.2536V30.4293C88.4955 31.7151 88.6496 32.5561 88.9578 32.9524C89.2661 33.3399 89.7328 33.5337 90.3581 33.5337ZM71.626 21.2217V20.5216C71.626 18.8923 71.921 17.6682 72.5111 16.8491C73.1099 16.0301 74.1359 15.6206 75.5891 15.6206C77.0422 15.6206 78.0726 16.0301 78.6803 16.8491C79.2879 17.6594 79.6006 18.8791 79.6182 20.5084V21.2217C79.6182 22.8334 79.3055 24.0707 78.6803 24.9338C78.0638 25.7969 77.0202 26.2284 75.5494 26.2284C74.0875 26.2284 73.0659 25.7837 72.4847 24.8942C71.9122 24.0047 71.626 22.7805 71.626 21.2217ZM76.4345 24.3526C76.8661 24.1588 77.1435 23.8153 77.2668 23.3222C77.3989 22.829 77.4649 22.1905 77.4649 21.4067V20.2574C77.4649 19.0068 77.3152 18.2098 77.0158 17.8663C76.7163 17.5141 76.32 17.3379 75.8268 17.3379C74.726 17.3379 74.0831 17.7034 73.8982 18.4344C73.7925 18.8835 73.7396 19.4824 73.7396 20.231V21.4067C73.7396 22.6925 73.8937 23.5335 74.202 23.9298C74.5102 24.3173 74.9021 24.5111 75.3777 24.5111C75.8533 24.5111 76.2055 24.4582 76.4345 24.3526Z"
            fill="#606060" fill-opacity="0.5"></path>
          <path
            d="M78.2047 35L77.677 34.8019L77.391 35.5636H78.2047V35ZM85.3778 15.898V15.3344H84.9874L84.8502 15.6999L85.3778 15.898ZM87.6632 15.898L88.1915 16.0946L88.4743 15.3344H87.6632V15.898ZM80.5561 35V35.5636H80.9478L81.0844 35.1965L80.5561 35ZM87.2801 33.9564L86.817 34.2777L86.8192 34.2809L87.2801 33.9564ZM87.2669 25.8717L86.8119 25.539L86.8096 25.5423L87.2669 25.8717ZM93.4361 25.8717L92.9811 26.2044L92.9852 26.2099L93.4361 25.8717ZM94.374 29.531L94.9377 29.531L94.9376 29.5249L94.374 29.531ZM90.3581 33.5337L90.3581 34.0973L90.3635 34.0973L90.3581 33.5337ZM92.049 32.2787L91.5047 32.1322L91.5029 32.1393L92.049 32.2787ZM92.2207 30.4293L91.6571 30.4293L91.6571 30.4357L92.2207 30.4293ZM88.654 27.457L88.1075 27.3187L88.1053 27.3279L88.654 27.457ZM88.9578 32.9524L88.5129 33.2985L88.5167 33.3033L88.9578 32.9524ZM72.5111 16.8491L72.0561 16.5165L72.0538 16.5197L72.5111 16.8491ZM78.6803 16.8491L78.2276 17.185L78.2293 17.1873L78.6803 16.8491ZM79.6182 20.5084L80.1819 20.5084L80.1818 20.5023L79.6182 20.5084ZM78.6803 24.9338L78.2238 24.6031L78.2216 24.6062L78.6803 24.9338ZM72.4847 24.8942L72.0107 25.1992L72.0128 25.2025L72.4847 24.8942ZM76.4345 24.3526L76.2036 23.8383L76.1983 23.8408L76.4345 24.3526ZM77.2668 23.3222L76.7222 23.1763L76.72 23.1855L77.2668 23.3222ZM77.0158 17.8663L76.5863 18.2314L76.5909 18.2367L77.0158 17.8663ZM73.8982 18.4344L73.3517 18.2961L73.3495 18.3053L73.8982 18.4344ZM74.202 23.9298L73.7571 24.2759L73.7609 24.2807L74.202 23.9298ZM78.7323 35.1981L85.9055 16.0962L84.8502 15.6999L77.677 34.8019L78.7323 35.1981ZM85.3778 16.4616H87.6632V15.3344H85.3778V16.4616ZM87.135 15.7015L80.0278 34.8035L81.0844 35.1965L88.1915 16.0946L87.135 15.7015ZM80.5561 34.4364H78.2047V35.5636H80.5561V34.4364ZM92.9906 33.6288C92.5156 34.2938 91.6919 34.6874 90.3581 34.6874V35.8146C91.9129 35.8146 93.15 35.3451 93.9079 34.284L92.9906 33.6288ZM90.3581 34.6874C89.0238 34.6874 88.2069 34.2937 87.741 33.6319L86.8192 34.2809C87.5687 35.3453 88.8038 35.8146 90.3581 35.8146V34.6874ZM87.7432 33.6351C87.2362 32.9045 86.9455 31.7984 86.9455 30.2443H85.8182C85.8182 31.9135 86.1263 33.2822 86.817 34.2777L87.7432 33.6351ZM86.9455 30.2443V29.5442H85.8182V30.2443H86.9455ZM86.9455 29.5442C86.9455 27.9665 87.2341 26.8815 87.7242 26.2012L86.8096 25.5423C86.1196 26.5 85.8182 27.8633 85.8182 29.5442H86.9455ZM87.7219 26.2044C88.1739 25.5862 88.9892 25.2068 90.3449 25.2068V24.0795C88.7944 24.0795 87.5576 24.5192 86.8119 25.5391L87.7219 26.2044ZM90.3449 25.2068C91.7109 25.2068 92.5297 25.5871 92.9811 26.2044L93.8911 25.5391C93.1447 24.5183 91.9028 24.0795 90.3449 24.0795V25.2068ZM92.9852 26.2099C93.489 26.8817 93.7934 27.9604 93.8104 29.5371L94.9376 29.5249C94.9194 27.843 94.5985 26.4822 93.887 25.5336L92.9852 26.2099ZM93.8104 29.531V30.2443H94.9376V29.531H93.8104ZM93.8104 30.2443C93.8104 31.7959 93.5117 32.8993 92.9906 33.6288L93.9079 34.284C94.6198 33.2874 94.9376 31.916 94.9376 30.2443H93.8104ZM90.3635 34.0973C90.9044 34.0921 91.4007 33.965 91.8037 33.6659C92.2106 33.3639 92.4646 32.9293 92.5951 32.4181L91.5029 32.1393C91.422 32.4559 91.2885 32.6444 91.1318 32.7607C90.9712 32.88 90.7277 32.9664 90.3527 32.9701L90.3635 34.0973ZM92.5933 32.4252C92.7357 31.896 92.7934 31.2212 92.7843 30.4229L91.6571 30.4357C91.6657 31.1873 91.6089 31.7455 91.5047 32.1322L92.5933 32.4252ZM92.7844 30.4293V29.28H91.6571V30.4293H92.7844ZM92.7844 29.28C92.7844 28.6321 92.7462 28.0788 92.6625 27.6309C92.5817 27.1985 92.4461 26.7917 92.1964 26.5053L91.3467 27.2461C91.3965 27.3032 91.4855 27.4689 91.5544 27.8379C91.6204 28.1913 91.6571 28.6684 91.6571 29.28H92.7844ZM92.1964 26.5053C91.7804 26.0281 91.2236 25.7969 90.5827 25.7969V26.9241C90.9281 26.9241 91.1639 27.0364 91.3467 27.2461L92.1964 26.5053ZM90.5827 25.7969C89.9788 25.7969 89.4342 25.8957 88.9963 26.1446C88.5385 26.4049 88.2369 26.8077 88.1076 27.3187L89.2004 27.5952C89.256 27.3753 89.3684 27.2298 89.5534 27.1246C89.7584 27.0081 90.0857 26.9241 90.5827 26.9241V25.7969ZM88.1053 27.3279C87.9855 27.8372 87.9318 28.4848 87.9318 29.2536H89.0591C89.0591 28.5251 89.1111 27.975 89.2026 27.5861L88.1053 27.3279ZM87.9318 29.2536V30.4293H89.0591V29.2536H87.9318ZM87.9318 30.4293C87.9318 31.0911 87.9712 31.6597 88.0566 32.126C88.14 32.581 88.2769 32.9951 88.5129 33.2985L89.4027 32.6064C89.3305 32.5135 89.2362 32.3088 89.1654 31.9228C89.0968 31.548 89.0591 31.0533 89.0591 30.4293H87.9318ZM88.5167 33.3033C88.9592 33.8596 89.6104 34.0973 90.3581 34.0973V32.97C89.8552 32.97 89.5729 32.8202 89.3989 32.6015L88.5167 33.3033ZM72.1896 21.2217V20.5216H71.0624V21.2217H72.1896ZM72.1896 20.5216C72.1896 18.9439 72.4783 17.8589 72.9684 17.1786L72.0538 16.5197C71.3638 17.4774 71.0624 18.8408 71.0624 20.5216H72.1896ZM72.9661 17.1818C73.4181 16.5636 74.2333 16.1842 75.5891 16.1842V15.057C74.0385 15.057 72.8018 15.4966 72.0561 16.5165L72.9661 17.1818ZM75.5891 16.1842C76.9441 16.1842 77.7664 16.5634 78.2276 17.185L79.1329 16.5133C78.3787 15.4968 77.1403 15.057 75.5891 15.057V16.1842ZM78.2293 17.1873C78.7332 17.8591 79.0375 18.9378 79.0546 20.5145L80.1818 20.5023C80.1636 18.8204 79.8427 17.4597 79.1312 16.511L78.2293 17.1873ZM79.0545 20.5084V21.2217H80.1818V20.5084H79.0545ZM79.0545 21.2217C79.0545 22.772 78.752 23.8741 78.2238 24.6031L79.1367 25.2645C79.8591 24.2673 80.1818 22.8947 80.1818 21.2217H79.0545ZM78.2216 24.6062C77.7484 25.2686 76.914 25.6648 75.5494 25.6648V26.792C77.1263 26.792 78.3791 26.3251 79.1389 25.2614L78.2216 24.6062ZM75.5494 25.6648C74.1992 25.6648 73.3969 25.2599 72.9565 24.5859L72.0128 25.2025C72.7349 26.3075 73.9758 26.792 75.5494 26.792V25.6648ZM72.9586 24.5891C72.4663 23.8241 72.1896 22.7206 72.1896 21.2217H71.0624C71.0624 22.8405 71.3582 24.1853 72.0107 25.1992L72.9586 24.5891ZM76.6654 24.8667C77.2676 24.5964 77.652 24.1052 77.8136 23.4589L76.72 23.1855C76.635 23.5255 76.4645 23.7212 76.2037 23.8384L76.6654 24.8667ZM77.8112 23.468C77.9609 22.9091 78.0286 22.2165 78.0286 21.4067H76.9013C76.9013 22.1645 76.8368 22.7489 76.7223 23.1763L77.8112 23.468ZM78.0286 21.4067V20.2574H76.9013V21.4067H78.0286ZM78.0286 20.2574C78.0286 19.6138 77.9903 19.0636 77.9066 18.6176C77.8257 18.1869 77.6898 17.7818 77.4406 17.4959L76.5909 18.2367C76.6411 18.2943 76.7299 18.4595 76.7987 18.8258C76.8646 19.1768 76.9013 19.6504 76.9013 20.2574H78.0286ZM77.4452 17.5013C77.0308 17.0138 76.4728 16.7743 75.8268 16.7743V17.9016C76.1672 17.9016 76.4018 18.0144 76.5863 18.2314L77.4452 17.5013ZM75.8268 16.7743C75.223 16.7743 74.6784 16.8731 74.2405 17.122C73.7826 17.3823 73.481 17.7851 73.3517 18.2961L74.4446 18.5726C74.5002 18.3527 74.6125 18.2072 74.7976 18.102C75.0025 17.9855 75.3298 17.9016 75.8268 17.9016V16.7743ZM73.3495 18.3053C73.2297 18.8146 73.176 19.4622 73.176 20.231H74.3033C74.3033 19.5025 74.3553 18.9524 74.4468 18.5635L73.3495 18.3053ZM73.176 20.231V21.4067H74.3033V20.231H73.176ZM73.176 21.4067C73.176 22.0685 73.2154 22.6372 73.3008 23.1034C73.3842 23.5584 73.5211 23.9725 73.7571 24.2759L74.6469 23.5838C74.5746 23.4909 74.4804 23.2862 74.4096 22.9002C74.3409 22.5254 74.3033 22.0307 74.3033 21.4067H73.176ZM73.7609 24.2807C74.171 24.7962 74.7223 25.0747 75.3777 25.0747V23.9474C75.0819 23.9474 74.8495 23.8384 74.6431 23.579L73.7609 24.2807ZM75.3777 25.0747C75.8751 25.0747 76.3279 25.0225 76.6707 24.8643L76.1983 23.8408C76.0832 23.8939 75.8314 23.9474 75.3777 23.9474V25.0747Z"
            fill="#606060" fill-opacity="0.5"></path>
          <rect x="7" y="60" width="86" height="4" fill="#F35800"></rect>
        </svg>