<svg width="310" height="140" viewBox="0 0 310 140" fill="none" xmlns="http://www.w3.org/2000/svg">
<circle cx="154.519" cy="33.0426" r="4.14476" stroke="white" stroke-width="0.637655"/>
<rect x="147.504" y="57.9112" width="14.0284" height="0.637655" fill="white"/>
<rect x="149.417" y="60.4618" width="10.2025" height="0.637655" fill="white"/>
<rect x="162.808" y="28.579" width="0.637655" height="26.1439" fill="white"/>
<rect x="145.591" y="28.579" width="0.637655" height="26.1439" fill="white"/>
<path d="M146.229 43.2451C145.91 43.2451 135.389 46.4334 134.114 58.5488C136.239 56.9547 141.638 53.8302 146.229 54.0852" stroke="white" stroke-width="0.637655"/>
<path d="M162.808 43.2451C163.127 43.2451 173.648 46.4334 174.924 58.5488C172.798 56.9547 167.399 53.8302 162.808 54.0852" stroke="white" stroke-width="0.637655"/>
<path d="M145.91 28.8979C146.229 23.2652 148.397 12 154.519 12" stroke="white" stroke-width="0.637655"/>
<path d="M163.127 28.8979C162.808 23.2652 160.321 12 154.2 12" stroke="white" stroke-width="0.637655"/>
<path d="M131.563 71.9396C132.626 70.0266 135.963 66.5833 140.809 68.1136C146.867 70.0266 144.316 75.4467 145.591 77.0408C146.867 78.635 149.736 78.635 150.374 76.722C150.884 75.1916 150.586 69.0701 150.374 66.2007" stroke="white" stroke-width="0.637655"/>
<path d="M121.36 81.5044C120.935 78.9538 121.743 73.9801 128.375 74.4902" stroke="white" stroke-width="0.637655"/>
<path d="M117.535 81.5044C117.216 79.3789 117.981 74.554 123.592 72.2584C129.204 69.9629 134.007 72.7898 135.708 74.4902" stroke="white" stroke-width="0.637655"/>
<path d="M78 101.591C78.2126 99.5713 79.8492 95.4053 84.6954 94.8952C84.8017 91.6006 87.1185 84.884 95.5355 84.3738C103.953 83.8637 105.844 91.1755 105.738 94.8952" stroke="white" stroke-width="0.637655"/>
<path d="M96.4921 88.1998C93.1975 87.7747 86.7997 89.0287 87.5649 97.4458" stroke="white" stroke-width="0.637655"/>
<path d="M95.2167 84.4978C97.2359 79.6091 104.718 71.1708 118.491 76.5271" stroke="white" stroke-width="0.637655"/>
<path d="M177.437 71.9396C176.374 70.0266 173.037 66.5833 168.191 68.1136C162.133 70.0266 164.684 75.4467 163.409 77.0408C162.133 78.635 159.264 78.635 158.626 76.722C158.116 75.1916 158.414 69.0701 158.626 66.2007" stroke="white" stroke-width="0.637655"/>
<path d="M187.64 81.5044C188.065 78.9538 187.257 73.9801 180.625 74.4902" stroke="white" stroke-width="0.637655"/>
<path d="M191.465 81.5044C191.784 79.3789 191.019 74.554 185.408 72.2584C179.796 69.9629 174.993 72.7898 173.292 74.4902" stroke="white" stroke-width="0.637655"/>
<path d="M231 101.591C230.787 99.5713 229.151 95.4053 224.305 94.8952C224.198 91.6006 221.882 84.884 213.464 84.3738C205.047 83.8637 203.156 91.1755 203.262 94.8952" stroke="white" stroke-width="0.637655"/>
<path d="M212.508 88.1998C215.802 87.7747 222.2 89.0287 221.435 97.4458" stroke="white" stroke-width="0.637655"/>
<path d="M213.783 84.4978C211.764 79.6091 204.282 71.1708 190.509 76.5271" stroke="white" stroke-width="0.637655"/>
<path d="M151.33 97.1269C155.369 95.214 165.167 93.5561 172.054 102.228C176.624 101.378 185.764 102.228 185.764 112.431" stroke="white" stroke-width="0.637655"/>
<path d="M136.345 104.779C136.027 102.334 136.983 97.4458 143.36 97.4458" stroke="white" stroke-width="0.637655"/>
<path d="M126.462 111.155C126.462 108.924 127.673 104.396 132.52 104.141C132.307 100.847 134.05 94.1937 142.722 93.9387C151.394 93.6836 153.562 100.634 153.562 104.141C156.325 103.078 162.234 102.738 163.765 109.88" stroke="white" stroke-width="0.637655"/>
<rect x="85.6519" y="132.517" width="138.371" height="0.637655" fill="white"/>
<rect x="102.869" y="138.893" width="103.938" height="0.637655" fill="white"/>
<rect x="103" y="50.364" width="9" height="1" transform="rotate(-45 103 50.364)" fill="white" fill-opacity="0.2"/>
<rect width="9" height="1" transform="matrix(-0.707107 -0.707107 -0.707107 0.707107 110.071 50.364)" fill="white" fill-opacity="0.2"/>
<rect x="70" y="87.364" width="9" height="1" transform="rotate(-45 70 87.364)" fill="white" fill-opacity="0.2"/>
<rect width="9" height="1" transform="matrix(-0.707107 -0.707107 -0.707107 0.707107 77.071 87.364)" fill="white" fill-opacity="0.2"/>
<rect x="193" y="50.364" width="9" height="1" transform="rotate(-45 193 50.364)" fill="white" fill-opacity="0.2"/>
<rect width="9" height="1" transform="matrix(-0.707107 -0.707107 -0.707107 0.707107 200.071 50.364)" fill="white" fill-opacity="0.2"/>
<rect x="278" y="19.364" width="9" height="1" transform="rotate(-45 278 19.364)" fill="white" fill-opacity="0.2"/>
<rect width="9" height="1" transform="matrix(-0.707107 -0.707107 -0.707107 0.707107 285.071 19.364)" fill="white" fill-opacity="0.2"/>
<rect x="302" y="124.364" width="9" height="1" transform="rotate(-45 302 124.364)" fill="white" fill-opacity="0.2"/>
<rect width="9" height="1" transform="matrix(-0.707107 -0.707107 -0.707107 0.707107 309.071 124.364)" fill="white" fill-opacity="0.2"/>
<rect x="45" y="34.364" width="9" height="1" transform="rotate(-45 45 34.364)" fill="white" fill-opacity="0.2"/>
<rect width="9" height="1" transform="matrix(-0.707107 -0.707107 -0.707107 0.707107 52.071 34.364)" fill="white" fill-opacity="0.2"/>
<rect x="192" y="15.364" width="9" height="1" transform="rotate(-45 192 15.364)" fill="white" fill-opacity="0.2"/>
<rect width="9" height="1" transform="matrix(-0.707107 -0.707107 -0.707107 0.707107 199.071 15.364)" fill="white" fill-opacity="0.2"/>
<rect x="274" y="64.364" width="9" height="1" transform="rotate(-45 274 64.364)" fill="white" fill-opacity="0.2"/>
<rect width="9" height="1" transform="matrix(-0.707107 -0.707107 -0.707107 0.707107 281.071 64.364)" fill="white" fill-opacity="0.2"/>
<rect x="217" y="96.364" width="9" height="1" transform="rotate(-45 217 96.364)" fill="white" fill-opacity="0.2"/>
<rect width="9" height="1" transform="matrix(-0.707107 -0.707107 -0.707107 0.707107 224.071 96.364)" fill="white" fill-opacity="0.2"/>
<rect x="45" y="126.364" width="9" height="1" transform="rotate(-45 45 126.364)" fill="white" fill-opacity="0.2"/>
<rect width="9" height="1" transform="matrix(-0.707107 -0.707107 -0.707107 0.707107 52.071 126.364)" fill="white" fill-opacity="0.2"/>
<rect y="71.364" width="9" height="1" transform="rotate(-45 0 71.364)" fill="white" fill-opacity="0.2"/>
<rect width="9" height="1" transform="matrix(-0.707107 -0.707107 -0.707107 0.707107 7.07104 71.364)" fill="white" fill-opacity="0.2"/>
<rect x="91" y="6.36395" width="9" height="1" transform="rotate(-45 91 6.36395)" fill="white" fill-opacity="0.2"/>
<rect width="9" height="1" transform="matrix(-0.707107 -0.707107 -0.707107 0.707107 98.071 6.36395)" fill="white" fill-opacity="0.2"/>
</svg>
