<svg width="310" height="248" viewBox="0 0 310 248" fill="none" xmlns="http://www.w3.org/2000/svg">
<rect y="71.364" width="9" height="1" transform="rotate(-45 0 71.364)" fill="white" fill-opacity="0.2"/>
<rect width="9" height="1" transform="matrix(-0.707107 -0.707107 -0.707107 0.707107 7.07104 71.364)" fill="white" fill-opacity="0.2"/>
<circle cx="150" cy="81" r="6.5" stroke="white"/>
<rect x="139" y="120" width="22" height="1" fill="white"/>
<rect x="142" y="124" width="16" height="1" fill="white"/>
<rect x="163" y="74" width="1" height="41" fill="white"/>
<rect x="136" y="74" width="1" height="41" fill="white"/>
<path d="M137 97C136.5 97 120 102 118 121C121.333 118.5 129.8 113.6 137 114" stroke="white"/>
<path d="M163 97C163.5 97 180 102 182 121C178.667 118.5 170.2 113.6 163 114" stroke="white"/>
<path d="M136.5 74.5C137 65.6667 140.4 48 150 48" stroke="white"/>
<path d="M163.5 74.5C163 65.6667 159.1 48 149.5 48" stroke="white"/>
<path d="M114 142C115.667 139 120.9 133.6 128.5 136C138 139 134 147.5 136 150C138 152.5 142.5 152.5 143.5 149.5C144.3 147.1 143.833 137.5 143.5 133" stroke="white"/>
<path d="M97.9999 157C97.3332 153 98.5999 145.2 109 146" stroke="white"/>
<path d="M91.9999 157C91.4999 153.667 92.6999 146.1 101.5 142.5C110.3 138.9 117.833 143.333 120.5 146" stroke="white"/>
<path d="M30 188.5C30.3333 185.333 32.9 178.8 40.5 178C40.6667 172.833 44.3 162.3 57.5 161.5C70.7 160.7 73.6667 172.167 73.5 178" stroke="white"/>
<path d="M59.0001 167.5C53.8334 166.833 43.8001 168.8 45.0001 182" stroke="white"/>
<path d="M57 161.694C60.1667 154.028 71.9 140.794 93.5 149.194" stroke="white"/>
<path d="M185.942 142C184.275 139 179.042 133.6 171.442 136C161.942 139 165.942 147.5 163.942 150C161.942 152.5 157.442 152.5 156.442 149.5C155.642 147.1 156.108 137.5 156.442 133" stroke="white"/>
<path d="M201.942 157C202.608 153 201.342 145.2 190.942 146" stroke="white"/>
<path d="M207.942 157C208.442 153.667 207.242 146.1 198.442 142.5C189.642 138.9 182.108 143.333 179.442 146" stroke="white"/>
<path d="M269.942 188.5C269.608 185.333 267.042 178.8 259.442 178C259.275 172.833 255.642 162.3 242.442 161.5C229.242 160.7 226.275 172.167 226.442 178" stroke="white"/>
<path d="M240.942 167.5C246.108 166.833 256.142 168.8 254.942 182" stroke="white"/>
<path d="M242.942 161.694C239.775 154.028 228.042 140.794 206.442 149.194" stroke="white"/>
<path d="M145 181.5C151.333 178.5 166.7 175.9 177.5 189.5C184.667 188.167 199 189.5 199 205.5" stroke="white"/>
<path d="M121.5 193.5C121 189.667 122.5 182 132.5 182" stroke="white"/>
<path d="M106 203.5C106 200 107.9 192.9 115.5 192.5C115.167 187.333 117.9 176.9 131.5 176.5C145.1 176.1 148.5 187 148.5 192.5C152.833 190.833 162.1 190.3 164.5 201.5" stroke="white"/>
<rect x="42" y="237" width="217" height="1" fill="white"/>
<rect x="69" y="247" width="163" height="1" fill="white"/>
<rect x="103" y="50.364" width="9" height="1" transform="rotate(-45 103 50.364)" fill="white" fill-opacity="0.2"/>
<rect width="9" height="1" transform="matrix(-0.707107 -0.707107 -0.707107 0.707107 110.071 50.364)" fill="white" fill-opacity="0.2"/>
<rect x="70" y="87.364" width="9" height="1" transform="rotate(-45 70 87.364)" fill="white" fill-opacity="0.2"/>
<rect width="9" height="1" transform="matrix(-0.707107 -0.707107 -0.707107 0.707107 77.071 87.364)" fill="white" fill-opacity="0.2"/>
<rect x="193" y="50.364" width="9" height="1" transform="rotate(-45 193 50.364)" fill="white" fill-opacity="0.2"/>
<rect width="9" height="1" transform="matrix(-0.707107 -0.707107 -0.707107 0.707107 200.071 50.364)" fill="white" fill-opacity="0.2"/>
<rect x="278" y="19.364" width="9" height="1" transform="rotate(-45 278 19.364)" fill="white" fill-opacity="0.2"/>
<rect width="9" height="1" transform="matrix(-0.707107 -0.707107 -0.707107 0.707107 285.071 19.364)" fill="white" fill-opacity="0.2"/>
<rect x="302" y="124.364" width="9" height="1" transform="rotate(-45 302 124.364)" fill="white" fill-opacity="0.2"/>
<rect width="9" height="1" transform="matrix(-0.707107 -0.707107 -0.707107 0.707107 309.071 124.364)" fill="white" fill-opacity="0.2"/>
<rect x="45" y="34.364" width="9" height="1" transform="rotate(-45 45 34.364)" fill="white" fill-opacity="0.2"/>
<rect width="9" height="1" transform="matrix(-0.707107 -0.707107 -0.707107 0.707107 52.071 34.364)" fill="white" fill-opacity="0.2"/>
<rect x="192" y="15.364" width="9" height="1" transform="rotate(-45 192 15.364)" fill="white" fill-opacity="0.2"/>
<rect width="9" height="1" transform="matrix(-0.707107 -0.707107 -0.707107 0.707107 199.071 15.364)" fill="white" fill-opacity="0.2"/>
<rect x="274" y="64.364" width="9" height="1" transform="rotate(-45 274 64.364)" fill="white" fill-opacity="0.2"/>
<rect width="9" height="1" transform="matrix(-0.707107 -0.707107 -0.707107 0.707107 281.071 64.364)" fill="white" fill-opacity="0.2"/>
<rect x="217" y="96.364" width="9" height="1" transform="rotate(-45 217 96.364)" fill="white" fill-opacity="0.2"/>
<rect width="9" height="1" transform="matrix(-0.707107 -0.707107 -0.707107 0.707107 224.071 96.364)" fill="white" fill-opacity="0.2"/>
<rect x="45" y="126.364" width="9" height="1" transform="rotate(-45 45 126.364)" fill="white" fill-opacity="0.2"/>
<rect width="9" height="1" transform="matrix(-0.707107 -0.707107 -0.707107 0.707107 52.071 126.364)" fill="white" fill-opacity="0.2"/>
<rect x="91" y="6.36395" width="9" height="1" transform="rotate(-45 91 6.36395)" fill="white" fill-opacity="0.2"/>
<rect width="9" height="1" transform="matrix(-0.707107 -0.707107 -0.707107 0.707107 98.071 6.36395)" fill="white" fill-opacity="0.2"/>
</svg>
