<svg xmlns="http://www.w3.org/2000/svg" xmlns:xlink="http://www.w3.org/1999/xlink"
                    width="43px" height="42px">
                    <path class="svg-icon-path" fill="#d6d6d6"
                        d="M-0.000,31.599 L-0.000,2.007 C-0.000,0.900 0.894,-0.000 1.994,-0.000 L41.006,-0.000 C42.106,-0.000 43.000,0.900 43.000,2.007 L43.000,39.994 C43.000,40.761 42.577,41.449 41.894,41.791 C41.619,41.928 41.312,42.000 41.006,42.000 C40.575,42.000 40.148,41.856 39.803,41.595 L29.291,33.604 L1.994,33.604 C0.894,33.604 -0.000,32.704 -0.000,31.599 ZM3.988,29.592 L29.960,29.592 C30.390,29.592 30.817,29.737 31.163,29.998 L39.012,35.964 L39.012,4.011 L3.988,4.011 L3.988,29.592 ZM30.095,20.011 C28.498,20.011 27.203,18.663 27.203,17.002 C27.203,15.340 28.498,13.993 30.095,13.993 C31.693,13.993 32.988,15.340 32.988,17.002 C32.988,18.663 31.693,20.011 30.095,20.011 ZM24.393,17.002 C24.393,18.663 23.098,20.011 21.500,20.011 C19.902,20.011 18.607,18.663 18.607,17.002 C18.607,15.340 19.902,13.993 21.500,13.993 C23.098,13.993 24.393,15.340 24.393,17.002 ZM15.797,17.002 C15.797,18.663 14.502,20.011 12.905,20.011 C11.307,20.011 10.012,18.663 10.012,17.002 C10.012,15.340 11.307,13.993 12.905,13.993 C14.502,13.993 15.797,15.340 15.797,17.002 Z">
                    </path>
                </svg>