<svg width="17" height="17" viewBox="0 0 17 17" fill="none" xmlns="http://www.w3.org/2000/svg">
<path d="M2.10698 6.31905L14.1959 2.28943L8.08027 8.40505L2.10698 6.41395C2.0614 6.39875 2.0614 6.33425 2.10698 6.31905ZM10.6168 14.9236L8.62566 8.95045L14.7412 2.83482L10.7116 14.9236C10.6964 14.9692 10.6319 14.9692 10.6168 14.9236ZM16.0121 1.46129C16.1033 1.18768 15.843 0.927357 15.5694 1.01857L0.521751 6.03445C0.202651 6.14085 0.202651 6.59215 0.521741 6.69855L7.85583 9.14325C7.87076 9.14825 7.88247 9.15995 7.88745 9.17485L10.3321 16.5089C10.4385 16.828 10.8899 16.828 10.9962 16.5089L16.0121 1.46129Z" fill="#AFAFAF" stroke="#AFAFAF" stroke-width="0.3"/>
</svg>
