<svg width="162" height="26" viewBox="0 0 162 26" fill="none" xmlns="http://www.w3.org/2000/svg">
<rect width="162" height="26" fill="black" fill-opacity="0"/>
<path d="M0 0H156L162 13L156 26H0V0Z" fill="#C4F5EE"/>
<path d="M14.8545 15.0879C14.8545 16.0814 14.5583 16.8151 13.9658 17.2891C13.3779 17.763 12.4893 18 11.2998 18H8.37402V8.00586H14.2666V9.03809H9.53613V12.2715H11.0879C11.9674 12.2715 12.6829 12.374 13.2344 12.5791C13.7858 12.7796 14.1937 13.0781 14.458 13.4746C14.7223 13.8711 14.8545 14.4089 14.8545 15.0879ZM9.53613 16.9951H11.1699C12.0358 16.9951 12.6647 16.847 13.0566 16.5508C13.4531 16.2546 13.6514 15.7669 13.6514 15.0879C13.6514 14.4408 13.4508 13.9805 13.0498 13.707C12.6488 13.4336 11.9492 13.2969 10.9512 13.2969H9.53613V16.9951ZM19.9541 18.1367C18.8467 18.1367 17.9717 17.7995 17.3291 17.125C16.6911 16.4505 16.3721 15.514 16.3721 14.3154C16.3721 13.1077 16.6683 12.1484 17.2607 11.4375C17.8577 10.7266 18.6576 10.3711 19.6602 10.3711C20.599 10.3711 21.3418 10.681 21.8887 11.3008C22.4355 11.916 22.709 12.7295 22.709 13.7412V14.459H17.5479C17.5706 15.3385 17.7917 16.0062 18.2109 16.4619C18.6348 16.9176 19.2295 17.1455 19.9951 17.1455C20.8018 17.1455 21.5993 16.9769 22.3877 16.6396V17.6514C21.9867 17.8245 21.6061 17.9476 21.2461 18.0205C20.8906 18.098 20.46 18.1367 19.9541 18.1367ZM19.6465 11.3213C19.0449 11.3213 18.5641 11.5173 18.2041 11.9092C17.8486 12.3011 17.639 12.8434 17.5752 13.5361H21.4922C21.4922 12.8206 21.3327 12.2738 21.0137 11.8955C20.6947 11.5127 20.2389 11.3213 19.6465 11.3213ZM27.6445 18.1367C26.5599 18.1367 25.7191 17.804 25.1221 17.1387C24.5296 16.4688 24.2334 15.5231 24.2334 14.3018C24.2334 13.0485 24.5342 12.0801 25.1357 11.3965C25.7419 10.7129 26.6032 10.3711 27.7197 10.3711C28.0798 10.3711 28.4398 10.4098 28.7998 10.4873C29.1598 10.5648 29.4424 10.6559 29.6475 10.7607L29.2988 11.7246C29.0482 11.6243 28.7747 11.5423 28.4785 11.4785C28.1823 11.4102 27.9202 11.376 27.6924 11.376C26.1702 11.376 25.4092 12.3467 25.4092 14.2881C25.4092 15.2087 25.5938 15.915 25.9629 16.4072C26.3366 16.8994 26.888 17.1455 27.6172 17.1455C28.2415 17.1455 28.8818 17.0111 29.5381 16.7422V17.7471C29.0368 18.0068 28.4056 18.1367 27.6445 18.1367ZM32.457 18H31.3223V10.5078H37.6113V18H36.4629V11.4922H32.457V18ZM45.6025 18H44.4541V11.4785H42.2051C42.082 13.1009 41.9111 14.3883 41.6924 15.3408C41.4736 16.2933 41.1888 16.9906 40.8379 17.4326C40.4915 17.8747 40.0495 18.0957 39.5117 18.0957C39.2656 18.0957 39.0697 18.0684 38.9238 18.0137V17.1729C39.0241 17.2002 39.138 17.2139 39.2656 17.2139C39.7897 17.2139 40.2067 16.6602 40.5166 15.5527C40.8265 14.4453 41.0612 12.7637 41.2207 10.5078H45.6025V18ZM52.623 18L52.3975 16.9336H52.3428C51.9691 17.403 51.5954 17.722 51.2217 17.8906C50.8525 18.0547 50.39 18.1367 49.834 18.1367C49.0911 18.1367 48.5078 17.9453 48.084 17.5625C47.6647 17.1797 47.4551 16.6351 47.4551 15.9287C47.4551 14.4157 48.665 13.6227 51.085 13.5498L52.3564 13.5088V13.0439C52.3564 12.4561 52.2288 12.0231 51.9736 11.7451C51.723 11.4626 51.3197 11.3213 50.7637 11.3213C50.1393 11.3213 49.4329 11.5127 48.6445 11.8955L48.2959 11.0273C48.665 10.8268 49.0684 10.6696 49.5059 10.5557C49.9479 10.4417 50.39 10.3848 50.832 10.3848C51.7253 10.3848 52.3861 10.583 52.8145 10.9795C53.2474 11.376 53.4639 12.0117 53.4639 12.8867V18H52.623ZM50.0596 17.2002C50.766 17.2002 51.3197 17.0065 51.7207 16.6191C52.1263 16.2318 52.3291 15.6895 52.3291 14.9922V14.3154L51.1943 14.3633C50.292 14.3952 49.6403 14.5365 49.2393 14.7871C48.8428 15.0332 48.6445 15.4183 48.6445 15.9424C48.6445 16.3525 48.7676 16.6647 49.0137 16.8789C49.2643 17.0931 49.613 17.2002 50.0596 17.2002ZM60.8604 11.4785H58.4268V18H57.292V11.4785H54.8857V10.5078H60.8604V11.4785ZM63.4785 10.5078V13.6455H67.6758V10.5078H68.8105V18H67.6758V14.623H63.4785V18H62.3438V10.5078H63.4785ZM72.3516 13.6045H74.3955C75.348 13.6045 76.0521 13.7822 76.5078 14.1377C76.9681 14.4886 77.1982 15.015 77.1982 15.7168C77.1982 16.4688 76.9544 17.0384 76.4668 17.4258C75.9837 17.8086 75.2705 18 74.3271 18H71.2168V10.5078H72.3516V13.6045ZM79.5908 18H78.4561V10.5078H79.5908V18ZM72.3516 14.582V17.0498H74.2725C75.4756 17.0498 76.0771 16.6283 76.0771 15.7852C76.0771 15.3659 75.9382 15.0605 75.6602 14.8691C75.3822 14.6777 74.9082 14.582 74.2383 14.582H72.3516ZM83.0703 10.5078V15.2588L83.0225 16.5029L83.002 16.8926L87.0557 10.5078H88.4707V18H87.4111V13.4199L87.4316 12.5176L87.4658 11.6289L83.4189 18H82.0039V10.5078H83.0703ZM85.21 9.5166C84.3669 9.5166 83.7516 9.35482 83.3643 9.03125C82.9769 8.70312 82.7604 8.16536 82.7148 7.41797H83.7812C83.8223 7.89193 83.9453 8.22233 84.1504 8.40918C84.36 8.59603 84.7223 8.68945 85.2373 8.68945C85.7067 8.68945 86.0531 8.58919 86.2764 8.38867C86.5042 8.18815 86.6432 7.86458 86.6934 7.41797H87.7666C87.7119 8.13802 87.4818 8.66895 87.0762 9.01074C86.6706 9.34798 86.0485 9.5166 85.21 9.5166ZM100.591 12.3877C100.591 12.8753 100.45 13.2467 100.167 13.502C99.889 13.7526 99.4971 13.9212 98.9912 14.0078V14.0693C99.6292 14.1559 100.094 14.3428 100.386 14.6299C100.682 14.917 100.83 15.3135 100.83 15.8193C100.83 16.5166 100.573 17.0544 100.058 17.4326C99.5472 17.8109 98.7998 18 97.8154 18H94.5137V10.5078H97.8018C99.6611 10.5078 100.591 11.1344 100.591 12.3877ZM99.6953 15.7441C99.6953 15.3385 99.5404 15.0446 99.2305 14.8623C98.9251 14.6755 98.417 14.582 97.7061 14.582H95.6484V17.0498H97.7334C99.0413 17.0498 99.6953 16.6146 99.6953 15.7441ZM99.4834 12.4971C99.4834 12.1325 99.3421 11.875 99.0596 11.7246C98.7816 11.5697 98.3577 11.4922 97.7881 11.4922H95.6484V13.6045H97.5693C98.2712 13.6045 98.7656 13.5179 99.0527 13.3447C99.3398 13.1715 99.4834 12.889 99.4834 12.4971ZM105.649 18.1367C104.542 18.1367 103.667 17.7995 103.024 17.125C102.386 16.4505 102.067 15.514 102.067 14.3154C102.067 13.1077 102.364 12.1484 102.956 11.4375C103.553 10.7266 104.353 10.3711 105.355 10.3711C106.294 10.3711 107.037 10.681 107.584 11.3008C108.131 11.916 108.404 12.7295 108.404 13.7412V14.459H103.243C103.266 15.3385 103.487 16.0062 103.906 16.4619C104.33 16.9176 104.925 17.1455 105.69 17.1455C106.497 17.1455 107.295 16.9769 108.083 16.6396V17.6514C107.682 17.8245 107.301 17.9476 106.941 18.0205C106.586 18.098 106.155 18.1367 105.649 18.1367ZM105.342 11.3213C104.74 11.3213 104.259 11.5173 103.899 11.9092C103.544 12.3011 103.334 12.8434 103.271 13.5361H107.188C107.188 12.8206 107.028 12.2738 106.709 11.8955C106.39 11.5127 105.934 11.3213 105.342 11.3213ZM109.956 13.5088C109.956 11.8682 110.198 10.5898 110.681 9.67383C111.164 8.75326 111.929 8.17904 112.978 7.95117C114.281 7.67318 115.429 7.44759 116.423 7.27441L116.635 8.27246C115.053 8.53678 113.923 8.74642 113.244 8.90137C112.583 9.05176 112.087 9.40723 111.754 9.96777C111.426 10.5283 111.246 11.2917 111.214 12.2578H111.296C111.578 11.875 111.943 11.5742 112.39 11.3555C112.836 11.1367 113.303 11.0273 113.791 11.0273C114.712 11.0273 115.429 11.3258 115.944 11.9229C116.459 12.5199 116.717 13.347 116.717 14.4043C116.717 15.5755 116.418 16.4915 115.821 17.1523C115.224 17.8086 114.393 18.1367 113.326 18.1367C112.273 18.1367 111.449 17.7334 110.852 16.9268C110.255 16.1201 109.956 14.9808 109.956 13.5088ZM113.429 17.1865C114.819 17.1865 115.514 16.3001 115.514 14.5273C115.514 12.8366 114.882 11.9912 113.62 11.9912C113.274 11.9912 112.939 12.0641 112.615 12.21C112.296 12.3512 112.002 12.5404 111.733 12.7773C111.469 13.0143 111.264 13.2581 111.118 13.5088C111.118 14.7074 111.307 15.6211 111.686 16.25C112.064 16.8743 112.645 17.1865 113.429 17.1865ZM119.766 10.5078V15.2588L119.718 16.5029L119.697 16.8926L123.751 10.5078H125.166V18H124.106V13.4199L124.127 12.5176L124.161 11.6289L120.114 18H118.699V10.5078H119.766ZM128.707 10.5078V13.6455H132.904V10.5078H134.039V18H132.904V14.623H128.707V18H127.572V10.5078H128.707ZM141.053 18L140.827 16.9336H140.772C140.399 17.403 140.025 17.722 139.651 17.8906C139.282 18.0547 138.82 18.1367 138.264 18.1367C137.521 18.1367 136.938 17.9453 136.514 17.5625C136.094 17.1797 135.885 16.6351 135.885 15.9287C135.885 14.4157 137.095 13.6227 139.515 13.5498L140.786 13.5088V13.0439C140.786 12.4561 140.659 12.0231 140.403 11.7451C140.153 11.4626 139.749 11.3213 139.193 11.3213C138.569 11.3213 137.863 11.5127 137.074 11.8955L136.726 11.0273C137.095 10.8268 137.498 10.6696 137.936 10.5557C138.378 10.4417 138.82 10.3848 139.262 10.3848C140.155 10.3848 140.816 10.583 141.244 10.9795C141.677 11.376 141.894 12.0117 141.894 12.8867V18H141.053ZM138.489 17.2002C139.196 17.2002 139.749 17.0065 140.15 16.6191C140.556 16.2318 140.759 15.6895 140.759 14.9922V14.3154L139.624 14.3633C138.722 14.3952 138.07 14.5365 137.669 14.7871C137.272 15.0332 137.074 15.4183 137.074 15.9424C137.074 16.3525 137.197 16.6647 137.443 16.8789C137.694 17.0931 138.043 17.2002 138.489 17.2002ZM147.725 18.1367C147.237 18.1367 146.79 18.0479 146.385 17.8701C145.984 17.6878 145.646 17.4098 145.373 17.0361H145.291C145.346 17.4736 145.373 17.8883 145.373 18.2803V21.3633H144.238V10.5078H145.161L145.318 11.5332H145.373C145.665 11.123 146.004 10.8268 146.392 10.6445C146.779 10.4622 147.223 10.3711 147.725 10.3711C148.718 10.3711 149.484 10.7106 150.021 11.3896C150.564 12.0687 150.835 13.0212 150.835 14.2471C150.835 15.4775 150.559 16.4346 150.008 17.1182C149.461 17.7972 148.7 18.1367 147.725 18.1367ZM147.561 11.335C146.795 11.335 146.241 11.5469 145.899 11.9707C145.558 12.3945 145.382 13.069 145.373 13.9941V14.2471C145.373 15.2998 145.549 16.054 145.899 16.5098C146.25 16.9609 146.813 17.1865 147.588 17.1865C148.235 17.1865 148.741 16.9245 149.105 16.4004C149.475 15.8763 149.659 15.154 149.659 14.2334C149.659 13.2992 149.475 12.5837 149.105 12.0869C148.741 11.5856 148.226 11.335 147.561 11.335Z" fill="black" fill-opacity="0.65"/>
</svg>
