<svg xmlns="http://www.w3.org/2000/svg" preserveAspectRatio="xMidYMid" width="16" height="16" viewBox="0 0 16 16"><defs><style>.cls-1{fill:#afafaf;fill-rule:evenodd}</style></defs><path d="M14.834 7.449l-2.202 2.202a3.949 3.949 0 0 1-2.829 1.166 3.986 3.986 0 0 1-2.829-1.166l-.907-.906a.628.628 0 0 1 0-.908.628.628 0 0 1 .907 0l.907.908a2.677 2.677 0 0 0 1.922.798 2.68 2.68 0 0 0 1.922-.798l2.202-2.225a2.676 2.676 0 0 0 .799-1.921c0-.735-.281-1.404-.799-1.922l-.605-.604a2.673 2.673 0 0 0-1.921-.8c-.734 0-1.404.281-1.922.8l-1.9 1.899a.625.625 0 0 1-.907 0 .625.625 0 0 1 0-.906l1.9-1.901A3.99 3.99 0 0 1 11.401 0c1.058 0 2.073.41 2.828 1.165l.605.627A3.985 3.985 0 0 1 16 4.621c0 1.057-.41 2.072-1.166 2.828zM9.349 6.067l.907.907a.625.625 0 0 1 0 .906c-.237.26-.647.26-.907 0l-.906-.906a2.724 2.724 0 0 0-3.844 0L2.073 9.5a2.68 2.68 0 0 0-.799 1.922c0 .734.281 1.403.799 1.922l.604.604a2.68 2.68 0 0 0 1.922.799c.734 0 1.404-.281 1.922-.799l2.202-2.202c.259-.259.67-.259.907-.022a.626.626 0 0 1 0 .907l-2.202 2.202a3.986 3.986 0 0 1-2.829 1.166 3.982 3.982 0 0 1-2.828-1.166l-.605-.604A3.986 3.986 0 0 1 0 11.401c0-1.059.41-2.073 1.166-2.829l2.505-2.505c1.576-1.555 4.124-1.555 5.678 0z" class="cls-1"/></svg>