<svg xmlns="http://www.w3.org/2000/svg" preserveAspectRatio="xMidYMid" width="17" height="17" viewBox="0 0 17 17"><defs><style>.cls-1{fill:#afafaf;fill-rule:evenodd}</style></defs><path d="M16.999 13.449c-.022.435-.047.856-.1 1.23-.061.433-.15.749-.288 1.024a1.867 1.867 0 0 1-.433.568c-.231.205-.528.36-.882.458-.421.118-.922.171-1.626.171-1.454 0-2.993.023-4.481.045-1.333.02-2.592.039-3.659.039-.33 0-.621-.002-.888-.005l-.101-.001h-.007c-.165 0-.34.005-.526.01a20.69 20.69 0 0 1-.62.011c-.321 0-.745-.011-1.171-.099a2.76 2.76 0 0 1-1.153-.504 2.406 2.406 0 0 1-.611-.701C.209 15.27.12 14.773.07 14.387A11.713 11.713 0 0 1 0 12.988c0-.223.003-.442.006-.635.002-.163.005-.317.005-.45v-.012L.009 9.825.01 7.762l.001-3.556v-.031c0-.502 0-1.022.055-1.51.07-.6.212-1.057.447-1.437.191-.311.448-.564.763-.752.429-.257.957-.398 1.614-.429A50.43 50.43 0 0 1 5.3-.001c.391 0 .787.003 1.17.005.373.002.758.004 1.13.004l.409-.001h.019c.145 0 .329.008.583.019.198.008.445.018.754.028.944.032 2.003.047 3.237.047l.869-.003h.102c.51 0 .899.022 1.227.068.399.057.709.15.974.293.201.108.374.246.514.411.178.209.312.471.396.778.093.34.135.739.136 1.292l-.002.218v.065c-.001.414.028 2.005.057 3.507l.003.16.009.503.001.002v.02l.034 1.726.049 2.536c.019 1.025.028 1.577.028 1.741v.031zM15.625 3.135l.002-.195a4.36 4.36 0 0 0-.067-.869 1.012 1.012 0 0 0-.168-.417.56.56 0 0 0-.161-.138 1.433 1.433 0 0 0-.457-.151c-.282-.054-.672-.08-1.192-.08h-.104l-.876.003a81.947 81.947 0 0 1-4.058-.077c-.237-.01-.407-.017-.513-.017h-.017l-.415.001c-.377 0-.766-.002-1.141-.004-.38-.002-.773-.005-1.159-.005-.967 0-1.692.015-2.351.046-.498.025-.879.129-1.133.311-.211.152-.344.35-.445.66a3.43 3.43 0 0 0-.132.734 15.16 15.16 0 0 0-.035 1.268v2.442c1.395.054 2.476.059 3.716.059a3.88 3.88 0 0 1 .637-.937c.725-.788 1.777-1.222 2.963-1.222h.04c.745 0 1.416.13 1.995.387.542.24 1.002.59 1.367 1.039.203.25.378.536.522.851.291.003.572.005.853.005l1.117-.003c.371-.002.787-.004 1.271-.004a346.36 346.36 0 0 1-.059-3.599v-.088zm-9.988 5.79c.001.462.094.884.277 1.254.163.33.399.619.7.862.53.428 1.286.694 1.974.694h.008c.939-.002 1.734-.304 2.3-.873a2.76 2.76 0 0 0 .789-1.953v-.024a4.079 4.079 0 0 0-.218-1.304l-.002-.006a3.124 3.124 0 0 0-.165-.384 2.48 2.48 0 0 0-1.232-1.172c-.424-.189-.933-.284-1.511-.284h-.025c-.878.002-1.584.284-2.099.838-.52.563-.795 1.376-.796 2.352zm10.14 2.774c-.011-.616-.025-1.348-.041-2.121l-.021-1.099-.006-.308-.003-.162-1.282.004c-.627.003-1.125.004-1.623.002.048.285.073.574.076.862v.03a3.938 3.938 0 0 1-1.131 2.786c-.78.793-1.895 1.229-3.141 1.229h-.009a4.513 4.513 0 0 1-2.087-.533 3.869 3.869 0 0 1-1.665-1.685 3.953 3.953 0 0 1-.4-1.779c0-.348.031-.694.094-1.031a92.079 92.079 0 0 1-3.336-.058v1.989l.001 2.064v.013c0 .149-.002.311-.005.482-.003.194-.006.395-.006.603 0 .514.02.924.062 1.253.044.372.13.692.229.857.088.15.186.263.312.36.115.09.249.159.409.213.282.096.664.143 1.167.143h.024c.186 0 .38-.006.568-.011.19-.005.386-.011.577-.011l.118.001c.262.004.555.005.871.005 1.051 0 2.302-.018 3.626-.038 1.497-.022 3.044-.045 4.514-.045h.007c.482 0 .87-.031 1.153-.092.24-.052.414-.123.534-.22a.648.648 0 0 0 .165-.201c.068-.123.123-.301.164-.527.056-.312.085-.718.114-1.271-.001-.174-.011-.794-.029-1.704zM8.604 6.234c.437 0 .832.077 1.175.229.324.143.61.362.83.631.462.573.565 1.248.569 1.714v.019c0 .634-.241 1.228-.68 1.673-.465.475-1.126.735-1.862.735h-.01c-.425 0-.854-.109-1.24-.315a2.328 2.328 0 0 1-1.002-1.018 2.372 2.372 0 0 1-.241-1.067c-.001-.748.229-1.392.664-1.863.436-.476 1.066-.738 1.773-.738h.024zM7.337 8.836c0 .205.039.382.118.542.068.138.168.261.296.364.229.187.569.307.867.307h.008c.427-.002.771-.13 1.021-.381.218-.221.338-.519.339-.841v-.01a1.744 1.744 0 0 0-.174-.774 1.045 1.045 0 0 0-.519-.495 1.7 1.7 0 0 0-.688-.127h-.014c-.388.003-.685.119-.907.356-.226.246-.347.612-.347 1.059z" class="cls-1"/></svg>