<svg xmlns="http://www.w3.org/2000/svg" preserveAspectRatio="xMidYMid" width="14.03" height="17" viewBox="0 0 14.03 17"><defs><style>.cls-1{fill:#afafaf;fill-rule:evenodd}</style></defs><path d="M13.048 6.827L2.656.247C2.075-.106 1.43-.106.913.247.332.601.009 1.238.009 1.945v13.16c0 .707.323 1.344.904 1.697.258.142.581.212.904.212.323 0 .581-.07.904-.282l10.392-6.58c.581-.354.904-.99.904-1.698s-.388-1.273-.969-1.627zm-.645 2.122L2.01 15.529c-.193.141-.387.071-.451 0-.065-.071-.259-.213-.259-.424V1.945c0-.283.194-.424.259-.424.064 0 .129-.071.258-.071.064 0 .129 0 .258.071L12.467 8.1a.63.63 0 0 1 .259.425c0 .07-.13.354-.323.424z" class="cls-1"/></svg>