<svg width="40" height="40" viewBox="0 0 40 40" fill="none" xmlns="http://www.w3.org/2000/svg">
<path d="M37.6844 15.4665L35.1066 14.7556C34.9288 14.6667 34.6622 14.6666 34.4844 14.6666C34.1288 13.9555 33.5955 13.4221 32.7955 13.2443L29.3288 12.3554C29.24 12.3554 29.2399 12.3554 29.1511 12.3554C29.1511 11.9999 28.9733 11.5556 28.7955 11.2C28.44 10.5778 27.8177 10.1332 27.1955 9.95547L11.7289 5.86671C11.64 5.86671 11.64 5.86671 11.5511 5.86671C11.4622 4.80005 10.7511 3.82209 9.5955 3.46654L7.01775 2.7556C6.75108 2.66671 6.57326 2.66663 6.3066 2.66663C5.86215 2.66663 5.41771 2.75543 4.97326 3.02209C4.35104 3.37765 3.90663 3.99992 3.72885 4.62214L0.973263 14.9333C0.617707 16.3556 1.41774 17.7777 2.83996 18.2222L5.41771 18.9333C5.68437 19.0222 5.8622 19.0221 6.12886 19.0221C6.57331 19.0221 7.01775 18.9333 7.4622 18.6666C7.81775 18.4888 8.08442 18.2223 8.35108 17.8667C8.43997 17.8667 8.43993 17.8666 8.52882 17.9555L16.0844 20L11.9955 36.2667C11.8177 36.9778 12.2622 37.6889 12.9733 37.8667C13.0622 37.8667 13.1511 37.8667 13.3288 37.8667C13.9511 37.8667 14.4844 37.4222 14.6622 36.8888L18.751 20.7111L23.0178 21.8667L26.3955 36.8888C26.5733 37.5111 27.1066 37.9555 27.7289 37.9555C27.8177 37.9555 27.9066 37.9555 27.9955 37.9555C28.7066 37.7777 29.151 37.0665 28.9733 36.3554L25.7733 22.0444C26.3066 21.8667 26.6622 21.511 27.0178 21.0666C27.1066 21.0666 27.1066 21.0667 27.1955 21.1556L30.6622 22.0444C30.9288 22.1333 31.1066 22.1332 31.3733 22.1332C31.9066 22.1332 32.44 21.9556 32.8844 21.6C33.0622 21.6889 33.2399 21.7778 33.4177 21.8667L35.9955 22.5777C36.2622 22.6665 36.4399 22.6666 36.7066 22.6666C37.1511 22.6666 37.5955 22.5778 38.0399 22.3112C38.6622 21.9556 39.1066 21.3333 39.2844 20.7111L39.7289 19.0221C39.9955 17.3332 39.1066 15.911 37.6844 15.4665ZM26.6622 12.4444L24.8844 19.5555C24.6177 19.3777 9.23997 15.2888 9.23997 15.2888L10.4844 10.6666L11.1066 8.4444L26.6622 12.4444ZM3.63993 15.6445L6.39552 5.33329L8.97326 6.04445L7.90664 9.95547L6.66217 14.5777L6.21773 16.2667L3.63993 15.6445ZM31.1955 19.2888L27.7289 18.3999L28.6177 14.9333L32.0844 15.8222L31.1955 19.2888ZM36.5288 19.8222L33.9511 19.1111L34.3955 17.4223L36.9733 18.1332L36.5288 19.8222Z" fill="#367BF5"/>
</svg>
