<svg width="40" height="40" viewBox="0 0 40 40" fill="none" xmlns="http://www.w3.org/2000/svg">
<path d="M19.3777 13.3333C15.4666 13.3333 12.2666 16.5333 12.2666 20.4444C12.2666 24.3555 15.4666 27.5555 19.3777 27.5555C23.2888 27.5555 26.4888 24.3555 26.4888 20.4444C26.4888 16.5333 23.2888 13.3333 19.3777 13.3333ZM19.3777 24.8889C16.8888 24.8889 14.9333 22.9333 14.9333 20.4444C14.9333 17.9555 16.8888 16 19.3777 16C21.8666 16 23.8222 17.9555 23.8222 20.4444C23.8222 22.9333 21.8666 24.8889 19.3777 24.8889Z" fill="#7CCF29"/>
<path d="M36.2667 15.1111H33.5111C33.4222 14.8444 33.2444 14.4889 33.1555 14.2222L35.1111 12.2666C35.6444 11.7333 35.9111 11.1111 35.9111 10.4C35.9111 9.68887 35.6444 8.97772 35.1111 8.53328L31.3778 4.79999C30.8444 4.26665 30.1333 3.99997 29.5111 3.99997C28.8 3.99997 28.1778 4.26665 27.6444 4.79999L25.6889 6.7555C25.4222 6.66661 25.0666 6.48887 24.8 6.39998V3.55552C24.8 2.04441 23.6444 0.888855 22.1333 0.888855H16.8C15.2889 0.888855 14.1333 2.04441 14.1333 3.55552V6.31106C13.8666 6.39994 13.5111 6.57774 13.2444 6.66663L11.2889 4.71107C10.7556 4.17773 10.0444 3.9111 9.4222 3.9111C8.71109 3.9111 8.08889 4.17773 7.55556 4.71107L3.82221 8.44441C3.28888 8.97774 3.02219 9.59994 3.02219 10.3111C3.02219 11.0222 3.28888 11.7333 3.82221 12.1778L5.77778 14.1333C5.68889 14.4 5.51109 14.7555 5.4222 15.0222H2.66667C1.15556 15.0222 0 16.1778 0 17.6889V23.0222C0 24.5333 1.15556 25.6889 2.66667 25.6889H5.4222C5.51109 25.9555 5.68889 26.3111 5.77778 26.5778L3.82221 28.5333C3.28888 29.0666 3.02219 29.6889 3.02219 30.4C3.02219 31.1111 3.28888 31.8222 3.82221 32.2666L7.55556 36C8.08889 36.5333 8.79998 36.8 9.4222 36.8C10.1333 36.8 10.7556 36.5333 11.2889 36L13.2444 34.0444C13.5111 34.1333 13.8666 34.3111 14.1333 34.4V37.1555C14.1333 38.6666 15.2889 39.8222 16.8 39.8222H22.1333C23.6444 39.8222 24.8 38.6666 24.8 37.1555V34.4C25.0666 34.3111 25.4222 34.1333 25.6889 34.0444L27.6444 36C28.1778 36.5333 28.8889 36.8 29.5111 36.8C30.2222 36.8 30.8444 36.5333 31.3778 36L35.1111 32.2666C35.6444 31.7333 35.9111 31.1111 35.9111 30.4C35.9111 29.6889 35.6444 28.9777 35.1111 28.5333L33.1555 26.6666C33.2444 26.4 33.4222 26.0444 33.5111 25.7777H36.2667C37.7778 25.7777 38.9333 24.6222 38.9333 23.1111V17.7777C38.9333 16.2666 37.7778 15.1111 36.2667 15.1111ZM36.2667 23.1111H31.5556C31.2 24.5333 30.6666 25.9555 29.8666 27.1111L33.2444 30.4888L29.5111 34.2222L26.1333 30.8444C24.8889 31.6444 23.5555 32.1777 22.1333 32.5333V37.2444H16.8V32.5333C15.3777 32.1777 13.9555 31.6444 12.8 30.8444L9.4222 34.2222L5.68886 30.4888L9.06668 27.1111C8.26668 25.8666 7.73332 24.5333 7.37777 23.1111H2.66667V17.7777H7.37777C7.73332 16.3555 8.26668 14.9333 9.06668 13.7777L5.68886 10.4L9.4222 6.66663L12.8 10.0444C14.0444 9.2444 15.3777 8.7111 16.8 8.35554V3.55552H22.1333V8.26662C23.5555 8.62218 24.9777 9.15553 26.1333 9.95553L29.5111 6.57777L33.2444 10.3111L29.8666 13.6889C30.6666 14.9333 31.2 16.2667 31.5556 17.6889H36.2667V23.1111Z" fill="#367BF5"/>
</svg>
