<svg width="40" height="40" viewBox="0 0 40 40" fill="none" xmlns="http://www.w3.org/2000/svg">
<path d="M32.0003 4.44444C34.9336 4.44444 37.3336 6.84444 37.3336 9.77777V24C37.3336 26.9333 34.9336 29.3333 32.0003 29.3333H15.8225L9.77805 34.6667V29.3333H8.88916C5.95583 29.3333 3.55583 26.9333 3.55583 24V9.77777C3.55583 6.84444 5.95583 4.44444 8.88916 4.44444H32.0003ZM32.0003 1.77777H8.88916C4.44472 1.77777 0.88916 5.33333 0.88916 9.77777V24C0.88916 27.8222 3.55583 31.0223 7.11138 31.8223V34.6667C7.11138 35.7333 7.73359 36.7111 8.71137 37.0666C9.06693 37.2444 9.42249 37.3333 9.77805 37.3333C10.4003 37.3333 11.0225 37.0666 11.5558 36.6222L16.8003 32H32.0003C36.4447 32 40.0003 28.4444 40.0003 24V9.77777C40.0003 5.33333 36.4447 1.77777 32.0003 1.77777Z" fill="#367BF5"/>
<path d="M21.3331 19.1111C22.5604 19.1111 23.5553 18.1161 23.5553 16.8888C23.5553 15.6615 22.5604 14.6666 21.3331 14.6666C20.1058 14.6666 19.1108 15.6615 19.1108 16.8888C19.1108 18.1161 20.1058 19.1111 21.3331 19.1111Z" fill="#7CCF29"/>
<path d="M30.2222 19.1111C31.4495 19.1111 32.4444 18.1161 32.4444 16.8888C32.4444 15.6615 31.4495 14.6666 30.2222 14.6666C28.9949 14.6666 28 15.6615 28 16.8888C28 18.1161 28.9949 19.1111 30.2222 19.1111Z" fill="#7CCF29"/>
<path d="M12.5333 19.1111C13.7606 19.1111 14.7555 18.1161 14.7555 16.8888C14.7555 15.6615 13.7606 14.6666 12.5333 14.6666C11.306 14.6666 10.311 15.6615 10.311 16.8888C10.311 18.1161 11.306 19.1111 12.5333 19.1111Z" fill="#7CCF29"/>
</svg>
