<svg width="74" height="49" viewBox="0 0 74 49" fill="none" xmlns="http://www.w3.org/2000/svg">
<path d="M14.2348 30.97C17.1148 36.73 22.6048 37.45 25.1248 37.45C37.4548 37.63 40.5148 21.025 30.9748 16.345C28.3648 15.04 24.3148 14.41 20.6248 15.94V11.395H34.3948V5.14H14.5048V23.185L18.1948 23.095C21.2098 21.385 22.4698 21.025 24.8548 21.025C31.8298 21.205 31.7398 31.06 24.6748 31.06C22.7398 31.06 20.4898 29.935 19.0948 27.73L14.2348 30.97Z" fill="#367BF5"/>
<path d="M44.9377 28.6073L47.2204 29.9082L58.585 12.4809L56.2777 11.0818L44.9377 28.6073ZM50.9514 15.8191C50.9514 12.9718 49.6504 11.4009 47.2941 11.4009C45.1832 11.4009 43.6614 13.0945 43.6614 15.77C43.6614 18.7155 44.9623 20.2373 47.2941 20.2373C49.3559 20.2373 50.9514 18.5682 50.9514 15.8191ZM48.3986 15.8191C48.3986 17.0464 48.0059 17.66 47.245 17.66C46.5577 17.66 46.0668 17.1691 46.0668 15.7945C46.0668 14.5182 46.5577 13.9536 47.245 13.9536C47.9568 13.9536 48.3986 14.5182 48.3986 15.8191ZM60.3523 24.68C60.3523 21.8327 59.0514 20.2618 56.695 20.2618C54.5841 20.2618 53.0623 21.9555 53.0623 24.6309C53.0623 27.5764 54.3632 29.0982 56.695 29.0982C58.7568 29.0982 60.3523 27.4291 60.3523 24.68ZM57.7995 24.68C57.7995 25.9073 57.4068 26.5209 56.6459 26.5209C55.9586 26.5209 55.4677 26.03 55.4677 24.6555C55.4677 23.3791 55.9586 22.8145 56.6459 22.8145C57.3577 22.8145 57.7995 23.3791 57.7995 24.68Z" fill="#7CCF29"/>
</svg>
