<svg width="74" height="49" viewBox="0 0 74 49" fill="none" xmlns="http://www.w3.org/2000/svg">
<path d="M24.4078 24.04H21.7078V5.095H16.0378L0.647773 25.39L3.66277 29.845H15.3628V37H21.7078V29.845H24.4078V24.04ZM14.6878 15.76L16.0828 13.285L16.3528 13.33L15.6328 17.785L15.4978 24.49H8.34277L14.6878 15.76ZM49.94 24.04H47.24V5.095H41.57L26.18 25.39L29.195 29.845H40.895V37H47.24V29.845H49.94V24.04ZM40.22 15.76L41.615 13.285L41.885 13.33L41.165 17.785L41.03 24.49H33.875L40.22 15.76Z" fill="#367BF5"/>
<path d="M57.9377 28.6073L60.2204 29.9082L71.585 12.4809L69.2777 11.0818L57.9377 28.6073ZM63.9514 15.8191C63.9514 12.9718 62.6504 11.4009 60.2941 11.4009C58.1832 11.4009 56.6614 13.0945 56.6614 15.77C56.6614 18.7155 57.9623 20.2373 60.2941 20.2373C62.3559 20.2373 63.9514 18.5682 63.9514 15.8191ZM61.3986 15.8191C61.3986 17.0464 61.0059 17.66 60.245 17.66C59.5577 17.66 59.0668 17.1691 59.0668 15.7945C59.0668 14.5182 59.5577 13.9536 60.245 13.9536C60.9568 13.9536 61.3986 14.5182 61.3986 15.8191ZM73.3523 24.68C73.3523 21.8327 72.0514 20.2618 69.695 20.2618C67.5841 20.2618 66.0623 21.9555 66.0623 24.6309C66.0623 27.5764 67.3632 29.0982 69.695 29.0982C71.7568 29.0982 73.3523 27.4291 73.3523 24.68ZM70.7995 24.68C70.7995 25.9073 70.4068 26.5209 69.6459 26.5209C68.9586 26.5209 68.4677 26.03 68.4677 24.6555C68.4677 23.3791 68.9586 22.8145 69.6459 22.8145C70.3577 22.8145 70.7995 23.3791 70.7995 24.68Z" fill="#7CCF29"/>
</svg>
