<svg width="74" height="49" viewBox="0 0 74 49" fill="none" xmlns="http://www.w3.org/2000/svg">
<path d="M14.6111 37.45C21.3161 37.45 26.5361 33.535 26.6711 26.695C26.6711 23.95 25.5461 20.935 22.3061 19.36C24.4211 18.055 25.3211 15.715 25.3211 13.915C25.3211 7.39 20.0561 4.69 14.6111 4.69H13.9361C9.70611 4.69 5.79111 6.535 3.99111 10C2.64111 12.565 2.64111 17.335 6.15111 19.495C3.04611 21.52 1.92111 24.4 1.92111 26.695C2.05611 33.535 7.09611 37.45 13.9361 37.45H14.6111ZM14.6561 10.18C16.9511 10.18 19.0211 11.44 19.0211 13.6C19.0211 16.12 16.2311 17.065 14.0711 17.065C11.8661 17.065 9.52611 16.12 9.52611 13.6C9.52611 11.44 11.5961 10.18 13.9361 10.18H14.6561ZM13.9361 31.195C11.4161 31.195 8.49111 29.755 8.49111 27.01C8.49111 23.905 11.0561 22.645 13.9361 22.645H14.6111C17.4911 22.645 20.0561 23.905 20.0561 27.01C20.0561 29.755 17.1311 31.195 14.6111 31.195H13.9361ZM30.1435 30.97C33.0235 36.73 38.5135 37.45 41.0335 37.45C53.3635 37.63 56.4235 21.025 46.8835 16.345C44.2735 15.04 40.2235 14.41 36.5335 15.94V11.395H50.3035V5.14H30.4135V23.185L34.1035 23.095C37.1185 21.385 38.3785 21.025 40.7635 21.025C47.7385 21.205 47.6485 31.06 40.5835 31.06C38.6485 31.06 36.3985 29.935 35.0035 27.73L30.1435 30.97Z" fill="#367BF5"/>
<path d="M57.9377 28.6073L60.2204 29.9082L71.585 12.4809L69.2777 11.0818L57.9377 28.6073ZM63.9514 15.8191C63.9514 12.9718 62.6504 11.4009 60.2941 11.4009C58.1832 11.4009 56.6614 13.0945 56.6614 15.77C56.6614 18.7155 57.9623 20.2373 60.2941 20.2373C62.3559 20.2373 63.9514 18.5682 63.9514 15.8191ZM61.3986 15.8191C61.3986 17.0464 61.0059 17.66 60.245 17.66C59.5577 17.66 59.0668 17.1691 59.0668 15.7945C59.0668 14.5182 59.5577 13.9536 60.245 13.9536C60.9568 13.9536 61.3986 14.5182 61.3986 15.8191ZM73.3523 24.68C73.3523 21.8327 72.0514 20.2618 69.695 20.2618C67.5841 20.2618 66.0623 21.9555 66.0623 24.6309C66.0623 27.5764 67.3632 29.0982 69.695 29.0982C71.7568 29.0982 73.3523 27.4291 73.3523 24.68ZM70.7995 24.68C70.7995 25.9073 70.4068 26.5209 69.6459 26.5209C68.9586 26.5209 68.4677 26.03 68.4677 24.6555C68.4677 23.3791 68.9586 22.8145 69.6459 22.8145C70.3577 22.8145 70.7995 23.3791 70.7995 24.68Z" fill="#7CCF29"/>
</svg>
