<svg width="30" height="28" viewBox="0 0 30 28" fill="none" xmlns="http://www.w3.org/2000/svg">
<path d="M27.2727 9.54545H18.6682L19.9636 3.31364L20.0046 2.87727C20.0046 2.31818 19.7727 1.8 19.4046 1.43182L17.9591 0L8.98637 8.98636C8.48182 9.47727 8.18182 10.1591 8.18182 10.9091V24.5455C8.18182 26.0455 9.4091 27.2727 10.9091 27.2727H23.1818C24.3136 27.2727 25.2818 26.5909 25.6909 25.6091L29.8091 15.9955C29.9318 15.6818 30 15.3545 30 15V12.2727C30 10.7727 28.7727 9.54545 27.2727 9.54545Z" fill="#367BF5"/>
<path d="M27.2727 15L23.1818 24.5455H10.9091V10.9091L16.8273 4.99092L15.3136 12.2727H27.2727V15Z" fill="white"/>
<path d="M0 10.9091H5.45455V27.2727H0V10.9091Z" fill="#FF008A"/>
</svg>
