<svg width="26" height="32" viewBox="0 0 26 32" fill="none" xmlns="http://www.w3.org/2000/svg">
<path d="M23.1111 0H2.88889C1.3 0 0.0144444 1.3 0.0144444 2.88889L0 21.5656C0 22.5622 0.505556 23.4433 1.27111 23.9633L13 31.7778L24.7144 23.9633C25.48 23.4433 25.9856 22.5622 25.9856 21.5656L26 2.88889C26 1.3 24.7 0 23.1111 0Z" fill="#367BF5"/>
<path d="M13 28.3111L2.88885 21.58V2.88889H23.1111V21.5656L13 28.3111Z" fill="white"/>
<path d="M10.0966 17.5933L6.36998 13.8522L4.33331 15.8889L10.1111 21.6667L21.6666 10.1111L19.6155 8.06L10.0966 17.5933Z" fill="#FF008A"/>
</svg>
