<svg width="30" height="31" viewBox="0 0 30 31" fill="none" xmlns="http://www.w3.org/2000/svg">
<path d="M30 5.85001L23.1 0L21.15 2.25L28.05 8.10001L30 5.85001Z" fill="#FF008A"/>
<path d="M8.85001 2.40003L6.90001 0.150024L0 5.85003L1.95 8.10003L8.85001 2.40003Z" fill="#FF008A"/>
<path d="M15 3.30002C7.50001 3.30002 1.5 9.30003 1.5 16.8C1.5 24.3 7.50001 30.3001 15 30.3001C22.5 30.3001 28.5 24.3 28.5 16.8C28.5 9.30003 22.5 3.30002 15 3.30002Z" fill="#367BF5"/>
<path d="M15 27.3C9.15001 27.3 4.5 22.65 4.5 16.8C4.5 10.95 9.15001 6.30002 15 6.30002C20.85 6.30002 25.5 10.95 25.5 16.8C25.5 22.65 20.85 27.3 15 27.3Z" fill="white"/>
<path d="M15.75 9.30002H13.5V18.3L20.55 22.65L21.75 20.85L15.75 17.25V9.30002Z" fill="#FF2099"/>
</svg>
