<svg width="30" height="28" viewBox="0 0 30 28" fill="none" xmlns="http://www.w3.org/2000/svg">
<path d="M27.2727 0H2.72727C1.22727 0 0 1.22727 0 2.72727V19.0909C0 20.5909 1.22727 21.8182 2.72727 21.8182H12.2727L9.54545 25.9091V27.2727H20.4545V25.9091L17.7273 21.8182H27.2727C28.7727 21.8182 30 20.5909 30 19.0909V2.72727C30 1.22727 28.7727 0 27.2727 0Z" fill="#367BF5"/>
<path d="M27 19H3V3H27V19Z" fill="white"/>
<path d="M18.3333 13.6667L15.6667 11V8.88C16.44 8.6 17 7.86667 17 7C17 5.89333 16.1067 5 15 5C13.8933 5 13 5.89333 13 7C13 7.86667 13.56 8.6 14.3333 8.88V11L11.6667 13.6667H9V17H12.3333V14.9667L15 12.1667L17.6667 14.9667V17H21V13.6667H18.3333Z" fill="#FF008A"/>
</svg>
