<svg width="25" height="34" viewBox="0 0 25 34" fill="none" xmlns="http://www.w3.org/2000/svg">
<path d="M14.8438 0C14.8438 0 16 4.14062 16 7.5C16 10.7188 13.8906 13.3281 10.6719 13.3281C7.4375 13.3281 5 10.7188 5 7.5L5.04688 6.9375C1.89062 10.6875 0 15.5469 0 20.8281C0 27.7344 5.59375 33.3281 12.5 33.3281C19.4062 33.3281 25 27.7344 25 20.8281C25 12.4062 20.9531 4.89062 14.8438 0Z" fill="#367BF5"/>
<path d="M12.5 30.2031C7.32812 30.2031 3.125 26 3.125 20.8281C3.125 18.4375 3.59375 16.0781 4.46875 13.9062C6.04688 15.4844 8.23437 16.4531 10.6719 16.4531C14.8281 16.4531 18.0937 13.5938 18.9219 9.53125C20.8437 12.9688 21.875 16.8281 21.875 20.8281C21.875 26 17.6719 30.2031 12.5 30.2031Z" fill="white"/>
<path d="M11.8281 19.5156C9.70313 19.9531 8.4375 21.3281 8.4375 23.2812C8.4375 25.375 10.1719 27.0625 12.3281 27.0625C15.5312 27.0625 18.125 24.4687 18.125 21.2656C18.125 19.5937 17.8906 17.9531 17.4062 16.3906C16.1719 18.0625 13.9688 19.0781 11.8281 19.5156Z" fill="#FF008A"/>
</svg>
