<svg width="24" height="24" viewBox="0 0 24 24" fill="none" xmlns="http://www.w3.org/2000/svg">
<g id="icon/action/settings_24px">
<path id="Path" d="M19.4318 12.98C19.4718 12.66 19.5018 12.34 19.5018 12C19.5018 11.66 19.4718 11.34 19.4318 11.02L21.5418 9.37C21.7318 9.22 21.7818 8.95 21.6618 8.73L19.6618 5.27C19.5718 5.11 19.4018 5.02 19.2218 5.02C19.1618 5.02 19.1018 5.03 19.0518 5.05L16.5618 6.05C16.0418 5.65 15.4818 5.32 14.8718 5.07L14.4918 2.42C14.4618 2.18 14.2518 2 14.0018 2H10.0018C9.75179 2 9.54179 2.18 9.51179 2.42L9.13179 5.07C8.52179 5.32 7.96179 5.66 7.44179 6.05L4.95179 5.05C4.89179 5.03 4.83179 5.02 4.77179 5.02C4.60179 5.02 4.43179 5.11 4.34179 5.27L2.34179 8.73C2.21179 8.95 2.27179 9.22 2.46179 9.37L4.57179 11.02C4.53179 11.34 4.50179 11.67 4.50179 12C4.50179 12.33 4.53179 12.66 4.57179 12.98L2.46179 14.63C2.27179 14.78 2.22179 15.05 2.34179 15.27L4.34179 18.73C4.43179 18.89 4.60179 18.98 4.78179 18.98C4.84179 18.98 4.90179 18.97 4.95179 18.95L7.44179 17.95C7.96179 18.35 8.52179 18.68 9.13179 18.93L9.51179 21.58C9.54179 21.82 9.75179 22 10.0018 22H14.0018C14.2518 22 14.4618 21.82 14.4918 21.58L14.8718 18.93C15.4818 18.68 16.0418 18.34 16.5618 17.95L19.0518 18.95C19.1118 18.97 19.1718 18.98 19.2318 18.98C19.4018 18.98 19.5718 18.89 19.6618 18.73L21.6618 15.27C21.7818 15.05 21.7318 14.78 21.5418 14.63L19.4318 12.98Z" fill="#367BF5"/>
<path id="Path_2" d="M17.4517 11.27C17.4917 11.58 17.5017 11.79 17.5017 12C17.5017 12.21 17.4817 12.43 17.4517 12.73L17.3117 13.86L18.2017 14.56L19.2817 15.4L18.5817 16.61L17.3117 16.1L16.2717 15.68L15.3717 16.36C14.9417 16.68 14.5317 16.92 14.1217 17.09L13.0617 17.52L12.9017 18.65L12.7017 20H11.3017L11.1117 18.65L10.9517 17.52L9.89168 17.09C9.46168 16.91 9.06168 16.68 8.66168 16.38L7.75168 15.68L6.69168 16.11L5.42168 16.62L4.72168 15.41L5.80168 14.57L6.69168 13.87L6.55168 12.74C6.52168 12.43 6.50168 12.2 6.50168 12C6.50168 11.8 6.52168 11.57 6.55168 11.27L6.69168 10.14L5.80168 9.44L4.72168 8.6L5.42168 7.39L6.69168 7.9L7.73168 8.32L8.63168 7.64C9.06168 7.32 9.47168 7.08 9.88168 6.91L10.9417 6.48L11.1017 5.35L11.3017 4H12.6917L12.8817 5.35L13.0417 6.48L14.1017 6.91C14.5317 7.09 14.9317 7.32 15.3317 7.62L16.2417 8.32L17.3017 7.89L18.5717 7.38L19.2717 8.59L18.2017 9.44L17.3117 10.14L17.4517 11.27Z" fill="white"/>
<path id="Path_3" d="M12.002 8C9.79195 8 8.00195 9.79 8.00195 12C8.00195 14.21 9.79195 16 12.002 16C14.212 16 16.002 14.21 16.002 12C16.002 9.79 14.212 8 12.002 8Z" fill="#FF008A"/>
<path id="Path_4" d="M12.002 14C10.902 14 10.002 13.1 10.002 12C10.002 10.9 10.902 10 12.002 10C13.102 10 14.002 10.9 14.002 12C14.002 13.1 13.102 14 12.002 14Z" fill="white"/>
</g>
</svg>
