<svg width="24" height="24" viewBox="0 0 24 24" fill="none" xmlns="http://www.w3.org/2000/svg">
<g id="icon/places/room_service_24px">
<path id="Path" d="M18.98 17H2V19H22V17H18.98Z" fill="#FF008A"/>
<path id="Path_2" d="M21 16C20.73 11.93 17.75 8.6 13.84 7.79C13.94 7.55 14 7.28 14 7C14 5.9 13.1 5 12 5C10.9 5 10 5.9 10 7C10 7.28 10.06 7.55 10.16 7.79C6.25 8.6 3.27 11.93 3 16H21Z" fill="#367BF5"/>
<path id="Path_3" d="M12 9.58008C14.95 9.58008 17.47 11.4101 18.5 13.9901H5.5C6.53 11.4101 9.05 9.58008 12 9.58008Z" fill="white"/>
</g>
</svg>
