<svg width="24" height="24" viewBox="0 0 24 24" fill="none" xmlns="http://www.w3.org/2000/svg">
<g id="icon/image/photo_album_24px">
<path id="Path" d="M18 2H6C4.9 2 4 2.9 4 4V20C4 21.1 4.9 22 6 22H18C19.1 22 20 21.1 20 20V4C20 2.9 19.1 2 18 2Z" fill="#367BF5"/>
<path id="Path_2" d="M18 2H6C4.9 2 4 2.9 4 4V20C4 21.1 4.9 22 6 22H18C19.1 22 20 21.1 20 20V4C20 2.9 19.1 2 18 2Z" fill="#367BF5"/>
<rect id="Rectangle" x="7" y="4" width="6" height="9" fill="#FF008A"/>
<path id="Path_3" d="M11 4V9L10 8.25L9 9V4H11Z" fill="white"/>
<path id="Path_4" d="M18 20H6V4H7V13L10 10.75L13 13V4H18V20Z" fill="white"/>
</g>
</svg>
