<svg width="45" height="45" viewBox="0 0 45 45" fill="none" xmlns="http://www.w3.org/2000/svg">
<path d="M23 4C38 4 39 8 39 8V21.3C39 28.5 35.1 35.2 28.8 38.7L23 42L17.2 38.7C10.9 35.2 7 28.5 7 21.3V8C7 8 7 4 23 4ZM23 1C15.9 1 10.7 1.80005 7.70001 3.30005C4.30001 5.00005 4 7.3 4 8V21.3C4 29.6 8.50001 37.3 15.7 41.3L21.5 44.6C22 44.9 22.5 45 23 45C23.5 45 24 44.9 24.5 44.6L30.3 41.3C37.5 37.2001 42 29.6 42 21.3V8C42 7.8 42 7.50005 41.9 7.30005C41.3 4.90005 38.1 1 23 1Z" fill="#367BF5"/>
<path d="M22.0002 28.5C21.6002 28.5 21.2002 28.4 20.9002 28.1L13.9002 21.1C13.3002 20.5 13.3002 19.6 13.9002 19C14.5002 18.4 15.4002 18.4 16.0002 19L21.9002 24.9001L31.8002 15C32.4002 14.4 33.3002 14.4 33.9002 15C34.5002 15.6 34.5002 16.5 33.9002 17.1L22.9002 28.1C22.8002 28.4 22.4002 28.5 22.0002 28.5Z" fill="#FF008A"/>
</svg>
