<svg width="45" height="45" viewBox="0 0 45 45" fill="none" xmlns="http://www.w3.org/2000/svg">
<path d="M21.7998 15C17.3998 15 13.7998 18.6 13.7998 23C13.7998 27.4 17.3998 31 21.7998 31C26.1998 31 29.7998 27.4 29.7998 23C29.7998 18.6 26.1998 15 21.7998 15ZM21.7998 28C18.9998 28 16.7998 25.8 16.7998 23C16.7998 20.2 18.9998 18 21.7998 18C24.5998 18 26.7998 20.2 26.7998 23C26.7998 25.8 24.5998 28 21.7998 28Z" fill="#FF008A"/>
<path d="M40.8 17H37.7C37.6 16.7 37.4 16.3 37.3 16L39.5 13.8C40.1 13.2 40.4 12.5 40.4 11.7C40.4 10.9 40.1 10.1 39.5 9.59998L35.3 5.40002C34.7 4.80002 33.9 4.5 33.2 4.5C32.4 4.5 31.7 4.80002 31.1 5.40002L28.9 7.59998C28.6 7.49998 28.2 7.30001 27.9 7.20001V4C27.9 2.3 26.6 1 24.9 1H18.9C17.2 1 15.9 2.3 15.9 4V7.09998C15.6 7.19998 15.2 7.4 14.9 7.5L12.7 5.29999C12.1 4.69999 11.3 4.40002 10.6 4.40002C9.79998 4.40002 9.1 4.69999 8.5 5.29999L4.29999 9.5C3.69999 10.1 3.39996 10.8 3.39996 11.6C3.39996 12.4 3.69999 13.2 4.29999 13.7L6.5 15.9C6.4 16.2 6.19998 16.6 6.09998 16.9H3C1.3 16.9 0 18.2 0 19.9V25.9C0 27.6 1.3 28.9 3 28.9H6.09998C6.19998 29.2 6.4 29.6 6.5 29.9L4.29999 32.1C3.69999 32.7 3.39996 33.4 3.39996 34.2C3.39996 35 3.69999 35.8 4.29999 36.3L8.5 40.5C9.1 41.1 9.89998 41.4 10.6 41.4C11.4 41.4 12.1 41.1 12.7 40.5L14.9 38.3C15.2 38.4 15.6 38.6 15.9 38.7V41.8C15.9 43.5 17.2 44.8 18.9 44.8H24.9C26.6 44.8 27.9 43.5 27.9 41.8V38.7C28.2 38.6 28.6 38.4 28.9 38.3L31.1 40.5C31.7 41.1 32.5 41.4 33.2 41.4C34 41.4 34.7 41.1 35.3 40.5L39.5 36.3C40.1 35.7 40.4 35 40.4 34.2C40.4 33.4 40.1 32.6 39.5 32.1L37.3 30C37.4 29.7 37.6 29.3 37.7 29H40.8C42.5 29 43.8 27.7 43.8 26V20C43.8 18.3 42.5 17 40.8 17ZM40.8 26H35.5C35.1 27.6 34.5 29.2 33.6 30.5L37.4 34.3L33.2 38.5L29.4 34.7C28 35.6 26.5 36.2 24.9 36.6V41.9H18.9V36.6C17.3 36.2 15.7 35.6 14.4 34.7L10.6 38.5L6.39996 34.3L10.2 30.5C9.30001 29.1 8.69999 27.6 8.29999 26H3V20H8.29999C8.69999 18.4 9.30001 16.8 10.2 15.5L6.39996 11.7L10.6 7.5L14.4 11.3C15.8 10.4 17.3 9.80002 18.9 9.40002V4H24.9V9.29999C26.5 9.69999 28.1 10.3 29.4 11.2L33.2 7.40002L37.4 11.6L33.6 15.4C34.5 16.8 35.1 18.3 35.5 19.9H40.8V26Z" fill="#367BF5"/>
</svg>
