<svg width="45" height="45" viewBox="0 0 45 45" fill="none" xmlns="http://www.w3.org/2000/svg">
<path d="M34 1C31.2 1 29 3.2 29 6V13H25C24.5 13 23.9 13.1999 23.5 13.3999C23.1 13.0999 22.5 13 22 13H18C17.6 13 17.3 13.1 17 13.2V6C17 3.2 14.8 1 12 1C9.2 1 7 3.2 7 6V26C7 28 7 33 8 35C10.7 40.2 16.7 44 22.9 44C31.7 44 39 37 39 31C39 30.6 39 6 39 6C39 3.2 36.8 1 34 1ZM25 16H29V26C29 27.1 28.1 28 27 28C25.9 28 25 27.1 25 26V16ZM18 16H22V23.3999C21.8 23.0999 21.6 22.9001 21.4 22.6001C20.5 21.7001 19.3 21.2 18 21.2V16ZM10 6C10 4.9 10.9 4 12 4C13.1 4 14 4.9 14 6V22.8999L10 26.8999V6ZM11.1 33.5C10.7 32.7 10.5 31.9001 10.3 31.1001C10.4 30.8001 10.5 30.5999 10.8 30.3999L16.5 24.7C16.9 24.3 17.4 24.1001 17.9 24.1001C18.4 24.1001 18.9 24.3 19.3 24.7C20.1 25.5 20.1 26.7 19.3 27.5L13.6 33.2C13.2 33.6 12.7 33.8 12.2 33.8C11.8 33.8 11.4 33.7 11.1 33.5ZM36 31C36 36 29.1 41 23 41C19.1 41 15.4 39.7 13 37C13.9 36.8 15 36.0999 15.7 35.3999L20.1 31C21.4 31 22.6 30.4001 23.5 29.6001C24.4 30.5001 25.6 31 27 31C31 31 32 26.1001 32 26.1001V26V16V6C32 4.9 32.9 4 34 4C35.1 4 36 4.9 36 6V31Z" fill="#367BF5"/>
</svg>
