<svg width="45" height="45" viewBox="0 0 45 45" fill="none" xmlns="http://www.w3.org/2000/svg">
<path d="M42.3947 17.3999L39.4946 16.6001C39.2946 16.5001 38.9946 16.5 38.7946 16.5C38.3946 15.7 37.7947 15.0999 36.8947 14.8999L32.9946 13.8999C32.8946 13.8999 32.8946 13.8999 32.7946 13.8999C32.7946 13.4999 32.5947 13.0001 32.3947 12.6001C31.9947 11.9001 31.2946 11.4 30.5946 11.2L13.1947 6.6001C13.0947 6.6001 13.0946 6.6001 12.9946 6.6001C12.8946 5.4001 12.0946 4.2999 10.7946 3.8999L7.89466 3.1001C7.59466 3.0001 7.39462 3 7.09462 3C6.59462 3 6.09462 3.0999 5.59462 3.3999C4.89462 3.7999 4.39465 4.49995 4.19465 5.19995L1.09462 16.8C0.694615 18.4 1.59465 20 3.19465 20.5L6.09462 21.3C6.39462 21.4 6.59466 21.3999 6.89466 21.3999C7.39466 21.3999 7.89466 21.3 8.39466 21C8.79466 20.8 9.09466 20.5001 9.39466 20.1001C9.49466 20.1001 9.49461 20.1 9.59461 20.2L18.0946 22.5L13.4946 40.8C13.2946 41.6 13.7946 42.4001 14.5946 42.6001C14.6946 42.6001 14.7946 42.6001 14.9946 42.6001C15.6946 42.6001 16.2946 42.1 16.4946 41.5L21.0946 23.3L25.8947 24.6001L29.6947 41.5C29.8947 42.2 30.4947 42.7 31.1947 42.7C31.2947 42.7 31.3946 42.7 31.4946 42.7C32.2946 42.5 32.7946 41.6999 32.5946 40.8999L28.9946 24.8C29.5946 24.6 29.9947 24.2 30.3947 23.7C30.4947 23.7 30.4946 23.7 30.5946 23.8L34.4946 24.8C34.7946 24.9 34.9946 24.8999 35.2946 24.8999C35.8946 24.8999 36.4946 24.7 36.9946 24.3C37.1946 24.4 37.3946 24.5001 37.5946 24.6001L40.4946 25.3999C40.7946 25.4999 40.9946 25.5 41.2946 25.5C41.7946 25.5 42.2946 25.4001 42.7946 25.1001C43.4946 24.7001 43.9947 24 44.1947 23.3L44.6947 21.3999C44.9947 19.4999 43.9947 17.8999 42.3947 17.3999ZM29.9946 14L27.9946 22C27.6946 21.8 10.3947 17.2 10.3947 17.2L11.7946 12L12.4946 9.5L29.9946 14ZM4.09462 17.6001L7.19465 6L10.0946 6.80005L8.89466 11.2L7.49464 16.3999L6.99464 18.3L4.09462 17.6001ZM35.0946 21.7L31.1947 20.7L32.1947 16.8L36.0946 17.8L35.0946 21.7ZM41.0946 22.3L38.1947 21.5L38.6947 19.6001L41.5946 20.3999L41.0946 22.3Z" fill="#367BF5"/>
</svg>
