<svg width="45" height="45" viewBox="0 0 45 45" fill="none" xmlns="http://www.w3.org/2000/svg">
<path d="M23 13.5C18.3 13.5 14.5 17.3 14.5 22C14.5 26.7 18.3 30.5 23 30.5C27.7 30.5 31.5 26.7 31.5 22C31.5 17.3 27.7 13.5 23 13.5ZM23 27.5C20 27.5 17.5 25 17.5 22C17.5 19 20 16.5 23 16.5C26 16.5 28.5 19 28.5 22C28.5 25 26 27.5 23 27.5Z" fill="#FF008A"/>
<path d="M42.5 20.5H39.4C38.7 12.6 32.4 6.29998 24.5 5.59998V2.5C24.5 1.7 23.8 1 23 1C22.2 1 21.5 1.7 21.5 2.5V5.59998C13.6 6.29998 7.30001 12.6 6.60001 20.5C6.60001 20.5 6.6 20.5 6.5 20.5H2.5C1.7 20.5 1 21.2 1 22C1 22.8 1.7 23.5 2.5 23.5H6.5H6.60001C7.30001 31.4 13.6 37.7 21.5 38.4C21.5 38.4 21.5 38.4 21.5 38.5V42.5C21.5 43.3 22.2 44 23 44C23.8 44 24.5 43.3 24.5 42.5V38.5C24.5 38.5 24.5 38.5 24.5 38.4C32.4 37.7 38.7 31.4 39.4 23.5H42.5C43.3 23.5 44 22.8 44 22C44 21.2 43.3 20.5 42.5 20.5ZM23 35.5C15.5 35.5 9.5 29.5 9.5 22C9.5 14.5 15.5 8.5 23 8.5C30.5 8.5 36.5 14.5 36.5 22C36.5 29.5 30.5 35.5 23 35.5Z" fill="#367BF5"/>
</svg>
