<svg width="45" height="45" viewBox="0 0 45 45" fill="none" xmlns="http://www.w3.org/2000/svg">
<path d="M36 5C39.3 5 42 7.7 42 11V27C42 30.3 39.3 33 36 33H17.8L11 39V33H10C6.7 33 4 30.3 4 27V11C4 7.7 6.7 5 10 5H36ZM36 2H10C5 2 1 6 1 11V27C1 31.3 4 34.9 8 35.8V39C8 40.2 8.69999 41.2999 9.79999 41.7C10.2 41.9 10.6 42 11 42C11.7 42 12.4 41.7 13 41.2L18.9 36H36C41 36 45 32 45 27V11C45 6 41 2 36 2Z" fill="#367BF5"/>
<path d="M24 21.5C25.3807 21.5 26.5 20.3807 26.5 19C26.5 17.6193 25.3807 16.5 24 16.5C22.6193 16.5 21.5 17.6193 21.5 19C21.5 20.3807 22.6193 21.5 24 21.5Z" fill="#FF008A"/>
<path d="M34 21.5C35.3807 21.5 36.5 20.3807 36.5 19C36.5 17.6193 35.3807 16.5 34 16.5C32.6193 16.5 31.5 17.6193 31.5 19C31.5 20.3807 32.6193 21.5 34 21.5Z" fill="#FF008A"/>
<path d="M14.0996 21.5C15.4803 21.5 16.5996 20.3807 16.5996 19C16.5996 17.6193 15.4803 16.5 14.0996 16.5C12.7189 16.5 11.5996 17.6193 11.5996 19C11.5996 20.3807 12.7189 21.5 14.0996 21.5Z" fill="#FF008A"/>
</svg>
