<svg width="72" height="49" viewBox="0 0 72 49" fill="none" xmlns="http://www.w3.org/2000/svg">
<path d="M1.77383 5.095V11.26H15.7688L1.90883 37H9.06383L24.3188 8.785L22.4738 5.095H1.77383ZM38.0519 37.45C43.4969 37.45 49.5719 34.48 49.5719 27.82V14.365C49.5719 7.66 43.4969 4.69 38.0519 4.69C32.6519 4.69 26.5319 7.66 26.5319 14.365V27.82C26.5319 34.48 32.6519 37.45 38.0519 37.45ZM32.8769 14.365C33.2369 9.64 42.8669 9.64 43.2269 14.365V27.82C42.8669 32.455 33.2369 32.455 32.8769 27.82V14.365Z" fill="#367BF5"/>
<path d="M55.9377 28.6073L58.2204 29.9082L69.585 12.4809L67.2777 11.0818L55.9377 28.6073ZM61.9514 15.8191C61.9514 12.9718 60.6504 11.4009 58.2941 11.4009C56.1832 11.4009 54.6614 13.0945 54.6614 15.77C54.6614 18.7155 55.9623 20.2373 58.2941 20.2373C60.3559 20.2373 61.9514 18.5682 61.9514 15.8191ZM59.3986 15.8191C59.3986 17.0464 59.0059 17.66 58.245 17.66C57.5577 17.66 57.0668 17.1691 57.0668 15.7945C57.0668 14.5182 57.5577 13.9536 58.245 13.9536C58.9568 13.9536 59.3986 14.5182 59.3986 15.8191ZM71.3523 24.68C71.3523 21.8327 70.0514 20.2618 67.695 20.2618C65.5841 20.2618 64.0623 21.9555 64.0623 24.6309C64.0623 27.5764 65.3632 29.0982 67.695 29.0982C69.7568 29.0982 71.3523 27.4291 71.3523 24.68ZM68.7995 24.68C68.7995 25.9073 68.4068 26.5209 67.6459 26.5209C66.9586 26.5209 66.4677 26.03 66.4677 24.6555C66.4677 23.3791 66.9586 22.8145 67.6459 22.8145C68.3577 22.8145 68.7995 23.3791 68.7995 24.68Z" fill="#FF008A"/>
</svg>
