<svg width="74" height="49" viewBox="0 0 74 49" fill="none" xmlns="http://www.w3.org/2000/svg">
<path d="M2.46648 30.97C5.12148 35.65 9.08148 37.45 13.4015 37.45C19.3415 37.45 25.1915 34.3 25.1915 27.775V14.365C25.0565 7.84 19.3415 4.69 13.4015 4.69C7.41648 4.69 1.79148 7.93 1.79148 14.365V16.255C1.79148 24.85 13.2215 28.54 18.8015 23.14V27.73C18.8015 31.915 10.3865 33.4 8.04648 28.585L2.46648 30.97ZM8.13648 14.41C8.13648 9.865 18.8015 9.865 18.8015 14.41V16.21C18.8015 20.755 8.13648 20.8 8.13648 16.21V14.41ZM29.1381 30.97C32.0181 36.73 37.5081 37.45 40.0281 37.45C52.3581 37.63 55.4181 21.025 45.8781 16.345C43.2681 15.04 39.2181 14.41 35.5281 15.94V11.395H49.2981V5.14H29.4081V23.185L33.0981 23.095C36.1131 21.385 37.3731 21.025 39.7581 21.025C46.7331 21.205 46.6431 31.06 39.5781 31.06C37.6431 31.06 35.3931 29.935 33.9981 27.73L29.1381 30.97Z" fill="#367BF5"/>
<path d="M57.9377 28.6073L60.2204 29.9082L71.585 12.4809L69.2777 11.0818L57.9377 28.6073ZM63.9514 15.8191C63.9514 12.9718 62.6504 11.4009 60.2941 11.4009C58.1832 11.4009 56.6614 13.0945 56.6614 15.77C56.6614 18.7155 57.9623 20.2373 60.2941 20.2373C62.3559 20.2373 63.9514 18.5682 63.9514 15.8191ZM61.3986 15.8191C61.3986 17.0464 61.0059 17.66 60.245 17.66C59.5577 17.66 59.0668 17.1691 59.0668 15.7945C59.0668 14.5182 59.5577 13.9536 60.245 13.9536C60.9568 13.9536 61.3986 14.5182 61.3986 15.8191ZM73.3523 24.68C73.3523 21.8327 72.0514 20.2618 69.695 20.2618C67.5841 20.2618 66.0623 21.9555 66.0623 24.6309C66.0623 27.5764 67.3632 29.0982 69.695 29.0982C71.7568 29.0982 73.3523 27.4291 73.3523 24.68ZM70.7995 24.68C70.7995 25.9073 70.4068 26.5209 69.6459 26.5209C68.9586 26.5209 68.4677 26.03 68.4677 24.6555C68.4677 23.3791 68.9586 22.8145 69.6459 22.8145C70.3577 22.8145 70.7995 23.3791 70.7995 24.68Z" fill="#FF008A"/>
</svg>
