<svg width="75" height="49" viewBox="0 0 75 49" fill="none" xmlns="http://www.w3.org/2000/svg">
<path d="M14.2542 37.45C20.9592 37.45 26.1792 33.535 26.3142 26.695C26.3142 23.95 25.1892 20.935 21.9492 19.36C24.0642 18.055 24.9642 15.715 24.9642 13.915C24.9642 7.39 19.6992 4.69 14.2542 4.69H13.5792C9.34918 4.69 5.43418 6.535 3.63418 10C2.28418 12.565 2.28418 17.335 5.79418 19.495C2.68918 21.52 1.56418 24.4 1.56418 26.695C1.69918 33.535 6.73918 37.45 13.5792 37.45H14.2542ZM14.2992 10.18C16.5942 10.18 18.6642 11.44 18.6642 13.6C18.6642 16.12 15.8742 17.065 13.7142 17.065C11.5092 17.065 9.16918 16.12 9.16918 13.6C9.16918 11.44 11.2392 10.18 13.5792 10.18H14.2992ZM13.5792 31.195C11.0592 31.195 8.13418 29.755 8.13418 27.01C8.13418 23.905 10.6992 22.645 13.5792 22.645H14.2542C17.1342 22.645 19.6992 23.905 19.6992 27.01C19.6992 29.755 16.7742 31.195 14.2542 31.195H13.5792ZM41.4416 37.45C46.8866 37.45 52.9616 34.48 52.9616 27.82V14.365C52.9616 7.66 46.8866 4.69 41.4416 4.69C36.0416 4.69 29.9216 7.66 29.9216 14.365V27.82C29.9216 34.48 36.0416 37.45 41.4416 37.45ZM36.2666 14.365C36.6266 9.64 46.2566 9.64 46.6166 14.365V27.82C46.2566 32.455 36.6266 32.455 36.2666 27.82V14.365Z" fill="#367BF5"/>
<path d="M58.9377 28.6073L61.2204 29.9082L72.585 12.4809L70.2777 11.0818L58.9377 28.6073ZM64.9514 15.8191C64.9514 12.9718 63.6504 11.4009 61.2941 11.4009C59.1832 11.4009 57.6614 13.0945 57.6614 15.77C57.6614 18.7155 58.9623 20.2373 61.2941 20.2373C63.3559 20.2373 64.9514 18.5682 64.9514 15.8191ZM62.3986 15.8191C62.3986 17.0464 62.0059 17.66 61.245 17.66C60.5577 17.66 60.0668 17.1691 60.0668 15.7945C60.0668 14.5182 60.5577 13.9536 61.245 13.9536C61.9568 13.9536 62.3986 14.5182 62.3986 15.8191ZM74.3523 24.68C74.3523 21.8327 73.0514 20.2618 70.695 20.2618C68.5841 20.2618 67.0623 21.9555 67.0623 24.6309C67.0623 27.5764 68.3632 29.0982 70.695 29.0982C72.7568 29.0982 74.3523 27.4291 74.3523 24.68ZM71.7995 24.68C71.7995 25.9073 71.4068 26.5209 70.6459 26.5209C69.9586 26.5209 69.4677 26.03 69.4677 24.6555C69.4677 23.3791 69.9586 22.8145 70.6459 22.8145C71.3577 22.8145 71.7995 23.3791 71.7995 24.68Z" fill="#FF008A"/>
</svg>
