<svg width="74" height="49" viewBox="0 0 74 49" fill="none" xmlns="http://www.w3.org/2000/svg">
<path d="M2.26336 30.97C4.91836 35.65 8.87836 37.45 13.1984 37.45C19.1384 37.45 24.9884 34.3 24.9884 27.775V14.365C24.8534 7.84 19.1384 4.69 13.1984 4.69C7.21336 4.69 1.58836 7.93 1.58836 14.365V16.255C1.58836 24.85 13.0184 28.54 18.5984 23.14V27.73C18.5984 31.915 10.1834 33.4 7.84336 28.585L2.26336 30.97ZM7.93336 14.41C7.93336 9.865 18.5984 9.865 18.5984 14.41V16.21C18.5984 20.755 7.93336 20.8 7.93336 16.21V14.41ZM29.07 30.97C31.725 35.65 35.685 37.45 40.005 37.45C45.945 37.45 51.795 34.3 51.795 27.775V14.365C51.66 7.84 45.945 4.69 40.005 4.69C34.02 4.69 28.395 7.93 28.395 14.365V16.255C28.395 24.85 39.825 28.54 45.405 23.14V27.73C45.405 31.915 36.99 33.4 34.65 28.585L29.07 30.97ZM34.74 14.41C34.74 9.865 45.405 9.865 45.405 14.41V16.21C45.405 20.755 34.74 20.8 34.74 16.21V14.41Z" fill="#367BF5"/>
<path d="M57.9377 28.6073L60.2204 29.9082L71.585 12.4809L69.2777 11.0818L57.9377 28.6073ZM63.9514 15.8191C63.9514 12.9718 62.6504 11.4009 60.2941 11.4009C58.1832 11.4009 56.6614 13.0945 56.6614 15.77C56.6614 18.7155 57.9623 20.2373 60.2941 20.2373C62.3559 20.2373 63.9514 18.5682 63.9514 15.8191ZM61.3986 15.8191C61.3986 17.0464 61.0059 17.66 60.245 17.66C59.5577 17.66 59.0668 17.1691 59.0668 15.7945C59.0668 14.5182 59.5577 13.9536 60.245 13.9536C60.9568 13.9536 61.3986 14.5182 61.3986 15.8191ZM73.3523 24.68C73.3523 21.8327 72.0514 20.2618 69.695 20.2618C67.5841 20.2618 66.0623 21.9555 66.0623 24.6309C66.0623 27.5764 67.3632 29.0982 69.695 29.0982C71.7568 29.0982 73.3523 27.4291 73.3523 24.68ZM70.7995 24.68C70.7995 25.9073 70.4068 26.5209 69.6459 26.5209C68.9586 26.5209 68.4677 26.03 68.4677 24.6555C68.4677 23.3791 68.9586 22.8145 69.6459 22.8145C70.3577 22.8145 70.7995 23.3791 70.7995 24.68Z" fill="#FF008A"/>
</svg>
