<svg width="44" height="42" viewBox="0 0 44 42" fill="none" xmlns="http://www.w3.org/2000/svg">
<path fill-rule="evenodd" clip-rule="evenodd" d="M3.83398 4.10013C3.83398 3.70248 4.15634 3.38013 4.55398 3.38013H38.8397C39.2373 3.38013 39.5597 3.70248 39.5597 4.10013V28.5073C39.5597 28.9049 39.2373 29.2273 38.8397 29.2273H4.55398C4.15634 29.2273 3.83398 28.9049 3.83398 28.5073V4.10013ZM5.27398 4.82013V27.7873H38.1197V4.82013H5.27398Z" fill="url(#paint0_linear)"/>
<path fill-rule="evenodd" clip-rule="evenodd" d="M1 3.98453C1 3.58688 1.32236 3.26453 1.72 3.26453H41.6737C42.0713 3.26453 42.3937 3.58688 42.3937 3.98453C42.3937 4.38217 42.0713 4.70453 41.6737 4.70453H1.72C1.32236 4.70453 1 4.38217 1 3.98453Z" fill="url(#paint1_linear)"/>
<path fill-rule="evenodd" clip-rule="evenodd" d="M21.6971 27.7874C22.0947 27.7874 22.4171 28.1097 22.4171 28.5074V39.1493C22.4171 39.547 22.0947 39.8693 21.6971 39.8693C21.2994 39.8693 20.9771 39.547 20.9771 39.1493V28.5074C20.9771 28.1097 21.2994 27.7874 21.6971 27.7874Z" fill="#761AA1"/>
<path fill-rule="evenodd" clip-rule="evenodd" d="M21.6971 0.280029C22.0947 0.280029 22.4171 0.602384 22.4171 1.00003V3.98441C22.4171 4.38205 22.0947 4.70441 21.6971 4.70441C21.2994 4.70441 20.9771 4.38205 20.9771 3.98441V1.00003C20.9771 0.602384 21.2994 0.280029 21.6971 0.280029Z" fill="#D24B80"/>
<path fill-rule="evenodd" clip-rule="evenodd" d="M21.158 33.6284C21.3705 33.2924 21.8153 33.1922 22.1513 33.4048L33.1982 40.3915C33.5342 40.604 33.6344 41.0488 33.4218 41.3849C33.2093 41.7209 32.7645 41.8211 32.4285 41.6085L21.3816 34.6218C21.0456 34.4093 20.9454 33.9645 21.158 33.6284Z" fill="url(#paint2_linear)"/>
<path fill-rule="evenodd" clip-rule="evenodd" d="M22.2246 33.6284C22.4371 33.9645 22.337 34.4093 22.0009 34.6218L10.9541 41.6085C10.618 41.8211 10.1733 41.7209 9.9607 41.3849C9.74815 41.0488 9.84828 40.604 10.1844 40.3915L21.2312 33.4048C21.5673 33.1922 22.012 33.2924 22.2246 33.6284Z" fill="#771BA0"/>
<path fill-rule="evenodd" clip-rule="evenodd" d="M15.3917 9.04671C15.707 9.28889 15.7663 9.7408 15.5241 10.0561L13.6849 12.4505C13.5484 12.6283 13.3369 12.7323 13.1127 12.7319C12.8886 12.7315 12.6775 12.6267 12.5416 12.4485L10.9453 10.3548C10.7042 10.0386 10.7651 9.58694 11.0813 9.3459C11.3974 9.10485 11.8491 9.16574 12.0902 9.48189L13.1162 10.8276L14.3824 9.17909C14.6245 8.8638 15.0765 8.80454 15.3917 9.04671ZM18.5018 10.6818C18.5018 10.2842 18.824 9.96194 19.2216 9.96194H31.8763C32.2739 9.96194 32.5962 10.2842 32.5962 10.6818C32.5962 11.0794 32.2739 11.4016 31.8763 11.4016H19.2216C18.824 11.4016 18.5018 11.0794 18.5018 10.6818ZM15.3917 14.3908C15.707 14.633 15.7663 15.0849 15.5241 15.4002L13.6849 17.7947C13.5484 17.9724 13.3369 18.0764 13.1127 18.076C12.8886 18.0756 12.6775 17.9708 12.5416 17.7926L10.9453 15.6989C10.7042 15.3828 10.7651 14.9311 11.0813 14.69C11.3974 14.449 11.8491 14.5099 12.0902 14.826L13.1162 16.1717L14.3824 14.5232C14.6245 14.2079 15.0765 14.1487 15.3917 14.3908ZM18.5018 16.0259C18.5018 15.6284 18.824 15.3061 19.2216 15.3061H31.8763C32.2739 15.3061 32.5962 15.6284 32.5962 16.0259C32.5962 16.4235 32.2739 16.7458 31.8763 16.7458H19.2216C18.824 16.7458 18.5018 16.4235 18.5018 16.0259ZM15.3917 19.7234C15.707 19.9656 15.7663 20.4175 15.5241 20.7328L13.6849 23.1272C13.5484 23.305 13.3369 23.409 13.1127 23.4086C12.8886 23.4082 12.6775 23.3034 12.5416 23.1252L10.9453 21.0315C10.7042 20.7153 10.7651 20.2636 11.0813 20.0226C11.3974 19.7815 11.8491 19.8424 12.0902 20.1586L13.1162 21.5042L14.3824 19.8558C14.6245 19.5405 15.0765 19.4812 15.3917 19.7234ZM18.5018 21.3585C18.5018 20.9609 18.824 20.6386 19.2216 20.6386H31.8763C32.2739 20.6386 32.5962 20.9609 32.5962 21.3585C32.5962 21.756 32.2739 22.0783 31.8763 22.0783H19.2216C18.824 22.0783 18.5018 21.756 18.5018 21.3585Z" fill="url(#paint3_linear)"/>
<defs>
<linearGradient id="paint0_linear" x1="2.0019" y1="14.6032" x2="20.8844" y2="40.0333" gradientUnits="userSpaceOnUse">
<stop stop-color="#FF6371"/>
<stop offset="1" stop-color="#4400B3"/>
</linearGradient>
<linearGradient id="paint1_linear" x1="0.717773" y1="4.00012" x2="40.2178" y2="4.00012" gradientUnits="userSpaceOnUse">
<stop stop-color="#FF6371"/>
<stop offset="1" stop-color="#A8358F"/>
</linearGradient>
<linearGradient id="paint2_linear" x1="22.2178" y1="34.5" x2="33.2178" y2="41.5" gradientUnits="userSpaceOnUse">
<stop stop-color="#771BA0"/>
<stop offset="1" stop-color="#4701B1"/>
</linearGradient>
<linearGradient id="paint3_linear" x1="9.67999" y1="15.1985" x2="19.9964" y2="30.2984" gradientUnits="userSpaceOnUse">
<stop stop-color="#FF6371"/>
<stop offset="1" stop-color="#4400B3"/>
</linearGradient>
</defs>
</svg>
