<svg width="44" height="42" viewBox="0 0 44 42" fill="none" xmlns="http://www.w3.org/2000/svg">
<path fill-rule="evenodd" clip-rule="evenodd" d="M29.6625 0.310634C30.0176 0.203667 30.3959 0.383976 30.5364 0.727206L31.4965 3.07177C31.7812 3.08414 32.0635 3.11197 32.342 3.15545L33.7436 1.04556C33.9486 0.736979 34.3543 0.634326 34.6814 0.808276L37.3318 2.21777C37.662 2.39335 37.8028 2.79246 37.6558 3.13634L36.6609 5.46524C36.8505 5.67013 37.029 5.88674 37.1953 6.1139L39.7007 5.5998C40.0644 5.52516 40.4253 5.73942 40.5339 6.09454L41.4062 8.94682C41.5155 9.30401 41.3334 9.68542 40.987 9.82513L38.6244 10.778C38.6119 11.0565 38.5843 11.3326 38.5414 11.6051L40.6646 12.9943C40.9777 13.1991 41.0817 13.6096 40.9039 13.9389L39.4837 16.5692C39.3075 16.8954 38.9125 17.0345 38.5709 16.8907L36.2158 15.8998C36.0089 16.0888 35.7902 16.2666 35.5607 16.4322L36.0771 18.9104C36.1532 19.2759 35.9373 19.639 35.5798 19.7466L32.7058 20.6123C32.3507 20.7193 31.9724 20.539 31.8318 20.1957L30.8718 17.8512C30.5876 17.8388 30.3059 17.8111 30.0279 17.7677L28.6371 19.8755C28.4326 20.1855 28.0259 20.289 27.698 20.1147L25.0477 18.7051C24.7175 18.5296 24.5767 18.1305 24.7236 17.7866L25.7186 15.4577C25.529 15.2528 25.3504 15.0362 25.1841 14.809L22.6788 15.3232C22.315 15.3978 21.9541 15.1835 21.8455 14.8284L20.9733 11.9761C20.864 11.6189 21.0461 11.2375 21.3925 11.0978L23.7551 10.145C23.7676 9.8668 23.7951 9.59105 23.8379 9.3189L21.7049 7.92943C21.391 7.72491 21.2863 7.31377 21.4644 6.98406L22.8846 4.35373C23.0607 4.02755 23.4557 3.8884 23.7974 4.03218L26.1525 5.02316C26.3594 4.83417 26.5781 4.65632 26.8075 4.49069L26.2912 2.01257C26.2151 1.64707 26.431 1.28399 26.7884 1.17631L29.6625 0.310634ZM27.8355 2.36483L28.316 4.67103C28.3776 4.96663 28.2482 5.26925 27.9919 5.42895C27.5618 5.69697 27.1732 6.01378 26.8355 6.3686C26.6292 6.58534 26.3104 6.65193 26.0347 6.53589L23.8412 5.61291L23.0465 7.08478L25.0295 8.37652C25.2828 8.54154 25.406 8.84723 25.338 9.1418C25.2289 9.61428 25.1785 10.1099 25.1886 10.6193C25.1945 10.9181 25.0152 11.1895 24.738 11.3012L22.5434 12.1863L23.031 13.7809L25.364 13.3021C25.6573 13.2419 25.9571 13.3695 26.1172 13.6225C26.3869 14.0488 26.7059 14.4344 27.0635 14.7695C27.2843 14.9765 27.3521 15.2994 27.2332 15.5777L26.3076 17.7443L27.7959 18.5357L29.0902 16.5742C29.2554 16.3239 29.5584 16.2021 29.8509 16.2686C30.3282 16.3772 30.8289 16.4273 31.3435 16.4173C31.6408 16.4115 31.9111 16.5891 32.0238 16.8644L32.9167 19.0449L34.5327 18.5581L34.0523 16.2519C33.9907 15.9563 34.1201 15.6537 34.3763 15.494C34.8064 15.2259 35.1951 14.9091 35.5328 14.5543C35.739 14.3376 36.0578 14.271 36.3336 14.387L38.527 15.31L39.3224 13.837L37.3488 12.5456C37.0963 12.3804 36.9736 12.0752 37.0415 11.7811C37.1506 11.3086 37.2009 10.813 37.1909 10.3037C37.185 10.0049 37.3643 9.7335 37.6414 9.62171L39.8361 8.7366L39.3484 7.14208L37.0154 7.62081C36.7222 7.68099 36.4223 7.55344 36.2623 7.30047C35.9925 6.8741 35.6735 6.48855 35.3159 6.1534C35.0951 5.94644 35.0273 5.6235 35.1462 5.34521L36.0718 3.17868L34.5818 2.38625L33.2768 4.35061C33.1113 4.59973 32.809 4.7206 32.5174 4.65427C32.0401 4.54571 31.5394 4.49558 31.0248 4.5056C30.7275 4.51138 30.4572 4.33377 30.3445 4.05857L29.4516 1.87805L27.8355 2.36483ZM31.3575 8.31677C30.0983 8.31677 29.0775 9.33756 29.0775 10.5968C29.0775 11.856 30.0983 12.8768 31.3575 12.8768C32.6167 12.8768 33.6375 11.856 33.6375 10.5968C33.6375 9.33756 32.6167 8.31677 31.3575 8.31677ZM27.6375 10.5968C27.6375 8.54227 29.303 6.87677 31.3575 6.87677C33.412 6.87677 35.0775 8.54227 35.0775 10.5968C35.0775 12.6513 33.412 14.3168 31.3575 14.3168C29.303 14.3168 27.6375 12.6513 27.6375 10.5968ZM13.2247 14.6383C13.5797 14.5321 13.9574 14.7127 14.0976 15.0558L15.4017 18.2477C15.8624 18.2596 16.317 18.306 16.7652 18.3817L18.6805 15.5061C18.8855 15.1984 19.2902 15.096 19.6169 15.2691L23.0725 17.1003C23.4031 17.2755 23.5444 17.6748 23.3976 18.019L22.0455 21.189C22.3544 21.5125 22.6436 21.8583 22.9076 22.2287L26.3044 21.537C26.6684 21.4628 27.0291 21.6778 27.137 22.0332L28.2665 25.7512C28.375 26.1083 28.1926 26.4891 27.8464 26.6284L24.6301 27.9227C24.6181 28.3761 24.5721 28.8256 24.4971 29.2645L27.391 31.1629C27.7032 31.3678 27.8071 31.7773 27.6301 32.1061L25.7849 35.5356C25.6092 35.8622 25.214 36.0019 24.872 35.8582L21.6693 34.5127C21.3429 34.8202 20.994 35.1079 20.6203 35.3705L21.3157 38.7333C21.3913 39.099 21.1747 39.4618 20.817 39.5689L17.0706 40.6898C16.7156 40.7961 16.3379 40.6154 16.1977 40.2724L14.8936 37.0804C14.4336 37.0686 13.9797 37.0223 13.5321 36.9468L11.6275 39.8308C11.4232 40.1402 11.0172 40.2438 10.6896 40.0702L7.234 38.239C6.90337 38.0637 6.76206 37.6645 6.90887 37.3203L8.26101 34.1503C7.95199 33.8267 7.66277 33.4808 7.39867 33.1103L3.99047 33.8024C3.62659 33.8763 3.2662 33.6613 3.15827 33.3061L2.02878 29.5881C1.9203 29.231 2.10267 28.8502 2.4489 28.7109L5.6652 27.4166C5.67735 26.9634 5.72365 26.5162 5.79888 26.0752L2.90429 24.1763C2.59207 23.9715 2.48824 23.562 2.66517 23.2332L4.51038 19.8037C4.68613 19.4771 5.0813 19.3374 5.42329 19.4811L8.62597 20.8266C8.95245 20.519 9.30142 20.2313 9.67521 19.9686L8.97957 16.5945C8.90419 16.2289 9.12073 15.8663 9.47834 15.7593L13.2247 14.6383ZM10.5231 16.9498L11.1839 20.1549C11.2449 20.4506 11.1148 20.753 10.8582 20.9121C10.2885 21.2655 9.77515 21.6924 9.30826 22.1764C9.10188 22.3903 8.78526 22.4554 8.51122 22.3403L5.46856 21.062L4.24597 23.3343L6.99315 25.1365C7.24302 25.3004 7.36566 25.6016 7.30134 25.8935C7.15603 26.5527 7.08506 27.2145 7.10541 27.8807C7.11462 28.1825 6.9346 28.458 6.65453 28.5707L3.59831 29.8005L4.34573 32.2609L7.58442 31.6032C7.8778 31.5436 8.17743 31.6718 8.33696 31.9251C8.69269 32.49 9.12263 32.9993 9.61036 33.4627C9.82832 33.6698 9.89464 33.9906 9.77667 34.2671L8.49307 37.2765L10.7862 38.4917L12.5954 35.7521C12.7592 35.5041 13.0585 35.3822 13.349 35.4453C14.0143 35.5897 14.6824 35.6603 15.3553 35.6401C15.6555 35.631 15.9298 35.8094 16.0434 36.0874L17.2837 39.123L19.7718 38.3785L19.1115 35.1848C19.0503 34.889 19.1803 34.5864 19.4371 34.4272C20.0068 34.0738 20.5202 33.6469 20.987 33.1629C21.1934 32.949 21.51 32.8839 21.7841 32.999L24.8267 34.2773L26.0493 32.005L23.3022 30.2028C23.0515 30.0384 22.929 29.7359 22.9945 29.4435C23.139 28.7981 23.2103 28.1259 23.1899 27.4585C23.1807 27.1568 23.3607 26.8813 23.6408 26.7686L26.697 25.5387L25.9497 23.0788L22.7225 23.736C22.429 23.7958 22.1291 23.6676 21.9695 23.4142C21.6138 22.8493 21.1839 22.34 20.6961 21.8766C20.4782 21.6695 20.4119 21.3487 20.5298 21.0721L21.8134 18.0628L19.518 16.8464L17.6983 19.5784C17.5342 19.8249 17.2358 19.9457 16.9463 19.8829C16.281 19.7385 15.6129 19.6679 14.94 19.6881C14.6398 19.6971 14.3655 19.5188 14.2519 19.2408L13.0116 16.2052L10.5231 16.9498ZM14.9787 24.1227C12.8911 24.1227 11.1987 25.8151 11.1987 27.9027C11.1987 29.9904 12.8911 31.6827 14.9787 31.6827C17.0664 31.6827 18.7587 29.9904 18.7587 27.9027C18.7587 25.8151 17.0664 24.1227 14.9787 24.1227ZM9.75873 27.9027C9.75873 25.0198 12.0958 22.6827 14.9787 22.6827C17.8617 22.6827 20.1987 25.0198 20.1987 27.9027C20.1987 30.7856 17.8617 33.1227 14.9787 33.1227C12.0958 33.1227 9.75873 30.7856 9.75873 27.9027Z" fill="url(#paint0_linear)"/>
<defs>
<linearGradient id="paint0_linear" x1="-0.0250198" y1="17.8395" x2="30.7972" y2="47.1288" gradientUnits="userSpaceOnUse">
<stop stop-color="#FF6371"/>
<stop offset="1" stop-color="#4400B3"/>
</linearGradient>
</defs>
</svg>
