<svg width="44" height="42" viewBox="0 0 44 42" fill="none" xmlns="http://www.w3.org/2000/svg">
<path d="M1.71777 34.5685H21.8472M36.0825 25.6678C35.2589 26.0088 28.4472 33.4515 27.2825 34.5567L36.0825 25.6678ZM36.0825 25.6678V33.2399M36.0825 25.6678H28.506M3.08248 34.3216V16.8495H9.84719V34.3216H3.08248ZM13.8354 34.3216V9.26572H20.6119V34.3216H13.8354ZM24.5884 22.505V1H31.3531V19.3699L27.6001 20.6088L24.5884 22.505ZM32.0354 19.6479C26.1413 19.6479 21.3531 24.4215 21.3531 30.3239C21.3531 36.2146 26.1295 41 32.0354 41C37.9295 41 42.7178 36.2263 42.7178 30.3239C42.7178 24.4333 37.9413 19.6479 32.0354 19.6479Z" stroke="url(#paint0_linear)" stroke-width="1.44" stroke-miterlimit="22.9256" stroke-linecap="round" stroke-linejoin="round"/>
<defs>
<linearGradient id="paint0_linear" x1="-0.384791" y1="18.3684" x2="30.1415" y2="48.8556" gradientUnits="userSpaceOnUse">
<stop stop-color="#FF6371"/>
<stop offset="1" stop-color="#4400B3"/>
</linearGradient>
</defs>
</svg>
