<svg width="44" height="42" viewBox="0 0 44 42" fill="none" xmlns="http://www.w3.org/2000/svg">
<path d="M13.8084 19.5955L24.7775 29.8533M20.498 30.6979L19.5069 34.4321C19.3268 35.11 18.2006 34.9544 17.6825 34.4654L9.41632 26.6526C8.90953 26.1747 8.69556 25.03 9.38253 24.8522L13.0426 23.6408L20.498 30.6979ZM17.1082 27.0638L17.0293 26.986L12.0178 22.2405C15.768 17.0505 20.0025 10.1045 24.3383 5.62572C28.1448 1.70263 34.2938 1.01359 40.0148 3.3141L40.0711 3.33633C42.7177 8.98202 42.1771 15.0723 38.4269 18.9398C34.0798 23.4074 27.2213 27.8751 22.131 31.7982L17.1082 27.0638ZM29.6989 2.50281C32.8748 1.62484 36.5236 1.9249 40.0035 3.32521L40.0599 3.34744C41.6703 6.78153 42.0983 10.3712 41.355 13.5275L29.6989 2.50281ZM31.1405 12.5384C32.3793 13.7164 32.4243 15.6613 31.2306 16.8838C30.0368 18.1063 28.066 18.1507 26.8272 16.9727C25.5884 15.7946 25.5433 13.8498 26.7371 12.6273C27.9308 11.4048 29.8904 11.3603 31.1405 12.5384ZM25.273 18.5841C26.5118 19.7622 26.5569 21.7071 25.3631 22.9296C24.1693 24.152 22.1985 24.1965 20.9597 23.0185C19.7209 21.8404 19.6759 19.8955 20.8696 18.6731C22.0634 17.4506 24.0342 17.4061 25.273 18.5841ZM12.0516 22.2294L19.0227 12.205C16.7703 11.7826 14.4166 10.7713 12.2656 10.9269C5.48592 11.3937 4.32591 17.2394 3.71777 22.7962L12.0516 22.2294ZM22.1422 31.7648L31.9964 24.4632C32.5257 26.6637 33.6406 28.942 33.5843 31.0647C33.3928 37.7773 27.5254 39.1665 21.9395 40L22.1422 31.7648Z" stroke="url(#paint0_linear)" stroke-width="1.4397" stroke-miterlimit="22.9256" stroke-linecap="round" stroke-linejoin="round"/>
<defs>
<linearGradient id="paint0_linear" x1="1.76906" y1="18.5" x2="30.7593" y2="46.7469" gradientUnits="userSpaceOnUse">
<stop stop-color="#FF6371"/>
<stop offset="1" stop-color="#4400B3"/>
</linearGradient>
</defs>
</svg>
