<svg width="44" height="42" viewBox="0 0 44 42" fill="none" xmlns="http://www.w3.org/2000/svg">
<path d="M18.8473 5.5499L2.76402 21.582M20.0151 10.5405L3.30746 27.195M20.0151 16.7067L5.13431 31.5402M20.073 22.8153L7.83992 35.0094M23.1601 25.9041L11.3433 37.6833M26.2357 28.993L15.7255 39.4698M29.3229 32.0819L21.4373 39.9424M32.2135 34.9863C29.0801 38.0867 24.7788 40 20.0151 40C10.4646 40 2.71777 32.2778 2.71777 22.7577C2.71777 13.2375 10.4646 5.5153 20.0151 5.5153V20.9712V22.5963V22.7692L32.2135 34.9863ZM41.7178 22.2621V22.4349C41.7178 27.2181 39.7637 31.5402 36.6072 34.6636L24.4089 22.4349V22.2621H41.7178ZM23.1139 2C32.6066 2 40.3187 9.62996 40.4112 19.081H23.1023L23.1139 2Z" stroke="url(#paint0_linear)" stroke-width="1.44" stroke-miterlimit="22.9256" stroke-linecap="round" stroke-linejoin="round"/>
<defs>
<linearGradient id="paint0_linear" x1="0.717773" y1="18.5" x2="29.7178" y2="47.5" gradientUnits="userSpaceOnUse">
<stop stop-color="#FF6371"/>
<stop offset="1" stop-color="#4400B3"/>
</linearGradient>
</defs>
</svg>
