<svg width="44" height="42" viewBox="0 0 44 42" fill="none" xmlns="http://www.w3.org/2000/svg">
<path fill-rule="evenodd" clip-rule="evenodd" d="M19.4325 3.5965C19.4325 1.77057 20.8925 0.280029 22.7176 0.280029C24.5426 0.280029 26.0026 1.77058 26.0026 3.5965C26.0026 4.55973 25.5963 5.42964 24.9444 6.03662C33.1354 7.13897 39.4376 14.238 39.4376 22.804C39.4376 32.132 31.9539 39.72 22.7176 39.72C13.4812 39.72 5.99756 32.132 5.99756 22.804C5.99756 14.238 12.2997 7.13897 20.4907 6.03662C19.8388 5.42964 19.4325 4.55974 19.4325 3.5965ZM22.7176 1.72003C21.7043 1.72003 20.8725 2.54928 20.8725 3.5965C20.8725 4.64372 21.7043 5.47297 22.7176 5.47297C23.7309 5.47297 24.5626 4.64372 24.5626 3.5965C24.5626 2.54928 23.7309 1.72003 22.7176 1.72003ZM22.7176 7.32798C14.2828 7.32798 7.43756 14.2544 7.43756 22.804C7.43756 31.3533 14.293 38.28 22.7176 38.28C31.1422 38.28 37.9976 31.3533 37.9976 22.804C37.9976 14.2544 31.1524 7.32798 22.7176 7.32798ZM22.7176 8.69728C23.1152 8.69728 23.4376 9.01963 23.4376 9.41728V11.9286C23.4376 12.3263 23.1152 12.6486 22.7176 12.6486C22.3199 12.6486 21.9976 12.3263 21.9976 11.9286V9.41728C21.9976 9.01963 22.3199 8.69728 22.7176 8.69728ZM29.0057 10.9631C29.2824 11.1102 29.4321 11.4195 29.3759 11.7278L28.1775 18.2935L27.5786 21.5798C27.5786 21.5802 27.5787 21.5795 27.5786 21.5798C27.3906 22.6262 27.0432 23.6501 26.5621 24.6052C26.55 24.6846 26.5242 24.7634 26.4838 24.8381C26.4453 24.9094 26.3966 24.9715 26.3404 25.0237C25.8164 25.9648 25.1604 26.8305 24.3982 27.5754L22.0221 29.8955L17.2705 34.5351C17.0463 34.754 16.7061 34.8028 16.4294 34.6556C16.1527 34.5084 16.003 34.1992 16.0592 33.8908L16.6584 30.6027L17.8568 24.0264L17.8573 24.0234C18.0486 22.9978 18.3937 21.9879 18.8681 21.0413C18.8772 20.9489 18.9044 20.8567 18.9513 20.7699C18.9965 20.6863 19.0558 20.6152 19.1247 20.558C19.644 19.6328 20.289 18.7793 21.0351 18.045L21.0371 18.043L28.1646 11.0836C28.3888 10.8646 28.729 10.8159 29.0057 10.9631ZM19.9479 22.1264C19.6396 22.8224 19.4105 23.5504 19.2732 24.286C19.2731 24.2865 19.273 24.287 19.2729 24.2874L17.8808 31.9265L18.6403 31.185L23.3917 26.5456C23.9349 26.0147 24.4167 25.4119 24.8243 24.7601L19.9479 22.1264ZM25.4977 23.4873L20.6225 20.8542C21.0285 20.2037 21.5067 19.6015 22.0441 19.0724C22.0444 19.072 22.0448 19.0717 22.0452 19.0713L24.419 16.7535L27.5543 13.6921L26.1617 21.3235L26.1613 21.3253C26.0285 22.065 25.8031 22.793 25.4977 23.4873ZM8.77285 22.804C8.77285 22.4064 9.09521 22.084 9.49285 22.084H11.9738C12.3714 22.084 12.6938 22.4064 12.6938 22.804C12.6938 23.2016 12.3714 23.524 11.9738 23.524H9.49285C9.09521 23.524 8.77285 23.2016 8.77285 22.804ZM32.7413 22.804C32.7413 22.4064 33.0637 22.084 33.4613 22.084H35.9423C36.3399 22.084 36.6623 22.4064 36.6623 22.804C36.6623 23.2016 36.3399 23.524 35.9423 23.524H33.4613C33.0637 23.524 32.7413 23.2016 32.7413 22.804ZM22.7176 32.9594C23.1152 32.9594 23.4376 33.2817 23.4376 33.6794V36.1907C23.4376 36.5884 23.1152 36.9107 22.7176 36.9107C22.3199 36.9107 21.9976 36.5884 21.9976 36.1907V33.6794C21.9976 33.2817 22.3199 32.9594 22.7176 32.9594Z" fill="url(#paint0_linear)"/>
<defs>
<linearGradient id="paint0_linear" x1="4.28269" y1="17.4053" x2="33.8408" y2="41.8242" gradientUnits="userSpaceOnUse">
<stop stop-color="#FF6371"/>
<stop offset="1" stop-color="#4400B3"/>
</linearGradient>
</defs>
</svg>
