<svg width="47" height="46" viewBox="0 0 47 46" fill="none" xmlns="http://www.w3.org/2000/svg">
<path d="M22.9607 8.07431L43.6415 0.197129C43.9296 0.0662881 44.2478 0 44.5911 0C45.9196 0 47 1.08213 47 2.41101C47 2.74454 46.9354 3.05932 46.839 3.27345L38.9274 24.0393C38.5769 24.9642 37.6728 25.5879 36.6795 25.5879C35.6352 25.5879 34.7141 24.9209 34.3879 23.9276L31.5962 15.4038L23.0783 12.6138C22.083 12.2897 21.4121 11.3686 21.4121 10.3222C21.4121 9.32719 22.0358 8.4231 22.9607 8.07431Z" fill="#607D8B" fill-opacity="0.3"/>
<path d="M28.431 31.2741C28.431 39.1252 22.0666 45.4896 14.2155 45.4896C6.36435 45.4896 0 39.1252 0 31.2741C0 23.4229 6.36435 17.0586 14.2155 17.0586C22.0666 17.0586 28.431 23.4229 28.431 31.2741Z" fill="#42A5F5"/>
<path d="M16.1109 24.6401C16.1109 25.6872 15.2623 26.5357 14.2156 26.5357C13.1689 26.5357 12.3203 25.6872 12.3203 24.6401C12.3203 23.5934 13.1689 22.7448 14.2156 22.7448C15.2623 22.7448 16.1109 23.5934 16.1109 24.6401Z" fill="white"/>
<path d="M16.5848 37.9081H11.8461C11.0614 37.9081 10.4246 37.2713 10.4246 36.4866C10.4246 35.7019 11.0614 35.065 11.8461 35.065H12.7939V31.2741H11.8461C11.0614 31.2741 10.4246 30.6373 10.4246 29.8526C10.4246 29.0679 11.0614 28.431 11.8461 28.431H14.2155C15.0002 28.431 15.637 29.0679 15.637 29.8526V35.065H16.5848C17.3695 35.065 18.0064 35.7019 18.0064 36.4866C18.0064 37.2713 17.3695 37.9081 16.5848 37.9081Z" fill="white"/>
</svg>
