<svg width="153" height="64" viewBox="0 0 153 64" fill="none" xmlns="http://www.w3.org/2000/svg">
<path d="M45.8999 24.92C45.8999 30.392 50.2679 35.576 58.6199 35.576C67.1159 35.576 71.3399 30.344 71.3399 25.112C71.3399 21.656 69.6119 19.496 67.3079 17.912C68.2199 16.808 70.6679 13.496 70.6679 10.04C70.6679 3.656 65.4359 0.103997 59.0519 0.103997C51.0359 0.103997 47.5319 5 47.5319 9.992C47.5319 12.872 48.8279 14.936 50.6519 16.568C49.2599 17.624 45.8999 20.696 45.8999 24.92ZM61.2119 14.888C58.2359 13.64 55.7399 12.44 55.7399 10.184C55.7399 8.696 56.6999 7.496 58.8599 7.496C61.1159 7.496 62.4599 8.744 62.4599 10.664C62.4599 12.632 61.6919 14.12 61.2119 14.888ZM54.4919 24.2C54.4919 22.328 55.5479 20.84 56.3639 19.976C59.7239 21.56 62.7479 22.712 62.7479 24.68C62.7479 26.936 61.1639 28.184 58.6199 28.184C56.3159 28.184 54.4919 26.408 54.4919 24.2ZM88.9124 35.576C98.6564 35.576 101.824 27.608 101.824 17.768C101.824 7.928 98.6564 0.103997 88.9124 0.103997C79.1684 0.103997 76.0004 7.928 76.0004 17.768C76.0004 27.608 79.1684 35.576 88.9124 35.576ZM88.9124 27.896C85.6004 27.896 84.6404 23.384 84.6404 17.768C84.6404 12.2 85.6004 7.784 88.9124 7.784C92.2244 7.784 93.1844 12.2 93.1844 17.768C93.1844 23.384 92.2244 27.896 88.9124 27.896Z" fill="#606060"/>
<path d="M117.205 34L124.378 14.898H126.663L119.556 34H117.205ZM132.449 32.9564C131.833 33.8195 130.802 34.251 129.358 34.251C127.914 34.251 126.888 33.8195 126.28 32.9564C125.681 32.0933 125.382 30.856 125.382 29.2443V28.5442C125.382 26.9149 125.677 25.6908 126.267 24.8717C126.866 24.0527 127.892 23.6432 129.345 23.6432C130.807 23.6432 131.837 24.0527 132.436 24.8717C133.044 25.682 133.356 26.9017 133.374 28.531V29.2443C133.374 30.856 133.066 32.0933 132.449 32.9564ZM129.358 32.5337C130.274 32.5249 130.838 32.1065 131.049 31.2787C131.172 30.8207 131.23 30.2043 131.221 29.4293V28.28C131.221 27.0206 131.071 26.2192 130.772 25.8757C130.472 25.5322 130.076 25.3605 129.583 25.3605C128.482 25.3605 127.839 25.726 127.654 26.457C127.548 26.9061 127.495 27.505 127.495 28.2536V29.4293C127.495 30.7151 127.65 31.5561 127.958 31.9524C128.266 32.3399 128.733 32.5337 129.358 32.5337ZM110.626 20.2217V19.5216C110.626 17.8923 110.921 16.6682 111.511 15.8491C112.11 15.0301 113.136 14.6206 114.589 14.6206C116.042 14.6206 117.073 15.0301 117.68 15.8491C118.288 16.6594 118.601 17.8791 118.618 19.5084V20.2217C118.618 21.8334 118.306 23.0707 117.68 23.9338C117.064 24.7969 116.02 25.2284 114.549 25.2284C113.087 25.2284 112.066 24.7837 111.485 23.8942C110.912 23.0047 110.626 21.7805 110.626 20.2217ZM115.435 23.3526C115.866 23.1588 116.143 22.8153 116.267 22.3222C116.399 21.829 116.465 21.1905 116.465 20.4067V19.2574C116.465 18.0068 116.315 17.2098 116.016 16.8663C115.716 16.5141 115.32 16.3379 114.827 16.3379C113.726 16.3379 113.083 16.7034 112.898 17.4344C112.792 17.8835 112.74 18.4824 112.74 19.231V20.4067C112.74 21.6925 112.894 22.5335 113.202 22.9298C113.51 23.3173 113.902 23.5111 114.378 23.5111C114.853 23.5111 115.206 23.4582 115.435 23.3526Z" fill="#606060" fill-opacity="0.5"/>
<path d="M117.205 34L116.677 33.8019L116.391 34.5636H117.205V34ZM124.378 14.898V14.3344H123.987L123.85 14.6999L124.378 14.898ZM126.663 14.898L127.191 15.0946L127.474 14.3344H126.663V14.898ZM119.556 34V34.5636H119.948L120.084 34.1965L119.556 34ZM126.28 32.9564L125.817 33.2777L125.819 33.2809L126.28 32.9564ZM126.267 24.8717L125.812 24.539L125.81 24.5423L126.267 24.8717ZM132.436 24.8717L131.981 25.2044L131.985 25.2099L132.436 24.8717ZM133.374 28.531H133.938L133.938 28.5249L133.374 28.531ZM129.358 32.5337V33.0973L129.364 33.0973L129.358 32.5337ZM131.049 31.2787L130.505 31.1322L130.503 31.1393L131.049 31.2787ZM131.221 29.4293H130.657L130.657 29.4357L131.221 29.4293ZM127.654 26.457L127.107 26.3187L127.105 26.3279L127.654 26.457ZM127.958 31.9524L127.513 32.2985L127.517 32.3033L127.958 31.9524ZM111.511 15.8491L111.056 15.5165L111.054 15.5197L111.511 15.8491ZM117.68 15.8491L117.228 16.185L117.229 16.1873L117.68 15.8491ZM118.618 19.5084H119.182L119.182 19.5023L118.618 19.5084ZM117.68 23.9338L117.224 23.6031L117.222 23.6062L117.68 23.9338ZM111.485 23.8942L111.011 24.1992L111.013 24.2025L111.485 23.8942ZM115.435 23.3526L115.204 22.8383L115.198 22.8408L115.435 23.3526ZM116.267 22.3222L115.722 22.1763L115.72 22.1855L116.267 22.3222ZM116.016 16.8663L115.586 17.2314L115.591 17.2367L116.016 16.8663ZM112.898 17.4344L112.352 17.2961L112.349 17.3053L112.898 17.4344ZM113.202 22.9298L112.757 23.2759L112.761 23.2807L113.202 22.9298ZM117.732 34.1981L124.905 15.0962L123.85 14.6999L116.677 33.8019L117.732 34.1981ZM124.378 15.4616H126.663V14.3344H124.378V15.4616ZM126.135 14.7015L119.028 33.8035L120.084 34.1965L127.191 15.0946L126.135 14.7015ZM119.556 33.4364H117.205V34.5636H119.556V33.4364ZM131.991 32.6288C131.516 33.2938 130.692 33.6874 129.358 33.6874V34.8146C130.913 34.8146 132.15 34.3451 132.908 33.284L131.991 32.6288ZM129.358 33.6874C128.024 33.6874 127.207 33.2937 126.741 32.6319L125.819 33.2809C126.569 34.3453 127.804 34.8146 129.358 34.8146V33.6874ZM126.743 32.6351C126.236 31.9045 125.945 30.7984 125.945 29.2443H124.818C124.818 30.9135 125.126 32.2822 125.817 33.2777L126.743 32.6351ZM125.945 29.2443V28.5442H124.818V29.2443H125.945ZM125.945 28.5442C125.945 26.9665 126.234 25.8815 126.724 25.2012L125.81 24.5423C125.12 25.5 124.818 26.8633 124.818 28.5442H125.945ZM126.722 25.2044C127.174 24.5862 127.989 24.2068 129.345 24.2068V23.0795C127.794 23.0795 126.558 23.5192 125.812 24.5391L126.722 25.2044ZM129.345 24.2068C130.711 24.2068 131.53 24.5871 131.981 25.2044L132.891 24.5391C132.145 23.5183 130.903 23.0795 129.345 23.0795V24.2068ZM131.985 25.2099C132.489 25.8817 132.793 26.9604 132.81 28.5371L133.938 28.5249C133.919 26.843 133.599 25.4822 132.887 24.5336L131.985 25.2099ZM132.81 28.531V29.2443H133.938V28.531H132.81ZM132.81 29.2443C132.81 30.7959 132.512 31.8993 131.991 32.6288L132.908 33.284C133.62 32.2874 133.938 30.916 133.938 29.2443H132.81ZM129.364 33.0973C129.904 33.0921 130.401 32.965 130.804 32.6659C131.211 32.3639 131.465 31.9293 131.595 31.4181L130.503 31.1393C130.422 31.4559 130.289 31.6444 130.132 31.7607C129.971 31.88 129.728 31.9664 129.353 31.9701L129.364 33.0973ZM131.593 31.4252C131.736 30.896 131.793 30.2212 131.784 29.4229L130.657 29.4357C130.666 30.1873 130.609 30.7455 130.505 31.1322L131.593 31.4252ZM131.784 29.4293V28.28H130.657V29.4293H131.784ZM131.784 28.28C131.784 27.6321 131.746 27.0788 131.663 26.6309C131.582 26.1985 131.446 25.7917 131.196 25.5053L130.347 26.2461C130.397 26.3032 130.485 26.4689 130.554 26.8379C130.62 27.1913 130.657 27.6684 130.657 28.28H131.784ZM131.196 25.5053C130.78 25.0281 130.224 24.7969 129.583 24.7969V25.9241C129.928 25.9241 130.164 26.0364 130.347 26.2461L131.196 25.5053ZM129.583 24.7969C128.979 24.7969 128.434 24.8957 127.996 25.1446C127.538 25.4049 127.237 25.8077 127.108 26.3187L128.2 26.5952C128.256 26.3753 128.368 26.2298 128.553 26.1246C128.758 26.0081 129.086 25.9241 129.583 25.9241V24.7969ZM127.105 26.3279C126.985 26.8372 126.932 27.4848 126.932 28.2536H128.059C128.059 27.5251 128.111 26.975 128.203 26.5861L127.105 26.3279ZM126.932 28.2536V29.4293H128.059V28.2536H126.932ZM126.932 29.4293C126.932 30.0911 126.971 30.6597 127.057 31.126C127.14 31.581 127.277 31.9951 127.513 32.2985L128.403 31.6064C128.33 31.5135 128.236 31.3088 128.165 30.9228C128.097 30.548 128.059 30.0533 128.059 29.4293H126.932ZM127.517 32.3033C127.959 32.8596 128.61 33.0973 129.358 33.0973V31.97C128.855 31.97 128.573 31.8202 128.399 31.6015L127.517 32.3033ZM111.19 20.2217V19.5216H110.062V20.2217H111.19ZM111.19 19.5216C111.19 17.9439 111.478 16.8589 111.968 16.1786L111.054 15.5197C110.364 16.4774 110.062 17.8408 110.062 19.5216H111.19ZM111.966 16.1818C112.418 15.5636 113.233 15.1842 114.589 15.1842V14.057C113.039 14.057 111.802 14.4966 111.056 15.5165L111.966 16.1818ZM114.589 15.1842C115.944 15.1842 116.766 15.5634 117.228 16.185L118.133 15.5133C117.379 14.4968 116.14 14.057 114.589 14.057V15.1842ZM117.229 16.1873C117.733 16.8591 118.038 17.9378 118.055 19.5145L119.182 19.5023C119.164 17.8204 118.843 16.4597 118.131 15.511L117.229 16.1873ZM118.055 19.5084V20.2217H119.182V19.5084H118.055ZM118.055 20.2217C118.055 21.772 117.752 22.8741 117.224 23.6031L118.137 24.2645C118.859 23.2673 119.182 21.8947 119.182 20.2217H118.055ZM117.222 23.6062C116.748 24.2686 115.914 24.6648 114.549 24.6648V25.792C116.126 25.792 117.379 25.3251 118.139 24.2614L117.222 23.6062ZM114.549 24.6648C113.199 24.6648 112.397 24.2599 111.956 23.5859L111.013 24.2025C111.735 25.3075 112.976 25.792 114.549 25.792V24.6648ZM111.959 23.5891C111.466 22.8241 111.19 21.7206 111.19 20.2217H110.062C110.062 21.8405 110.358 23.1853 111.011 24.1992L111.959 23.5891ZM115.665 23.8667C116.268 23.5964 116.652 23.1052 116.814 22.4589L115.72 22.1855C115.635 22.5255 115.465 22.7212 115.204 22.8384L115.665 23.8667ZM116.811 22.468C116.961 21.9091 117.029 21.2165 117.029 20.4067H115.901C115.901 21.1645 115.837 21.7489 115.722 22.1763L116.811 22.468ZM117.029 20.4067V19.2574H115.901V20.4067H117.029ZM117.029 19.2574C117.029 18.6138 116.99 18.0636 116.907 17.6176C116.826 17.1869 116.69 16.7818 116.441 16.4959L115.591 17.2367C115.641 17.2943 115.73 17.4595 115.799 17.8258C115.865 18.1768 115.901 18.6504 115.901 19.2574H117.029ZM116.445 16.5013C116.031 16.0138 115.473 15.7743 114.827 15.7743V16.9016C115.167 16.9016 115.402 17.0144 115.586 17.2314L116.445 16.5013ZM114.827 15.7743C114.223 15.7743 113.678 15.8731 113.24 16.122C112.783 16.3823 112.481 16.7851 112.352 17.2961L113.445 17.5726C113.5 17.3527 113.613 17.2072 113.798 17.102C114.003 16.9855 114.33 16.9016 114.827 16.9016V15.7743ZM112.349 17.3053C112.23 17.8146 112.176 18.4622 112.176 19.231H113.303C113.303 18.5025 113.355 17.9524 113.447 17.5635L112.349 17.3053ZM112.176 19.231V20.4067H113.303V19.231H112.176ZM112.176 20.4067C112.176 21.0685 112.215 21.6372 112.301 22.1034C112.384 22.5584 112.521 22.9725 112.757 23.2759L113.647 22.5838C113.575 22.4909 113.48 22.2862 113.41 21.9002C113.341 21.5254 113.303 21.0307 113.303 20.4067H112.176ZM112.761 23.2807C113.171 23.7962 113.722 24.0747 114.378 24.0747V22.9474C114.082 22.9474 113.849 22.8384 113.643 22.579L112.761 23.2807ZM114.378 24.0747C114.875 24.0747 115.328 24.0225 115.671 23.8643L115.198 22.8408C115.083 22.8939 114.831 22.9474 114.378 22.9474V24.0747Z" fill="#606060" fill-opacity="0.5"/>
<path d="M26.2443 25.4904V22.4652L33.6817 18.555L26.2443 14.6976V11.6196L36.0727 17.1151V20.0081L26.2443 25.4904Z" fill="#606060" fill-opacity="0.5"/>
<path d="M26.2443 25.4904H25.6807V26.4502L26.5189 25.9826L26.2443 25.4904ZM26.2443 22.4652L25.982 21.9664L25.6807 22.1248V22.4652H26.2443ZM33.6817 18.555L33.944 19.0539L34.8993 18.5516L33.9412 18.0547L33.6817 18.555ZM26.2443 14.6976H25.6807V15.0402L25.9848 15.198L26.2443 14.6976ZM26.2443 11.6196L26.5194 11.1277L25.6807 10.6587V11.6196H26.2443ZM36.0727 17.1151H36.6364V16.7845L36.3478 16.6231L36.0727 17.1151ZM36.0727 20.0081L36.3473 20.5004L36.6364 20.3391V20.0081H36.0727ZM26.808 25.4904V22.4652H25.6807V25.4904H26.808ZM26.5066 22.9641L33.944 19.0539L33.4194 18.0561L25.982 21.9664L26.5066 22.9641ZM33.9412 18.0547L26.5038 14.1973L25.9848 15.198L33.4222 19.0554L33.9412 18.0547ZM26.808 14.6976V11.6196H25.6807V14.6976H26.808ZM25.9692 12.1116L35.7977 17.6071L36.3478 16.6231L26.5194 11.1277L25.9692 12.1116ZM35.5091 17.1151V20.0081H36.6364V17.1151H35.5091ZM35.7982 19.5159L25.9697 24.9981L26.5189 25.9826L36.3473 20.5004L35.7982 19.5159Z" fill="#606060" fill-opacity="0.5"/>
<rect x="24" y="60" width="112" height="4" fill="#00CC76"/>
</svg>
