<svg width="112" height="63" viewBox="0 0 112 63" fill="none" xmlns="http://www.w3.org/2000/svg">
<path d="M8.70406 35H32.4641V27.8H17.6321C18.0641 23.384 31.9361 21.32 31.9361 10.616C31.9361 3.32 25.8401 0.103997 20.2241 0.103997C14.0321 0.103997 10.1441 3.608 8.12806 7.496L14.3681 11.672C15.3761 9.752 17.2481 8.024 19.4561 8.024C21.2321 8.024 23.1521 9.032 23.1521 11.432C23.1521 16.376 8.32006 18.632 8.32006 31.304C8.32006 32.456 8.46406 33.656 8.70406 35ZM79.4384 31.064C82.5104 34.184 87.0224 35.576 91.1504 35.576C99.7424 35.576 103.87 29.72 103.87 23.864C103.87 19.064 100.654 15.032 95.5664 13.928L102.526 5.912V0.679998H80.8784V7.88H89.0864C91.2464 7.88 92.3504 7.64 92.3504 7.64V7.736C92.3504 7.736 91.0064 8.984 89.3744 10.952L84.8624 16.376L86.6384 20.456H89.0384C92.7344 20.456 95.4224 21.56 95.4224 24.248C95.4224 26.12 93.6464 27.656 90.5264 27.656C87.8864 27.656 85.1984 26.264 83.4704 24.584L79.4384 31.064Z" fill="#606060"/>
<path d="M45.9744 25H49.5024L52.5054 20.254C52.6734 19.96 52.9044 19.624 53.0934 19.183H53.1354C53.0934 19.603 53.0934 20.023 53.0934 20.275V25H56.5164V14.185H52.9884L49.9854 18.952C49.7964 19.267 49.5864 19.582 49.3974 20.023H49.3554C49.3764 19.75 49.3974 19.33 49.3974 18.952V14.185H45.9744V25ZM57.6328 23.656C58.8088 24.706 60.5518 25.252 62.1478 25.252C64.7098 25.252 66.6208 24.097 66.6208 21.808C66.6208 20.548 65.7598 19.792 64.9408 19.414V19.372C65.5918 19.015 66.2848 18.28 66.2848 16.936C66.2848 15.067 64.5208 13.933 62.2948 13.933C60.3208 13.933 58.9348 14.458 57.9268 15.151L58.9768 17.398C60.1108 16.726 60.9508 16.579 61.5388 16.579C62.4628 16.579 62.6728 16.978 62.6728 17.44C62.6728 18.112 62.1478 18.28 61.5808 18.28H60.4888V20.674H61.8118C62.7988 20.674 62.9878 21.052 62.9878 21.577C62.9878 22.081 62.6938 22.522 61.6858 22.522C60.8248 22.522 59.7538 21.997 59.0818 21.388L57.6328 23.656Z" fill="black" fill-opacity="0.2"/>
<rect y="59" width="112" height="4" fill="#2F97FF"/>
</svg>
