<svg width="131" height="64" viewBox="0 0 131 64" fill="none" xmlns="http://www.w3.org/2000/svg">
<path d="M29.2428 35H38.0268L52.4268 6.536V0.679998H27.8027V7.88H41.3868C43.1148 7.88 43.4028 7.736 43.4028 7.736V7.832C43.4028 7.832 42.5868 8.6 41.3868 10.952L29.2428 35ZM68.5296 35.576C78.2736 35.576 81.4416 27.608 81.4416 17.768C81.4416 7.928 78.2736 0.103997 68.5296 0.103997C58.7856 0.103997 55.6176 7.928 55.6176 17.768C55.6176 27.608 58.7856 35.576 68.5296 35.576ZM68.5296 27.896C65.2176 27.896 64.2576 23.384 64.2576 17.768C64.2576 12.2 65.2176 7.784 68.5296 7.784C71.8416 7.784 72.8016 12.2 72.8016 17.768C72.8016 23.384 71.8416 27.896 68.5296 27.896Z" fill="#606060"/>
<path d="M95.2047 35L102.378 15.898H104.663L97.5561 35H95.2047ZM110.449 33.9564C109.833 34.8195 108.802 35.251 107.358 35.251C105.914 35.251 104.888 34.8195 104.28 33.9564C103.681 33.0933 103.382 31.856 103.382 30.2443V29.5442C103.382 27.9149 103.677 26.6908 104.267 25.8717C104.866 25.0527 105.892 24.6432 107.345 24.6432C108.807 24.6432 109.837 25.0527 110.436 25.8717C111.044 26.682 111.356 27.9017 111.374 29.531V30.2443C111.374 31.856 111.066 33.0933 110.449 33.9564ZM107.358 33.5337C108.274 33.5249 108.838 33.1065 109.049 32.2787C109.172 31.8207 109.23 31.2043 109.221 30.4293V29.28C109.221 28.0206 109.071 27.2192 108.772 26.8757C108.472 26.5322 108.076 26.3605 107.583 26.3605C106.482 26.3605 105.839 26.726 105.654 27.457C105.548 27.9061 105.495 28.505 105.495 29.2536V30.4293C105.495 31.7151 105.65 32.5561 105.958 32.9524C106.266 33.3399 106.733 33.5337 107.358 33.5337ZM88.626 21.2217V20.5216C88.626 18.8923 88.921 17.6682 89.5111 16.8491C90.1099 16.0301 91.1359 15.6206 92.5891 15.6206C94.0422 15.6206 95.0726 16.0301 95.6803 16.8491C96.2879 17.6594 96.6006 18.8791 96.6182 20.5084V21.2217C96.6182 22.8334 96.3055 24.0707 95.6803 24.9338C95.0638 25.7969 94.0202 26.2284 92.5494 26.2284C91.0875 26.2284 90.0659 25.7837 89.4847 24.8942C88.9122 24.0047 88.626 22.7805 88.626 21.2217ZM93.4345 24.3526C93.8661 24.1588 94.1435 23.8153 94.2668 23.3222C94.3989 22.829 94.4649 22.1905 94.4649 21.4067V20.2574C94.4649 19.0068 94.3152 18.2098 94.0158 17.8663C93.7163 17.5141 93.32 17.3379 92.8268 17.3379C91.726 17.3379 91.0831 17.7034 90.8982 18.4344C90.7925 18.8835 90.7396 19.4824 90.7396 20.231V21.4067C90.7396 22.6925 90.8937 23.5335 91.202 23.9298C91.5102 24.3173 91.9021 24.5111 92.3777 24.5111C92.8533 24.5111 93.2055 24.4582 93.4345 24.3526Z" fill="#606060" fill-opacity="0.5"/>
<path d="M95.2047 35L94.677 34.8019L94.391 35.5636H95.2047V35ZM102.378 15.898V15.3344H101.987L101.85 15.6999L102.378 15.898ZM104.663 15.898L105.191 16.0946L105.474 15.3344H104.663V15.898ZM97.5561 35V35.5636H97.9478L98.0844 35.1965L97.5561 35ZM104.28 33.9564L103.817 34.2777L103.819 34.2809L104.28 33.9564ZM104.267 25.8717L103.812 25.539L103.81 25.5423L104.267 25.8717ZM110.436 25.8717L109.981 26.2044L109.985 26.2099L110.436 25.8717ZM111.374 29.531H111.938L111.938 29.5249L111.374 29.531ZM107.358 33.5337V34.0973L107.364 34.0973L107.358 33.5337ZM109.049 32.2787L108.505 32.1322L108.503 32.1393L109.049 32.2787ZM109.221 30.4293H108.657L108.657 30.4357L109.221 30.4293ZM105.654 27.457L105.107 27.3187L105.105 27.3279L105.654 27.457ZM105.958 32.9524L105.513 33.2985L105.517 33.3033L105.958 32.9524ZM89.5111 16.8491L89.0561 16.5165L89.0538 16.5197L89.5111 16.8491ZM95.6803 16.8491L95.2276 17.185L95.2293 17.1873L95.6803 16.8491ZM96.6182 20.5084H97.1819L97.1818 20.5023L96.6182 20.5084ZM95.6803 24.9338L95.2238 24.6031L95.2216 24.6062L95.6803 24.9338ZM89.4847 24.8942L89.0107 25.1992L89.0128 25.2025L89.4847 24.8942ZM93.4345 24.3526L93.2036 23.8383L93.1983 23.8408L93.4345 24.3526ZM94.2668 23.3222L93.7222 23.1763L93.72 23.1855L94.2668 23.3222ZM94.0158 17.8663L93.5863 18.2314L93.5909 18.2367L94.0158 17.8663ZM90.8982 18.4344L90.3517 18.2961L90.3495 18.3053L90.8982 18.4344ZM91.202 23.9298L90.7571 24.2759L90.7609 24.2807L91.202 23.9298ZM95.7323 35.1981L102.905 16.0962L101.85 15.6999L94.677 34.8019L95.7323 35.1981ZM102.378 16.4616H104.663V15.3344H102.378V16.4616ZM104.135 15.7015L97.0278 34.8035L98.0844 35.1965L105.191 16.0946L104.135 15.7015ZM97.5561 34.4364H95.2047V35.5636H97.5561V34.4364ZM109.991 33.6288C109.516 34.2938 108.692 34.6874 107.358 34.6874V35.8146C108.913 35.8146 110.15 35.3451 110.908 34.284L109.991 33.6288ZM107.358 34.6874C106.024 34.6874 105.207 34.2937 104.741 33.6319L103.819 34.2809C104.569 35.3453 105.804 35.8146 107.358 35.8146V34.6874ZM104.743 33.6351C104.236 32.9045 103.945 31.7984 103.945 30.2443H102.818C102.818 31.9135 103.126 33.2822 103.817 34.2777L104.743 33.6351ZM103.945 30.2443V29.5442H102.818V30.2443H103.945ZM103.945 29.5442C103.945 27.9665 104.234 26.8815 104.724 26.2012L103.81 25.5423C103.12 26.5 102.818 27.8633 102.818 29.5442H103.945ZM104.722 26.2044C105.174 25.5862 105.989 25.2068 107.345 25.2068V24.0795C105.794 24.0795 104.558 24.5192 103.812 25.5391L104.722 26.2044ZM107.345 25.2068C108.711 25.2068 109.53 25.5871 109.981 26.2044L110.891 25.5391C110.145 24.5183 108.903 24.0795 107.345 24.0795V25.2068ZM109.985 26.2099C110.489 26.8817 110.793 27.9604 110.81 29.5371L111.938 29.5249C111.919 27.843 111.599 26.4822 110.887 25.5336L109.985 26.2099ZM110.81 29.531V30.2443H111.938V29.531H110.81ZM110.81 30.2443C110.81 31.7959 110.512 32.8993 109.991 33.6288L110.908 34.284C111.62 33.2874 111.938 31.916 111.938 30.2443H110.81ZM107.364 34.0973C107.904 34.0921 108.401 33.965 108.804 33.6659C109.211 33.3639 109.465 32.9293 109.595 32.4181L108.503 32.1393C108.422 32.4559 108.289 32.6444 108.132 32.7607C107.971 32.88 107.728 32.9664 107.353 32.9701L107.364 34.0973ZM109.593 32.4252C109.736 31.896 109.793 31.2212 109.784 30.4229L108.657 30.4357C108.666 31.1873 108.609 31.7455 108.505 32.1322L109.593 32.4252ZM109.784 30.4293V29.28H108.657V30.4293H109.784ZM109.784 29.28C109.784 28.6321 109.746 28.0788 109.663 27.6309C109.582 27.1985 109.446 26.7917 109.196 26.5053L108.347 27.2461C108.397 27.3032 108.485 27.4689 108.554 27.8379C108.62 28.1913 108.657 28.6684 108.657 29.28H109.784ZM109.196 26.5053C108.78 26.0281 108.224 25.7969 107.583 25.7969V26.9241C107.928 26.9241 108.164 27.0364 108.347 27.2461L109.196 26.5053ZM107.583 25.7969C106.979 25.7969 106.434 25.8957 105.996 26.1446C105.538 26.4049 105.237 26.8077 105.108 27.3187L106.2 27.5952C106.256 27.3753 106.368 27.2298 106.553 27.1246C106.758 27.0081 107.086 26.9241 107.583 26.9241V25.7969ZM105.105 27.3279C104.985 27.8372 104.932 28.4848 104.932 29.2536H106.059C106.059 28.5251 106.111 27.975 106.203 27.5861L105.105 27.3279ZM104.932 29.2536V30.4293H106.059V29.2536H104.932ZM104.932 30.4293C104.932 31.0911 104.971 31.6597 105.057 32.126C105.14 32.581 105.277 32.9951 105.513 33.2985L106.403 32.6064C106.33 32.5135 106.236 32.3088 106.165 31.9228C106.097 31.548 106.059 31.0533 106.059 30.4293H104.932ZM105.517 33.3033C105.959 33.8596 106.61 34.0973 107.358 34.0973V32.97C106.855 32.97 106.573 32.8202 106.399 32.6015L105.517 33.3033ZM89.1896 21.2217V20.5216H88.0624V21.2217H89.1896ZM89.1896 20.5216C89.1896 18.9439 89.4783 17.8589 89.9684 17.1786L89.0538 16.5197C88.3638 17.4774 88.0624 18.8408 88.0624 20.5216H89.1896ZM89.9661 17.1818C90.4181 16.5636 91.2333 16.1842 92.5891 16.1842V15.057C91.0385 15.057 89.8018 15.4966 89.0561 16.5165L89.9661 17.1818ZM92.5891 16.1842C93.9441 16.1842 94.7664 16.5634 95.2276 17.185L96.1329 16.5133C95.3787 15.4968 94.1403 15.057 92.5891 15.057V16.1842ZM95.2293 17.1873C95.7332 17.8591 96.0375 18.9378 96.0546 20.5145L97.1818 20.5023C97.1636 18.8204 96.8427 17.4597 96.1312 16.511L95.2293 17.1873ZM96.0545 20.5084V21.2217H97.1818V20.5084H96.0545ZM96.0545 21.2217C96.0545 22.772 95.752 23.8741 95.2238 24.6031L96.1367 25.2645C96.8591 24.2673 97.1818 22.8947 97.1818 21.2217H96.0545ZM95.2216 24.6062C94.7484 25.2686 93.914 25.6648 92.5494 25.6648V26.792C94.1263 26.792 95.3791 26.3251 96.1389 25.2614L95.2216 24.6062ZM92.5494 25.6648C91.1992 25.6648 90.3969 25.2599 89.9565 24.5859L89.0128 25.2025C89.7349 26.3075 90.9758 26.792 92.5494 26.792V25.6648ZM89.9586 24.5891C89.4663 23.8241 89.1896 22.7206 89.1896 21.2217H88.0624C88.0624 22.8405 88.3582 24.1853 89.0107 25.1992L89.9586 24.5891ZM93.6654 24.8667C94.2676 24.5964 94.652 24.1052 94.8136 23.4589L93.72 23.1855C93.635 23.5255 93.4645 23.7212 93.2037 23.8384L93.6654 24.8667ZM94.8112 23.468C94.9609 22.9091 95.0286 22.2165 95.0286 21.4067H93.9013C93.9013 22.1645 93.8368 22.7489 93.7223 23.1763L94.8112 23.468ZM95.0286 21.4067V20.2574H93.9013V21.4067H95.0286ZM95.0286 20.2574C95.0286 19.6138 94.9903 19.0636 94.9066 18.6176C94.8257 18.1869 94.6898 17.7818 94.4406 17.4959L93.5909 18.2367C93.6411 18.2943 93.7299 18.4595 93.7987 18.8258C93.8646 19.1768 93.9013 19.6504 93.9013 20.2574H95.0286ZM94.4452 17.5013C94.0308 17.0138 93.4728 16.7743 92.8268 16.7743V17.9016C93.1672 17.9016 93.4018 18.0144 93.5863 18.2314L94.4452 17.5013ZM92.8268 16.7743C92.223 16.7743 91.6784 16.8731 91.2405 17.122C90.7826 17.3823 90.481 17.7851 90.3517 18.2961L91.4446 18.5726C91.5002 18.3527 91.6125 18.2072 91.7976 18.102C92.0025 17.9855 92.3298 17.9016 92.8268 17.9016V16.7743ZM90.3495 18.3053C90.2297 18.8146 90.176 19.4622 90.176 20.231H91.3033C91.3033 19.5025 91.3553 18.9524 91.4468 18.5635L90.3495 18.3053ZM90.176 20.231V21.4067H91.3033V20.231H90.176ZM90.176 21.4067C90.176 22.0685 90.2154 22.6372 90.3008 23.1034C90.3842 23.5584 90.5211 23.9725 90.7571 24.2759L91.6469 23.5838C91.5746 23.4909 91.4804 23.2862 91.4096 22.9002C91.3409 22.5254 91.3033 22.0307 91.3033 21.4067H90.176ZM90.7609 24.2807C91.171 24.7962 91.7223 25.0747 92.3777 25.0747V23.9474C92.0819 23.9474 91.8495 23.8384 91.6431 23.579L90.7609 24.2807ZM92.3777 25.0747C92.8751 25.0747 93.3279 25.0225 93.6707 24.8643L93.1983 23.8408C93.0832 23.8939 92.8314 23.9474 92.3777 23.9474V25.0747Z" fill="#606060" fill-opacity="0.5"/>
<rect x="23" y="60" width="86" height="4" fill="#C8CC00"/>
</svg>
