<svg width="155" height="26" viewBox="0 0 155 26" fill="none" xmlns="http://www.w3.org/2000/svg">
<rect width="155" height="26" fill="black" fill-opacity="0"/>
<path d="M0 0H149L155 13L149 26H0V0Z" fill="#0096FF"/>
<path d="M8.37402 8.00586H11.1973C12.5234 8.00586 13.4827 8.2041 14.0752 8.60059C14.6676 8.99707 14.9639 9.6237 14.9639 10.4805C14.9639 11.0729 14.7975 11.5628 14.4648 11.9502C14.1367 12.333 13.6559 12.5814 13.0225 12.6953V12.7637C14.54 13.0234 15.2988 13.821 15.2988 15.1562C15.2988 16.0495 14.9958 16.7467 14.3896 17.248C13.7881 17.7493 12.945 18 11.8604 18H8.37402V8.00586ZM9.53613 12.2852H11.4502C12.2705 12.2852 12.8607 12.1576 13.2207 11.9023C13.5807 11.6426 13.7607 11.2074 13.7607 10.5967C13.7607 10.0361 13.5602 9.63281 13.1592 9.38672C12.7581 9.13607 12.1201 9.01074 11.2451 9.01074H9.53613V12.2852ZM9.53613 13.2695V17.0088H11.6211C12.4277 17.0088 13.0339 16.8538 13.4395 16.5439C13.8496 16.2295 14.0547 15.7396 14.0547 15.0742C14.0547 14.4544 13.8451 13.9987 13.4258 13.707C13.0111 13.4154 12.3776 13.2695 11.5254 13.2695H9.53613ZM18.3477 10.5078V15.3682C18.3477 15.9788 18.4867 16.4346 18.7646 16.7354C19.0426 17.0361 19.4779 17.1865 20.0703 17.1865C20.8542 17.1865 21.4261 16.9723 21.7861 16.5439C22.1507 16.1156 22.333 15.416 22.333 14.4453V10.5078H23.4678V18H22.5312L22.3672 16.9951H22.3057C22.0732 17.3643 21.7497 17.6468 21.335 17.8428C20.9248 18.0387 20.4554 18.1367 19.9268 18.1367C19.0153 18.1367 18.3317 17.9202 17.876 17.4873C17.4248 17.0544 17.1992 16.3617 17.1992 15.4092V10.5078H18.3477ZM30.7139 15.9561C30.7139 16.6533 30.4541 17.1911 29.9346 17.5693C29.415 17.9476 28.6859 18.1367 27.7471 18.1367C26.7536 18.1367 25.9788 17.9795 25.4229 17.665V16.6123C25.7829 16.7946 26.168 16.9382 26.5781 17.043C26.9928 17.1478 27.3916 17.2002 27.7744 17.2002C28.3669 17.2002 28.8226 17.1068 29.1416 16.9199C29.4606 16.7285 29.6201 16.4391 29.6201 16.0518C29.6201 15.7601 29.4925 15.5117 29.2373 15.3066C28.9867 15.097 28.4945 14.8509 27.7607 14.5684C27.0635 14.3086 26.5667 14.083 26.2705 13.8916C25.9788 13.6956 25.7601 13.4746 25.6143 13.2285C25.473 12.9824 25.4023 12.6885 25.4023 12.3467C25.4023 11.736 25.6507 11.2552 26.1475 10.9043C26.6442 10.5488 27.3255 10.3711 28.1914 10.3711C28.998 10.3711 29.7865 10.5352 30.5566 10.8633L30.1533 11.7861C29.4014 11.4762 28.7201 11.3213 28.1094 11.3213C27.5716 11.3213 27.166 11.4056 26.8926 11.5742C26.6191 11.7428 26.4824 11.9753 26.4824 12.2715C26.4824 12.472 26.5326 12.6429 26.6328 12.7842C26.7376 12.9255 26.904 13.0599 27.1318 13.1875C27.3597 13.3151 27.7972 13.4997 28.4443 13.7412C29.333 14.0648 29.9323 14.3906 30.2422 14.7188C30.5566 15.0469 30.7139 15.4593 30.7139 15.9561ZM33.7012 18H32.5664V10.5078H33.7012V18ZM32.4707 8.47754C32.4707 8.21777 32.5345 8.02865 32.6621 7.91016C32.7897 7.78711 32.9492 7.72559 33.1406 7.72559C33.3229 7.72559 33.4801 7.78711 33.6123 7.91016C33.7445 8.0332 33.8105 8.22233 33.8105 8.47754C33.8105 8.73275 33.7445 8.92415 33.6123 9.05176C33.4801 9.1748 33.3229 9.23633 33.1406 9.23633C32.9492 9.23633 32.7897 9.1748 32.6621 9.05176C32.5345 8.92415 32.4707 8.73275 32.4707 8.47754ZM41.2344 18V13.1533C41.2344 12.5426 41.0954 12.0869 40.8174 11.7861C40.5394 11.4854 40.1042 11.335 39.5117 11.335C38.7279 11.335 38.1536 11.5469 37.7891 11.9707C37.4245 12.3945 37.2422 13.0941 37.2422 14.0693V18H36.1074V10.5078H37.0303L37.2148 11.5332H37.2695C37.502 11.1641 37.8278 10.8792 38.2471 10.6787C38.6663 10.4736 39.1335 10.3711 39.6484 10.3711C40.5508 10.3711 41.2298 10.5898 41.6855 11.0273C42.1413 11.4603 42.3691 12.1553 42.3691 13.1123V18H41.2344ZM47.8721 18.1367C46.7646 18.1367 45.8896 17.7995 45.2471 17.125C44.609 16.4505 44.29 15.514 44.29 14.3154C44.29 13.1077 44.5863 12.1484 45.1787 11.4375C45.7757 10.7266 46.5755 10.3711 47.5781 10.3711C48.5169 10.3711 49.2598 10.681 49.8066 11.3008C50.3535 11.916 50.627 12.7295 50.627 13.7412V14.459H45.4658C45.4886 15.3385 45.7096 16.0062 46.1289 16.4619C46.5527 16.9176 47.1475 17.1455 47.9131 17.1455C48.7197 17.1455 49.5173 16.9769 50.3057 16.6396V17.6514C49.9046 17.8245 49.5241 17.9476 49.1641 18.0205C48.8086 18.098 48.3779 18.1367 47.8721 18.1367ZM47.5645 11.3213C46.9629 11.3213 46.4821 11.5173 46.1221 11.9092C45.7666 12.3011 45.557 12.8434 45.4932 13.5361H49.4102C49.4102 12.8206 49.2507 12.2738 48.9316 11.8955C48.6126 11.5127 48.1569 11.3213 47.5645 11.3213ZM57.4014 15.9561C57.4014 16.6533 57.1416 17.1911 56.6221 17.5693C56.1025 17.9476 55.3734 18.1367 54.4346 18.1367C53.4411 18.1367 52.6663 17.9795 52.1104 17.665V16.6123C52.4704 16.7946 52.8555 16.9382 53.2656 17.043C53.6803 17.1478 54.0791 17.2002 54.4619 17.2002C55.0544 17.2002 55.5101 17.1068 55.8291 16.9199C56.1481 16.7285 56.3076 16.4391 56.3076 16.0518C56.3076 15.7601 56.18 15.5117 55.9248 15.3066C55.6742 15.097 55.182 14.8509 54.4482 14.5684C53.751 14.3086 53.2542 14.083 52.958 13.8916C52.6663 13.6956 52.4476 13.4746 52.3018 13.2285C52.1605 12.9824 52.0898 12.6885 52.0898 12.3467C52.0898 11.736 52.3382 11.2552 52.835 10.9043C53.3317 10.5488 54.013 10.3711 54.8789 10.3711C55.6855 10.3711 56.474 10.5352 57.2441 10.8633L56.8408 11.7861C56.0889 11.4762 55.4076 11.3213 54.7969 11.3213C54.2591 11.3213 53.8535 11.4056 53.5801 11.5742C53.3066 11.7428 53.1699 11.9753 53.1699 12.2715C53.1699 12.472 53.2201 12.6429 53.3203 12.7842C53.4251 12.9255 53.5915 13.0599 53.8193 13.1875C54.0472 13.3151 54.4847 13.4997 55.1318 13.7412C56.0205 14.0648 56.6198 14.3906 56.9297 14.7188C57.2441 15.0469 57.4014 15.4593 57.4014 15.9561ZM64.0869 15.9561C64.0869 16.6533 63.8271 17.1911 63.3076 17.5693C62.7881 17.9476 62.0589 18.1367 61.1201 18.1367C60.1266 18.1367 59.3519 17.9795 58.7959 17.665V16.6123C59.1559 16.7946 59.541 16.9382 59.9512 17.043C60.3659 17.1478 60.7646 17.2002 61.1475 17.2002C61.7399 17.2002 62.1956 17.1068 62.5146 16.9199C62.8337 16.7285 62.9932 16.4391 62.9932 16.0518C62.9932 15.7601 62.8656 15.5117 62.6104 15.3066C62.3597 15.097 61.8675 14.8509 61.1338 14.5684C60.4365 14.3086 59.9398 14.083 59.6436 13.8916C59.3519 13.6956 59.1331 13.4746 58.9873 13.2285C58.846 12.9824 58.7754 12.6885 58.7754 12.3467C58.7754 11.736 59.0238 11.2552 59.5205 10.9043C60.0173 10.5488 60.6986 10.3711 61.5645 10.3711C62.3711 10.3711 63.1595 10.5352 63.9297 10.8633L63.5264 11.7861C62.7744 11.4762 62.0931 11.3213 61.4824 11.3213C60.9447 11.3213 60.5391 11.4056 60.2656 11.5742C59.9922 11.7428 59.8555 11.9753 59.8555 12.2715C59.8555 12.472 59.9056 12.6429 60.0059 12.7842C60.1107 12.9255 60.277 13.0599 60.5049 13.1875C60.7327 13.3151 61.1702 13.4997 61.8174 13.7412C62.7061 14.0648 63.3053 14.3906 63.6152 14.7188C63.9297 15.0469 64.0869 15.4593 64.0869 15.9561ZM72.29 13.0029L74.9561 8.00586H76.2139L72.8779 14.124V18H71.7021V14.1787L68.373 8.00586H69.6445L72.29 13.0029ZM82.0312 18L81.8057 16.9336H81.751C81.3773 17.403 81.0036 17.722 80.6299 17.8906C80.2607 18.0547 79.7982 18.1367 79.2422 18.1367C78.4993 18.1367 77.916 17.9453 77.4922 17.5625C77.0729 17.1797 76.8633 16.6351 76.8633 15.9287C76.8633 14.4157 78.0732 13.6227 80.4932 13.5498L81.7646 13.5088V13.0439C81.7646 12.4561 81.637 12.0231 81.3818 11.7451C81.1312 11.4626 80.7279 11.3213 80.1719 11.3213C79.5475 11.3213 78.8411 11.5127 78.0527 11.8955L77.7041 11.0273C78.0732 10.8268 78.4766 10.6696 78.9141 10.5557C79.3561 10.4417 79.7982 10.3848 80.2402 10.3848C81.1335 10.3848 81.7943 10.583 82.2227 10.9795C82.6556 11.376 82.8721 12.0117 82.8721 12.8867V18H82.0312ZM79.4678 17.2002C80.1742 17.2002 80.7279 17.0065 81.1289 16.6191C81.5345 16.2318 81.7373 15.6895 81.7373 14.9922V14.3154L80.6025 14.3633C79.7002 14.3952 79.0485 14.5365 78.6475 14.7871C78.251 15.0332 78.0527 15.4183 78.0527 15.9424C78.0527 16.3525 78.1758 16.6647 78.4219 16.8789C78.6725 17.0931 79.0212 17.2002 79.4678 17.2002ZM88.2109 18.1367C87.1263 18.1367 86.2855 17.804 85.6885 17.1387C85.096 16.4688 84.7998 15.5231 84.7998 14.3018C84.7998 13.0485 85.1006 12.0801 85.7021 11.3965C86.3083 10.7129 87.1696 10.3711 88.2861 10.3711C88.6462 10.3711 89.0062 10.4098 89.3662 10.4873C89.7262 10.5648 90.0088 10.6559 90.2139 10.7607L89.8652 11.7246C89.6146 11.6243 89.3411 11.5423 89.0449 11.4785C88.7487 11.4102 88.4867 11.376 88.2588 11.376C86.7367 11.376 85.9756 12.3467 85.9756 14.2881C85.9756 15.2087 86.1602 15.915 86.5293 16.4072C86.903 16.8994 87.4544 17.1455 88.1836 17.1455C88.8079 17.1455 89.4482 17.0111 90.1045 16.7422V17.7471C89.6032 18.0068 88.972 18.1367 88.2109 18.1367ZM97.0156 18V13.1533C97.0156 12.5426 96.8766 12.0869 96.5986 11.7861C96.3206 11.4854 95.8854 11.335 95.293 11.335C94.5046 11.335 93.9281 11.5492 93.5635 11.9775C93.2035 12.4059 93.0234 13.1077 93.0234 14.083V18H91.8887V7.36328H93.0234V10.583C93.0234 10.9704 93.0052 11.2917 92.9688 11.5469H93.0371C93.2604 11.1868 93.5771 10.9043 93.9873 10.6992C94.402 10.4896 94.8737 10.3848 95.4023 10.3848C96.3184 10.3848 97.0042 10.6035 97.46 11.041C97.9202 11.474 98.1504 12.1644 98.1504 13.1123V18H97.0156ZM102.908 17.2002C103.109 17.2002 103.302 17.1865 103.489 17.1592C103.676 17.1273 103.824 17.0954 103.934 17.0635V17.9316C103.811 17.9909 103.628 18.0387 103.387 18.0752C103.15 18.1162 102.936 18.1367 102.744 18.1367C101.295 18.1367 100.57 17.3734 100.57 15.8467V11.3896H99.4971V10.8428L100.57 10.3711L101.049 8.77148H101.705V10.5078H103.879V11.3896H101.705V15.7988C101.705 16.25 101.812 16.5964 102.026 16.8379C102.241 17.0794 102.535 17.2002 102.908 17.2002ZM117.968 18H116.819L114.803 11.3076C114.707 11.0114 114.6 10.6377 114.481 10.1865C114.363 9.73535 114.301 9.46419 114.297 9.37305C114.197 9.97461 114.037 10.6331 113.818 11.3486L111.863 18H110.715L108.056 8.00586H109.286L110.865 14.1787C111.084 15.0446 111.243 15.8285 111.344 16.5303C111.467 15.6963 111.649 14.8805 111.891 14.083L113.682 8.00586H114.912L116.792 14.1377C117.011 14.8441 117.195 15.6416 117.346 16.5303C117.432 15.8831 117.596 15.0947 117.838 14.165L119.41 8.00586H120.641L117.968 18ZM125.2 18.1367C124.093 18.1367 123.218 17.7995 122.575 17.125C121.937 16.4505 121.618 15.514 121.618 14.3154C121.618 13.1077 121.914 12.1484 122.507 11.4375C123.104 10.7266 123.904 10.3711 124.906 10.3711C125.845 10.3711 126.588 10.681 127.135 11.3008C127.682 11.916 127.955 12.7295 127.955 13.7412V14.459H122.794C122.817 15.3385 123.038 16.0062 123.457 16.4619C123.881 16.9176 124.476 17.1455 125.241 17.1455C126.048 17.1455 126.845 16.9769 127.634 16.6396V17.6514C127.233 17.8245 126.852 17.9476 126.492 18.0205C126.137 18.098 125.706 18.1367 125.2 18.1367ZM124.893 11.3213C124.291 11.3213 123.81 11.5173 123.45 11.9092C123.095 12.3011 122.885 12.8434 122.821 13.5361H126.738C126.738 12.8206 126.579 12.2738 126.26 11.8955C125.941 11.5127 125.485 11.3213 124.893 11.3213ZM133.062 18.1367C131.954 18.1367 131.079 17.7995 130.437 17.125C129.799 16.4505 129.479 15.514 129.479 14.3154C129.479 13.1077 129.776 12.1484 130.368 11.4375C130.965 10.7266 131.765 10.3711 132.768 10.3711C133.706 10.3711 134.449 10.681 134.996 11.3008C135.543 11.916 135.816 12.7295 135.816 13.7412V14.459H130.655C130.678 15.3385 130.899 16.0062 131.318 16.4619C131.742 16.9176 132.337 17.1455 133.103 17.1455C133.909 17.1455 134.707 16.9769 135.495 16.6396V17.6514C135.094 17.8245 134.714 17.9476 134.354 18.0205C133.998 18.098 133.567 18.1367 133.062 18.1367ZM132.754 11.3213C132.152 11.3213 131.672 11.5173 131.312 11.9092C130.956 12.3011 130.746 12.8434 130.683 13.5361H134.6C134.6 12.8206 134.44 12.2738 134.121 11.8955C133.802 11.5127 133.346 11.3213 132.754 11.3213ZM138.879 14.165C139.075 13.887 139.373 13.5225 139.774 13.0713L142.194 10.5078H143.541L140.506 13.7002L143.753 18H142.379L139.733 14.459L138.879 15.1973V18H137.758V7.36328H138.879V13.0029C138.879 13.2536 138.861 13.641 138.824 14.165H138.879Z" fill="white" fill-opacity="0.85"/>
</svg>
