<svg width="146" height="26" viewBox="0 0 146 26" fill="none" xmlns="http://www.w3.org/2000/svg">
<rect width="146" height="26" fill="black" fill-opacity="0"/>
<path d="M0 0H140L146 13L140 26H0V0Z" fill="#DC50A0"/>
<path d="M8.37402 8.00586H11.1973C12.5234 8.00586 13.4827 8.2041 14.0752 8.60059C14.6676 8.99707 14.9639 9.6237 14.9639 10.4805C14.9639 11.0729 14.7975 11.5628 14.4648 11.9502C14.1367 12.333 13.6559 12.5814 13.0225 12.6953V12.7637C14.54 13.0234 15.2988 13.821 15.2988 15.1562C15.2988 16.0495 14.9958 16.7467 14.3896 17.248C13.7881 17.7493 12.945 18 11.8604 18H8.37402V8.00586ZM9.53613 12.2852H11.4502C12.2705 12.2852 12.8607 12.1576 13.2207 11.9023C13.5807 11.6426 13.7607 11.2074 13.7607 10.5967C13.7607 10.0361 13.5602 9.63281 13.1592 9.38672C12.7581 9.13607 12.1201 9.01074 11.2451 9.01074H9.53613V12.2852ZM9.53613 13.2695V17.0088H11.6211C12.4277 17.0088 13.0339 16.8538 13.4395 16.5439C13.8496 16.2295 14.0547 15.7396 14.0547 15.0742C14.0547 14.4544 13.8451 13.9987 13.4258 13.707C13.0111 13.4154 12.3776 13.2695 11.5254 13.2695H9.53613ZM18.3477 10.5078V15.3682C18.3477 15.9788 18.4867 16.4346 18.7646 16.7354C19.0426 17.0361 19.4779 17.1865 20.0703 17.1865C20.8542 17.1865 21.4261 16.9723 21.7861 16.5439C22.1507 16.1156 22.333 15.416 22.333 14.4453V10.5078H23.4678V18H22.5312L22.3672 16.9951H22.3057C22.0732 17.3643 21.7497 17.6468 21.335 17.8428C20.9248 18.0387 20.4554 18.1367 19.9268 18.1367C19.0153 18.1367 18.3317 17.9202 17.876 17.4873C17.4248 17.0544 17.1992 16.3617 17.1992 15.4092V10.5078H18.3477ZM30.7139 15.9561C30.7139 16.6533 30.4541 17.1911 29.9346 17.5693C29.415 17.9476 28.6859 18.1367 27.7471 18.1367C26.7536 18.1367 25.9788 17.9795 25.4229 17.665V16.6123C25.7829 16.7946 26.168 16.9382 26.5781 17.043C26.9928 17.1478 27.3916 17.2002 27.7744 17.2002C28.3669 17.2002 28.8226 17.1068 29.1416 16.9199C29.4606 16.7285 29.6201 16.4391 29.6201 16.0518C29.6201 15.7601 29.4925 15.5117 29.2373 15.3066C28.9867 15.097 28.4945 14.8509 27.7607 14.5684C27.0635 14.3086 26.5667 14.083 26.2705 13.8916C25.9788 13.6956 25.7601 13.4746 25.6143 13.2285C25.473 12.9824 25.4023 12.6885 25.4023 12.3467C25.4023 11.736 25.6507 11.2552 26.1475 10.9043C26.6442 10.5488 27.3255 10.3711 28.1914 10.3711C28.998 10.3711 29.7865 10.5352 30.5566 10.8633L30.1533 11.7861C29.4014 11.4762 28.7201 11.3213 28.1094 11.3213C27.5716 11.3213 27.166 11.4056 26.8926 11.5742C26.6191 11.7428 26.4824 11.9753 26.4824 12.2715C26.4824 12.472 26.5326 12.6429 26.6328 12.7842C26.7376 12.9255 26.904 13.0599 27.1318 13.1875C27.3597 13.3151 27.7972 13.4997 28.4443 13.7412C29.333 14.0648 29.9323 14.3906 30.2422 14.7188C30.5566 15.0469 30.7139 15.4593 30.7139 15.9561ZM33.7012 18H32.5664V10.5078H33.7012V18ZM32.4707 8.47754C32.4707 8.21777 32.5345 8.02865 32.6621 7.91016C32.7897 7.78711 32.9492 7.72559 33.1406 7.72559C33.3229 7.72559 33.4801 7.78711 33.6123 7.91016C33.7445 8.0332 33.8105 8.22233 33.8105 8.47754C33.8105 8.73275 33.7445 8.92415 33.6123 9.05176C33.4801 9.1748 33.3229 9.23633 33.1406 9.23633C32.9492 9.23633 32.7897 9.1748 32.6621 9.05176C32.5345 8.92415 32.4707 8.73275 32.4707 8.47754ZM41.2344 18V13.1533C41.2344 12.5426 41.0954 12.0869 40.8174 11.7861C40.5394 11.4854 40.1042 11.335 39.5117 11.335C38.7279 11.335 38.1536 11.5469 37.7891 11.9707C37.4245 12.3945 37.2422 13.0941 37.2422 14.0693V18H36.1074V10.5078H37.0303L37.2148 11.5332H37.2695C37.502 11.1641 37.8278 10.8792 38.2471 10.6787C38.6663 10.4736 39.1335 10.3711 39.6484 10.3711C40.5508 10.3711 41.2298 10.5898 41.6855 11.0273C42.1413 11.4603 42.3691 12.1553 42.3691 13.1123V18H41.2344ZM47.8721 18.1367C46.7646 18.1367 45.8896 17.7995 45.2471 17.125C44.609 16.4505 44.29 15.514 44.29 14.3154C44.29 13.1077 44.5863 12.1484 45.1787 11.4375C45.7757 10.7266 46.5755 10.3711 47.5781 10.3711C48.5169 10.3711 49.2598 10.681 49.8066 11.3008C50.3535 11.916 50.627 12.7295 50.627 13.7412V14.459H45.4658C45.4886 15.3385 45.7096 16.0062 46.1289 16.4619C46.5527 16.9176 47.1475 17.1455 47.9131 17.1455C48.7197 17.1455 49.5173 16.9769 50.3057 16.6396V17.6514C49.9046 17.8245 49.5241 17.9476 49.1641 18.0205C48.8086 18.098 48.3779 18.1367 47.8721 18.1367ZM47.5645 11.3213C46.9629 11.3213 46.4821 11.5173 46.1221 11.9092C45.7666 12.3011 45.557 12.8434 45.4932 13.5361H49.4102C49.4102 12.8206 49.2507 12.2738 48.9316 11.8955C48.6126 11.5127 48.1569 11.3213 47.5645 11.3213ZM57.4014 15.9561C57.4014 16.6533 57.1416 17.1911 56.6221 17.5693C56.1025 17.9476 55.3734 18.1367 54.4346 18.1367C53.4411 18.1367 52.6663 17.9795 52.1104 17.665V16.6123C52.4704 16.7946 52.8555 16.9382 53.2656 17.043C53.6803 17.1478 54.0791 17.2002 54.4619 17.2002C55.0544 17.2002 55.5101 17.1068 55.8291 16.9199C56.1481 16.7285 56.3076 16.4391 56.3076 16.0518C56.3076 15.7601 56.18 15.5117 55.9248 15.3066C55.6742 15.097 55.182 14.8509 54.4482 14.5684C53.751 14.3086 53.2542 14.083 52.958 13.8916C52.6663 13.6956 52.4476 13.4746 52.3018 13.2285C52.1605 12.9824 52.0898 12.6885 52.0898 12.3467C52.0898 11.736 52.3382 11.2552 52.835 10.9043C53.3317 10.5488 54.013 10.3711 54.8789 10.3711C55.6855 10.3711 56.474 10.5352 57.2441 10.8633L56.8408 11.7861C56.0889 11.4762 55.4076 11.3213 54.7969 11.3213C54.2591 11.3213 53.8535 11.4056 53.5801 11.5742C53.3066 11.7428 53.1699 11.9753 53.1699 12.2715C53.1699 12.472 53.2201 12.6429 53.3203 12.7842C53.4251 12.9255 53.5915 13.0599 53.8193 13.1875C54.0472 13.3151 54.4847 13.4997 55.1318 13.7412C56.0205 14.0648 56.6198 14.3906 56.9297 14.7188C57.2441 15.0469 57.4014 15.4593 57.4014 15.9561ZM64.0869 15.9561C64.0869 16.6533 63.8271 17.1911 63.3076 17.5693C62.7881 17.9476 62.0589 18.1367 61.1201 18.1367C60.1266 18.1367 59.3519 17.9795 58.7959 17.665V16.6123C59.1559 16.7946 59.541 16.9382 59.9512 17.043C60.3659 17.1478 60.7646 17.2002 61.1475 17.2002C61.7399 17.2002 62.1956 17.1068 62.5146 16.9199C62.8337 16.7285 62.9932 16.4391 62.9932 16.0518C62.9932 15.7601 62.8656 15.5117 62.6104 15.3066C62.3597 15.097 61.8675 14.8509 61.1338 14.5684C60.4365 14.3086 59.9398 14.083 59.6436 13.8916C59.3519 13.6956 59.1331 13.4746 58.9873 13.2285C58.846 12.9824 58.7754 12.6885 58.7754 12.3467C58.7754 11.736 59.0238 11.2552 59.5205 10.9043C60.0173 10.5488 60.6986 10.3711 61.5645 10.3711C62.3711 10.3711 63.1595 10.5352 63.9297 10.8633L63.5264 11.7861C62.7744 11.4762 62.0931 11.3213 61.4824 11.3213C60.9447 11.3213 60.5391 11.4056 60.2656 11.5742C59.9922 11.7428 59.8555 11.9753 59.8555 12.2715C59.8555 12.472 59.9056 12.6429 60.0059 12.7842C60.1107 12.9255 60.277 13.0599 60.5049 13.1875C60.7327 13.3151 61.1702 13.4997 61.8174 13.7412C62.7061 14.0648 63.3053 14.3906 63.6152 14.7188C63.9297 15.0469 64.0869 15.4593 64.0869 15.9561ZM76.9658 18H75.5986L71.9551 13.1533L70.9092 14.083V18H69.7471V8.00586H70.9092V12.9619L75.4414 8.00586H76.8154L72.7959 12.3467L76.9658 18ZM79.3105 18H78.1758V10.5078H79.3105V18ZM78.0801 8.47754C78.0801 8.21777 78.1439 8.02865 78.2715 7.91016C78.3991 7.78711 78.5586 7.72559 78.75 7.72559C78.9323 7.72559 79.0895 7.78711 79.2217 7.91016C79.3538 8.0332 79.4199 8.22233 79.4199 8.47754C79.4199 8.73275 79.3538 8.92415 79.2217 9.05176C79.0895 9.1748 78.9323 9.23633 78.75 9.23633C78.5586 9.23633 78.3991 9.1748 78.2715 9.05176C78.1439 8.92415 78.0801 8.73275 78.0801 8.47754ZM84.1367 17.2002C84.3372 17.2002 84.5309 17.1865 84.7178 17.1592C84.9046 17.1273 85.0527 17.0954 85.1621 17.0635V17.9316C85.0391 17.9909 84.8568 18.0387 84.6152 18.0752C84.3783 18.1162 84.1641 18.1367 83.9727 18.1367C82.5234 18.1367 81.7988 17.3734 81.7988 15.8467V11.3896H80.7256V10.8428L81.7988 10.3711L82.2773 8.77148H82.9336V10.5078H85.1074V11.3896H82.9336V15.7988C82.9336 16.25 83.0407 16.5964 83.2549 16.8379C83.4691 17.0794 83.763 17.2002 84.1367 17.2002ZM89.8311 18.1367C88.7236 18.1367 87.8486 17.7995 87.2061 17.125C86.568 16.4505 86.249 15.514 86.249 14.3154C86.249 13.1077 86.5452 12.1484 87.1377 11.4375C87.7347 10.7266 88.5345 10.3711 89.5371 10.3711C90.4759 10.3711 91.2188 10.681 91.7656 11.3008C92.3125 11.916 92.5859 12.7295 92.5859 13.7412V14.459H87.4248C87.4476 15.3385 87.6686 16.0062 88.0879 16.4619C88.5117 16.9176 89.1064 17.1455 89.8721 17.1455C90.6787 17.1455 91.4762 16.9769 92.2646 16.6396V17.6514C91.8636 17.8245 91.4831 17.9476 91.123 18.0205C90.7676 18.098 90.3369 18.1367 89.8311 18.1367ZM89.5234 11.3213C88.9219 11.3213 88.4411 11.5173 88.0811 11.9092C87.7256 12.3011 87.516 12.8434 87.4521 13.5361H91.3691C91.3691 12.8206 91.2096 12.2738 90.8906 11.8955C90.5716 11.5127 90.1159 11.3213 89.5234 11.3213ZM103.975 15.3408C103.975 16.2204 103.656 16.9062 103.018 17.3984C102.38 17.8906 101.514 18.1367 100.42 18.1367C99.235 18.1367 98.3236 17.984 97.6855 17.6787V16.5576C98.0957 16.7308 98.5423 16.8675 99.0254 16.9678C99.5085 17.068 99.987 17.1182 100.461 17.1182C101.236 17.1182 101.819 16.9723 102.211 16.6807C102.603 16.3844 102.799 15.9743 102.799 15.4502C102.799 15.1038 102.728 14.8213 102.587 14.6025C102.45 14.3792 102.218 14.1742 101.89 13.9873C101.566 13.8005 101.072 13.5885 100.406 13.3516C99.4766 13.0189 98.8112 12.6247 98.4102 12.1689C98.0137 11.7132 97.8154 11.1185 97.8154 10.3848C97.8154 9.61458 98.1048 9.00163 98.6836 8.5459C99.2624 8.09017 100.028 7.8623 100.98 7.8623C101.974 7.8623 102.888 8.0446 103.722 8.40918L103.359 9.4209C102.535 9.07454 101.732 8.90137 100.953 8.90137C100.338 8.90137 99.8571 9.03353 99.5107 9.29785C99.1644 9.56217 98.9912 9.92904 98.9912 10.3984C98.9912 10.7448 99.055 11.0296 99.1826 11.2529C99.3102 11.4717 99.5244 11.6745 99.8252 11.8613C100.131 12.0436 100.595 12.2464 101.22 12.4697C102.268 12.8434 102.988 13.2445 103.38 13.6729C103.776 14.1012 103.975 14.6572 103.975 15.3408ZM110.455 18L110.229 16.9336H110.175C109.801 17.403 109.427 17.722 109.054 17.8906C108.685 18.0547 108.222 18.1367 107.666 18.1367C106.923 18.1367 106.34 17.9453 105.916 17.5625C105.497 17.1797 105.287 16.6351 105.287 15.9287C105.287 14.4157 106.497 13.6227 108.917 13.5498L110.188 13.5088V13.0439C110.188 12.4561 110.061 12.0231 109.806 11.7451C109.555 11.4626 109.152 11.3213 108.596 11.3213C107.971 11.3213 107.265 11.5127 106.477 11.8955L106.128 11.0273C106.497 10.8268 106.9 10.6696 107.338 10.5557C107.78 10.4417 108.222 10.3848 108.664 10.3848C109.557 10.3848 110.218 10.583 110.646 10.9795C111.079 11.376 111.296 12.0117 111.296 12.8867V18H110.455ZM107.892 17.2002C108.598 17.2002 109.152 17.0065 109.553 16.6191C109.958 16.2318 110.161 15.6895 110.161 14.9922V14.3154L109.026 14.3633C108.124 14.3952 107.472 14.5365 107.071 14.7871C106.675 15.0332 106.477 15.4183 106.477 15.9424C106.477 16.3525 106.6 16.6647 106.846 16.8789C107.096 17.0931 107.445 17.2002 107.892 17.2002ZM117.018 11.3896H115.11V18H113.976V11.3896H112.636V10.877L113.976 10.4668V10.0498C113.976 8.20866 114.78 7.28809 116.389 7.28809C116.785 7.28809 117.25 7.36784 117.783 7.52734L117.489 8.43652C117.052 8.29525 116.678 8.22461 116.368 8.22461C115.94 8.22461 115.623 8.36816 115.418 8.65527C115.213 8.93783 115.11 9.39355 115.11 10.0225V10.5078H117.018V11.3896ZM122.992 18L122.767 16.9336H122.712C122.338 17.403 121.965 17.722 121.591 17.8906C121.222 18.0547 120.759 18.1367 120.203 18.1367C119.46 18.1367 118.877 17.9453 118.453 17.5625C118.034 17.1797 117.824 16.6351 117.824 15.9287C117.824 14.4157 119.034 13.6227 121.454 13.5498L122.726 13.5088V13.0439C122.726 12.4561 122.598 12.0231 122.343 11.7451C122.092 11.4626 121.689 11.3213 121.133 11.3213C120.508 11.3213 119.802 11.5127 119.014 11.8955L118.665 11.0273C119.034 10.8268 119.438 10.6696 119.875 10.5557C120.317 10.4417 120.759 10.3848 121.201 10.3848C122.094 10.3848 122.755 10.583 123.184 10.9795C123.617 11.376 123.833 12.0117 123.833 12.8867V18H122.992ZM120.429 17.2002C121.135 17.2002 121.689 17.0065 122.09 16.6191C122.495 16.2318 122.698 15.6895 122.698 14.9922V14.3154L121.563 14.3633C120.661 14.3952 120.009 14.5365 119.608 14.7871C119.212 15.0332 119.014 15.4183 119.014 15.9424C119.014 16.3525 119.137 16.6647 119.383 16.8789C119.633 17.0931 119.982 17.2002 120.429 17.2002ZM129.596 10.3711C129.928 10.3711 130.227 10.3984 130.491 10.4531L130.334 11.5059C130.024 11.4375 129.751 11.4033 129.514 11.4033C128.908 11.4033 128.388 11.6494 127.955 12.1416C127.527 12.6338 127.312 13.2467 127.312 13.9805V18H126.178V10.5078H127.114L127.244 11.8955H127.299C127.577 11.4079 127.912 11.0319 128.304 10.7676C128.696 10.5033 129.126 10.3711 129.596 10.3711ZM133.027 18H131.893V10.5078H133.027V18ZM131.797 8.47754C131.797 8.21777 131.861 8.02865 131.988 7.91016C132.116 7.78711 132.275 7.72559 132.467 7.72559C132.649 7.72559 132.806 7.78711 132.938 7.91016C133.071 8.0332 133.137 8.22233 133.137 8.47754C133.137 8.73275 133.071 8.92415 132.938 9.05176C132.806 9.1748 132.649 9.23633 132.467 9.23633C132.275 9.23633 132.116 9.1748 131.988 9.05176C131.861 8.92415 131.797 8.73275 131.797 8.47754Z" fill="white" fill-opacity="0.85"/>
</svg>
