<svg width="108" height="26" viewBox="0 0 108 26" fill="none" xmlns="http://www.w3.org/2000/svg">
<rect width="108" height="26" fill="black" fill-opacity="0"/>
<path d="M0 0H102L108 13L102 26H0V0Z" fill="#9741B1"/>
<path d="M17.0488 12.9893C17.0488 14.5889 16.6432 15.8467 15.832 16.7627C15.0254 17.6787 13.902 18.1367 12.4619 18.1367C10.9899 18.1367 9.85286 17.6878 9.05078 16.79C8.25326 15.8877 7.85449 14.6162 7.85449 12.9756C7.85449 11.3486 8.25553 10.0885 9.05762 9.19531C9.8597 8.29753 10.999 7.84863 12.4756 7.84863C13.9111 7.84863 15.0322 8.30436 15.8389 9.21582C16.6455 10.1273 17.0488 11.3851 17.0488 12.9893ZM9.08496 12.9893C9.08496 14.3428 9.37207 15.3704 9.94629 16.0723C10.5251 16.7695 11.3636 17.1182 12.4619 17.1182C13.5693 17.1182 14.4056 16.7695 14.9707 16.0723C15.5358 15.375 15.8184 14.3473 15.8184 12.9893C15.8184 11.6449 15.5358 10.6263 14.9707 9.93359C14.4102 9.23633 13.5785 8.8877 12.4756 8.8877C11.3682 8.8877 10.5251 9.23861 9.94629 9.94043C9.37207 10.6377 9.08496 11.654 9.08496 12.9893ZM25.2314 18L23.8574 13.6045C23.7708 13.3356 23.609 12.7249 23.3721 11.7725H23.3174C23.1351 12.57 22.9756 13.1852 22.8389 13.6182L21.4238 18H20.1113L18.0674 10.5078H19.2568C19.7399 12.39 20.1068 13.8232 20.3574 14.8076C20.6126 15.792 20.7585 16.4551 20.7949 16.7969H20.8496C20.8997 16.5371 20.9795 16.2021 21.0889 15.792C21.2028 15.3773 21.3008 15.0492 21.3828 14.8076L22.7568 10.5078H23.9873L25.3271 14.8076C25.5824 15.5915 25.7555 16.25 25.8467 16.7832H25.9014C25.9196 16.6191 25.9674 16.3662 26.0449 16.0244C26.127 15.6826 26.6032 13.8438 27.4736 10.5078H28.6494L26.5781 18H25.2314ZM35.1367 18V13.1533C35.1367 12.5426 34.9977 12.0869 34.7197 11.7861C34.4417 11.4854 34.0065 11.335 33.4141 11.335C32.6302 11.335 32.056 11.5469 31.6914 11.9707C31.3268 12.3945 31.1445 13.0941 31.1445 14.0693V18H30.0098V10.5078H30.9326L31.1172 11.5332H31.1719C31.4043 11.1641 31.7301 10.8792 32.1494 10.6787C32.5687 10.4736 33.0358 10.3711 33.5508 10.3711C34.4531 10.3711 35.1322 10.5898 35.5879 11.0273C36.0436 11.4603 36.2715 12.1553 36.2715 13.1123V18H35.1367ZM41.7744 18.1367C40.667 18.1367 39.792 17.7995 39.1494 17.125C38.5114 16.4505 38.1924 15.514 38.1924 14.3154C38.1924 13.1077 38.4886 12.1484 39.0811 11.4375C39.6781 10.7266 40.4779 10.3711 41.4805 10.3711C42.4193 10.3711 43.1621 10.681 43.709 11.3008C44.2559 11.916 44.5293 12.7295 44.5293 13.7412V14.459H39.3682C39.391 15.3385 39.612 16.0062 40.0312 16.4619C40.4551 16.9176 41.0498 17.1455 41.8154 17.1455C42.6221 17.1455 43.4196 16.9769 44.208 16.6396V17.6514C43.807 17.8245 43.4264 17.9476 43.0664 18.0205C42.7109 18.098 42.2803 18.1367 41.7744 18.1367ZM41.4668 11.3213C40.8652 11.3213 40.3844 11.5173 40.0244 11.9092C39.6689 12.3011 39.4593 12.8434 39.3955 13.5361H43.3125C43.3125 12.8206 43.153 12.2738 42.834 11.8955C42.515 11.5127 42.0592 11.3213 41.4668 11.3213ZM49.8887 10.3711C50.2214 10.3711 50.5199 10.3984 50.7842 10.4531L50.627 11.5059C50.3171 11.4375 50.0436 11.4033 49.8066 11.4033C49.2005 11.4033 48.681 11.6494 48.248 12.1416C47.8197 12.6338 47.6055 13.2467 47.6055 13.9805V18H46.4707V10.5078H47.4072L47.5371 11.8955H47.5918C47.8698 11.4079 48.2048 11.0319 48.5967 10.7676C48.9886 10.5033 49.4193 10.3711 49.8887 10.3711ZM57.0186 15.9561C57.0186 16.6533 56.7588 17.1911 56.2393 17.5693C55.7197 17.9476 54.9906 18.1367 54.0518 18.1367C53.0583 18.1367 52.2835 17.9795 51.7275 17.665V16.6123C52.0876 16.7946 52.4727 16.9382 52.8828 17.043C53.2975 17.1478 53.6963 17.2002 54.0791 17.2002C54.6715 17.2002 55.1273 17.1068 55.4463 16.9199C55.7653 16.7285 55.9248 16.4391 55.9248 16.0518C55.9248 15.7601 55.7972 15.5117 55.542 15.3066C55.2913 15.097 54.7992 14.8509 54.0654 14.5684C53.3682 14.3086 52.8714 14.083 52.5752 13.8916C52.2835 13.6956 52.0648 13.4746 51.9189 13.2285C51.7777 12.9824 51.707 12.6885 51.707 12.3467C51.707 11.736 51.9554 11.2552 52.4521 10.9043C52.9489 10.5488 53.6302 10.3711 54.4961 10.3711C55.3027 10.3711 56.0911 10.5352 56.8613 10.8633L56.458 11.7861C55.7061 11.4762 55.0247 11.3213 54.4141 11.3213C53.8763 11.3213 53.4707 11.4056 53.1973 11.5742C52.9238 11.7428 52.7871 11.9753 52.7871 12.2715C52.7871 12.472 52.8372 12.6429 52.9375 12.7842C53.0423 12.9255 53.2087 13.0599 53.4365 13.1875C53.6644 13.3151 54.1019 13.4997 54.749 13.7412C55.6377 14.0648 56.237 14.3906 56.5469 14.7188C56.8613 15.0469 57.0186 15.4593 57.0186 15.9561ZM70.4854 18H69.1592L63.6973 9.6123H63.6426C63.7155 10.5967 63.752 11.499 63.752 12.3193V18H62.6787V8.00586H63.9912L69.4395 16.3594H69.4941C69.485 16.2363 69.4645 15.8421 69.4326 15.1768C69.4007 14.5068 69.3893 14.0283 69.3984 13.7412V8.00586H70.4854V18ZM74.1973 18H73.0625V10.5078H74.1973V18ZM72.9668 8.47754C72.9668 8.21777 73.0306 8.02865 73.1582 7.91016C73.2858 7.78711 73.4453 7.72559 73.6367 7.72559C73.819 7.72559 73.9762 7.78711 74.1084 7.91016C74.2406 8.0332 74.3066 8.22233 74.3066 8.47754C74.3066 8.73275 74.2406 8.92415 74.1084 9.05176C73.9762 9.1748 73.819 9.23633 73.6367 9.23633C73.4453 9.23633 73.2858 9.1748 73.1582 9.05176C73.0306 8.92415 72.9668 8.73275 72.9668 8.47754ZM82.7354 10.5078V11.2256L81.3477 11.3896C81.4753 11.5492 81.5892 11.7588 81.6895 12.0186C81.7897 12.2738 81.8398 12.5632 81.8398 12.8867C81.8398 13.6204 81.5892 14.2061 81.0879 14.6436C80.5866 15.0811 79.8984 15.2998 79.0234 15.2998C78.8001 15.2998 78.5905 15.2816 78.3945 15.2451C77.9115 15.5003 77.6699 15.8216 77.6699 16.209C77.6699 16.4141 77.7542 16.5667 77.9229 16.667C78.0915 16.7627 78.3809 16.8105 78.791 16.8105H80.1172C80.9284 16.8105 81.5505 16.9814 81.9834 17.3232C82.4209 17.665 82.6396 18.1618 82.6396 18.8135C82.6396 19.6429 82.307 20.2741 81.6416 20.707C80.9762 21.1445 80.0055 21.3633 78.7295 21.3633C77.7497 21.3633 76.9932 21.181 76.46 20.8164C75.9313 20.4518 75.667 19.9368 75.667 19.2715C75.667 18.8158 75.8128 18.4215 76.1045 18.0889C76.3962 17.7562 76.8063 17.5306 77.335 17.4121C77.1436 17.3255 76.9818 17.1911 76.8496 17.0088C76.722 16.8265 76.6582 16.6146 76.6582 16.373C76.6582 16.0996 76.7311 15.8604 76.877 15.6553C77.0228 15.4502 77.2529 15.252 77.5674 15.0605C77.18 14.901 76.8633 14.6299 76.6172 14.2471C76.3757 13.8643 76.2549 13.4268 76.2549 12.9346C76.2549 12.1143 76.501 11.4831 76.9932 11.041C77.4854 10.5944 78.1826 10.3711 79.085 10.3711C79.4769 10.3711 79.8301 10.4167 80.1445 10.5078H82.7354ZM76.7607 19.2578C76.7607 19.6634 76.9316 19.971 77.2734 20.1807C77.6152 20.3903 78.1051 20.4951 78.7432 20.4951C79.6956 20.4951 80.3997 20.3516 80.8555 20.0645C81.3158 19.7819 81.5459 19.3968 81.5459 18.9092C81.5459 18.5036 81.4206 18.221 81.1699 18.0615C80.9193 17.9066 80.4476 17.8291 79.7549 17.8291H78.3945C77.8796 17.8291 77.4785 17.9521 77.1914 18.1982C76.9043 18.4443 76.7607 18.7975 76.7607 19.2578ZM77.376 12.9072C77.376 13.4313 77.5241 13.8278 77.8203 14.0967C78.1165 14.3656 78.529 14.5 79.0576 14.5C80.165 14.5 80.7188 13.9622 80.7188 12.8867C80.7188 11.7611 80.1582 11.1982 79.0371 11.1982C78.5039 11.1982 78.0938 11.3418 77.8066 11.6289C77.5195 11.916 77.376 12.3421 77.376 12.9072ZM89.4004 18V13.1533C89.4004 12.5426 89.2614 12.0869 88.9834 11.7861C88.7054 11.4854 88.2702 11.335 87.6777 11.335C86.8893 11.335 86.3128 11.5492 85.9482 11.9775C85.5882 12.4059 85.4082 13.1077 85.4082 14.083V18H84.2734V7.36328H85.4082V10.583C85.4082 10.9704 85.39 11.2917 85.3535 11.5469H85.4219C85.6452 11.1868 85.9619 10.9043 86.3721 10.6992C86.7868 10.4896 87.2585 10.3848 87.7871 10.3848C88.7031 10.3848 89.389 10.6035 89.8447 11.041C90.305 11.474 90.5352 12.1644 90.5352 13.1123V18H89.4004ZM95.293 17.2002C95.4935 17.2002 95.6872 17.1865 95.874 17.1592C96.0609 17.1273 96.209 17.0954 96.3184 17.0635V17.9316C96.1953 17.9909 96.013 18.0387 95.7715 18.0752C95.5345 18.1162 95.3203 18.1367 95.1289 18.1367C93.6797 18.1367 92.9551 17.3734 92.9551 15.8467V11.3896H91.8818V10.8428L92.9551 10.3711L93.4336 8.77148H94.0898V10.5078H96.2637V11.3896H94.0898V15.7988C94.0898 16.25 94.1969 16.5964 94.4111 16.8379C94.6253 17.0794 94.9193 17.2002 95.293 17.2002Z" fill="white" fill-opacity="0.85"/>
</svg>
