<svg width="138" height="26" viewBox="0 0 138 26" fill="none" xmlns="http://www.w3.org/2000/svg">
<rect width="138" height="26" fill="black" fill-opacity="0"/>
<path d="M0 0H132L138 13L132 26H0V0Z" fill="#FFDD00"/>
<path d="M8.37402 8.00586H11.1973C12.5234 8.00586 13.4827 8.2041 14.0752 8.60059C14.6676 8.99707 14.9639 9.6237 14.9639 10.4805C14.9639 11.0729 14.7975 11.5628 14.4648 11.9502C14.1367 12.333 13.6559 12.5814 13.0225 12.6953V12.7637C14.54 13.0234 15.2988 13.821 15.2988 15.1562C15.2988 16.0495 14.9958 16.7467 14.3896 17.248C13.7881 17.7493 12.945 18 11.8604 18H8.37402V8.00586ZM9.53613 12.2852H11.4502C12.2705 12.2852 12.8607 12.1576 13.2207 11.9023C13.5807 11.6426 13.7607 11.2074 13.7607 10.5967C13.7607 10.0361 13.5602 9.63281 13.1592 9.38672C12.7581 9.13607 12.1201 9.01074 11.2451 9.01074H9.53613V12.2852ZM9.53613 13.2695V17.0088H11.6211C12.4277 17.0088 13.0339 16.8538 13.4395 16.5439C13.8496 16.2295 14.0547 15.7396 14.0547 15.0742C14.0547 14.4544 13.8451 13.9987 13.4258 13.707C13.0111 13.4154 12.3776 13.2695 11.5254 13.2695H9.53613ZM18.3477 10.5078V15.3682C18.3477 15.9788 18.4867 16.4346 18.7646 16.7354C19.0426 17.0361 19.4779 17.1865 20.0703 17.1865C20.8542 17.1865 21.4261 16.9723 21.7861 16.5439C22.1507 16.1156 22.333 15.416 22.333 14.4453V10.5078H23.4678V18H22.5312L22.3672 16.9951H22.3057C22.0732 17.3643 21.7497 17.6468 21.335 17.8428C20.9248 18.0387 20.4554 18.1367 19.9268 18.1367C19.0153 18.1367 18.3317 17.9202 17.876 17.4873C17.4248 17.0544 17.1992 16.3617 17.1992 15.4092V10.5078H18.3477ZM30.7139 15.9561C30.7139 16.6533 30.4541 17.1911 29.9346 17.5693C29.415 17.9476 28.6859 18.1367 27.7471 18.1367C26.7536 18.1367 25.9788 17.9795 25.4229 17.665V16.6123C25.7829 16.7946 26.168 16.9382 26.5781 17.043C26.9928 17.1478 27.3916 17.2002 27.7744 17.2002C28.3669 17.2002 28.8226 17.1068 29.1416 16.9199C29.4606 16.7285 29.6201 16.4391 29.6201 16.0518C29.6201 15.7601 29.4925 15.5117 29.2373 15.3066C28.9867 15.097 28.4945 14.8509 27.7607 14.5684C27.0635 14.3086 26.5667 14.083 26.2705 13.8916C25.9788 13.6956 25.7601 13.4746 25.6143 13.2285C25.473 12.9824 25.4023 12.6885 25.4023 12.3467C25.4023 11.736 25.6507 11.2552 26.1475 10.9043C26.6442 10.5488 27.3255 10.3711 28.1914 10.3711C28.998 10.3711 29.7865 10.5352 30.5566 10.8633L30.1533 11.7861C29.4014 11.4762 28.7201 11.3213 28.1094 11.3213C27.5716 11.3213 27.166 11.4056 26.8926 11.5742C26.6191 11.7428 26.4824 11.9753 26.4824 12.2715C26.4824 12.472 26.5326 12.6429 26.6328 12.7842C26.7376 12.9255 26.904 13.0599 27.1318 13.1875C27.3597 13.3151 27.7972 13.4997 28.4443 13.7412C29.333 14.0648 29.9323 14.3906 30.2422 14.7188C30.5566 15.0469 30.7139 15.4593 30.7139 15.9561ZM33.7012 18H32.5664V10.5078H33.7012V18ZM32.4707 8.47754C32.4707 8.21777 32.5345 8.02865 32.6621 7.91016C32.7897 7.78711 32.9492 7.72559 33.1406 7.72559C33.3229 7.72559 33.4801 7.78711 33.6123 7.91016C33.7445 8.0332 33.8105 8.22233 33.8105 8.47754C33.8105 8.73275 33.7445 8.92415 33.6123 9.05176C33.4801 9.1748 33.3229 9.23633 33.1406 9.23633C32.9492 9.23633 32.7897 9.1748 32.6621 9.05176C32.5345 8.92415 32.4707 8.73275 32.4707 8.47754ZM41.2344 18V13.1533C41.2344 12.5426 41.0954 12.0869 40.8174 11.7861C40.5394 11.4854 40.1042 11.335 39.5117 11.335C38.7279 11.335 38.1536 11.5469 37.7891 11.9707C37.4245 12.3945 37.2422 13.0941 37.2422 14.0693V18H36.1074V10.5078H37.0303L37.2148 11.5332H37.2695C37.502 11.1641 37.8278 10.8792 38.2471 10.6787C38.6663 10.4736 39.1335 10.3711 39.6484 10.3711C40.5508 10.3711 41.2298 10.5898 41.6855 11.0273C42.1413 11.4603 42.3691 12.1553 42.3691 13.1123V18H41.2344ZM47.8721 18.1367C46.7646 18.1367 45.8896 17.7995 45.2471 17.125C44.609 16.4505 44.29 15.514 44.29 14.3154C44.29 13.1077 44.5863 12.1484 45.1787 11.4375C45.7757 10.7266 46.5755 10.3711 47.5781 10.3711C48.5169 10.3711 49.2598 10.681 49.8066 11.3008C50.3535 11.916 50.627 12.7295 50.627 13.7412V14.459H45.4658C45.4886 15.3385 45.7096 16.0062 46.1289 16.4619C46.5527 16.9176 47.1475 17.1455 47.9131 17.1455C48.7197 17.1455 49.5173 16.9769 50.3057 16.6396V17.6514C49.9046 17.8245 49.5241 17.9476 49.1641 18.0205C48.8086 18.098 48.3779 18.1367 47.8721 18.1367ZM47.5645 11.3213C46.9629 11.3213 46.4821 11.5173 46.1221 11.9092C45.7666 12.3011 45.557 12.8434 45.4932 13.5361H49.4102C49.4102 12.8206 49.2507 12.2738 48.9316 11.8955C48.6126 11.5127 48.1569 11.3213 47.5645 11.3213ZM57.4014 15.9561C57.4014 16.6533 57.1416 17.1911 56.6221 17.5693C56.1025 17.9476 55.3734 18.1367 54.4346 18.1367C53.4411 18.1367 52.6663 17.9795 52.1104 17.665V16.6123C52.4704 16.7946 52.8555 16.9382 53.2656 17.043C53.6803 17.1478 54.0791 17.2002 54.4619 17.2002C55.0544 17.2002 55.5101 17.1068 55.8291 16.9199C56.1481 16.7285 56.3076 16.4391 56.3076 16.0518C56.3076 15.7601 56.18 15.5117 55.9248 15.3066C55.6742 15.097 55.182 14.8509 54.4482 14.5684C53.751 14.3086 53.2542 14.083 52.958 13.8916C52.6663 13.6956 52.4476 13.4746 52.3018 13.2285C52.1605 12.9824 52.0898 12.6885 52.0898 12.3467C52.0898 11.736 52.3382 11.2552 52.835 10.9043C53.3317 10.5488 54.013 10.3711 54.8789 10.3711C55.6855 10.3711 56.474 10.5352 57.2441 10.8633L56.8408 11.7861C56.0889 11.4762 55.4076 11.3213 54.7969 11.3213C54.2591 11.3213 53.8535 11.4056 53.5801 11.5742C53.3066 11.7428 53.1699 11.9753 53.1699 12.2715C53.1699 12.472 53.2201 12.6429 53.3203 12.7842C53.4251 12.9255 53.5915 13.0599 53.8193 13.1875C54.0472 13.3151 54.4847 13.4997 55.1318 13.7412C56.0205 14.0648 56.6198 14.3906 56.9297 14.7188C57.2441 15.0469 57.4014 15.4593 57.4014 15.9561ZM64.0869 15.9561C64.0869 16.6533 63.8271 17.1911 63.3076 17.5693C62.7881 17.9476 62.0589 18.1367 61.1201 18.1367C60.1266 18.1367 59.3519 17.9795 58.7959 17.665V16.6123C59.1559 16.7946 59.541 16.9382 59.9512 17.043C60.3659 17.1478 60.7646 17.2002 61.1475 17.2002C61.7399 17.2002 62.1956 17.1068 62.5146 16.9199C62.8337 16.7285 62.9932 16.4391 62.9932 16.0518C62.9932 15.7601 62.8656 15.5117 62.6104 15.3066C62.3597 15.097 61.8675 14.8509 61.1338 14.5684C60.4365 14.3086 59.9398 14.083 59.6436 13.8916C59.3519 13.6956 59.1331 13.4746 58.9873 13.2285C58.846 12.9824 58.7754 12.6885 58.7754 12.3467C58.7754 11.736 59.0238 11.2552 59.5205 10.9043C60.0173 10.5488 60.6986 10.3711 61.5645 10.3711C62.3711 10.3711 63.1595 10.5352 63.9297 10.8633L63.5264 11.7861C62.7744 11.4762 62.0931 11.3213 61.4824 11.3213C60.9447 11.3213 60.5391 11.4056 60.2656 11.5742C59.9922 11.7428 59.8555 11.9753 59.8555 12.2715C59.8555 12.472 59.9056 12.6429 60.0059 12.7842C60.1107 12.9255 60.277 13.0599 60.5049 13.1875C60.7327 13.3151 61.1702 13.4997 61.8174 13.7412C62.7061 14.0648 63.3053 14.3906 63.6152 14.7188C63.9297 15.0469 64.0869 15.4593 64.0869 15.9561ZM75.3867 15.3408C75.3867 16.2204 75.0677 16.9062 74.4297 17.3984C73.7917 17.8906 72.9258 18.1367 71.832 18.1367C70.6471 18.1367 69.7357 17.984 69.0977 17.6787V16.5576C69.5078 16.7308 69.9544 16.8675 70.4375 16.9678C70.9206 17.068 71.3991 17.1182 71.873 17.1182C72.6478 17.1182 73.2311 16.9723 73.623 16.6807C74.015 16.3844 74.2109 15.9743 74.2109 15.4502C74.2109 15.1038 74.1403 14.8213 73.999 14.6025C73.8623 14.3792 73.6299 14.1742 73.3018 13.9873C72.9782 13.8005 72.4837 13.5885 71.8184 13.3516C70.8887 13.0189 70.2233 12.6247 69.8223 12.1689C69.4258 11.7132 69.2275 11.1185 69.2275 10.3848C69.2275 9.61458 69.5169 9.00163 70.0957 8.5459C70.6745 8.09017 71.4401 7.8623 72.3926 7.8623C73.3861 7.8623 74.2998 8.0446 75.1338 8.40918L74.7715 9.4209C73.9466 9.07454 73.1445 8.90137 72.3652 8.90137C71.75 8.90137 71.2692 9.03353 70.9229 9.29785C70.5765 9.56217 70.4033 9.92904 70.4033 10.3984C70.4033 10.7448 70.4671 11.0296 70.5947 11.2529C70.7223 11.4717 70.9365 11.6745 71.2373 11.8613C71.5426 12.0436 72.0075 12.2464 72.6318 12.4697C73.68 12.8434 74.4001 13.2445 74.792 13.6729C75.1885 14.1012 75.3867 14.6572 75.3867 15.3408ZM78.3809 14.165C78.5768 13.887 78.8753 13.5225 79.2764 13.0713L81.6963 10.5078H83.043L80.0078 13.7002L83.2549 18H81.8809L79.2354 14.459L78.3809 15.1973V18H77.2598V7.36328H78.3809V13.0029C78.3809 13.2536 78.3626 13.641 78.3262 14.165H78.3809ZM85.75 18H84.6152V10.5078H85.75V18ZM84.5195 8.47754C84.5195 8.21777 84.5833 8.02865 84.7109 7.91016C84.8385 7.78711 84.998 7.72559 85.1895 7.72559C85.3717 7.72559 85.529 7.78711 85.6611 7.91016C85.7933 8.0332 85.8594 8.22233 85.8594 8.47754C85.8594 8.73275 85.7933 8.92415 85.6611 9.05176C85.529 9.1748 85.3717 9.23633 85.1895 9.23633C84.998 9.23633 84.8385 9.1748 84.7109 9.05176C84.5833 8.92415 84.5195 8.73275 84.5195 8.47754ZM100.687 18H99.5381L97.5215 11.3076C97.4258 11.0114 97.3187 10.6377 97.2002 10.1865C97.0817 9.73535 97.0202 9.46419 97.0156 9.37305C96.9154 9.97461 96.7559 10.6331 96.5371 11.3486L94.582 18H93.4336L90.7744 8.00586H92.0049L93.584 14.1787C93.8027 15.0446 93.9622 15.8285 94.0625 16.5303C94.1855 15.6963 94.3678 14.8805 94.6094 14.083L96.4004 8.00586H97.6309L99.5107 14.1377C99.7295 14.8441 99.9141 15.6416 100.064 16.5303C100.151 15.8831 100.315 15.0947 100.557 14.165L102.129 8.00586H103.359L100.687 18ZM107.919 18.1367C106.812 18.1367 105.937 17.7995 105.294 17.125C104.656 16.4505 104.337 15.514 104.337 14.3154C104.337 13.1077 104.633 12.1484 105.226 11.4375C105.823 10.7266 106.622 10.3711 107.625 10.3711C108.564 10.3711 109.307 10.681 109.854 11.3008C110.4 11.916 110.674 12.7295 110.674 13.7412V14.459H105.513C105.535 15.3385 105.757 16.0062 106.176 16.4619C106.6 16.9176 107.194 17.1455 107.96 17.1455C108.767 17.1455 109.564 16.9769 110.353 16.6396V17.6514C109.951 17.8245 109.571 17.9476 109.211 18.0205C108.855 18.098 108.425 18.1367 107.919 18.1367ZM107.611 11.3213C107.01 11.3213 106.529 11.5173 106.169 11.9092C105.813 12.3011 105.604 12.8434 105.54 13.5361H109.457C109.457 12.8206 109.298 12.2738 108.979 11.8955C108.66 11.5127 108.204 11.3213 107.611 11.3213ZM115.78 18.1367C114.673 18.1367 113.798 17.7995 113.155 17.125C112.517 16.4505 112.198 15.514 112.198 14.3154C112.198 13.1077 112.494 12.1484 113.087 11.4375C113.684 10.7266 114.484 10.3711 115.486 10.3711C116.425 10.3711 117.168 10.681 117.715 11.3008C118.262 11.916 118.535 12.7295 118.535 13.7412V14.459H113.374C113.397 15.3385 113.618 16.0062 114.037 16.4619C114.461 16.9176 115.056 17.1455 115.821 17.1455C116.628 17.1455 117.425 16.9769 118.214 16.6396V17.6514C117.813 17.8245 117.432 17.9476 117.072 18.0205C116.717 18.098 116.286 18.1367 115.78 18.1367ZM115.473 11.3213C114.871 11.3213 114.39 11.5173 114.03 11.9092C113.675 12.3011 113.465 12.8434 113.401 13.5361H117.318C117.318 12.8206 117.159 12.2738 116.84 11.8955C116.521 11.5127 116.065 11.3213 115.473 11.3213ZM121.598 14.165C121.794 13.887 122.092 13.5225 122.493 13.0713L124.913 10.5078H126.26L123.225 13.7002L126.472 18H125.098L122.452 14.459L121.598 15.1973V18H120.477V7.36328H121.598V13.0029C121.598 13.2536 121.579 13.641 121.543 14.165H121.598Z" fill="black" fill-opacity="0.6"/>
</svg>
