<svg width="109" height="26" viewBox="0 0 109 26" fill="none" xmlns="http://www.w3.org/2000/svg">
<rect width="109" height="26" fill="black" fill-opacity="0"/>
<path d="M0 0H103L109 13L103 26H0V0Z" fill="#FFEC96"/>
<path d="M12.7969 18L9.40625 9.14062H9.35156C9.41536 9.84245 9.44727 10.6764 9.44727 11.6426V18H8.37402V8.00586H10.124L13.2891 16.25H13.3438L16.5361 8.00586H18.2725V18H17.1104V11.5605C17.1104 10.8223 17.1423 10.0202 17.2061 9.1543H17.1514L13.7334 18H12.7969ZM25.457 18L25.2314 16.9336H25.1768C24.8031 17.403 24.4294 17.722 24.0557 17.8906C23.6865 18.0547 23.224 18.1367 22.668 18.1367C21.9251 18.1367 21.3418 17.9453 20.918 17.5625C20.4987 17.1797 20.2891 16.6351 20.2891 15.9287C20.2891 14.4157 21.499 13.6227 23.9189 13.5498L25.1904 13.5088V13.0439C25.1904 12.4561 25.0628 12.0231 24.8076 11.7451C24.557 11.4626 24.1536 11.3213 23.5977 11.3213C22.9733 11.3213 22.2669 11.5127 21.4785 11.8955L21.1299 11.0273C21.499 10.8268 21.9023 10.6696 22.3398 10.5557C22.7819 10.4417 23.224 10.3848 23.666 10.3848C24.5592 10.3848 25.2201 10.583 25.6484 10.9795C26.0814 11.376 26.2979 12.0117 26.2979 12.8867V18H25.457ZM22.8936 17.2002C23.5999 17.2002 24.1536 17.0065 24.5547 16.6191C24.9603 16.2318 25.1631 15.6895 25.1631 14.9922V14.3154L24.0283 14.3633C23.126 14.3952 22.4743 14.5365 22.0732 14.7871C21.6768 15.0332 21.4785 15.4183 21.4785 15.9424C21.4785 16.3525 21.6016 16.6647 21.8477 16.8789C22.0983 17.0931 22.4469 17.2002 22.8936 17.2002ZM31.6367 18.1367C30.5521 18.1367 29.7113 17.804 29.1143 17.1387C28.5218 16.4688 28.2256 15.5231 28.2256 14.3018C28.2256 13.0485 28.5264 12.0801 29.1279 11.3965C29.734 10.7129 30.5954 10.3711 31.7119 10.3711C32.0719 10.3711 32.432 10.4098 32.792 10.4873C33.152 10.5648 33.4346 10.6559 33.6396 10.7607L33.291 11.7246C33.0404 11.6243 32.7669 11.5423 32.4707 11.4785C32.1745 11.4102 31.9124 11.376 31.6846 11.376C30.1624 11.376 29.4014 12.3467 29.4014 14.2881C29.4014 15.2087 29.5859 15.915 29.9551 16.4072C30.3288 16.8994 30.8802 17.1455 31.6094 17.1455C32.2337 17.1455 32.874 17.0111 33.5303 16.7422V17.7471C33.029 18.0068 32.3978 18.1367 31.6367 18.1367ZM40.3662 11.4785H37.9326V18H36.7979V11.4785H34.3916V10.5078H40.3662V11.4785ZM45.0146 18.1367C43.9072 18.1367 43.0322 17.7995 42.3896 17.125C41.7516 16.4505 41.4326 15.514 41.4326 14.3154C41.4326 13.1077 41.7288 12.1484 42.3213 11.4375C42.9183 10.7266 43.7181 10.3711 44.7207 10.3711C45.6595 10.3711 46.4023 10.681 46.9492 11.3008C47.4961 11.916 47.7695 12.7295 47.7695 13.7412V14.459H42.6084C42.6312 15.3385 42.8522 16.0062 43.2715 16.4619C43.6953 16.9176 44.29 17.1455 45.0557 17.1455C45.8623 17.1455 46.6598 16.9769 47.4482 16.6396V17.6514C47.0472 17.8245 46.6667 17.9476 46.3066 18.0205C45.9512 18.098 45.5205 18.1367 45.0146 18.1367ZM44.707 11.3213C44.1055 11.3213 43.6247 11.5173 43.2646 11.9092C42.9092 12.3011 42.6995 12.8434 42.6357 13.5361H46.5527C46.5527 12.8206 46.3932 12.2738 46.0742 11.8955C45.7552 11.5127 45.2995 11.3213 44.707 11.3213ZM53.1973 18.1367C52.7096 18.1367 52.263 18.0479 51.8574 17.8701C51.4564 17.6878 51.1191 17.4098 50.8457 17.0361H50.7637C50.8184 17.4736 50.8457 17.8883 50.8457 18.2803V21.3633H49.7109V10.5078H50.6338L50.791 11.5332H50.8457C51.1374 11.123 51.4769 10.8268 51.8643 10.6445C52.2516 10.4622 52.696 10.3711 53.1973 10.3711C54.1908 10.3711 54.9564 10.7106 55.4941 11.3896C56.0365 12.0687 56.3076 13.0212 56.3076 14.2471C56.3076 15.4775 56.0319 16.4346 55.4805 17.1182C54.9336 17.7972 54.1725 18.1367 53.1973 18.1367ZM53.0332 11.335C52.2676 11.335 51.7139 11.5469 51.3721 11.9707C51.0303 12.3945 50.8548 13.069 50.8457 13.9941V14.2471C50.8457 15.2998 51.0212 16.054 51.3721 16.5098C51.723 16.9609 52.2858 17.1865 53.0605 17.1865C53.7077 17.1865 54.2135 16.9245 54.5781 16.4004C54.9473 15.8763 55.1318 15.154 55.1318 14.2334C55.1318 13.2992 54.9473 12.5837 54.5781 12.0869C54.2135 11.5856 53.6986 11.335 53.0332 11.335ZM57.668 14.7666V13.7275H61.0244V14.7666H57.668ZM67.1768 10.5078H68.4209L65.1875 14.124L68.6875 18H67.3613L63.9434 14.2061V18H62.8086V10.5078H63.9434V14.1514L67.1768 10.5078ZM75.667 18H74.5186V11.4785H72.2695C72.1465 13.1009 71.9756 14.3883 71.7568 15.3408C71.5381 16.2933 71.2533 16.9906 70.9023 17.4326C70.556 17.8747 70.1139 18.0957 69.5762 18.0957C69.3301 18.0957 69.1341 18.0684 68.9883 18.0137V17.1729C69.0885 17.2002 69.2025 17.2139 69.3301 17.2139C69.8542 17.2139 70.2712 16.6602 70.5811 15.5527C70.891 14.4453 71.1257 12.7637 71.2852 10.5078H75.667V18ZM82.6875 18L82.4619 16.9336H82.4072C82.0335 17.403 81.6598 17.722 81.2861 17.8906C80.917 18.0547 80.4544 18.1367 79.8984 18.1367C79.1556 18.1367 78.5723 17.9453 78.1484 17.5625C77.7292 17.1797 77.5195 16.6351 77.5195 15.9287C77.5195 14.4157 78.7295 13.6227 81.1494 13.5498L82.4209 13.5088V13.0439C82.4209 12.4561 82.2933 12.0231 82.0381 11.7451C81.7874 11.4626 81.3841 11.3213 80.8281 11.3213C80.2038 11.3213 79.4974 11.5127 78.709 11.8955L78.3604 11.0273C78.7295 10.8268 79.1328 10.6696 79.5703 10.5557C80.0124 10.4417 80.4544 10.3848 80.8965 10.3848C81.7897 10.3848 82.4505 10.583 82.8789 10.9795C83.3118 11.376 83.5283 12.0117 83.5283 12.8867V18H82.6875ZM80.124 17.2002C80.8304 17.2002 81.3841 17.0065 81.7852 16.6191C82.1908 16.2318 82.3936 15.6895 82.3936 14.9922V14.3154L81.2588 14.3633C80.3564 14.3952 79.7048 14.5365 79.3037 14.7871C78.9072 15.0332 78.709 15.4183 78.709 15.9424C78.709 16.3525 78.832 16.6647 79.0781 16.8789C79.3288 17.0931 79.6774 17.2002 80.124 17.2002ZM88.8672 18.1367C87.7826 18.1367 86.9417 17.804 86.3447 17.1387C85.7523 16.4688 85.4561 15.5231 85.4561 14.3018C85.4561 13.0485 85.7568 12.0801 86.3584 11.3965C86.9645 10.7129 87.8258 10.3711 88.9424 10.3711C89.3024 10.3711 89.6624 10.4098 90.0225 10.4873C90.3825 10.5648 90.665 10.6559 90.8701 10.7607L90.5215 11.7246C90.2708 11.6243 89.9974 11.5423 89.7012 11.4785C89.4049 11.4102 89.1429 11.376 88.915 11.376C87.3929 11.376 86.6318 12.3467 86.6318 14.2881C86.6318 15.2087 86.8164 15.915 87.1855 16.4072C87.5592 16.8994 88.1107 17.1455 88.8398 17.1455C89.4642 17.1455 90.1045 17.0111 90.7607 16.7422V17.7471C90.2594 18.0068 89.6283 18.1367 88.8672 18.1367ZM95.5391 18.1367C94.4544 18.1367 93.6136 17.804 93.0166 17.1387C92.4242 16.4688 92.1279 15.5231 92.1279 14.3018C92.1279 13.0485 92.4287 12.0801 93.0303 11.3965C93.6364 10.7129 94.4977 10.3711 95.6143 10.3711C95.9743 10.3711 96.3343 10.4098 96.6943 10.4873C97.0544 10.5648 97.3369 10.6559 97.542 10.7607L97.1934 11.7246C96.9427 11.6243 96.6693 11.5423 96.373 11.4785C96.0768 11.4102 95.8148 11.376 95.5869 11.376C94.0648 11.376 93.3037 12.3467 93.3037 14.2881C93.3037 15.2087 93.4883 15.915 93.8574 16.4072C94.2311 16.8994 94.7826 17.1455 95.5117 17.1455C96.1361 17.1455 96.7764 17.0111 97.4326 16.7422V17.7471C96.9313 18.0068 96.3001 18.1367 95.5391 18.1367Z" fill="black" fill-opacity="0.65"/>
</svg>
