<svg width="180" height="26" viewBox="0 0 180 26" fill="none" xmlns="http://www.w3.org/2000/svg">
<rect width="179.5" height="26" fill="black" fill-opacity="0"/>
<path d="M0 0H173.5L179.5 13L173.5 26H0V0Z" fill="#DE2431"/>
<path d="M16.2559 20.6045H15.1484V18H8.20312V20.6045H7.0957V16.9473H7.86816C8.56999 15.7669 9.16927 14.3314 9.66602 12.6406C10.1673 10.9499 10.4453 9.40495 10.5 8.00586H14.9912V16.9473H16.2559V20.6045ZM13.8291 16.9473V9.05176H11.5527C11.4707 10.1546 11.195 11.4808 10.7256 13.0303C10.2562 14.5752 9.70931 15.8809 9.08496 16.9473H13.8291ZM23.3584 18H22.21V11.4785H19.9609C19.8379 13.1009 19.667 14.3883 19.4482 15.3408C19.2295 16.2933 18.9447 16.9906 18.5938 17.4326C18.2474 17.8747 17.8053 18.0957 17.2676 18.0957C17.0215 18.0957 16.8255 18.0684 16.6797 18.0137V17.1729C16.7799 17.2002 16.8939 17.2139 17.0215 17.2139C17.5456 17.2139 17.9626 16.6602 18.2725 15.5527C18.5824 14.4453 18.8171 12.7637 18.9766 10.5078H23.3584V18ZM26.8379 10.5078V15.2588L26.79 16.5029L26.7695 16.8926L30.8232 10.5078H32.2383V18H31.1787V13.4199L31.1992 12.5176L31.2334 11.6289L27.1865 18H25.7715V10.5078H26.8379ZM39.6963 11.4785H37.2627V18H36.1279V11.4785H33.7217V10.5078H39.6963V11.4785ZM44.3447 18.1367C43.2373 18.1367 42.3623 17.7995 41.7197 17.125C41.0817 16.4505 40.7627 15.514 40.7627 14.3154C40.7627 13.1077 41.0589 12.1484 41.6514 11.4375C42.2484 10.7266 43.0482 10.3711 44.0508 10.3711C44.9896 10.3711 45.7324 10.681 46.2793 11.3008C46.8262 11.916 47.0996 12.7295 47.0996 13.7412V14.459H41.9385C41.9613 15.3385 42.1823 16.0062 42.6016 16.4619C43.0254 16.9176 43.6201 17.1455 44.3857 17.1455C45.1924 17.1455 45.9899 16.9769 46.7783 16.6396V17.6514C46.3773 17.8245 45.9967 17.9476 45.6367 18.0205C45.2812 18.098 44.8506 18.1367 44.3447 18.1367ZM44.0371 11.3213C43.4355 11.3213 42.9548 11.5173 42.5947 11.9092C42.2393 12.3011 42.0296 12.8434 41.9658 13.5361H45.8828C45.8828 12.8206 45.7233 12.2738 45.4043 11.8955C45.0853 11.5127 44.6296 11.3213 44.0371 11.3213ZM54.626 18H53.4775V11.4785H51.2285C51.1055 13.1009 50.9346 14.3883 50.7158 15.3408C50.4971 16.2933 50.2122 16.9906 49.8613 17.4326C49.515 17.8747 49.0729 18.0957 48.5352 18.0957C48.2891 18.0957 48.0931 18.0684 47.9473 18.0137V17.1729C48.0475 17.2002 48.1615 17.2139 48.2891 17.2139C48.8132 17.2139 49.2301 16.6602 49.54 15.5527C49.8499 14.4453 50.0846 12.7637 50.2441 10.5078H54.626V18ZM58.1738 13.6045H60.4844C62.3984 13.6045 63.3555 14.3086 63.3555 15.7168C63.3555 16.4551 63.1048 17.0202 62.6035 17.4121C62.1068 17.804 61.3776 18 60.416 18H57.0391V10.5078H58.1738V13.6045ZM58.1738 14.582V17.0498H60.3613C60.9629 17.0498 61.4232 16.945 61.7422 16.7354C62.0612 16.5257 62.2207 16.209 62.2207 15.7852C62.2207 15.3704 62.0726 15.0674 61.7764 14.876C61.4847 14.68 61.0016 14.582 60.3271 14.582H58.1738ZM66.459 10.5078V13.6455H70.6562V10.5078H71.791V18H70.6562V14.623H66.459V18H65.3242V10.5078H66.459ZM78.8047 18L78.5791 16.9336H78.5244C78.1507 17.403 77.777 17.722 77.4033 17.8906C77.0342 18.0547 76.5716 18.1367 76.0156 18.1367C75.2728 18.1367 74.6895 17.9453 74.2656 17.5625C73.8464 17.1797 73.6367 16.6351 73.6367 15.9287C73.6367 14.4157 74.8467 13.6227 77.2666 13.5498L78.5381 13.5088V13.0439C78.5381 12.4561 78.4105 12.0231 78.1553 11.7451C77.9046 11.4626 77.5013 11.3213 76.9453 11.3213C76.321 11.3213 75.6146 11.5127 74.8262 11.8955L74.4775 11.0273C74.8467 10.8268 75.25 10.6696 75.6875 10.5557C76.1296 10.4417 76.5716 10.3848 77.0137 10.3848C77.9069 10.3848 78.5677 10.583 78.9961 10.9795C79.429 11.376 79.6455 12.0117 79.6455 12.8867V18H78.8047ZM76.2412 17.2002C76.9476 17.2002 77.5013 17.0065 77.9023 16.6191C78.3079 16.2318 78.5107 15.6895 78.5107 14.9922V14.3154L77.376 14.3633C76.4736 14.3952 75.8219 14.5365 75.4209 14.7871C75.0244 15.0332 74.8262 15.4183 74.8262 15.9424C74.8262 16.3525 74.9492 16.6647 75.1953 16.8789C75.446 17.0931 75.7946 17.2002 76.2412 17.2002ZM82.3662 18H81.04L83.1934 14.835C82.6146 14.7074 82.1702 14.4613 81.8604 14.0967C81.555 13.7275 81.4023 13.265 81.4023 12.709C81.4023 12.0254 81.6325 11.4876 82.0928 11.0957C82.5531 10.7038 83.1956 10.5078 84.0205 10.5078H87.3564V18H86.2217V15.0059H84.3281L82.3662 18ZM82.5098 12.7227C82.5098 13.5885 83.1387 14.0215 84.3965 14.0215H86.2217V11.4922H84.1641C83.0612 11.4922 82.5098 11.9023 82.5098 12.7227ZM94.541 18H93.4062V10.5078H99.6953V18H98.5469V11.4922H94.541V18ZM105.588 18.1367C105.1 18.1367 104.654 18.0479 104.248 17.8701C103.847 17.6878 103.51 17.4098 103.236 17.0361H103.154C103.209 17.4736 103.236 17.8883 103.236 18.2803V21.3633H102.102V10.5078H103.024L103.182 11.5332H103.236C103.528 11.123 103.868 10.8268 104.255 10.6445C104.642 10.4622 105.087 10.3711 105.588 10.3711C106.581 10.3711 107.347 10.7106 107.885 11.3896C108.427 12.0687 108.698 13.0212 108.698 14.2471C108.698 15.4775 108.423 16.4346 107.871 17.1182C107.324 17.7972 106.563 18.1367 105.588 18.1367ZM105.424 11.335C104.658 11.335 104.104 11.5469 103.763 11.9707C103.421 12.3945 103.245 13.069 103.236 13.9941V14.2471C103.236 15.2998 103.412 16.054 103.763 16.5098C104.114 16.9609 104.676 17.1865 105.451 17.1865C106.098 17.1865 106.604 16.9245 106.969 16.4004C107.338 15.8763 107.522 15.154 107.522 14.2334C107.522 13.2992 107.338 12.5837 106.969 12.0869C106.604 11.5856 106.089 11.335 105.424 11.335ZM117.154 14.2471C117.154 15.4684 116.847 16.4232 116.231 17.1113C115.616 17.7949 114.766 18.1367 113.682 18.1367C113.012 18.1367 112.417 17.9795 111.897 17.665C111.378 17.3506 110.977 16.8994 110.694 16.3115C110.412 15.7236 110.271 15.0355 110.271 14.2471C110.271 13.0257 110.576 12.0755 111.187 11.3965C111.797 10.7129 112.645 10.3711 113.729 10.3711C114.778 10.3711 115.609 10.7197 116.225 11.417C116.844 12.1143 117.154 13.0576 117.154 14.2471ZM111.446 14.2471C111.446 15.2041 111.638 15.9333 112.021 16.4346C112.403 16.9359 112.966 17.1865 113.709 17.1865C114.452 17.1865 115.015 16.9382 115.397 16.4414C115.785 15.9401 115.979 15.2087 115.979 14.2471C115.979 13.2946 115.785 12.5723 115.397 12.0801C115.015 11.5833 114.447 11.335 113.695 11.335C112.952 11.335 112.392 11.5788 112.014 12.0664C111.635 12.554 111.446 13.2809 111.446 14.2471ZM123.662 11.4785H120.285V18H119.15V10.5078H123.662V11.4785ZM128.639 18.1367C128.151 18.1367 127.704 18.0479 127.299 17.8701C126.898 17.6878 126.561 17.4098 126.287 17.0361H126.205C126.26 17.4736 126.287 17.8883 126.287 18.2803V21.3633H125.152V10.5078H126.075L126.232 11.5332H126.287C126.579 11.123 126.918 10.8268 127.306 10.6445C127.693 10.4622 128.137 10.3711 128.639 10.3711C129.632 10.3711 130.398 10.7106 130.936 11.3896C131.478 12.0687 131.749 13.0212 131.749 14.2471C131.749 15.4775 131.473 16.4346 130.922 17.1182C130.375 17.7972 129.614 18.1367 128.639 18.1367ZM128.475 11.335C127.709 11.335 127.155 11.5469 126.813 11.9707C126.472 12.3945 126.296 13.069 126.287 13.9941V14.2471C126.287 15.2998 126.463 16.054 126.813 16.5098C127.164 16.9609 127.727 17.1865 128.502 17.1865C129.149 17.1865 129.655 16.9245 130.02 16.4004C130.389 15.8763 130.573 15.154 130.573 14.2334C130.573 13.2992 130.389 12.5837 130.02 12.0869C129.655 11.5856 129.14 11.335 128.475 11.335ZM138.346 18L138.12 16.9336H138.065C137.692 17.403 137.318 17.722 136.944 17.8906C136.575 18.0547 136.113 18.1367 135.557 18.1367C134.814 18.1367 134.23 17.9453 133.807 17.5625C133.387 17.1797 133.178 16.6351 133.178 15.9287C133.178 14.4157 134.388 13.6227 136.808 13.5498L138.079 13.5088V13.0439C138.079 12.4561 137.951 12.0231 137.696 11.7451C137.446 11.4626 137.042 11.3213 136.486 11.3213C135.862 11.3213 135.156 11.5127 134.367 11.8955L134.019 11.0273C134.388 10.8268 134.791 10.6696 135.229 10.5557C135.671 10.4417 136.113 10.3848 136.555 10.3848C137.448 10.3848 138.109 10.583 138.537 10.9795C138.97 11.376 139.187 12.0117 139.187 12.8867V18H138.346ZM135.782 17.2002C136.489 17.2002 137.042 17.0065 137.443 16.6191C137.849 16.2318 138.052 15.6895 138.052 14.9922V14.3154L136.917 14.3633C136.015 14.3952 135.363 14.5365 134.962 14.7871C134.565 15.0332 134.367 15.4183 134.367 15.9424C134.367 16.3525 134.49 16.6647 134.736 16.8789C134.987 17.0931 135.336 17.2002 135.782 17.2002ZM145.421 16.9062L145.633 16.2705L145.927 15.4639L147.957 10.5215H149.399V18H148.395V11.8135L148.258 12.21L147.861 13.2559L145.927 18H144.977L143.042 13.2422C142.8 12.6315 142.634 12.1553 142.543 11.8135V18H141.531V10.5215H142.919L144.881 15.2725C145.077 15.7738 145.257 16.3184 145.421 16.9062ZM155.716 16.9062L155.928 16.2705L156.222 15.4639L158.252 10.5215H159.694V18H158.689V11.8135L158.553 12.21L158.156 13.2559L156.222 18H155.271L153.337 13.2422C153.095 12.6315 152.929 12.1553 152.838 11.8135V18H151.826V10.5215H153.214L155.176 15.2725C155.372 15.7738 155.552 16.3184 155.716 16.9062ZM166.729 18L166.503 16.9336H166.448C166.075 17.403 165.701 17.722 165.327 17.8906C164.958 18.0547 164.495 18.1367 163.939 18.1367C163.197 18.1367 162.613 17.9453 162.189 17.5625C161.77 17.1797 161.561 16.6351 161.561 15.9287C161.561 14.4157 162.771 13.6227 165.19 13.5498L166.462 13.5088V13.0439C166.462 12.4561 166.334 12.0231 166.079 11.7451C165.828 11.4626 165.425 11.3213 164.869 11.3213C164.245 11.3213 163.538 11.5127 162.75 11.8955L162.401 11.0273C162.771 10.8268 163.174 10.6696 163.611 10.5557C164.053 10.4417 164.495 10.3848 164.938 10.3848C165.831 10.3848 166.492 10.583 166.92 10.9795C167.353 11.376 167.569 12.0117 167.569 12.8867V18H166.729ZM164.165 17.2002C164.871 17.2002 165.425 17.0065 165.826 16.6191C166.232 16.2318 166.435 15.6895 166.435 14.9922V14.3154L165.3 14.3633C164.397 14.3952 163.746 14.5365 163.345 14.7871C162.948 15.0332 162.75 15.4183 162.75 15.9424C162.75 16.3525 162.873 16.6647 163.119 16.8789C163.37 17.0931 163.718 17.2002 164.165 17.2002Z" fill="white" fill-opacity="0.85"/>
</svg>
