<svg width="203" height="26" viewBox="0 0 203 26" fill="none" xmlns="http://www.w3.org/2000/svg">
<rect width="203" height="26" fill="black" fill-opacity="0"/>
<path d="M0 0H188L194 13L188 26H0V0Z" fill="#DE2431"/>
<path fill-rule="evenodd" clip-rule="evenodd" d="M192 26H197L203 13L197 0H192L198 13L192 26Z" fill="#DE2431"/>
<path d="M16.2559 20.6045H15.1484V18H8.20312V20.6045H7.0957V16.9473H7.86816C8.56999 15.7669 9.16927 14.3314 9.66602 12.6406C10.1673 10.9499 10.4453 9.40495 10.5 8.00586H14.9912V16.9473H16.2559V20.6045ZM13.8291 16.9473V9.05176H11.5527C11.4707 10.1546 11.195 11.4808 10.7256 13.0303C10.2562 14.5752 9.70931 15.8809 9.08496 16.9473H13.8291ZM23.8506 12.3877C23.8506 12.8753 23.7093 13.2467 23.4268 13.502C23.1488 13.7526 22.7568 13.9212 22.251 14.0078V14.0693C22.889 14.1559 23.3538 14.3428 23.6455 14.6299C23.9417 14.917 24.0898 15.3135 24.0898 15.8193C24.0898 16.5166 23.8324 17.0544 23.3174 17.4326C22.807 17.8109 22.0596 18 21.0752 18H17.7734V10.5078H21.0615C22.9209 10.5078 23.8506 11.1344 23.8506 12.3877ZM22.9551 15.7441C22.9551 15.3385 22.8001 15.0446 22.4902 14.8623C22.1849 14.6755 21.6768 14.582 20.9658 14.582H18.9082V17.0498H20.9932C22.3011 17.0498 22.9551 16.6146 22.9551 15.7441ZM22.7432 12.4971C22.7432 12.1325 22.6019 11.875 22.3193 11.7246C22.0413 11.5697 21.6175 11.4922 21.0479 11.4922H18.9082V13.6045H20.8291C21.5309 13.6045 22.0254 13.5179 22.3125 13.3447C22.5996 13.1715 22.7432 12.889 22.7432 12.4971ZM24.5547 10.5078H25.7715L27.4121 14.7803C27.7721 15.7555 27.9954 16.4596 28.082 16.8926H28.1367C28.196 16.6602 28.319 16.2637 28.5059 15.7031C28.6973 15.138 29.3171 13.4062 30.3652 10.5078H31.582L28.3623 19.0391C28.0433 19.8822 27.6696 20.4792 27.2412 20.8301C26.8174 21.1855 26.2956 21.3633 25.6758 21.3633C25.3294 21.3633 24.9876 21.3245 24.6504 21.2471V20.3379C24.901 20.3926 25.1813 20.4199 25.4912 20.4199C26.2705 20.4199 26.8265 19.9824 27.1592 19.1074L27.5762 18.041L24.5547 10.5078ZM34.6035 14.165L31.999 10.5078H33.291L35.2666 13.3789L37.2354 10.5078H38.5137L35.9092 14.165L38.6504 18H37.3652L35.2666 14.9648L33.1475 18H31.8623L34.6035 14.165ZM44.0303 16.9062L44.2422 16.2705L44.5361 15.4639L46.5664 10.5215H48.0088V18H47.0039V11.8135L46.8672 12.21L46.4707 13.2559L44.5361 18H43.5859L41.6514 13.2422C41.4098 12.6315 41.2435 12.1553 41.1523 11.8135V18H40.1406V10.5215H41.5283L43.4902 15.2725C43.6862 15.7738 43.8662 16.3184 44.0303 16.9062ZM53.6006 18.1367C52.4932 18.1367 51.6182 17.7995 50.9756 17.125C50.3376 16.4505 50.0186 15.514 50.0186 14.3154C50.0186 13.1077 50.3148 12.1484 50.9072 11.4375C51.5042 10.7266 52.304 10.3711 53.3066 10.3711C54.2454 10.3711 54.9883 10.681 55.5352 11.3008C56.082 11.916 56.3555 12.7295 56.3555 13.7412V14.459H51.1943C51.2171 15.3385 51.4382 16.0062 51.8574 16.4619C52.2812 16.9176 52.876 17.1455 53.6416 17.1455C54.4482 17.1455 55.2458 16.9769 56.0342 16.6396V17.6514C55.6331 17.8245 55.2526 17.9476 54.8926 18.0205C54.5371 18.098 54.1064 18.1367 53.6006 18.1367ZM53.293 11.3213C52.6914 11.3213 52.2106 11.5173 51.8506 11.9092C51.4951 12.3011 51.2855 12.8434 51.2217 13.5361H55.1387C55.1387 12.8206 54.9792 12.2738 54.6602 11.8955C54.3411 11.5127 53.8854 11.3213 53.293 11.3213ZM61.291 18.1367C60.2064 18.1367 59.3656 17.804 58.7686 17.1387C58.1761 16.4688 57.8799 15.5231 57.8799 14.3018C57.8799 13.0485 58.1807 12.0801 58.7822 11.3965C59.3883 10.7129 60.2497 10.3711 61.3662 10.3711C61.7262 10.3711 62.0863 10.4098 62.4463 10.4873C62.8063 10.5648 63.0889 10.6559 63.2939 10.7607L62.9453 11.7246C62.6947 11.6243 62.4212 11.5423 62.125 11.4785C61.8288 11.4102 61.5667 11.376 61.3389 11.376C59.8167 11.376 59.0557 12.3467 59.0557 14.2881C59.0557 15.2087 59.2402 15.915 59.6094 16.4072C59.9831 16.8994 60.5345 17.1455 61.2637 17.1455C61.888 17.1455 62.5283 17.0111 63.1846 16.7422V17.7471C62.6833 18.0068 62.0521 18.1367 61.291 18.1367ZM65.3447 18H64.0186L66.1719 14.835C65.5931 14.7074 65.1488 14.4613 64.8389 14.0967C64.5335 13.7275 64.3809 13.265 64.3809 12.709C64.3809 12.0254 64.611 11.4876 65.0713 11.0957C65.5316 10.7038 66.1742 10.5078 66.999 10.5078H70.335V18H69.2002V15.0059H67.3066L65.3447 18ZM65.4883 12.7227C65.4883 13.5885 66.1172 14.0215 67.375 14.0215H69.2002V11.4922H67.1426C66.0397 11.4922 65.4883 11.9023 65.4883 12.7227ZM73.7461 10.5078V13.2422C73.7461 14.1172 74.2451 14.5547 75.2432 14.5547C75.6579 14.5547 76.0544 14.4909 76.4326 14.3633C76.8109 14.2357 77.2393 14.0192 77.7178 13.7139V10.5078H78.8525V18H77.7178V14.6094C77.2393 14.9375 76.7949 15.1699 76.3848 15.3066C75.9792 15.4388 75.5189 15.5049 75.0039 15.5049C74.2565 15.5049 73.6709 15.3089 73.2471 14.917C72.8232 14.5251 72.6113 13.9941 72.6113 13.3242V10.5078H73.7461ZM82.4004 10.5078V13.6455H86.5977V10.5078H87.7324V18H86.5977V14.623H82.4004V18H81.2656V10.5078H82.4004ZM94.7461 18L94.5205 16.9336H94.4658C94.0921 17.403 93.7184 17.722 93.3447 17.8906C92.9756 18.0547 92.513 18.1367 91.957 18.1367C91.2142 18.1367 90.6309 17.9453 90.207 17.5625C89.7878 17.1797 89.5781 16.6351 89.5781 15.9287C89.5781 14.4157 90.7881 13.6227 93.208 13.5498L94.4795 13.5088V13.0439C94.4795 12.4561 94.3519 12.0231 94.0967 11.7451C93.846 11.4626 93.4427 11.3213 92.8867 11.3213C92.2624 11.3213 91.556 11.5127 90.7676 11.8955L90.4189 11.0273C90.7881 10.8268 91.1914 10.6696 91.6289 10.5557C92.071 10.4417 92.513 10.3848 92.9551 10.3848C93.8483 10.3848 94.5091 10.583 94.9375 10.9795C95.3704 11.376 95.5869 12.0117 95.5869 12.8867V18H94.7461ZM92.1826 17.2002C92.889 17.2002 93.4427 17.0065 93.8438 16.6191C94.2493 16.2318 94.4521 15.6895 94.4521 14.9922V14.3154L93.3174 14.3633C92.415 14.3952 91.7633 14.5365 91.3623 14.7871C90.9658 15.0332 90.7676 15.4183 90.7676 15.9424C90.7676 16.3525 90.8906 16.6647 91.1367 16.8789C91.3874 17.0931 91.736 17.2002 92.1826 17.2002ZM98.3076 18H96.9814L99.1348 14.835C98.556 14.7074 98.1117 14.4613 97.8018 14.0967C97.4964 13.7275 97.3438 13.265 97.3438 12.709C97.3438 12.0254 97.5739 11.4876 98.0342 11.0957C98.4945 10.7038 99.137 10.5078 99.9619 10.5078H103.298V18H102.163V15.0059H100.27L98.3076 18ZM98.4512 12.7227C98.4512 13.5885 99.0801 14.0215 100.338 14.0215H102.163V11.4922H100.105C99.0026 11.4922 98.4512 11.9023 98.4512 12.7227ZM110.482 18H109.348V10.5078H115.637V18H114.488V11.4922H110.482V18ZM121.529 18.1367C121.042 18.1367 120.595 18.0479 120.189 17.8701C119.788 17.6878 119.451 17.4098 119.178 17.0361H119.096C119.15 17.4736 119.178 17.8883 119.178 18.2803V21.3633H118.043V10.5078H118.966L119.123 11.5332H119.178C119.469 11.123 119.809 10.8268 120.196 10.6445C120.584 10.4622 121.028 10.3711 121.529 10.3711C122.523 10.3711 123.288 10.7106 123.826 11.3896C124.368 12.0687 124.64 13.0212 124.64 14.2471C124.64 15.4775 124.364 16.4346 123.812 17.1182C123.266 17.7972 122.505 18.1367 121.529 18.1367ZM121.365 11.335C120.6 11.335 120.046 11.5469 119.704 11.9707C119.362 12.3945 119.187 13.069 119.178 13.9941V14.2471C119.178 15.2998 119.353 16.054 119.704 16.5098C120.055 16.9609 120.618 17.1865 121.393 17.1865C122.04 17.1865 122.546 16.9245 122.91 16.4004C123.279 15.8763 123.464 15.154 123.464 14.2334C123.464 13.2992 123.279 12.5837 122.91 12.0869C122.546 11.5856 122.031 11.335 121.365 11.335ZM133.096 14.2471C133.096 15.4684 132.788 16.4232 132.173 17.1113C131.558 17.7949 130.708 18.1367 129.623 18.1367C128.953 18.1367 128.358 17.9795 127.839 17.665C127.319 17.3506 126.918 16.8994 126.636 16.3115C126.353 15.7236 126.212 15.0355 126.212 14.2471C126.212 13.0257 126.517 12.0755 127.128 11.3965C127.739 10.7129 128.586 10.3711 129.671 10.3711C130.719 10.3711 131.551 10.7197 132.166 11.417C132.786 12.1143 133.096 13.0576 133.096 14.2471ZM127.388 14.2471C127.388 15.2041 127.579 15.9333 127.962 16.4346C128.345 16.9359 128.908 17.1865 129.65 17.1865C130.393 17.1865 130.956 16.9382 131.339 16.4414C131.726 15.9401 131.92 15.2087 131.92 14.2471C131.92 13.2946 131.726 12.5723 131.339 12.0801C130.956 11.5833 130.389 11.335 129.637 11.335C128.894 11.335 128.333 11.5788 127.955 12.0664C127.577 12.554 127.388 13.2809 127.388 14.2471ZM139.604 11.4785H136.227V18H135.092V10.5078H139.604V11.4785ZM144.58 18.1367C144.092 18.1367 143.646 18.0479 143.24 17.8701C142.839 17.6878 142.502 17.4098 142.229 17.0361H142.146C142.201 17.4736 142.229 17.8883 142.229 18.2803V21.3633H141.094V10.5078H142.017L142.174 11.5332H142.229C142.52 11.123 142.86 10.8268 143.247 10.6445C143.634 10.4622 144.079 10.3711 144.58 10.3711C145.574 10.3711 146.339 10.7106 146.877 11.3896C147.419 12.0687 147.69 13.0212 147.69 14.2471C147.69 15.4775 147.415 16.4346 146.863 17.1182C146.316 17.7972 145.555 18.1367 144.58 18.1367ZM144.416 11.335C143.65 11.335 143.097 11.5469 142.755 11.9707C142.413 12.3945 142.238 13.069 142.229 13.9941V14.2471C142.229 15.2998 142.404 16.054 142.755 16.5098C143.106 16.9609 143.669 17.1865 144.443 17.1865C145.09 17.1865 145.596 16.9245 145.961 16.4004C146.33 15.8763 146.515 15.154 146.515 14.2334C146.515 13.2992 146.33 12.5837 145.961 12.0869C145.596 11.5856 145.081 11.335 144.416 11.335ZM154.287 18L154.062 16.9336H154.007C153.633 17.403 153.259 17.722 152.886 17.8906C152.517 18.0547 152.054 18.1367 151.498 18.1367C150.755 18.1367 150.172 17.9453 149.748 17.5625C149.329 17.1797 149.119 16.6351 149.119 15.9287C149.119 14.4157 150.329 13.6227 152.749 13.5498L154.021 13.5088V13.0439C154.021 12.4561 153.893 12.0231 153.638 11.7451C153.387 11.4626 152.984 11.3213 152.428 11.3213C151.803 11.3213 151.097 11.5127 150.309 11.8955L149.96 11.0273C150.329 10.8268 150.732 10.6696 151.17 10.5557C151.612 10.4417 152.054 10.3848 152.496 10.3848C153.389 10.3848 154.05 10.583 154.479 10.9795C154.911 11.376 155.128 12.0117 155.128 12.8867V18H154.287ZM151.724 17.2002C152.43 17.2002 152.984 17.0065 153.385 16.6191C153.79 16.2318 153.993 15.6895 153.993 14.9922V14.3154L152.858 14.3633C151.956 14.3952 151.304 14.5365 150.903 14.7871C150.507 15.0332 150.309 15.4183 150.309 15.9424C150.309 16.3525 150.432 16.6647 150.678 16.8789C150.928 17.0931 151.277 17.2002 151.724 17.2002ZM161.362 16.9062L161.574 16.2705L161.868 15.4639L163.898 10.5215H165.341V18H164.336V11.8135L164.199 12.21L163.803 13.2559L161.868 18H160.918L158.983 13.2422C158.742 12.6315 158.576 12.1553 158.484 11.8135V18H157.473V10.5215H158.86L160.822 15.2725C161.018 15.7738 161.198 16.3184 161.362 16.9062ZM171.657 16.9062L171.869 16.2705L172.163 15.4639L174.193 10.5215H175.636V18H174.631V11.8135L174.494 12.21L174.098 13.2559L172.163 18H171.213L169.278 13.2422C169.037 12.6315 168.87 12.1553 168.779 11.8135V18H167.768V10.5215H169.155L171.117 15.2725C171.313 15.7738 171.493 16.3184 171.657 16.9062ZM182.67 18L182.444 16.9336H182.39C182.016 17.403 181.642 17.722 181.269 17.8906C180.899 18.0547 180.437 18.1367 179.881 18.1367C179.138 18.1367 178.555 17.9453 178.131 17.5625C177.712 17.1797 177.502 16.6351 177.502 15.9287C177.502 14.4157 178.712 13.6227 181.132 13.5498L182.403 13.5088V13.0439C182.403 12.4561 182.276 12.0231 182.021 11.7451C181.77 11.4626 181.367 11.3213 180.811 11.3213C180.186 11.3213 179.48 11.5127 178.691 11.8955L178.343 11.0273C178.712 10.8268 179.115 10.6696 179.553 10.5557C179.995 10.4417 180.437 10.3848 180.879 10.3848C181.772 10.3848 182.433 10.583 182.861 10.9795C183.294 11.376 183.511 12.0117 183.511 12.8867V18H182.67ZM180.106 17.2002C180.813 17.2002 181.367 17.0065 181.768 16.6191C182.173 16.2318 182.376 15.6895 182.376 14.9922V14.3154L181.241 14.3633C180.339 14.3952 179.687 14.5365 179.286 14.7871C178.89 15.0332 178.691 15.4183 178.691 15.9424C178.691 16.3525 178.814 16.6647 179.061 16.8789C179.311 17.0931 179.66 17.2002 180.106 17.2002Z" fill="white" fill-opacity="0.85"/>
</svg>
