<svg width="114" height="26" viewBox="0 0 114 26" fill="none" xmlns="http://www.w3.org/2000/svg">
<rect width="114" height="26" fill="black" fill-opacity="0"/>
<path d="M0 0H90L96 13L90 26H0V0Z" fill="#DE2431"/>
<path d="M15.832 18H14.6699V9.03809H9.53613V18H8.37402V8.00586H15.832V18ZM21.9023 18.1367C21.4147 18.1367 20.9681 18.0479 20.5625 17.8701C20.1615 17.6878 19.8242 17.4098 19.5508 17.0361H19.4688C19.5234 17.4736 19.5508 17.8883 19.5508 18.2803V21.3633H18.416V10.5078H19.3389L19.4961 11.5332H19.5508C19.8424 11.123 20.182 10.8268 20.5693 10.6445C20.9567 10.4622 21.401 10.3711 21.9023 10.3711C22.8958 10.3711 23.6615 10.7106 24.1992 11.3896C24.7415 12.0687 25.0127 13.0212 25.0127 14.2471C25.0127 15.4775 24.737 16.4346 24.1855 17.1182C23.6387 17.7972 22.8776 18.1367 21.9023 18.1367ZM21.7383 11.335C20.9727 11.335 20.4189 11.5469 20.0771 11.9707C19.7354 12.3945 19.5599 13.069 19.5508 13.9941V14.2471C19.5508 15.2998 19.7262 16.054 20.0771 16.5098C20.4281 16.9609 20.9909 17.1865 21.7656 17.1865C22.4128 17.1865 22.9186 16.9245 23.2832 16.4004C23.6523 15.8763 23.8369 15.154 23.8369 14.2334C23.8369 13.2992 23.6523 12.5837 23.2832 12.0869C22.9186 11.5856 22.4036 11.335 21.7383 11.335ZM33.4688 14.2471C33.4688 15.4684 33.1611 16.4232 32.5459 17.1113C31.9307 17.7949 31.0807 18.1367 29.9961 18.1367C29.3262 18.1367 28.7314 17.9795 28.2119 17.665C27.6924 17.3506 27.2913 16.8994 27.0088 16.3115C26.7262 15.7236 26.585 15.0355 26.585 14.2471C26.585 13.0257 26.8903 12.0755 27.501 11.3965C28.1117 10.7129 28.9593 10.3711 30.0439 10.3711C31.0921 10.3711 31.9238 10.7197 32.5391 11.417C33.1589 12.1143 33.4688 13.0576 33.4688 14.2471ZM27.7607 14.2471C27.7607 15.2041 27.9521 15.9333 28.335 16.4346C28.7178 16.9359 29.2806 17.1865 30.0234 17.1865C30.7663 17.1865 31.3291 16.9382 31.7119 16.4414C32.0993 15.9401 32.293 15.2087 32.293 14.2471C32.293 13.2946 32.0993 12.5723 31.7119 12.0801C31.3291 11.5833 30.7617 11.335 30.0098 11.335C29.2669 11.335 28.7064 11.5788 28.3281 12.0664C27.9499 12.554 27.7607 13.2809 27.7607 14.2471ZM39.9766 11.4785H36.5996V18H35.4648V10.5078H39.9766V11.4785ZM44.9531 18.1367C44.4655 18.1367 44.0189 18.0479 43.6133 17.8701C43.2122 17.6878 42.875 17.4098 42.6016 17.0361H42.5195C42.5742 17.4736 42.6016 17.8883 42.6016 18.2803V21.3633H41.4668V10.5078H42.3896L42.5469 11.5332H42.6016C42.8932 11.123 43.2327 10.8268 43.6201 10.6445C44.0075 10.4622 44.4518 10.3711 44.9531 10.3711C45.9466 10.3711 46.7122 10.7106 47.25 11.3896C47.7923 12.0687 48.0635 13.0212 48.0635 14.2471C48.0635 15.4775 47.7878 16.4346 47.2363 17.1182C46.6895 17.7972 45.9284 18.1367 44.9531 18.1367ZM44.7891 11.335C44.0234 11.335 43.4697 11.5469 43.1279 11.9707C42.7861 12.3945 42.6107 13.069 42.6016 13.9941V14.2471C42.6016 15.2998 42.777 16.054 43.1279 16.5098C43.4788 16.9609 44.0417 17.1865 44.8164 17.1865C45.4635 17.1865 45.9694 16.9245 46.334 16.4004C46.7031 15.8763 46.8877 15.154 46.8877 14.2334C46.8877 13.2992 46.7031 12.5837 46.334 12.0869C45.9694 11.5856 45.4544 11.335 44.7891 11.335ZM54.6602 18L54.4346 16.9336H54.3799C54.0062 17.403 53.6325 17.722 53.2588 17.8906C52.8896 18.0547 52.4271 18.1367 51.8711 18.1367C51.1283 18.1367 50.5449 17.9453 50.1211 17.5625C49.7018 17.1797 49.4922 16.6351 49.4922 15.9287C49.4922 14.4157 50.7021 13.6227 53.1221 13.5498L54.3936 13.5088V13.0439C54.3936 12.4561 54.266 12.0231 54.0107 11.7451C53.7601 11.4626 53.3568 11.3213 52.8008 11.3213C52.1764 11.3213 51.4701 11.5127 50.6816 11.8955L50.333 11.0273C50.7021 10.8268 51.1055 10.6696 51.543 10.5557C51.985 10.4417 52.4271 10.3848 52.8691 10.3848C53.7624 10.3848 54.4232 10.583 54.8516 10.9795C55.2845 11.376 55.501 12.0117 55.501 12.8867V18H54.6602ZM52.0967 17.2002C52.8031 17.2002 53.3568 17.0065 53.7578 16.6191C54.1634 16.2318 54.3662 15.6895 54.3662 14.9922V14.3154L53.2314 14.3633C52.3291 14.3952 51.6774 14.5365 51.2764 14.7871C50.8799 15.0332 50.6816 15.4183 50.6816 15.9424C50.6816 16.3525 50.8047 16.6647 51.0508 16.8789C51.3014 17.0931 51.6501 17.2002 52.0967 17.2002ZM61.7354 16.9062L61.9473 16.2705L62.2412 15.4639L64.2715 10.5215H65.7139V18H64.709V11.8135L64.5723 12.21L64.1758 13.2559L62.2412 18H61.291L59.3564 13.2422C59.1149 12.6315 58.9486 12.1553 58.8574 11.8135V18H57.8457V10.5215H59.2334L61.1953 15.2725C61.3913 15.7738 61.5713 16.3184 61.7354 16.9062ZM72.0303 16.9062L72.2422 16.2705L72.5361 15.4639L74.5664 10.5215H76.0088V18H75.0039V11.8135L74.8672 12.21L74.4707 13.2559L72.5361 18H71.5859L69.6514 13.2422C69.4098 12.6315 69.2435 12.1553 69.1523 11.8135V18H68.1406V10.5215H69.5283L71.4902 15.2725C71.6862 15.7738 71.8662 16.3184 72.0303 16.9062ZM83.043 18L82.8174 16.9336H82.7627C82.389 17.403 82.0153 17.722 81.6416 17.8906C81.2725 18.0547 80.8099 18.1367 80.2539 18.1367C79.5111 18.1367 78.9277 17.9453 78.5039 17.5625C78.0846 17.1797 77.875 16.6351 77.875 15.9287C77.875 14.4157 79.085 13.6227 81.5049 13.5498L82.7764 13.5088V13.0439C82.7764 12.4561 82.6488 12.0231 82.3936 11.7451C82.1429 11.4626 81.7396 11.3213 81.1836 11.3213C80.5592 11.3213 79.8529 11.5127 79.0645 11.8955L78.7158 11.0273C79.085 10.8268 79.4883 10.6696 79.9258 10.5557C80.3678 10.4417 80.8099 10.3848 81.252 10.3848C82.1452 10.3848 82.806 10.583 83.2344 10.9795C83.6673 11.376 83.8838 12.0117 83.8838 12.8867V18H83.043ZM80.4795 17.2002C81.1859 17.2002 81.7396 17.0065 82.1406 16.6191C82.5462 16.2318 82.749 15.6895 82.749 14.9922V14.3154L81.6143 14.3633C80.7119 14.3952 80.0602 14.5365 79.6592 14.7871C79.2627 15.0332 79.0645 15.4183 79.0645 15.9424C79.0645 16.3525 79.1875 16.6647 79.4336 16.8789C79.6842 17.0931 80.0329 17.2002 80.4795 17.2002Z" fill="white" fill-opacity="0.85"/>
<path fill-rule="evenodd" clip-rule="evenodd" d="M94 26H99L105 13L99 0H94L100 13L94 26Z" fill="#DE2431"/>
<path fill-rule="evenodd" clip-rule="evenodd" d="M103 26H108L114 13L108 0H103L109 13L103 26Z" fill="#DE2431"/>
</svg>
