<svg width="221" height="26" viewBox="0 0 221 26" fill="none" xmlns="http://www.w3.org/2000/svg">
<rect width="221" height="26" fill="black" fill-opacity="0"/>
<path d="M0 0H188L194 13L188 26H0V0Z" fill="#DE2431"/>
<path fill-rule="evenodd" clip-rule="evenodd" d="M192 26H197L203 13L197 0H192L198 13L192 26Z" fill="#DE2431"/>
<path fill-rule="evenodd" clip-rule="evenodd" d="M201 26H206L212 13L206 0H201L207 13L201 26Z" fill="#DE2431"/>
<path fill-rule="evenodd" clip-rule="evenodd" d="M210 26H215L221 13L215 0H210L216 13L210 26Z" fill="#DE2431"/>
<path d="M11.4502 18H10.2881V9.03809H7.12305V8.00586H14.6152V9.03809H11.4502V18ZM19.4414 18.1367C18.9538 18.1367 18.5072 18.0479 18.1016 17.8701C17.7005 17.6878 17.3633 17.4098 17.0898 17.0361H17.0078C17.0625 17.4736 17.0898 17.8883 17.0898 18.2803V21.3633H15.9551V10.5078H16.8779L17.0352 11.5332H17.0898C17.3815 11.123 17.721 10.8268 18.1084 10.6445C18.4958 10.4622 18.9401 10.3711 19.4414 10.3711C20.4349 10.3711 21.2005 10.7106 21.7383 11.3896C22.2806 12.0687 22.5518 13.0212 22.5518 14.2471C22.5518 15.4775 22.276 16.4346 21.7246 17.1182C21.1777 17.7972 20.4167 18.1367 19.4414 18.1367ZM19.2773 11.335C18.5117 11.335 17.958 11.5469 17.6162 11.9707C17.2744 12.3945 17.099 13.069 17.0898 13.9941V14.2471C17.0898 15.2998 17.2653 16.054 17.6162 16.5098C17.9671 16.9609 18.5299 17.1865 19.3047 17.1865C19.9518 17.1865 20.4577 16.9245 20.8223 16.4004C21.1914 15.8763 21.376 15.154 21.376 14.2334C21.376 13.2992 21.1914 12.5837 20.8223 12.0869C20.4577 11.5856 19.9427 11.335 19.2773 11.335ZM27.7061 18.1367C26.5986 18.1367 25.7236 17.7995 25.0811 17.125C24.443 16.4505 24.124 15.514 24.124 14.3154C24.124 13.1077 24.4202 12.1484 25.0127 11.4375C25.6097 10.7266 26.4095 10.3711 27.4121 10.3711C28.3509 10.3711 29.0938 10.681 29.6406 11.3008C30.1875 11.916 30.4609 12.7295 30.4609 13.7412V14.459H25.2998C25.3226 15.3385 25.5436 16.0062 25.9629 16.4619C26.3867 16.9176 26.9814 17.1455 27.7471 17.1455C28.5537 17.1455 29.3512 16.9769 30.1396 16.6396V17.6514C29.7386 17.8245 29.3581 17.9476 28.998 18.0205C28.6426 18.098 28.2119 18.1367 27.7061 18.1367ZM27.3984 11.3213C26.7969 11.3213 26.3161 11.5173 25.9561 11.9092C25.6006 12.3011 25.391 12.8434 25.3271 13.5361H29.2441C29.2441 12.8206 29.0846 12.2738 28.7656 11.8955C28.4466 11.5127 27.9909 11.3213 27.3984 11.3213ZM34.207 14.165L31.6025 10.5078H32.8945L34.8701 13.3789L36.8389 10.5078H38.1172L35.5127 14.165L38.2539 18H36.9688L34.8701 14.9648L32.751 18H31.4658L34.207 14.165ZM43.6338 16.9062L43.8457 16.2705L44.1396 15.4639L46.1699 10.5215H47.6123V18H46.6074V11.8135L46.4707 12.21L46.0742 13.2559L44.1396 18H43.1895L41.2549 13.2422C41.0133 12.6315 40.847 12.1553 40.7559 11.8135V18H39.7441V10.5215H41.1318L43.0938 15.2725C43.2897 15.7738 43.4697 16.3184 43.6338 16.9062ZM53.2041 18.1367C52.0967 18.1367 51.2217 17.7995 50.5791 17.125C49.9411 16.4505 49.6221 15.514 49.6221 14.3154C49.6221 13.1077 49.9183 12.1484 50.5107 11.4375C51.1077 10.7266 51.9076 10.3711 52.9102 10.3711C53.849 10.3711 54.5918 10.681 55.1387 11.3008C55.6855 11.916 55.959 12.7295 55.959 13.7412V14.459H50.7979C50.8206 15.3385 51.0417 16.0062 51.4609 16.4619C51.8848 16.9176 52.4795 17.1455 53.2451 17.1455C54.0518 17.1455 54.8493 16.9769 55.6377 16.6396V17.6514C55.2367 17.8245 54.8561 17.9476 54.4961 18.0205C54.1406 18.098 53.71 18.1367 53.2041 18.1367ZM52.8965 11.3213C52.2949 11.3213 51.8141 11.5173 51.4541 11.9092C51.0986 12.3011 50.889 12.8434 50.8252 13.5361H54.7422C54.7422 12.8206 54.5827 12.2738 54.2637 11.8955C53.9447 11.5127 53.4889 11.3213 52.8965 11.3213ZM60.8945 18.1367C59.8099 18.1367 58.9691 17.804 58.3721 17.1387C57.7796 16.4688 57.4834 15.5231 57.4834 14.3018C57.4834 13.0485 57.7842 12.0801 58.3857 11.3965C58.9919 10.7129 59.8532 10.3711 60.9697 10.3711C61.3298 10.3711 61.6898 10.4098 62.0498 10.4873C62.4098 10.5648 62.6924 10.6559 62.8975 10.7607L62.5488 11.7246C62.2982 11.6243 62.0247 11.5423 61.7285 11.4785C61.4323 11.4102 61.1702 11.376 60.9424 11.376C59.4202 11.376 58.6592 12.3467 58.6592 14.2881C58.6592 15.2087 58.8438 15.915 59.2129 16.4072C59.5866 16.8994 60.138 17.1455 60.8672 17.1455C61.4915 17.1455 62.1318 17.0111 62.7881 16.7422V17.7471C62.2868 18.0068 61.6556 18.1367 60.8945 18.1367ZM64.9482 18H63.6221L65.7754 14.835C65.1966 14.7074 64.7523 14.4613 64.4424 14.0967C64.137 13.7275 63.9844 13.265 63.9844 12.709C63.9844 12.0254 64.2145 11.4876 64.6748 11.0957C65.1351 10.7038 65.7777 10.5078 66.6025 10.5078H69.9385V18H68.8037V15.0059H66.9102L64.9482 18ZM65.0918 12.7227C65.0918 13.5885 65.7207 14.0215 66.9785 14.0215H68.8037V11.4922H66.7461C65.6432 11.4922 65.0918 11.9023 65.0918 12.7227ZM73.3496 10.5078V13.2422C73.3496 14.1172 73.8486 14.5547 74.8467 14.5547C75.2614 14.5547 75.6579 14.4909 76.0361 14.3633C76.4144 14.2357 76.8428 14.0192 77.3213 13.7139V10.5078H78.4561V18H77.3213V14.6094C76.8428 14.9375 76.3984 15.1699 75.9883 15.3066C75.5827 15.4388 75.1224 15.5049 74.6074 15.5049C73.86 15.5049 73.2744 15.3089 72.8506 14.917C72.4268 14.5251 72.2148 13.9941 72.2148 13.3242V10.5078H73.3496ZM82.0039 10.5078V13.6455H86.2012V10.5078H87.3359V18H86.2012V14.623H82.0039V18H80.8691V10.5078H82.0039ZM94.3496 18L94.124 16.9336H94.0693C93.6956 17.403 93.3219 17.722 92.9482 17.8906C92.5791 18.0547 92.1165 18.1367 91.5605 18.1367C90.8177 18.1367 90.2344 17.9453 89.8105 17.5625C89.3913 17.1797 89.1816 16.6351 89.1816 15.9287C89.1816 14.4157 90.3916 13.6227 92.8115 13.5498L94.083 13.5088V13.0439C94.083 12.4561 93.9554 12.0231 93.7002 11.7451C93.4495 11.4626 93.0462 11.3213 92.4902 11.3213C91.8659 11.3213 91.1595 11.5127 90.3711 11.8955L90.0225 11.0273C90.3916 10.8268 90.7949 10.6696 91.2324 10.5557C91.6745 10.4417 92.1165 10.3848 92.5586 10.3848C93.4518 10.3848 94.1126 10.583 94.541 10.9795C94.974 11.376 95.1904 12.0117 95.1904 12.8867V18H94.3496ZM91.7861 17.2002C92.4925 17.2002 93.0462 17.0065 93.4473 16.6191C93.8529 16.2318 94.0557 15.6895 94.0557 14.9922V14.3154L92.9209 14.3633C92.0186 14.3952 91.3669 14.5365 90.9658 14.7871C90.5693 15.0332 90.3711 15.4183 90.3711 15.9424C90.3711 16.3525 90.4941 16.6647 90.7402 16.8789C90.9909 17.0931 91.3395 17.2002 91.7861 17.2002ZM97.9111 18H96.585L98.7383 14.835C98.1595 14.7074 97.7152 14.4613 97.4053 14.0967C97.0999 13.7275 96.9473 13.265 96.9473 12.709C96.9473 12.0254 97.1774 11.4876 97.6377 11.0957C98.098 10.7038 98.7406 10.5078 99.5654 10.5078H102.901V18H101.767V15.0059H99.873L97.9111 18ZM98.0547 12.7227C98.0547 13.5885 98.6836 14.0215 99.9414 14.0215H101.767V11.4922H99.709C98.6061 11.4922 98.0547 11.9023 98.0547 12.7227ZM110.086 18H108.951V10.5078H115.24V18H114.092V11.4922H110.086V18ZM121.133 18.1367C120.645 18.1367 120.199 18.0479 119.793 17.8701C119.392 17.6878 119.055 17.4098 118.781 17.0361H118.699C118.754 17.4736 118.781 17.8883 118.781 18.2803V21.3633H117.646V10.5078H118.569L118.727 11.5332H118.781C119.073 11.123 119.412 10.8268 119.8 10.6445C120.187 10.4622 120.632 10.3711 121.133 10.3711C122.126 10.3711 122.892 10.7106 123.43 11.3896C123.972 12.0687 124.243 13.0212 124.243 14.2471C124.243 15.4775 123.967 16.4346 123.416 17.1182C122.869 17.7972 122.108 18.1367 121.133 18.1367ZM120.969 11.335C120.203 11.335 119.649 11.5469 119.308 11.9707C118.966 12.3945 118.79 13.069 118.781 13.9941V14.2471C118.781 15.2998 118.957 16.054 119.308 16.5098C119.659 16.9609 120.221 17.1865 120.996 17.1865C121.643 17.1865 122.149 16.9245 122.514 16.4004C122.883 15.8763 123.067 15.154 123.067 14.2334C123.067 13.2992 122.883 12.5837 122.514 12.0869C122.149 11.5856 121.634 11.335 120.969 11.335ZM132.699 14.2471C132.699 15.4684 132.392 16.4232 131.776 17.1113C131.161 17.7949 130.311 18.1367 129.227 18.1367C128.557 18.1367 127.962 17.9795 127.442 17.665C126.923 17.3506 126.522 16.8994 126.239 16.3115C125.957 15.7236 125.815 15.0355 125.815 14.2471C125.815 13.0257 126.121 12.0755 126.731 11.3965C127.342 10.7129 128.19 10.3711 129.274 10.3711C130.323 10.3711 131.154 10.7197 131.77 11.417C132.389 12.1143 132.699 13.0576 132.699 14.2471ZM126.991 14.2471C126.991 15.2041 127.183 15.9333 127.565 16.4346C127.948 16.9359 128.511 17.1865 129.254 17.1865C129.997 17.1865 130.56 16.9382 130.942 16.4414C131.33 15.9401 131.523 15.2087 131.523 14.2471C131.523 13.2946 131.33 12.5723 130.942 12.0801C130.56 11.5833 129.992 11.335 129.24 11.335C128.497 11.335 127.937 11.5788 127.559 12.0664C127.18 12.554 126.991 13.2809 126.991 14.2471ZM139.207 11.4785H135.83V18H134.695V10.5078H139.207V11.4785ZM144.184 18.1367C143.696 18.1367 143.249 18.0479 142.844 17.8701C142.443 17.6878 142.105 17.4098 141.832 17.0361H141.75C141.805 17.4736 141.832 17.8883 141.832 18.2803V21.3633H140.697V10.5078H141.62L141.777 11.5332H141.832C142.124 11.123 142.463 10.8268 142.851 10.6445C143.238 10.4622 143.682 10.3711 144.184 10.3711C145.177 10.3711 145.943 10.7106 146.48 11.3896C147.023 12.0687 147.294 13.0212 147.294 14.2471C147.294 15.4775 147.018 16.4346 146.467 17.1182C145.92 17.7972 145.159 18.1367 144.184 18.1367ZM144.02 11.335C143.254 11.335 142.7 11.5469 142.358 11.9707C142.017 12.3945 141.841 13.069 141.832 13.9941V14.2471C141.832 15.2998 142.007 16.054 142.358 16.5098C142.709 16.9609 143.272 17.1865 144.047 17.1865C144.694 17.1865 145.2 16.9245 145.564 16.4004C145.934 15.8763 146.118 15.154 146.118 14.2334C146.118 13.2992 145.934 12.5837 145.564 12.0869C145.2 11.5856 144.685 11.335 144.02 11.335ZM153.891 18L153.665 16.9336H153.61C153.237 17.403 152.863 17.722 152.489 17.8906C152.12 18.0547 151.658 18.1367 151.102 18.1367C150.359 18.1367 149.775 17.9453 149.352 17.5625C148.932 17.1797 148.723 16.6351 148.723 15.9287C148.723 14.4157 149.933 13.6227 152.353 13.5498L153.624 13.5088V13.0439C153.624 12.4561 153.496 12.0231 153.241 11.7451C152.991 11.4626 152.587 11.3213 152.031 11.3213C151.407 11.3213 150.701 11.5127 149.912 11.8955L149.563 11.0273C149.933 10.8268 150.336 10.6696 150.773 10.5557C151.215 10.4417 151.658 10.3848 152.1 10.3848C152.993 10.3848 153.654 10.583 154.082 10.9795C154.515 11.376 154.731 12.0117 154.731 12.8867V18H153.891ZM151.327 17.2002C152.034 17.2002 152.587 17.0065 152.988 16.6191C153.394 16.2318 153.597 15.6895 153.597 14.9922V14.3154L152.462 14.3633C151.56 14.3952 150.908 14.5365 150.507 14.7871C150.11 15.0332 149.912 15.4183 149.912 15.9424C149.912 16.3525 150.035 16.6647 150.281 16.8789C150.532 17.0931 150.881 17.2002 151.327 17.2002ZM160.966 16.9062L161.178 16.2705L161.472 15.4639L163.502 10.5215H164.944V18H163.939V11.8135L163.803 12.21L163.406 13.2559L161.472 18H160.521L158.587 13.2422C158.345 12.6315 158.179 12.1553 158.088 11.8135V18H157.076V10.5215H158.464L160.426 15.2725C160.622 15.7738 160.802 16.3184 160.966 16.9062ZM171.261 16.9062L171.473 16.2705L171.767 15.4639L173.797 10.5215H175.239V18H174.234V11.8135L174.098 12.21L173.701 13.2559L171.767 18H170.816L168.882 13.2422C168.64 12.6315 168.474 12.1553 168.383 11.8135V18H167.371V10.5215H168.759L170.721 15.2725C170.917 15.7738 171.097 16.3184 171.261 16.9062ZM182.273 18L182.048 16.9336H181.993C181.619 17.403 181.246 17.722 180.872 17.8906C180.503 18.0547 180.04 18.1367 179.484 18.1367C178.742 18.1367 178.158 17.9453 177.734 17.5625C177.315 17.1797 177.105 16.6351 177.105 15.9287C177.105 14.4157 178.315 13.6227 180.735 13.5498L182.007 13.5088V13.0439C182.007 12.4561 181.879 12.0231 181.624 11.7451C181.373 11.4626 180.97 11.3213 180.414 11.3213C179.79 11.3213 179.083 11.5127 178.295 11.8955L177.946 11.0273C178.315 10.8268 178.719 10.6696 179.156 10.5557C179.598 10.4417 180.04 10.3848 180.482 10.3848C181.376 10.3848 182.036 10.583 182.465 10.9795C182.898 11.376 183.114 12.0117 183.114 12.8867V18H182.273ZM179.71 17.2002C180.416 17.2002 180.97 17.0065 181.371 16.6191C181.777 16.2318 181.979 15.6895 181.979 14.9922V14.3154L180.845 14.3633C179.942 14.3952 179.291 14.5365 178.89 14.7871C178.493 15.0332 178.295 15.4183 178.295 15.9424C178.295 16.3525 178.418 16.6647 178.664 16.8789C178.915 17.0931 179.263 17.2002 179.71 17.2002Z" fill="white" fill-opacity="0.85"/>
</svg>
