<svg width="70" height="26" viewBox="0 0 70 26" fill="none" xmlns="http://www.w3.org/2000/svg">
<rect width="70" height="26" fill="black" fill-opacity="0"/>
<path d="M0 0H64L70 13L64 26H0V0Z" fill="#FFEC96"/>
<path d="M12.6533 8.90137C11.555 8.90137 10.6868 9.26823 10.0488 10.002C9.41536 10.7311 9.09863 11.7314 9.09863 13.0029C9.09863 14.3109 9.40397 15.3226 10.0146 16.0381C10.6299 16.749 11.5049 17.1045 12.6396 17.1045C13.3369 17.1045 14.1322 16.9792 15.0254 16.7285V17.7471C14.3327 18.0068 13.4782 18.1367 12.4619 18.1367C10.9899 18.1367 9.85286 17.6901 9.05078 16.7969C8.25326 15.9036 7.85449 14.6344 7.85449 12.9893C7.85449 11.9593 8.0459 11.057 8.42871 10.2822C8.81608 9.50749 9.37207 8.91048 10.0967 8.49121C10.8258 8.07194 11.6826 7.8623 12.667 7.8623C13.7152 7.8623 14.6312 8.05371 15.415 8.43652L14.9229 9.43457C14.1663 9.0791 13.4098 8.90137 12.6533 8.90137ZM21.6426 18L21.417 16.9336H21.3623C20.9886 17.403 20.6149 17.722 20.2412 17.8906C19.8721 18.0547 19.4095 18.1367 18.8535 18.1367C18.1107 18.1367 17.5273 17.9453 17.1035 17.5625C16.6842 17.1797 16.4746 16.6351 16.4746 15.9287C16.4746 14.4157 17.6846 13.6227 20.1045 13.5498L21.376 13.5088V13.0439C21.376 12.4561 21.2484 12.0231 20.9932 11.7451C20.7425 11.4626 20.3392 11.3213 19.7832 11.3213C19.1589 11.3213 18.4525 11.5127 17.6641 11.8955L17.3154 11.0273C17.6846 10.8268 18.0879 10.6696 18.5254 10.5557C18.9674 10.4417 19.4095 10.3848 19.8516 10.3848C20.7448 10.3848 21.4056 10.583 21.834 10.9795C22.2669 11.376 22.4834 12.0117 22.4834 12.8867V18H21.6426ZM19.0791 17.2002C19.7855 17.2002 20.3392 17.0065 20.7402 16.6191C21.1458 16.2318 21.3486 15.6895 21.3486 14.9922V14.3154L20.2139 14.3633C19.3115 14.3952 18.6598 14.5365 18.2588 14.7871C17.8623 15.0332 17.6641 15.4183 17.6641 15.9424C17.6641 16.3525 17.7871 16.6647 18.0332 16.8789C18.2839 17.0931 18.6325 17.2002 19.0791 17.2002ZM28.7178 16.9062L28.9297 16.2705L29.2236 15.4639L31.2539 10.5215H32.6963V18H31.6914V11.8135L31.5547 12.21L31.1582 13.2559L29.2236 18H28.2734L26.3389 13.2422C26.0973 12.6315 25.931 12.1553 25.8398 11.8135V18H24.8281V10.5215H26.2158L28.1777 15.2725C28.3737 15.7738 28.5537 16.3184 28.7178 16.9062ZM39.0127 16.9062L39.2246 16.2705L39.5186 15.4639L41.5488 10.5215H42.9912V18H41.9863V11.8135L41.8496 12.21L41.4531 13.2559L39.5186 18H38.5684L36.6338 13.2422C36.3923 12.6315 36.2259 12.1553 36.1348 11.8135V18H35.123V10.5215H36.5107L38.4727 15.2725C38.6686 15.7738 38.8486 16.3184 39.0127 16.9062ZM46.4844 10.5078V15.2588L46.4365 16.5029L46.416 16.8926L50.4697 10.5078H51.8848V18H50.8252V13.4199L50.8457 12.5176L50.8799 11.6289L46.833 18H45.418V10.5078H46.4844ZM59.3428 11.4785H56.9092V18H55.7744V11.4785H53.3682V10.5078H59.3428V11.4785Z" fill="black" fill-opacity="0.65"/>
</svg>
