<svg width="77" height="26" viewBox="0 0 77 26" fill="none" xmlns="http://www.w3.org/2000/svg">
<rect width="77" height="26" fill="black" fill-opacity="0"/>
<path d="M0 0H71L77 13L71 26H0V0Z" fill="#C4F5EE"/>
<path d="M8.37402 8.00586H11.1973C12.5234 8.00586 13.4827 8.2041 14.0752 8.60059C14.6676 8.99707 14.9639 9.6237 14.9639 10.4805C14.9639 11.0729 14.7975 11.5628 14.4648 11.9502C14.1367 12.333 13.6559 12.5814 13.0225 12.6953V12.7637C14.54 13.0234 15.2988 13.821 15.2988 15.1562C15.2988 16.0495 14.9958 16.7467 14.3896 17.248C13.7881 17.7493 12.945 18 11.8604 18H8.37402V8.00586ZM9.53613 12.2852H11.4502C12.2705 12.2852 12.8607 12.1576 13.2207 11.9023C13.5807 11.6426 13.7607 11.2074 13.7607 10.5967C13.7607 10.0361 13.5602 9.63281 13.1592 9.38672C12.7581 9.13607 12.1201 9.01074 11.2451 9.01074H9.53613V12.2852ZM9.53613 13.2695V17.0088H11.6211C12.4277 17.0088 13.0339 16.8538 13.4395 16.5439C13.8496 16.2295 14.0547 15.7396 14.0547 15.0742C14.0547 14.4544 13.8451 13.9987 13.4258 13.707C13.0111 13.4154 12.3776 13.2695 11.5254 13.2695H9.53613ZM20.4463 18.1367C19.3389 18.1367 18.4639 17.7995 17.8213 17.125C17.1833 16.4505 16.8643 15.514 16.8643 14.3154C16.8643 13.1077 17.1605 12.1484 17.7529 11.4375C18.3499 10.7266 19.1497 10.3711 20.1523 10.3711C21.0911 10.3711 21.834 10.681 22.3809 11.3008C22.9277 11.916 23.2012 12.7295 23.2012 13.7412V14.459H18.04C18.0628 15.3385 18.2839 16.0062 18.7031 16.4619C19.127 16.9176 19.7217 17.1455 20.4873 17.1455C21.2939 17.1455 22.0915 16.9769 22.8799 16.6396V17.6514C22.4788 17.8245 22.0983 17.9476 21.7383 18.0205C21.3828 18.098 20.9521 18.1367 20.4463 18.1367ZM20.1387 11.3213C19.5371 11.3213 19.0563 11.5173 18.6963 11.9092C18.3408 12.3011 18.1312 12.8434 18.0674 13.5361H21.9844C21.9844 12.8206 21.8249 12.2738 21.5059 11.8955C21.1868 11.5127 20.7311 11.3213 20.1387 11.3213ZM24.7529 13.5088C24.7529 11.8682 24.9945 10.5898 25.4775 9.67383C25.9606 8.75326 26.7262 8.17904 27.7744 7.95117C29.0778 7.67318 30.2262 7.44759 31.2197 7.27441L31.4316 8.27246C29.8503 8.53678 28.7201 8.74642 28.041 8.90137C27.3802 9.05176 26.8835 9.40723 26.5508 9.96777C26.2227 10.5283 26.0426 11.2917 26.0107 12.2578H26.0928C26.3753 11.875 26.7399 11.5742 27.1865 11.3555C27.6331 11.1367 28.1003 11.0273 28.5879 11.0273C29.5085 11.0273 30.2262 11.3258 30.7412 11.9229C31.2562 12.5199 31.5137 13.347 31.5137 14.4043C31.5137 15.5755 31.2152 16.4915 30.6182 17.1523C30.0212 17.8086 29.1895 18.1367 28.123 18.1367C27.0703 18.1367 26.2454 17.7334 25.6484 16.9268C25.0514 16.1201 24.7529 14.9808 24.7529 13.5088ZM28.2256 17.1865C29.6156 17.1865 30.3105 16.3001 30.3105 14.5273C30.3105 12.8366 29.6794 11.9912 28.417 11.9912C28.0706 11.9912 27.7357 12.0641 27.4121 12.21C27.0931 12.3512 26.7992 12.5404 26.5303 12.7773C26.266 13.0143 26.0609 13.2581 25.915 13.5088C25.915 14.7074 26.1042 15.6211 26.4824 16.25C26.8607 16.8743 27.4417 17.1865 28.2256 17.1865ZM34.5625 10.5078V15.2588L34.5146 16.5029L34.4941 16.8926L38.5479 10.5078H39.9629V18H38.9033V13.4199L38.9238 12.5176L38.958 11.6289L34.9111 18H33.4961V10.5078H34.5625ZM43.5039 10.5078V13.6455H47.7012V10.5078H48.8359V18H47.7012V14.623H43.5039V18H42.3691V10.5078H43.5039ZM55.8496 18L55.624 16.9336H55.5693C55.1956 17.403 54.8219 17.722 54.4482 17.8906C54.0791 18.0547 53.6165 18.1367 53.0605 18.1367C52.3177 18.1367 51.7344 17.9453 51.3105 17.5625C50.8913 17.1797 50.6816 16.6351 50.6816 15.9287C50.6816 14.4157 51.8916 13.6227 54.3115 13.5498L55.583 13.5088V13.0439C55.583 12.4561 55.4554 12.0231 55.2002 11.7451C54.9495 11.4626 54.5462 11.3213 53.9902 11.3213C53.3659 11.3213 52.6595 11.5127 51.8711 11.8955L51.5225 11.0273C51.8916 10.8268 52.2949 10.6696 52.7324 10.5557C53.1745 10.4417 53.6165 10.3848 54.0586 10.3848C54.9518 10.3848 55.6126 10.583 56.041 10.9795C56.474 11.376 56.6904 12.0117 56.6904 12.8867V18H55.8496ZM53.2861 17.2002C53.9925 17.2002 54.5462 17.0065 54.9473 16.6191C55.3529 16.2318 55.5557 15.6895 55.5557 14.9922V14.3154L54.4209 14.3633C53.5186 14.3952 52.8669 14.5365 52.4658 14.7871C52.0693 15.0332 51.8711 15.4183 51.8711 15.9424C51.8711 16.3525 51.9941 16.6647 52.2402 16.8789C52.4909 17.0931 52.8395 17.2002 53.2861 17.2002ZM62.5215 18.1367C62.0339 18.1367 61.5872 18.0479 61.1816 17.8701C60.7806 17.6878 60.4434 17.4098 60.1699 17.0361H60.0879C60.1426 17.4736 60.1699 17.8883 60.1699 18.2803V21.3633H59.0352V10.5078H59.958L60.1152 11.5332H60.1699C60.4616 11.123 60.8011 10.8268 61.1885 10.6445C61.5758 10.4622 62.0202 10.3711 62.5215 10.3711C63.515 10.3711 64.2806 10.7106 64.8184 11.3896C65.3607 12.0687 65.6318 13.0212 65.6318 14.2471C65.6318 15.4775 65.3561 16.4346 64.8047 17.1182C64.2578 17.7972 63.4967 18.1367 62.5215 18.1367ZM62.3574 11.335C61.5918 11.335 61.0381 11.5469 60.6963 11.9707C60.3545 12.3945 60.179 13.069 60.1699 13.9941V14.2471C60.1699 15.2998 60.3454 16.054 60.6963 16.5098C61.0472 16.9609 61.61 17.1865 62.3848 17.1865C63.0319 17.1865 63.5378 16.9245 63.9023 16.4004C64.2715 15.8763 64.4561 15.154 64.4561 14.2334C64.4561 13.2992 64.2715 12.5837 63.9023 12.0869C63.5378 11.5856 63.0228 11.335 62.3574 11.335Z" fill="black" fill-opacity="0.65"/>
</svg>
