<svg width="46" height="45" viewBox="0 0 46 45" fill="none" xmlns="http://www.w3.org/2000/svg">
<path fill-rule="evenodd" clip-rule="evenodd" d="M25.4549 18.5805L42.4799 35.6055C43.2299 36.3555 43.2299 37.5368 42.4799 38.2493L38.1674 42.5618C37.4361 43.293 36.2549 43.293 35.5236 42.5618L18.4424 25.4805C14.0924 27.1118 9.01114 26.193 5.52364 22.7055C1.21114 18.4118 0.81739 11.6805 4.30489 6.91802L11.4861 14.0993L14.1486 11.4555L6.94864 4.23677C11.7299 0.749275 18.4424 1.14302 22.7549 5.45552C26.2986 9.01802 27.1986 14.193 25.4549 18.5805ZM19.1174 20.868L36.8549 38.6055L38.5049 36.9368L20.7862 19.218C21.6487 18.1118 22.2112 16.8743 22.4362 15.543C22.9049 12.9368 22.1362 10.143 20.1112 8.11802C18.3299 6.35552 15.9862 5.53052 13.6612 5.66177L19.4549 11.4555L11.5049 19.4055L5.71118 13.6118C5.57993 15.9368 6.40493 18.2993 8.18618 20.0618C10.1362 22.0118 12.8174 22.7805 15.3674 22.4055C16.6987 22.218 17.9737 21.7118 19.1174 20.868Z" fill="white"/>
<path d="M43.12 3L34.3333 12.0945L30.88 8.53397L29 10.4798L34.3333 16L45 4.95966L43.12 3Z" fill="#FF5B5B" stroke="#FF5B5B"/>
</svg>
