<svg width="31" height="30" viewBox="0 0 31 30" fill="none" xmlns="http://www.w3.org/2000/svg">
<path fill-rule="evenodd" clip-rule="evenodd" d="M16.9703 12.3871L28.3203 23.7371C28.8203 24.2371 28.8203 25.0246 28.3203 25.4996L25.4453 28.3746C24.9578 28.8621 24.1703 28.8621 23.6828 28.3746L12.2953 16.9871C9.39525 18.0746 6.00775 17.4621 3.68275 15.1371C0.807752 12.2746 0.545252 7.7871 2.87025 4.6121L7.65775 9.3996L9.43275 7.6371L4.63275 2.8246C7.82025 0.499598 12.2953 0.762098 15.1703 3.6371C17.5328 6.0121 18.1328 9.4621 16.9703 12.3871ZM12.7453 13.9121L24.5703 25.7371L25.6703 24.6246L13.8578 12.8121C14.4328 12.0746 14.8078 11.2496 14.9578 10.3621C15.2703 8.6246 14.7578 6.7621 13.4078 5.4121C12.2203 4.2371 10.6578 3.6871 9.10776 3.7746L12.9703 7.6371L7.67026 12.9371L3.80776 9.0746C3.72026 10.6246 4.27026 12.1996 5.45776 13.3746C6.75776 14.6746 8.54526 15.1871 10.2453 14.9371C11.1328 14.8121 11.9828 14.4746 12.7453 13.9121Z" fill="white"/>
<path d="M28.7463 2L22.8886 8.06299L20.5863 5.68931L19.333 6.98655L22.8886 10.6667L29.9997 3.30644L28.7463 2Z" fill="#FF5B5B" stroke="#FF5B5B"/>
</svg>
