<svg width="45" height="45" viewBox="0 0 45 45" fill="none" xmlns="http://www.w3.org/2000/svg">
<path fill-rule="evenodd" clip-rule="evenodd" d="M39.2625 20.625C38.4 12.8062 32.1938 6.6 24.375 5.7375V1.875H20.625V5.7375C12.8062 6.6 6.6 12.8062 5.7375 20.625H1.875V24.375H5.7375C6.6 32.1938 12.8062 38.4 20.625 39.2625V43.125H24.375V39.2625C32.1938 38.4 38.4 32.1938 39.2625 24.375H43.125V20.625H39.2625ZM22.5 15C18.3563 15 15 18.3563 15 22.5C15 26.6437 18.3563 30 22.5 30C26.6437 30 30 26.6437 30 22.5C30 18.3563 26.6437 15 22.5 15ZM9.375 22.5C9.375 29.7563 15.2438 35.625 22.5 35.625C29.7563 35.625 35.625 29.7563 35.625 22.5C35.625 15.2438 29.7563 9.375 22.5 9.375C15.2438 9.375 9.375 15.2438 9.375 22.5Z" fill="white"/>
<circle cx="22.5" cy="22.5" r="7.5" fill="#FF5B5B"/>
</svg>
