<svg width="30" height="30" viewBox="0 0 30 30" fill="none" xmlns="http://www.w3.org/2000/svg">
<path fill-rule="evenodd" clip-rule="evenodd" d="M26.175 13.75C25.6 8.5375 21.4625 4.4 16.25 3.825V1.25H13.75V3.825C8.5375 4.4 4.4 8.5375 3.825 13.75H1.25V16.25H3.825C4.4 21.4625 8.5375 25.6 13.75 26.175V28.75H16.25V26.175C21.4625 25.6 25.6 21.4625 26.175 16.25H28.75V13.75H26.175ZM15 10C12.2375 10 10 12.2375 10 15C10 17.7625 12.2375 20 15 20C17.7625 20 20 17.7625 20 15C20 12.2375 17.7625 10 15 10ZM6.25 15C6.25 19.8375 10.1625 23.75 15 23.75C19.8375 23.75 23.75 19.8375 23.75 15C23.75 10.1625 19.8375 6.25 15 6.25C10.1625 6.25 6.25 10.1625 6.25 15Z" fill="white"/>
<circle cx="15" cy="15" r="5" fill="#FF5B5B"/>
</svg>
