<svg width="45" height="45" viewBox="0 0 45 45" fill="none" xmlns="http://www.w3.org/2000/svg">
<path d="M35.175 14.5125L32.4375 17.25C33.2625 18.825 33.75 20.6062 33.75 22.5C33.75 28.7062 28.7062 33.75 22.5 33.75V28.125L15 35.625L22.5 43.125V37.5C30.7875 37.5 37.5 30.7875 37.5 22.5C37.5 19.5562 36.6375 16.8187 35.175 14.5125V14.5125Z" fill="white"/>
<path d="M23 12.375V18L30.5 10.5L23 3V8.625C14.7125 8.625 8 15.3375 8 23.625C8 26.5688 8.8625 29.3063 10.325 31.6125L13.0625 28.875C12.2188 27.3188 11.75 25.5187 11.75 23.625C11.75 17.4188 16.7938 12.375 23 12.375Z" fill="#FF5B5B"/>
</svg>
