<svg width="30" height="30" viewBox="0 0 30 30" fill="none" xmlns="http://www.w3.org/2000/svg">
<path d="M23.45 9.67505L21.625 11.5C22.175 12.55 22.5 13.7375 22.5 15C22.5 19.1375 19.1375 22.5 15 22.5V18.75L10 23.75L15 28.75V25C20.525 25 25 20.525 25 15C25 13.0375 24.425 11.2125 23.45 9.67505V9.67505Z" fill="white"/>
<path d="M15.333 8.25V12L20.333 7L15.333 2V5.75C9.80801 5.75 5.33301 10.225 5.33301 15.75C5.33301 17.7125 5.90801 19.5375 6.88301 21.075L8.70801 19.25C8.14551 18.2125 7.83301 17.0125 7.83301 15.75C7.83301 11.6125 11.1955 8.25 15.333 8.25Z" fill="#FF5B5B"/>
</svg>
