<svg width="375" height="1084" viewBox="0 0 375 1084" fill="none" xmlns="http://www.w3.org/2000/svg">
<g clip-path="url(#clip0)">
<rect width="375" height="1084" fill="white"/>
<path d="M675.5 450C675.5 603.881 549.729 729.5 393.5 729.5C237.271 729.5 111.5 603.881 111.5 450C111.5 296.119 237.271 170.5 393.5 170.5C549.729 170.5 675.5 296.119 675.5 450Z" stroke="url(#paint0_linear)" stroke-opacity="0.04" stroke-width="145"/>
<path d="M240.5 1036C240.5 1189.88 114.729 1315.5 -41.5 1315.5C-197.729 1315.5 -323.5 1189.88 -323.5 1036C-323.5 882.119 -197.729 756.5 -41.5 756.5C114.729 756.5 240.5 882.119 240.5 1036Z" stroke="url(#paint1_linear)" stroke-opacity="0.04" stroke-width="145"/>
</g>
<defs>
<linearGradient id="paint0_linear" x1="216.723" y1="265.541" x2="393.836" y2="801.889" gradientUnits="userSpaceOnUse">
<stop stop-color="#343434"/>
<stop offset="1" stop-color="#010103" stop-opacity="0"/>
</linearGradient>
<linearGradient id="paint1_linear" x1="-218.277" y1="851.541" x2="-41.164" y2="1387.89" gradientUnits="userSpaceOnUse">
<stop stop-color="#343434"/>
<stop offset="1" stop-color="#010103" stop-opacity="0"/>
</linearGradient>
<clipPath id="clip0">
<rect width="375" height="1084" fill="white"/>
</clipPath>
</defs>
</svg>
