<svg width="1920" height="808" viewBox="0 0 1920 808" fill="none" xmlns="http://www.w3.org/2000/svg">
<g clip-path="url(#clip0)">
<rect width="1920" height="808" fill="white"/>
<path d="M1220.5 817C1220.5 1173.77 928.754 1464.5 567 1464.5C205.246 1464.5 -86.5 1173.77 -86.5 817C-86.5 460.228 205.246 169.5 567 169.5C928.754 169.5 1220.5 460.228 1220.5 817Z" stroke="url(#paint0_linear)" stroke-opacity="0.04" stroke-width="225"/>
<path d="M2210.5 572C2210.5 725.881 2084.73 851.5 1928.5 851.5C1772.27 851.5 1646.5 725.881 1646.5 572C1646.5 418.119 1772.27 292.5 1928.5 292.5C2084.73 292.5 2210.5 418.119 2210.5 572Z" stroke="url(#paint1_linear)" stroke-opacity="0.04" stroke-width="145"/>
</g>
<defs>
<linearGradient id="paint0_linear" x1="567" y1="57" x2="567" y2="1577" gradientUnits="userSpaceOnUse">
<stop stop-color="#010103"/>
<stop offset="0.447748" stop-color="#343434" stop-opacity="0"/>
</linearGradient>
<linearGradient id="paint1_linear" x1="1751.72" y1="387.541" x2="1928.84" y2="923.889" gradientUnits="userSpaceOnUse">
<stop stop-color="#343434"/>
<stop offset="0.513175" stop-color="#010103" stop-opacity="0"/>
</linearGradient>
<clipPath id="clip0">
<rect width="1920" height="808" fill="white"/>
</clipPath>
</defs>
</svg>
