<svg width="375" height="1131" viewBox="0 0 375 1131" fill="none" xmlns="http://www.w3.org/2000/svg">
<g clip-path="url(#clip0)">
<rect width="375" height="1131" fill="white"/>
<path d="M169.5 352C169.5 505.881 43.7289 631.5 -112.5 631.5C-268.729 631.5 -394.5 505.881 -394.5 352C-394.5 198.119 -268.729 72.5 -112.5 72.5C43.7289 72.5 169.5 198.119 169.5 352Z" stroke="url(#paint0_linear)" stroke-opacity="0.04" stroke-width="145"/>
<path d="M770.5 779C770.5 932.881 644.729 1058.5 488.5 1058.5C332.271 1058.5 206.5 932.881 206.5 779C206.5 625.119 332.271 499.5 488.5 499.5C644.729 499.5 770.5 625.119 770.5 779Z" stroke="url(#paint1_linear)" stroke-opacity="0.04" stroke-width="145"/>
</g>
<defs>
<linearGradient id="paint0_linear" x1="-289.277" y1="167.541" x2="-112.164" y2="703.889" gradientUnits="userSpaceOnUse">
<stop stop-color="#343434"/>
<stop offset="1" stop-color="#010103" stop-opacity="0"/>
</linearGradient>
<linearGradient id="paint1_linear" x1="311.723" y1="594.541" x2="488.836" y2="1130.89" gradientUnits="userSpaceOnUse">
<stop stop-color="#343434"/>
<stop offset="1" stop-color="#010103" stop-opacity="0"/>
</linearGradient>
<clipPath id="clip0">
<rect width="375" height="1131" fill="white"/>
</clipPath>
</defs>
</svg>
