<svg width="375" height="541" viewBox="0 0 375 541" fill="none" xmlns="http://www.w3.org/2000/svg">
<g clip-path="url(#clip0)">
<rect width="375" height="541" fill="#343434"/>
<path d="M34.7767 516.85C39.4233 521.497 46.12 523.82 52.475 523.82C63.75 523.82 69.8317 516.782 69.8317 508.582C69.8317 493.138 48.2383 494.778 48.2383 487.808C48.2383 485.827 49.81 484.323 53.4317 484.323C57.2583 484.323 61.495 486.237 64.2283 488.628L69.285 478.857C65.0483 475.098 59.445 473.322 53.9783 473.322C43.7283 473.322 36.28 479.267 36.28 488.287C36.28 503.593 57.8733 502.5 57.8733 509.402C57.8733 511.315 56.165 512.818 52.8167 512.818C48.4433 512.818 43.7967 510.153 41.0633 507.762L34.7767 516.85ZM87.9534 523H99.9117V484.392H114.74V474.142H73.125V484.392H87.9534V523ZM120.672 523H132.631V506.532H138.234L146.912 523H160.237L150.739 505.917C149.577 503.867 148.894 502.978 148.894 502.978V502.842C153.746 500.382 156.206 494.71 156.206 489.517C156.206 482.41 152.721 477.422 147.186 475.303C145.067 474.483 142.676 474.142 137.687 474.142H120.672V523ZM132.631 496.282V484.392H136.662C138.644 484.392 140.079 484.597 141.172 485.075C143.427 485.963 144.042 487.808 144.042 490.268C144.042 494.163 141.651 496.282 137.824 496.282H132.631ZM160.319 523H172.619L175.558 512.75H190.796L193.803 523H206.103L189.498 474.142H176.924L160.319 523ZM178.359 503.183L181.161 493.685C182.049 490.61 183.143 485.28 183.143 485.28H183.279C183.279 485.28 184.373 490.61 185.261 493.685L187.994 503.183H178.359ZM217.747 523H229.705V484.392H244.533V474.142H202.918V484.392H217.747V523ZM250.466 523H282.036V512.75H262.424V503.525H277.321V493.275H262.424V484.392H281.079V474.142H250.466V523ZM286.24 498.468C286.24 514.458 297.72 523.82 310.225 523.82C315.008 523.82 320.133 522.18 323.071 519.583H323.208C323.208 519.583 323.14 520.608 323.14 521.633V523H333.116V495.393H315.623V505.575H322.525V509.333C319.723 511.52 316.17 512.887 312.616 512.887C305.031 512.887 298.608 507.352 298.608 498.058C298.608 490.815 302.776 484.255 313.026 484.255C317.195 484.255 322.115 486.237 324.916 488.765L330.656 479.813C325.463 475.235 318.493 473.322 311.865 473.322C296.968 473.322 286.24 484.255 286.24 498.468ZM350.204 523H362.163V502.978L378.289 474.142H364.691L359.224 485.895C357.653 489.243 356.286 492.933 356.286 492.933H356.149C356.149 492.933 354.783 489.243 353.211 485.895L347.676 474.142H334.078L350.204 502.978V523Z" fill="white" fill-opacity="0.02"/>
<path d="M-13.8806 455H23.1943V443.765H0.0506089C0.724697 436.874 22.3704 433.654 22.3704 416.951C22.3704 405.567 12.8583 400.549 4.09514 400.549C-5.5668 400.549 -11.6336 406.016 -14.7794 412.083L-5.04251 418.599C-3.46963 415.603 -0.548582 412.907 2.89676 412.907C5.66802 412.907 8.66397 414.48 8.66397 418.225C8.66397 425.939 -14.4798 429.46 -14.4798 449.233C-14.4798 451.03 -14.2551 452.903 -13.8806 455ZM50.6547 455.899C65.8591 455.899 70.8025 443.466 70.8025 428.111C70.8025 412.757 65.8591 400.549 50.6547 400.549C35.4502 400.549 30.5069 412.757 30.5069 428.111C30.5069 443.466 35.4502 455.899 50.6547 455.899ZM50.6547 443.915C45.4867 443.915 43.9887 436.874 43.9887 428.111C43.9887 419.423 45.4867 412.532 50.6547 412.532C55.8227 412.532 57.3207 419.423 57.3207 428.111C57.3207 436.874 55.8227 443.915 50.6547 443.915ZM78.5726 455H115.648V443.765H92.5038C93.1779 436.874 114.824 433.654 114.824 416.951C114.824 405.567 105.311 400.549 96.5483 400.549C86.8864 400.549 80.8196 406.016 77.6738 412.083L87.4107 418.599C88.9836 415.603 91.9046 412.907 95.3499 412.907C98.1212 412.907 101.117 414.48 101.117 418.225C101.117 425.939 77.9734 429.46 77.9734 449.233C77.9734 451.03 78.1981 452.903 78.5726 455ZM143.108 455.899C158.312 455.899 163.256 443.466 163.256 428.111C163.256 412.757 158.312 400.549 143.108 400.549C127.903 400.549 122.96 412.757 122.96 428.111C122.96 443.466 127.903 455.899 143.108 455.899ZM143.108 443.915C137.94 443.915 136.442 436.874 136.442 428.111C136.442 419.423 137.94 412.532 143.108 412.532C148.276 412.532 149.774 419.423 149.774 428.111C149.774 436.874 148.276 443.915 143.108 443.915Z" fill="white" fill-opacity="0.02"/>
</g>
<defs>
<clipPath id="clip0">
<rect width="375" height="541" fill="white"/>
</clipPath>
</defs>
</svg>
