<svg width="18" height="19" viewBox="0 0 18 19" fill="none" xmlns="http://www.w3.org/2000/svg">
<path d="M16 2.46635H15V1.4587C15 0.85411 14.6 0.45105 14 0.45105C13.4 0.45105 13 0.85411 13 1.4587V2.46635H5V1.4587C5 0.954875 4.6 0.45105 4.1 0.45105H4C3.5 0.45105 3 0.85411 3 1.35793V1.4587V2.46635H2C0.9 2.46635 0 3.37323 0 4.48165V16.5734C0 17.6819 0.9 18.5888 2 18.5888H16C17.1 18.5888 18 17.6819 18 16.5734V4.48165C18 3.37323 17.1 2.46635 16 2.46635ZM16 16.5734H2V8.51225H16V16.5734ZM16 6.49695H2V4.48165H16V6.49695Z" fill="#FF5B5B"/>
</svg>
