<svg width="25" height="25" viewBox="0 0 25 25" fill="none" xmlns="http://www.w3.org/2000/svg">
<path d="M22.2222 2.77778H20.8333V1.38889C20.8333 0.555555 20.2778 0 19.4444 0C18.6111 0 18.0556 0.555555 18.0556 1.38889V2.77778H6.94444V1.38889C6.94444 0.694444 6.38889 0 5.69444 0H5.55556C4.86111 0 4.16667 0.555556 4.16667 1.25V1.38889V2.77778H2.77778C1.25 2.77778 0 4.02778 0 5.55556V22.2222C0 23.75 1.25 25 2.77778 25H22.2222C23.75 25 25 23.75 25 22.2222V5.55556C25 4.02778 23.75 2.77778 22.2222 2.77778ZM22.2222 22.2222H2.77778V11.1111H22.2222V22.2222ZM22.2222 8.33333H2.77778V5.55556H22.2222V8.33333Z" fill="#FF5B5B"/>
</svg>
