<svg width="23" height="29" viewBox="0 0 23 29" fill="none" xmlns="http://www.w3.org/2000/svg">
<path d="M11.568 2.9C16.4832 3.045 20.3864 6.96 20.2418 11.89C20.2418 16.82 15.4712 20.735 11.568 24.795C7.6648 20.735 2.89421 16.82 2.89421 11.89C2.74964 6.96 6.65285 3.045 11.568 2.9ZM11.568 0C5.06266 0.145 -0.141623 5.51 0.0029404 11.89C0.0029404 17.4 4.05071 21.46 7.6648 24.94C8.24305 25.52 8.8213 26.1 9.39956 26.68L11.568 29L13.5919 26.825C14.1701 26.245 14.7484 25.665 15.3267 25.085C18.9407 21.46 22.9885 17.4 22.9885 12.035C23.2776 5.51 18.0734 0.145 11.568 0Z" fill="#FF5B5B"/>
<path d="M11.5677 18.27C8.3873 18.27 5.78516 15.66 5.78516 12.47C5.78516 9.27998 8.3873 6.66998 11.5677 6.66998C14.7481 6.66998 17.3502 9.27998 17.3502 12.47C17.3502 15.66 14.7481 18.27 11.5677 18.27ZM11.5677 9.56998C9.97749 9.56998 8.67642 10.875 8.67642 12.47C8.67642 14.065 9.97749 15.37 11.5677 15.37C13.1579 15.37 14.459 14.065 14.459 12.47C14.459 10.875 13.1579 9.56998 11.5677 9.56998Z" fill="#FF5B5B"/>
</svg>
