<svg width="18" height="21" viewBox="0 0 18 21" fill="none" xmlns="http://www.w3.org/2000/svg">
<path d="M9.06043 2.1C12.6197 2.205 15.4461 5.04 15.3415 8.61C15.3415 12.18 11.8869 15.015 9.06043 17.955C6.23396 15.015 2.7794 12.18 2.7794 8.61C2.67471 5.04 5.50118 2.205 9.06043 2.1ZM9.06043 0C4.34966 0.105 0.581039 3.99 0.685723 8.61C0.685723 12.6 3.61687 15.54 6.23396 18.06C6.6527 18.48 7.07143 18.9 7.49017 19.32L9.06043 21L10.526 19.425C10.9447 19.005 11.3635 18.585 11.7822 18.165C14.3993 15.54 17.3304 12.6 17.3304 8.715C17.5398 3.99 13.7712 0.105 9.06043 0Z" fill="#FF5B5B"/>
<path d="M9.0604 13.2301C6.75736 13.2301 4.87305 11.3401 4.87305 9.03008C4.87305 6.72008 6.75736 4.83008 9.0604 4.83008C11.3634 4.83008 13.2478 6.72008 13.2478 9.03008C13.2478 11.3401 11.3634 13.2301 9.0604 13.2301ZM9.0604 6.93008C7.90888 6.93008 6.96672 7.87508 6.96672 9.03008C6.96672 10.1851 7.90888 11.1301 9.0604 11.1301C10.2119 11.1301 11.1541 10.1851 11.1541 9.03008C11.1541 7.87508 10.2119 6.93008 9.0604 6.93008Z" fill="#FF5B5B"/>
</svg>
