<svg width="91" height="26" viewBox="0 0 91 26" fill="none" xmlns="http://www.w3.org/2000/svg">
<path d="M0 0H85L91 13L85 26H0V0Z" fill="#FF5B5B"/>
<path d="M8.302 16H9.688V7.32H14.7V16H16.086V6.116H8.302V16ZM18.3586 18.8H19.7166V15.58C19.7166 15.216 19.6606 14.964 19.6606 14.964H19.6886C20.1786 15.72 20.9906 16.168 21.8866 16.168C23.7486 16.168 25.0926 14.712 25.0926 12.458C25.0926 10.26 23.9026 8.748 21.9846 8.748C20.9486 8.748 20.0526 9.224 19.6046 10.078H19.5766C19.5766 10.078 19.6186 9.84 19.6186 9.546V8.916H18.3586V18.8ZM19.6746 12.486C19.6746 10.694 20.6546 9.938 21.7186 9.938C22.8946 9.938 23.7206 10.932 23.7206 12.472C23.7206 14.082 22.7966 14.992 21.6766 14.992C20.3746 14.992 19.6746 13.746 19.6746 12.486ZM26.1788 14.068C26.1788 15.398 27.3128 16.168 28.5448 16.168C29.5948 16.168 30.4628 15.538 30.8688 14.726H30.8968C30.8968 14.726 30.8548 14.964 30.8548 15.286V16H32.1288V11.52C32.1288 9.728 31.1068 8.748 29.3288 8.748C28.3348 8.748 27.2568 9.112 26.6828 9.588L27.2288 10.582C27.8028 10.176 28.5168 9.896 29.2168 9.896C30.0988 9.896 30.7708 10.288 30.7708 11.45V11.59H30.4068C28.9368 11.59 26.1788 11.842 26.1788 14.068ZM27.5368 13.956C27.5368 12.654 29.4128 12.57 30.4208 12.57H30.7708V12.836C30.7708 13.886 30.0568 15.09 28.8668 15.09C27.9848 15.09 27.5368 14.516 27.5368 13.956ZM34.1359 16H35.4939V12.934H36.5159L38.6299 16H40.2399L37.5939 12.318V12.29L39.9599 8.916H38.4199L36.4879 11.772H35.4939V8.916H34.1359V16ZM43.1584 16H44.5024V10.078H46.9804V8.916H40.6944V10.078H43.1584V16ZM48.3137 16H49.6157L52.6817 11.772C52.9057 11.436 53.2557 10.96 53.2977 10.834H53.3257C53.3257 10.946 53.2837 11.436 53.2837 11.772V16H54.5997V8.916H53.2837L50.2317 13.144C49.9937 13.48 49.6577 13.97 49.6017 14.096H49.5737C49.5877 14.026 49.6157 13.522 49.6157 13.144V8.916H48.3137V16ZM56.6809 16H58.0389V12.934H59.0609L61.1749 16H62.7849L60.1389 12.318V12.29L62.5049 8.916H60.9649L59.0329 11.772H58.0389V8.916H56.6809V16ZM63.6453 17.47L63.1693 18.506C63.1693 18.506 63.7433 18.94 64.5273 18.94C65.5213 18.94 66.4033 18.38 66.8233 17.274L70.1553 8.916H68.6853L66.9633 13.564C66.8373 13.928 66.7253 14.404 66.7253 14.404H66.6973C66.6973 14.404 66.5713 13.9 66.4313 13.55L64.6533 8.916H63.1273L66.0953 15.916L65.7453 16.728C65.4793 17.372 65.0173 17.778 64.4573 17.778C64.0373 17.778 63.6453 17.47 63.6453 17.47ZM71.0568 16H72.3728L72.6808 11.786C72.7088 11.366 72.6668 10.568 72.6668 10.568H72.6948C72.6948 10.568 72.9188 11.1 73.1428 11.618L74.8228 15.146H75.9848L77.6648 11.604C77.9308 11.058 78.1128 10.568 78.1128 10.568H78.1408C78.1408 10.568 78.1128 11.366 78.1268 11.786L78.4348 16H79.7508L79.1348 8.916H77.6508L75.8028 12.92C75.6208 13.354 75.4108 13.872 75.4108 13.872H75.3828C75.3828 13.872 75.1868 13.34 74.9908 12.92L73.1848 8.916H71.6728L71.0568 16Z" fill="white"/>
</svg>
