<svg width="19" height="19" viewBox="0 0 19 19" fill="none" xmlns="http://www.w3.org/2000/svg">
<path d="M4.24152 17.0549C5.74543 18.0598 7.51354 18.5961 9.32227 18.5961C11.7477 18.5961 14.0738 17.6326 15.7888 15.9176C17.5039 14.2026 18.4674 11.8765 18.4674 9.45105C18.4674 7.64232 17.931 5.87421 16.9261 4.37031C15.9213 2.8664 14.493 1.69425 12.8219 1.00208C11.1509 0.309911 9.31212 0.128807 7.53815 0.481673C5.76417 0.834538 4.13467 1.70552 2.8557 2.98449C1.57674 4.26345 0.705754 5.89295 0.352889 7.66693C2.29478e-05 9.44091 0.181126 11.2797 0.873297 12.9507C1.56547 14.6218 2.73762 16.05 4.24152 17.0549ZM5.2361 3.33568C6.44561 2.52751 7.8676 2.09615 9.32227 2.09615C11.2729 2.09615 13.1437 2.87104 14.523 4.25035C15.9023 5.62966 16.6772 7.50041 16.6772 9.45105C16.6772 10.9057 16.2458 12.3277 15.4376 13.5372C14.6295 14.7467 13.4808 15.6894 12.1369 16.2461C10.7929 16.8028 9.31411 16.9484 7.8874 16.6646C6.46069 16.3808 5.15017 15.6803 4.12157 14.6517C3.09297 13.6231 2.39248 12.3126 2.10869 10.8859C1.8249 9.45921 1.97055 7.98038 2.52723 6.63645C3.0839 5.29252 4.0266 4.14384 5.2361 3.33568Z" fill="#FF5B5B" stroke="#FF5B5B" stroke-width="0.290203"/>
<path d="M9.32226 4.05595C9.08487 4.05595 8.8572 4.15025 8.68933 4.31812C8.52147 4.48598 8.42716 4.71365 8.42716 4.95105V8.55595H5.57227C5.33487 8.55595 5.1072 8.65025 4.93933 8.81812C4.77147 8.98598 4.67716 9.21365 4.67716 9.45105C4.67716 9.68844 4.77147 9.91612 4.93933 10.084C5.1072 10.2518 5.33487 10.3461 5.57227 10.3461H9.32226C9.55966 10.3461 9.78733 10.2518 9.9552 10.084C10.1231 9.91612 10.2174 9.68844 10.2174 9.45105V4.95105C10.2174 4.71365 10.1231 4.48598 9.9552 4.31812C9.78733 4.15025 9.55966 4.05595 9.32226 4.05595Z" fill="#FF5B5B" stroke="#FF5B5B" stroke-width="0.290203"/>
</svg>
