<svg width="27" height="27" viewBox="0 0 27 27" fill="none" xmlns="http://www.w3.org/2000/svg">
<path d="M6.44426 24.0597C8.53277 25.4552 10.9882 26.2 13.5 26.2C16.8682 26.2 20.0985 24.862 22.4803 22.4803C24.862 20.0985 26.2 16.8682 26.2 13.5C26.2 10.9882 25.4552 8.53277 24.0597 6.44426C22.6642 4.35576 20.6807 2.72797 18.3601 1.76674C16.0395 0.805503 13.4859 0.554 11.0224 1.04403C8.5588 1.53406 6.29587 2.74362 4.51975 4.51975C2.74362 6.29587 1.53406 8.5588 1.04403 11.0224C0.554 13.4859 0.805503 16.0395 1.76674 18.3601C2.72797 20.6807 4.35576 22.6642 6.44426 24.0597ZM7.82393 5.00516C9.50405 3.88253 11.4793 3.28334 13.5 3.28334C16.2096 3.28334 18.8083 4.35973 20.7243 6.27573C22.6403 8.19173 23.7167 10.7904 23.7167 13.5C23.7167 15.5207 23.1175 17.496 21.9948 19.1761C20.8722 20.8562 19.2766 22.1657 17.4097 22.939C15.5429 23.7122 13.4887 23.9146 11.5068 23.5204C9.52499 23.1261 7.70456 22.1531 6.27573 20.7243C4.8469 19.2954 3.87386 17.475 3.47965 15.4932C3.08544 13.5113 3.28776 11.4571 4.06104 9.59025C4.83431 7.7234 6.14381 6.12778 7.82393 5.00516Z" fill="#FF5B5B" stroke="#FF5B5B" stroke-width="0.4"/>
<path d="M13.5 6.00831C13.1707 6.00831 12.8549 6.13913 12.622 6.37199C12.3891 6.60485 12.2583 6.92067 12.2583 7.24998V12.2583H8.29167C7.96236 12.2583 7.64653 12.3891 7.41368 12.622C7.18082 12.8548 7.05 13.1707 7.05 13.5C7.05 13.8293 7.18082 14.1451 7.41368 14.378C7.64653 14.6108 7.96236 14.7416 8.29167 14.7416H13.5C13.8293 14.7416 14.1451 14.6108 14.378 14.378C14.6108 14.1451 14.7417 13.8293 14.7417 13.5V7.24998C14.7417 6.92067 14.6108 6.60485 14.378 6.37199C14.1451 6.13913 13.8293 6.00831 13.5 6.00831Z" fill="#FF5B5B" stroke="#FF5B5B" stroke-width="0.4"/>
</svg>
