<?xml version="1.0" encoding="utf-8"?><svg width="330" height="297" viewBox="0 0 330 297" xmlns="http://www.w3.org/2000/svg" xmlns:xlink="http://www.w3.org/1999/xlink"><svg width="7" height="27" viewBox="0 0 7 27" id="arrow-yelow-icon" x="307" y="180"><path d="M.006 27L7 13.717 0 0zM0 27" fill="#ffeb99"/></svg><svg width="7" height="27" viewBox="0 0 7 27" id="corner-yellow" x="300" y="180"><path d="M.006 27L7 13.717 0 0zM0 27" fill="#ffeb99"/></svg><svg width="30" height="30" viewBox="0 0 30 30" id="currency" x="200" y="100"><path d="M21 16.5a.7.7 0 0 0-.7-.7h-5.2l.8-.3a8.6 8.6 0 0 0 2-1.2h2.4a.7.7 0 0 0 0-1.5h-1.1v-.3a3.9 3.9 0 0 0 .3-1.4A4.3 4.3 0 0 0 15 7a5.2 5.2 0 0 0-4.4 2 .7.7 0 0 0 .2 1h.5l.5-.3A4 4 0 0 1 15 8.4a2.8 2.8 0 0 1 3.1 2.6 2.2 2.2 0 0 1-.6 1.6H9.7a.7.7 0 0 0 0 1.5H15l-.7.3a12.6 12.6 0 0 0-2.1 1.2H9.7a.7.7 0 0 0-.7.7.8.8 0 0 0 .7.8h1.1v.2a3.9 3.9 0 0 0-.3 1.4A4.3 4.3 0 0 0 15 23a5.1 5.1 0 0 0 4.4-2 .7.7 0 0 0-.2-1h-.5l-.5.3a3.9 3.9 0 0 1-3.3 1.4 2.8 2.8 0 0 1-3.1-2.6 2.3 2.3 0 0 1 .7-1.6h7.8a.7.7 0 0 0 .7-1z"/></svg><svg width="30" height="30" viewBox="0 0 30 30" id="date" x="230" y="100"><path d="M26 5h-2V3a1 1 0 0 0-2 0v2h-6V3a1 1 0 0 0-2 0v2H8V3a1 1 0 0 0-2 0v2H4a2 2 0 0 0-2 2v18a2 2 0 0 0 2 2h22a2 2 0 0 0 2-2V7a2 2 0 0 0-2-2zm0 20H4V12h22v13zm0-15H4V7h22v3z"/></svg><svg width="30" height="30" viewBox="0 0 30 30" id="i-arrow-left-m" x="260" y="100"><path fill="#c6c6c6" opacity=".5" d="M13.6 5.5L15 6.9 8.9 13H25v2H8.9l6.1 6.1-1.4 1.4L5 14l8.6-8.5z"/></svg><svg width="30" height="30" viewBox="0 0 30 30" id="i-arrow-right-m" x="200" y="232"><path fill="#c6c6c6" opacity=".5" d="M16.4 5.5L15 6.9l6.1 6.1H5v2h16.1L15 21.1l1.4 1.4L25 14l-8.6-8.5z"/></svg><svg width="30" height="30" viewBox="0 0 30 30" id="i-date-m" y="267"><path d="M26 5h-2V3a1 1 0 0 0-2 0v2h-6V3a1 1 0 0 0-2 0v2H8V3a1 1 0 0 0-2 0v2H4a2 2 0 0 0-2 2v18a2 2 0 0 0 2 2h22a2 2 0 0 0 2-2V7a2 2 0 0 0-2-2zm0 20H4V12h22v13zm0-15H4V7h22v3z"/></svg><svg width="30" height="30" viewBox="0 0 30 30" id="i-gallery-left" x="30" y="267"><path fill="#c6c6c6" d="M10 14.5L18.6 6 20 7.4l-7.1 7.1 7.1 7.1-1.4 1.4-8.6-8.5z"/></svg><svg width="30" height="30" viewBox="0 0 30 30" id="i-gallery-right" x="60" y="267"><path fill="#c6c6c6" d="M20 14.5L11.4 6 10 7.4l7.1 7.1-7.1 7.1 1.4 1.4 8.6-8.5z"/></svg><svg width="30" height="30" viewBox="0 0 30 30" id="i-griwna-m" x="90" y="267"><path d="M21 16.5a.7.7 0 0 0-.7-.7h-5.2l.8-.3a8.6 8.6 0 0 0 2-1.2h2.4a.7.7 0 0 0 0-1.5h-1.1v-.3a3.9 3.9 0 0 0 .3-1.4A4.3 4.3 0 0 0 15 7a5.2 5.2 0 0 0-4.4 2 .7.7 0 0 0 .2 1h.5l.5-.3A4 4 0 0 1 15 8.4a2.8 2.8 0 0 1 3.1 2.6 2.2 2.2 0 0 1-.6 1.6H9.7a.7.7 0 0 0 0 1.5H15l-.7.3a12.6 12.6 0 0 0-2.1 1.2H9.7a.7.7 0 0 0-.7.7.8.8 0 0 0 .7.8h1.1v.2a3.9 3.9 0 0 0-.3 1.4A4.3 4.3 0 0 0 15 23a5.1 5.1 0 0 0 4.4-2 .7.7 0 0 0-.2-1h-.5l-.5.3a3.9 3.9 0 0 1-3.3 1.4 2.8 2.8 0 0 1-3.1-2.6 2.3 2.3 0 0 1 .7-1.6h7.8a.7.7 0 0 0 .7-1z"/></svg><svg width="30" height="30" viewBox="0 0 30 30" id="i-location-m" x="120" y="267"><path d="M15.5 4c4.7 0 8.5 3.3 8.5 7.3s-4.3 9-8.5 13c-4.2-4-8.5-8.7-8.5-13S10.8 4 15.5 4m0-2C9.7 2 5 6.2 5 11.3S9.8 21.8 15.5 27C21.2 21.8 26 16.4 26 11.3S21.3 2 15.5 2z"/><path d="M15.5 17a4.5 4.5 0 1 1 4.5-4.5 4.5 4.5 0 0 1-4.5 4.5zm0-7a2.5 2.5 0 1 0 2.5 2.5 2.5 2.5 0 0 0-2.5-2.5z"/></svg><svg width="100" height="100" viewBox="0 0 100 100" id="i-materials-1-l" x="200" y="132"><g class="ali-materials-svg" fill="#06c"><path d="M72 15a3 3 0 0 1 3 3v64a3 3 0 0 1-3 3H28a3 3 0 0 1-3-3V18a3 3 0 0 1 3-3h44m0-3H28a6 6 0 0 0-6 6v64a6 6 0 0 0 6 6h44a6 6 0 0 0 6-6V18a6 6 0 0 0-6-6z"/><path d="M57.6 26.4a1.5 1.5 0 0 0-2.1 0l-6.9 6.7-4.1-4a1.5 1.5 0 0 0-2.1 0 1.4 1.4 0 0 0 0 2l5.9 5.7h.5l8.7-8.5a1.4 1.4 0 0 0 .1-1.9z"/><rect x="32" y="50" width="6" height="3" rx="1.5" ry="1.5"/><rect x="32" y="50" width="6" height="3" rx="1.5" ry="1.5"/><rect x="32" y="58" width="6" height="3" rx="1.5" ry="1.5"/><rect x="32" y="66" width="6" height="3" rx="1.5" ry="1.5"/><rect x="32" y="74" width="6" height="3" rx="1.5" ry="1.5"/><rect x="41" y="50" width="27" height="3" rx="1.5" ry="1.5"/><rect x="41" y="58" width="27" height="3" rx="1.5" ry="1.5"/><rect x="41" y="66" width="27" height="3" rx="1.5" ry="1.5"/><rect x="41" y="74" width="27" height="3" rx="1.5" ry="1.5"/></g></svg><svg width="100" height="100" viewBox="0 0 100 100" id="i-materials-2-l" x="200"><path d="M58.2 43.9H37.6a9.4 9.4 0 0 0-9.6 9.7 9.4 9.4 0 0 0 9.7 9.7h20.6c5.6 0 9.2-3.8 9.2-9.7s-3.8-9.7-9.3-9.7zm.2 16.5H37.7a6.4 6.4 0 0 1-6.7-6.8 6.5 6.5 0 0 1 6.6-6.8h20.6c4.7 0 6.4 3.6 6.4 6.8s-2.3 6.7-6.3 6.7zm35.5-42.3a1.5 1.5 0 0 0-1.7.7c-2.8 4.6-12.2 16.8-21 16.8H14.7v-.4a5 5 0 0 0-4.5-4c-.5 0-5.1.3-5.1 9.5s4.5 9.7 5.1 9.7a4.8 4.8 0 0 0 4.4-3.3v-.3h5.6l-.2.7a20.5 20.5 0 0 0-1 6.3C19.1 64.5 26.3 72 36.6 72h20.8c11.2 0 18.7-7.3 18.7-18.2a20.1 20.1 0 0 0-.9-5.9l-.3-1 1 .3c9.4 2.8 16.2 16 16.3 16.1a1.5 1.5 0 0 0 2.8-.7V19.5a1.5 1.5 0 0 0-1.1-1.4zM11.8 45.6a1.9 1.9 0 0 1-1.5 1.8h-.4c-.5-.2-1.9-1.5-1.9-6.6s1.4-6.3 1.9-6.5h.3a2.4 2.4 0 0 1 1.7 2.2 24.4 24.4 0 0 0-.5 4.5 22.2 22.2 0 0 0 .4 4.6zm9.9-1.7h-7.2v-.5a21.5 21.5 0 0 1-.1-2.4 18.6 18.6 0 0 1 .1-1.9v-.5h12l-1.2 1a16.6 16.6 0 0 0-3.5 4zm35.7 25.2H36.6c-10 0-14.5-7.6-14.5-15.2s6-15.2 14.5-15.2h20.8c10.9 0 15.7 7.6 15.7 15.2S69 69.1 57.4 69.1zM92 57.3l-1-1.4c-3.8-5.2-9.9-11.5-17.4-12.1h-.3v-.2a16.4 16.4 0 0 0-3.7-4.1l-1.3-1h2.9c8.4 0 16.1-8.1 20-13l1-1.3v33.1z" fill="#06c"/></svg><svg width="100" height="100" viewBox="0 0 100 100" id="i-materials-3-l" y="132"><path d="M73.8 35.9a24.7 24.7 0 0 0-21.6-21.8h-4.4a24.7 24.7 0 0 0-14.2 42.3 18.6 18.6 0 0 1 5.5 9.2V79.7a1.4 1.4 0 0 0 1.4 1.4h1.7l2 2.9a5 5 0 0 0 4 2h3.6a5 5 0 0 0 4-2l2.1-2.8h1.7a1.4 1.4 0 0 0 1.4-1.4V65.7a18.6 18.6 0 0 1 5.5-9.2 24.6 24.6 0 0 0 7.3-20.6zM53.5 82.3a2.1 2.1 0 0 1-1.7.9h-3.6a2.2 2.2 0 0 1-1.7-.9l-.8-1.1h8.6zm4.6-5.8v1.9H41.9v-1.9h16.2zm-16.2-2.9v-1.9h16.2v1.9H41.9zm0-4.8v-1.9h16.2v1.9H41.9zM58.4 64H41.6a22.2 22.2 0 0 0-6.1-9.7A21.8 21.8 0 0 1 48.1 17h3.8a21.8 21.8 0 0 1 12.6 37.4 22.2 22.2 0 0 0-6.1 9.7z" fill="#06c"/></svg><svg width="100" height="100" viewBox="0 0 100 100" id="i-materials-4-l" x="100" y="132"><path d="M22.9 67.4a2.5 2.5 0 0 0 1.3 2.4 2.5 2.5 0 0 0 2.7-.5l7.8-6.4.3-.2h.3a42.5 42.5 0 0 0 12.1.4h.7l.2.7C50 70.8 58.2 76 68 76h1.8l.2.1 6.3 5.2a2.3 2.3 0 0 0 4-1.9v-6.6l.4-.2c4.6-2.8 7.3-7 7.3-11.4 0-6.7-5.8-12.4-14.5-14.2l-.8-.2.3-.8a17.2 17.2 0 0 0 .8-5.3C73.8 28.2 59.9 18 42.9 18S12 28.2 12 40.7c0 6.6 3.9 12.8 10.6 17.1l.3.2v9.4zm62.2-6.2c0 3.7-2.6 7.3-6.9 9.6l-.8.4v7.5L70.7 73H68c-9.5 0-17.1-5.4-17.1-12S58.6 49 68 49s17.2 5.6 17.2 12.2zM14.8 40.7c0-10.9 12.6-19.8 28.1-19.8S71 29.7 71 40.7a14.4 14.4 0 0 1-1 5.2l-.2.5H68c-10.3 0-18.8 5.7-19.9 13.3v.6h-.6a39.6 39.6 0 0 1-12.5-.6h-.7l-8.5 7.1V56.4l-.7-.4c-6.5-3.8-10.3-9.4-10.3-15.3z" fill="#06c"/></svg><svg width="10" height="10" viewBox="0 0 10 10" id="i-minus-s" x="300" y="242"><path d="M10 6V4H0v2h10z" fill="#1568ca"/></svg><svg width="30" height="30" viewBox="0 0 30 30" id="i-play-m" x="170" y="232"><path d="M15 7a8 8 0 1 1-8 8 8 8 0 0 1 8-8m0-2a10 10 0 1 0 10 10A10 10 0 0 0 15 5z"/><path d="M14 13.6l2.2 1.4-2.2 1.4v-2.8m-1-2.8a1 1 0 0 0-1 1v6.4a1 1 0 0 0 1 1l.5-.2 5.1-3.2a1 1 0 0 0 0-1.7L13.5 11l-.5-.2z"/></svg><svg width="10" height="10" viewBox="0 0 10 10" id="i-plus-active-s" x="320" y="232"><path fill="#1568ca" d="M10 4H6V0H4v4H0v2h4v4h2V6h4V4z"/></svg><svg width="10" height="10" viewBox="0 0 10 10" id="i-plus-s" x="310" y="232"><path fill="#e1e1e1" d="M10 4H6V0H4v4H0v2h4v4h2V6h4V4z"/></svg><svg width="30" height="30" viewBox="0 0 30 30" id="i-price-m" x="260" y="232"><path d="M25 12.8a2.9 2.9 0 0 0-1.3-2.2A2.9 2.9 0 0 0 25 8.5C25 6 20.5 4 15 4S5 6 5 8.5a2.9 2.9 0 0 0 1.3 2.2A2.9 2.9 0 0 0 5 12.8 2.9 2.9 0 0 0 6.3 15 2.9 2.9 0 0 0 5 17.2a2.9 2.9 0 0 0 1.3 2.2A2.9 2.9 0 0 0 5 21.5C5 24 9.5 26 15 26s10-2 10-4.5a2.9 2.9 0 0 0-1.3-2.2 2.9 2.9 0 0 0 1.3-2.1 2.9 2.9 0 0 0-1.3-2.2 2.9 2.9 0 0 0 1.3-2.2zM15 6c5.2 0 8 1.8 8 2.5S20.2 11 15 11 7 9.1 7 8.5 9.8 6 15 6zm0 6.9a18.3 18.3 0 0 0 6.8-1.2 2.2 2.2 0 0 1 1.2 1.1c0 .6-2.8 2.5-8 2.5s-8-1.8-8-2.5a2.2 2.2 0 0 1 1.2-1.1 18.3 18.3 0 0 0 6.8 1.2zm8 8.6c0 .6-2.8 2.5-8 2.5s-8-1.8-8-2.5a2.2 2.2 0 0 1 1.2-1.1 18.3 18.3 0 0 0 6.8 1.2 18.3 18.3 0 0 0 6.8-1.2 2.2 2.2 0 0 1 1.2 1.1zm0-4.4c0 .6-2.8 2.5-8 2.5s-8-1.8-8-2.5A2.2 2.2 0 0 1 8.2 16a18.3 18.3 0 0 0 6.8 1.3 18.3 18.3 0 0 0 6.8-1.2 2.2 2.2 0 0 1 1.2 1.1z"/></svg><svg width="35" height="35" viewBox="0 0 35 35" id="i-program-1-l" x="105" y="232"><title>i-program-1-l</title><path d="M20.6 6.3h-6.2v1.4h6.2V6.3zM17.5 12a3.5 3.5 0 1 0 3.5 3.5 3.5 3.5 0 0 0-3.5-3.5zm0 5.8a2.3 2.3 0 1 1 2.3-2.3 2.3 2.3 0 0 1-2.3 2.3zM24.8 2H10.2A4.2 4.2 0 0 0 6 6.1v21.8a4.2 4.2 0 0 0 4.2 4.1h14.6a4.2 4.2 0 0 0 4.2-4.1V6.1A4.2 4.2 0 0 0 24.8 2zm-2.5 28.7h-9.6v-4.3a4.3 4.3 0 0 1 4.3-4.3h.9a4.3 4.3 0 0 1 4.3 4.3v4.3zm5.4-2.9a2.9 2.9 0 0 1-2.9 2.9h-1.2v-4.3a5.6 5.6 0 0 0-5.6-5.6h-.9a5.6 5.6 0 0 0-5.6 5.6v4.3h-1.3a2.9 2.9 0 0 1-2.9-2.9V6.1a2.9 2.9 0 0 1 2.9-2.9h14.6a2.9 2.9 0 0 1 2.9 2.9v21.8z" fill="#06c"/></svg><svg width="35" height="35" viewBox="0 0 35 35" id="i-program-2-l" x="140" y="87"><title>i-program-2-l</title><path d="M13.1 2.5a2.2 2.2 0 0 0-2.2 2.1v12.9a6.6 6.6 0 0 0 6.7 6.4 6.6 6.6 0 0 0 6.7-6.4V4.6a2.2 2.2 0 0 0-2.2-2.1h-9zm0 1.4H22a.7.7 0 0 1 .7.7v12.9a5.1 5.1 0 0 1-5.2 5 5.1 5.1 0 0 1-5.2-5V4.6a.7.7 0 0 1 .8-.7zm-4.9 8.9a.7.7 0 0 0-.7.7v3.9a9.8 9.8 0 0 0 9.3 9.6v4h-4.5a.7.7 0 1 0 0 1.4h10.4a.7.7 0 1 0 0-1.4h-4.5v-4a9.8 9.8 0 0 0 9.3-9.6v-3.8a.7.7 0 0 0-1.5 0v3.9a8.4 8.4 0 0 1-8.5 8.2A8.4 8.4 0 0 1 9 17.5v-3.9a.7.7 0 0 0-.7-.7h-.1z" fill="#06c"/></svg><svg width="35" height="35" viewBox="0 0 35 35" id="i-program-3-l" y="232"><title>i-program-3-l</title><path d="M31.3 14.4l-.5-.2H4.2a.7.7 0 0 0-.7.7v6.2A11 11 0 0 0 14.7 32a11.1 11.1 0 0 0 11.1-9.4c4.5-.4 5.8-5.2 5.8-7.7a.8.8 0 0 0-.3-.5zm-6.9 6.7a9.6 9.6 0 0 1-9.7 9.4A9.6 9.6 0 0 1 5 21.1v-5.5h19.4v5.5zm1.4 0v-5.5H30c-.1 1.7-.9 5.1-4.2 5.5zm-16-10.3a.7.7 0 1 0 1.4 0 1.4 1.4 0 0 1 .3-.9 2.8 2.8 0 0 0 .6-1.8 2.9 2.9 0 0 0-.6-1.8 1.4 1.4 0 0 1-.3-.9 1.4 1.4 0 0 1 .3-.9 2.9 2.9 0 0 0 .6-1.8.7.7 0 1 0-1.4 0 1.4 1.4 0 0 1-.3.9 2.8 2.8 0 0 0-.6 1.8 2.9 2.9 0 0 0 .6 1.8 1.5 1.5 0 0 1 0 1.8 2.8 2.8 0 0 0-.6 1.8zm4.6-2.7a1.4 1.4 0 0 1-.3.9 2.9 2.9 0 0 0-.6 1.8.7.7 0 1 0 1.4 0 1.4 1.4 0 0 1 .3-.9 2.9 2.9 0 0 0 .6-1.8 2.9 2.9 0 0 0-.6-1.8 1.4 1.4 0 0 1-.3-.9 1.4 1.4 0 0 1 .3-.9 2.8 2.8 0 0 0 .6-1.8.7.7 0 1 0-1.4 0 1.4 1.4 0 0 1-.3.9 2.8 2.8 0 0 0-.6 1.8 2.8 2.8 0 0 0 .6 1.8 1.4 1.4 0 0 1 .3.9zm2.8 2.7a.7.7 0 1 0 1.4 0 1.4 1.4 0 0 1 .3-.9 2.9 2.9 0 0 0 .6-1.8 2.9 2.9 0 0 0-.6-1.8 1.4 1.4 0 0 1-.3-.9 1.4 1.4 0 0 1 .3-.9 2.9 2.9 0 0 0 .6-1.8.7.7 0 1 0-1.4 0 1.4 1.4 0 0 1-.3.9 2.8 2.8 0 0 0-.6 1.8 2.8 2.8 0 0 0 .6 1.8 1.5 1.5 0 0 1 0 1.8 2.9 2.9 0 0 0-.6 1.8z" fill="#06c"/></svg><svg width="35" height="35" viewBox="0 0 35 35" id="i-program-4-l" x="35" y="232"><title>i-program-4-l</title><path d="M.7 13.1h19.4a2.9 2.9 0 0 0 3 2.9h.1l10.2-.9a.7.7 0 0 0 .6-.7V7.6a.7.7 0 0 0-.6-.7L23.1 6a2.9 2.9 0 0 0-2.9 2.9H.7a.7.7 0 0 0-.7.7v2.8a.7.7 0 0 0 .7.7zm14.1-2.8h6a.7.7 0 0 0 .7-.7v-.7A1.6 1.6 0 0 1 23 7.3l9.6.8V9h-5.3a.7.7 0 1 0 0 1.3h5.3v1.3h-5.3a.7.7 0 1 0 0 1.3h5.3v.9l-9.6.8a1.6 1.6 0 0 1-1.5-1.6v-.6a.7.7 0 0 0-.7-.7h-6v-1.4zm-13.4 0h12v1.4h-12v-1.4zm25.2 8.1a11.7 11.7 0 0 0-4.6 1.1 2.9 2.9 0 0 0-1.9 2.7H.7a.7.7 0 0 0-.7.7v2.8a.7.7 0 0 0 .7.7h19.4a2.9 2.9 0 0 0 2 2.7 11.3 11.3 0 0 0 4 .8c4.7 0 8.8-2.4 8.8-5.7s-3.7-5.8-8.4-5.8zM13.4 25h-12v-1.4h12V25zm12.8 3.6a9.5 9.5 0 0 1-3.8-.7 1.6 1.6 0 0 1-1-1.4v-.8a.7.7 0 0 0-.7-.7h-6v-1.4h6a.7.7 0 0 0 .7-.7v-.7a2.1 2.1 0 0 1 1-1.4 9 9 0 0 1 4.1-.9c3.8 0 6.9 2 6.9 4.5s-3.4 4.2-7.2 4.2z" fill="#06c"/></svg><svg width="35" height="35" viewBox="0 0 35 35" id="i-program-5-l" x="70" y="232"><title>i-program-5-l</title><path d="M25.8 5H9.2A4.4 4.4 0 0 0 5 9.4V30l8.2-6.3h12.6a4.4 4.4 0 0 0 4.2-4.4V9.4A4.4 4.4 0 0 0 25.8 5zM6.5 26.9V9.4a2.8 2.8 0 0 1 2.7-2.8h16.6a2.8 2.8 0 0 1 2.7 2.8v9.8a2.8 2.8 0 0 1-2.7 2.8h-13z" fill="#1568ca"/></svg><svg width="10" height="10" viewBox="0 0 10 10" id="i-program-bullet" x="300" y="232"><circle cx="5" cy="5" r="3" fill="#e1e1e1"/></svg><svg width="10" height="10" viewBox="0 0 10 10" id="i-program-bullet-active" x="314" y="195"><circle cx="5" cy="5" r="3" fill="#1568ca"/></svg><svg width="140" height="85" viewBox="0 0 140 85" id="i-quote-o" y="47"><path d="M31.4 24.4A32.1 32.1 0 0 0 19 26.9L14 29l2.2-4.8A67.3 67.3 0 0 1 34.7 0H21.5A82.8 82.8 0 0 0 0 54.7C0 71.4 14.1 85 31.4 85s31.4-13.6 31.4-30.3-14-30.3-31.4-30.3zm0 51.7c-12.3 0-22.2-9.6-22.2-21.4s10-21.4 22.2-21.4 22.2 9.6 22.2 21.4-9.9 21.5-22.2 21.5zM108.6 24.4a32.1 32.1 0 0 0-12.5 2.5l-5 2.1 2.2-4.8A67.3 67.3 0 0 1 111.9 0H98.6a82.8 82.8 0 0 0-21.4 54.7c0 16.7 14.1 30.3 31.4 30.3S140 71.4 140 54.7s-14.1-30.3-31.4-30.3zm0 51.7c-12.3 0-22.2-9.6-22.2-21.4s10-21.4 22.2-21.4 22.2 9.6 22.2 21.4-10 21.5-22.2 21.5z" fill="#e5ca18"/></svg><svg width="25" height="25" viewBox="0 0 25 25" id="i-reserved-o" x="300" y="207"><path d="M12.5 2A10.5 10.5 0 1 1 2 12.5 10.5 10.5 0 0 1 12.5 2m0-2A12.5 12.5 0 1 0 25 12.5 12.5 12.5 0 0 0 12.5 0z" fill="#fff" opacity=".2"/><path d="M11.2 13.3v3.8H9.1V7.3H12a4.9 4.9 0 0 1 3 .7 2.6 2.6 0 0 1 1 2.2 2.6 2.6 0 0 1-.5 1.5 3.2 3.2 0 0 1-1.4 1.1l2.9 4.3h-2.3l-2.3-3.8h-1.2zm0-1.7h.7a2.6 2.6 0 0 0 1.5-.3 1.2 1.2 0 0 0 .5-1 1.1 1.1 0 0 0-.5-1 2.9 2.9 0 0 0-1.6-.3h-.6v2.7z" fill="#fff" opacity=".2"/></svg><svg width="15" height="15" viewBox="0 0 15 15" id="i-reserved-s" x="314" y="180"><path d="M7.5 2A5.5 5.5 0 1 1 2 7.5 5.5 5.5 0 0 1 7.5 2m0-2A7.5 7.5 0 1 0 15 7.5 7.5 7.5 0 0 0 7.5 0z" fill="#1b1b1b"/><path d="M7 8.3v2.2H5.4v-6h1.9q2.4 0 2.4 1.8a1.8 1.8 0 0 1-1 1.6l1.7 2.6H8.6L7.4 8.3H7zm0-1.2h.3a.7.7 0 0 0 .8-.8q0-.6-.8-.6H7v1.4z" fill="#1b1b1b"/></svg><svg width="30" height="30" viewBox="0 0 30 30" id="i-results-1-m" x="300"><path d="M23.3 19.1c-4-1-5.9-1.4-6.2-2.7a8.7 8.7 0 0 0 3.1-6.2A5.3 5.3 0 0 0 15 5a5.2 5.2 0 0 0-5.2 5.1 9.1 9.1 0 0 0 2.9 6.3c-.4 1.2-2.4 1.6-6.2 2.6s-3.3 4-3.3 5.9h23.7c.1-1.8.8-4.6-3.6-5.8z" fill="#e1e1e1"/></svg><svg width="30" height="30" viewBox="0 0 30 30" id="i-results-10-m" x="300" y="30"><path d="M14 15.9v-4.6h3a1 1 0 0 0 .9-.5.9.9 0 0 0-.1-1l-6-6.5a1.1 1.1 0 0 0-1.5 0l-6 6.5a.9.9 0 0 0-.1 1 1 1 0 0 0 .9.5H8v4.6a1 1 0 0 0 1 .9h4a1 1 0 0 0 1-.9zm11.9 3.3a1 1 0 0 0-.9-.5h-3v-4.6a1 1 0 0 0-1-.9h-4a1 1 0 0 0-1 .9v4.6h-3a1 1 0 0 0-.9.5.9.9 0 0 0 .1 1l6 6.5a1.1 1.1 0 0 0 1.5 0l6-6.5a.9.9 0 0 0 .2-1z" fill="#e1e1e1"/></svg><svg width="30" height="30" viewBox="0 0 30 30" id="i-results-2-m" x="300" y="60"><path d="M15 6C8.4 6 4.2 11.2 3 15c1.3 3.8 5.4 9 12 9s10.7-5.1 12-9c-1.2-3.8-5.4-9-12-9zm0 15.4a10.3 10.3 0 0 1-9.1-5.8 1.5 1.5 0 0 1 0-1.3A10.5 10.5 0 0 1 15 8.6a10.6 10.6 0 0 1 9.4 6.4 10.4 10.4 0 0 1-9.4 6.4zm0-10.3a3.7 3.7 0 0 0-3.6 3.9 3.7 3.7 0 0 0 3.6 3.9 3.7 3.7 0 0 0 3.6-3.9 3.7 3.7 0 0 0-3.6-3.9z" fill="#e1e1e1"/></svg><svg width="30" height="30" viewBox="0 0 30 30" id="i-results-3-m" x="300" y="90"><path d="M9 15.5v2.9h1.8a1.9 1.9 0 0 1 2 1.8v3.1a1.9 1.9 0 0 1-2 1.8H5a1.9 1.9 0 0 1-2-1.8v-3.2a1.9 1.9 0 0 1 2-1.8h1.8v-3.1a1.9 1.9 0 0 1 2-1.8h5.1v-2.8h-1.8a1.9 1.9 0 0 1-2-1.8v-3a1.9 1.9 0 0 1 2-1.8h5.8a1.9 1.9 0 0 1 2 1.8v3a1.9 1.9 0 0 1-2 1.8h-1.8v2.8h5.1a1.9 1.9 0 0 1 2 1.8v3.1H25a1.9 1.9 0 0 1 2 1.8v3.1a1.9 1.9 0 0 1-2 1.8h-5.8a1.9 1.9 0 0 1-2-1.8v-3.1a1.9 1.9 0 0 1 2-1.8H21v-2.8H9z" fill="#e1e1e1"/></svg><svg width="30" height="30" viewBox="0 0 30 30" id="i-results-4-m" x="300" y="120"><path d="M25.1 11.7v-.3A11.6 11.6 0 0 0 24 8.9a10 10 0 0 0-2.6-3 10.6 10.6 0 0 0-2.2-1.3 11.9 11.9 0 0 0-2.8-.8h-1.6a9.9 9.9 0 0 0-2.6.3 9.6 9.6 0 0 0-3.4 1.7A11.5 11.5 0 0 0 7 7.6a13.6 13.6 0 0 0-1.6 2.5 10.1 10.1 0 0 0-.5 1.2v.3C3.1 12.6 3 15 3 15c0 4.6 3.9 4.4 3.9 4.4l.6-.7v-7l-.6-.4.2-.5 1-1.6 1.1-1.3a8.3 8.3 0 0 1 2.4-1.6 7.8 7.8 0 0 1 3.3-.7H16l1.8.5 1.6.7a8.3 8.3 0 0 1 2.2 1.9 9.1 9.1 0 0 1 1.5 2.7l-.6.4v7l.6.7h.7v.2a6.9 6.9 0 0 1-1 1.9l-.4.5h-.3l-.7.6-1 .5h-1.7a3.1 3.1 0 0 0-2.8-1.4c-1.6 0-3 .8-3 1.9s1.3 1.9 3 1.9a3.3 3.3 0 0 0 2.8-1.2h1.7l1-.3.9-.5.9-.7a7.3 7.3 0 0 0 1.1-1.5 8 8 0 0 0 .8-1.7 7.4 7.4 0 0 0 .3-1.1c1-.6 1.9-1.7 1.8-3.9-.2.4-.3-2.1-2.1-3z" fill="#e1e1e1"/></svg><svg width="30" height="30" viewBox="0 0 30 30" id="i-results-5-m" x="300" y="150"><path d="M16.2 13.7V9.8h.1a6.9 6.9 0 0 1 2.8 1.3l1.4-1.9a8 8 0 0 0-4.3-1.8h-.1V6h-2.3v1.5c-2.7.3-4.5 2-4.5 4.2s2.2 3.6 4.5 4.2v4.3a7.1 7.1 0 0 1-3.4-1.7L9 20.4a8.2 8.2 0 0 0 4.8 2.1V24h2.3v-1.5h.1c3-.3 4.8-1.9 4.8-4.5s-2.5-3.7-4.8-4.3zm-4.1-2.2a1.9 1.9 0 0 1 1.7-1.8V13c-.8-.2-1.7-.6-1.7-1.5zm4.2 8.8h-.2v-3.8h.2c1 .3 2 .8 2 1.8a2.1 2.1 0 0 1-2 2z" fill="#e1e1e1"/></svg><svg width="30" height="30" viewBox="0 0 30 30" id="i-results-6-m" x="270" y="267"><path d="M19.4 19.2a24.3 24.3 0 0 0 2.6 3.7V26H8.7v-3.1a19.2 19.2 0 0 0 2.4-2.9 8.3 8.3 0 0 1-.3-3.2 5.2 5.2 0 0 1 1.5-3.5 14.7 14.7 0 0 0 2.7-2.1c.7-.8.6-1 .6-1.1s-2.2-.2-3.4.1a9.5 9.5 0 0 0-2.4 1.1L8 8.7 13.4 4c3.6.1 6.7 1.7 7.8 4.2a7 7 0 0 1 .4 4.1c-.3 1.3-.8 1.8-1.7 4.5a5.5 5.5 0 0 0-.5 2.1.9.9 0 0 0 0 .3z" fill="#e1e1e1"/></svg><svg width="30" height="30" viewBox="0 0 30 30" id="i-results-7-m" x="240" y="267"><path d="M15 9.4a5.6 5.6 0 1 0 5.6 5.6A5.6 5.6 0 0 0 15 9.4zm0-2.6a1 1 0 0 0 1-1V3a1 1 0 1 0-2 0v2.9a1 1 0 0 0 1 .9zm0 16.4a1 1 0 0 0-1 1V27a1 1 0 0 0 2 0v-2.9a1 1 0 0 0-1-.9zM27 14h-2.9a1 1 0 0 0 0 1.9H27a1 1 0 0 0 0-1.9zM6.8 15a1 1 0 0 0-1-1H3a1 1 0 0 0 0 2h2.9a1 1 0 0 0 .9-1zm15.3 5.8a1 1 0 0 0-1.4 1.4l2 2a1 1 0 0 0 1.4-1.4zM7.9 9.2a1 1 0 1 0 1.3-1.3l-2-2a1 1 0 0 0-1.4 1.3zm0 11.6l-2 2a1 1 0 0 0 1.4 1.4l2-2a1 1 0 1 0-1.4-1.4zM21.5 9.5a1 1 0 0 0 .7-.3l2-2a1 1 0 1 0-1.4-1.4l-2 2a1 1 0 0 0 .7 1.7z" fill="#e1e1e1"/></svg><svg width="30" height="30" viewBox="0 0 30 30" id="i-results-8-m" x="180" y="267"><path d="M23 13.6L7 3l.8 19.7 5-4.9 4.5 8.2 3.7-2.2-4.6-8.2z" fill="#e1e1e1"/></svg><svg width="30" height="30" viewBox="0 0 30 30" id="i-results-9-m" x="150" y="267"><path d="M22.6 10.6l-1.7 1.7 1.5 1.5h-6.2V7.6l1.6 1.5 1.7-1.7L15 3l-4.4 4.4 1.7 1.7 1.5-1.5v6.2H7.6l1.5-1.5-1.7-1.7L3 15l4.4 4.4 1.7-1.7-1.5-1.5h6.2v6.2l-1.5-1.5-1.7 1.7L15 27l4.4-4.4-1.7-1.7-1.6 1.5v-6.2h6.2l-1.5 1.6 1.7 1.7L27 15z" fill="#e1e1e1"/></svg><svg width="40" height="40" viewBox="0 0 40 40" id="i-scheme-o" x="140" y="47"><path d="M38 12a2 2 0 0 0 2-2V2a2 2 0 0 0-2-2h-8a2 2 0 0 0-2 2v3H12V2a2 2 0 0 0-2-2H2a2 2 0 0 0-2 2v8a2 2 0 0 0 2 2h3v16H2a2 2 0 0 0-2 2v8a2 2 0 0 0 2 2h8a2 2 0 0 0 2-2v-3h16v3a2 2 0 0 0 2 2h8a2 2 0 0 0 2-2v-8a2 2 0 0 0-2-2h-3V12h3zM30 2h8v8h-8V2zM2 2h8v8H2V2zm0 36v-8h8v8H2zm36 0h-8v-8h8v8zm-5-10h-3a2 2 0 0 0-2 2v3H12v-3a2 2 0 0 0-2-2H7V12h3a2 2 0 0 0 2-2V7h16v3a2 2 0 0 0 2 2h3v16z" fill="#e1e1e1"/></svg><svg width="30" height="30" viewBox="0 0 30 30" id="location" x="230" y="232"><path d="M15.5 4c4.7 0 8.5 3.3 8.5 7.3s-4.3 9-8.5 13c-4.2-4-8.5-8.7-8.5-13S10.8 4 15.5 4m0-2C9.7 2 5 6.2 5 11.3S9.8 21.8 15.5 27C21.2 21.8 26 16.4 26 11.3S21.3 2 15.5 2z"/><path d="M15.5 17a4.5 4.5 0 1 1 4.5-4.5 4.5 4.5 0 0 1-4.5 4.5zm0-7a2.5 2.5 0 1 0 2.5 2.5 2.5 2.5 0 0 0-2.5-2.5z"/></svg><svg width="200" height="47" viewBox="0 0 200 47" id="logo"><defs><path id="bqa" d="M0 0h200v46H0z"/></defs><clipPath id="bqb"><use xlink:href="#bqa" overflow="visible"/></clipPath><path clip-path="url(#bqb)" fill="#0066B2" d="M114.316 9.432c-.559 0-1.001.214-1.325.642s-.524.99-.6 1.687l.031.051h3.705v-.269c0-.642-.15-1.154-.45-1.537-.3-.382-.754-.574-1.361-.574m-51.848 1.915h-2.587v4.843h2.587c.849 0 1.503-.236 1.961-.709.459-.472.688-1.071.688-1.795 0-.69-.227-1.253-.683-1.687-.455-.435-1.111-.652-1.966-.652"/><path clip-path="url(#bqb)" fill="#0066B2" d="M52 22h82V0H52v22zm14.598-4.812c-1.022.88-2.398 1.32-4.129 1.32h-7.255v-1.811l1.604-.311V5.572l-1.604-.311V3.44h11.425v3.819h-2.318l-.124-1.49h-4.316v3.249h2.588c1.745 0 3.125.426 4.139 1.278 1.015.852 1.522 1.989 1.522 3.41 0 1.442-.511 2.603-1.532 3.482m15.523-8.056l-1.604.311v6.943l1.604.311v1.811h-6.074v-1.811l1.448-.311v-4.688l-.062-.01-3.643 6.82h-4.636v-1.811l1.614-.311V9.443l-1.614-.311V7.311h6.085v1.821l-1.449.311v4.667l.063.01 3.642-6.809h4.626v1.821zm9.661 8.683c-.894.6-2.061.9-3.503.9-1.277 0-2.372-.297-3.286-.89-.914-.594-1.351-1.449-1.309-2.567l.01-.061h2.929c0 .386.159.707.476.962.317.255.766.383 1.346.383.558 0 .975-.135 1.251-.404.276-.269.414-.6.414-.994 0-.482-.138-.836-.414-1.06-.276-.224-.7-.337-1.273-.337h-1.614v-1.924h1.614c.511 0 .887-.107 1.129-.321.241-.214.362-.518.362-.911a1.29 1.29 0 0 0-.347-.911c-.231-.248-.609-.372-1.133-.372-.49 0-.885.11-1.185.331-.3.221-.45.518-.45.89H83.87l-.021-.062c-.041-1 .366-1.809 1.221-2.427.856-.617 1.925-.926 3.209-.926 1.434 0 2.568.283 3.4.848.831.566 1.246 1.37 1.246 2.412 0 .503-.152.964-.455 1.382-.304.417-.724.746-1.263.988.621.22 1.095.55 1.423.988s.492.974.492 1.609c0 1.049-.447 1.874-1.34 2.474m15.973-8.683l-1.614.311v6.943l1.614.311v1.811h-5.929v-1.811l1.293-.311v-2.225h-3.684v2.225l1.304.311v1.811h-5.93v-1.811l1.615-.311V9.443l-1.615-.311V7.311h5.93v1.821l-1.304.311v2.4h3.684v-2.4l-1.293-.311V7.311h5.929v1.821zm11.332 4.678h-6.685l-.02.062c.055.738.301 1.345.739 1.821s1.034.714 1.786.714c.668 0 1.224-.067 1.665-.201a7.757 7.757 0 0 0 1.45-.637l.817 1.863c-.462.365-1.061.672-1.795.921-.735.248-1.555.372-2.458.372-1.614 0-2.905-.517-3.871-1.552s-1.449-2.349-1.449-3.943v-.414c0-1.662.457-3.032 1.371-4.108.914-1.077 2.141-1.611 3.68-1.604 1.511 0 2.683.455 3.519 1.365.834.911 1.251 2.143 1.251 3.695v1.646zm9.956 3.772c-.876.762-1.966 1.143-3.27 1.143-1.67 0-2.957-.528-3.86-1.583-.905-1.056-1.356-2.411-1.356-4.067v-.31c0-1.649.464-3.005 1.392-4.068.928-1.062 2.25-1.593 3.969-1.593.903 0 1.714.134 2.432.403.717.269 1.314.649 1.79 1.139l.042 2.99h-2.454l-.496-1.749a1.927 1.927 0 0 0-.559-.325 2.05 2.05 0 0 0-.755-.13c-.856 0-1.46.311-1.812.932-.351.62-.527 1.421-.527 2.401v.31c0 1 .161 1.806.486 2.416.324.611.894.916 1.708.916.537 0 .969-.156 1.293-.471.325-.314.487-.733.487-1.257h2.732l.031.062c.027 1.131-.397 2.079-1.273 2.841M52 24v22h68.557v-1.012l1.459-.31V33.439l-1.615-.31v-1.822h4.388l.145 1.305a3.589 3.589 0 0 1 1.19-1.118c.462-.262 1-.393 1.615-.393 1.387 0 2.462.541 3.229 1.624.765 1.083 1.148 2.508 1.148 4.274v.217c0 1.657-.383 2.988-1.148 3.995-.767 1.008-1.836 1.511-3.209 1.511-.586 0-1.107-.108-1.562-.326a3.199 3.199 0 0 1-1.17-.957v3.239l1.459.31V46h8.105l.278-1.415.3.042c.104.013.193.02.269.02.503 0 .89-.122 1.159-.368.269-.244.476-.55.621-.915l.342-.849-3.55-9.221-1.046-.165v-1.822h5.486v1.822l-1.252.207 1.531 4.47.155.807.063.011 1.769-5.288-1.262-.207v-1.822h5.484v1.822l-1.045.155-4.119 10.897c-.324.807-.757 1.157-1.299 1.702-.044.045-.101.076-.149.117h45.69v-1.012l1.459-.31V33.439l-1.614-.31v-1.822h4.388l.144 1.305a3.591 3.591 0 0 1 1.191-1.118c.462-.262 1-.393 1.614-.393 1.387 0 2.463.541 3.229 1.624.766 1.083 1.148 2.508 1.148 4.274v.217c0 1.657-.382 2.988-1.148 3.995-.766 1.008-1.835 1.511-3.208 1.511-.587 0-1.108-.108-1.563-.326a3.204 3.204 0 0 1-1.169-.957v3.239l1.459.31V46H199V24H52zm17.454 18.505h-5.971v-1.811l.859-.124-2.815-4.233h-1.77v4.046l1.532.311v1.811h-6.158v-1.811l1.604-.311V29.569l-1.604-.311v-1.821h6.158v1.821l-1.532.311v4.025h1.356l2.825-4.067c.601-.841 1.131-1.424 1.594-1.749.461-.324 1.076-.486 1.842-.486.351 0 .679.048.983.145.303.096.583.224.838.383l-.507 2.266-.45-.098a1.63 1.63 0 0 0-.326-.026c-.318 0-.611.09-.88.269-.269.18-.593.514-.972 1.004l-2.36 3.228 4.17 5.972 1.584.259v1.811zm11.187-5.485c0 1.683-.468 3.055-1.402 4.113-.936 1.06-2.223 1.589-3.866 1.589-1.662 0-2.961-.529-3.896-1.589-.935-1.058-1.402-2.43-1.402-4.113v-.218c0-1.669.467-3.037 1.402-4.103.935-1.066 2.227-1.598 3.876-1.598 1.656 0 2.95.531 3.886 1.593.934 1.063 1.402 2.432 1.402 4.108v.218zm14.489-3.891l-1.615.31v6.944l1.615.311v1.811H89.2v-1.811l1.293-.311v-2.225h-3.684v2.225l1.304.311v1.811h-5.93v-1.811l1.614-.311v-6.944l-1.614-.31v-1.822h5.93v1.822l-1.304.31v2.401h3.684v-2.401l-1.293-.31v-1.822h5.93v1.822zm9.996 8.45c-.876.762-1.966 1.143-3.27 1.143-1.669 0-2.956-.528-3.86-1.583-.904-1.056-1.356-2.412-1.356-4.067v-.311c0-1.649.464-3.004 1.392-4.067.928-1.062 2.251-1.593 3.969-1.593.904 0 1.715.134 2.432.403.717.269 1.314.649 1.79 1.138l.042 2.991h-2.453l-.497-1.749a1.91 1.91 0 0 0-.558-.326 2.073 2.073 0 0 0-.756-.129c-.855 0-1.459.31-1.811.931-.352.621-.528 1.422-.528 2.401v.311c0 1 .162 1.806.486 2.416.325.611.894.916 1.708.916.538 0 .969-.157 1.294-.471.324-.314.486-.733.486-1.257h2.733l.03.062c.028 1.131-.396 2.079-1.273 2.841m14.25-6.453h-2.317l-.125-1.511h-1.914v6.768l1.604.311v1.811h-6.241v-1.811l1.605-.311v-6.768h-1.873l-.114 1.511h-2.318v-3.819h11.693v3.819zm39.182 7.379h-4.15l-2.443-4.192h-1.159v2.07l1.377.311v1.811h-6.003v-1.811l1.614-.311v-6.944l-1.614-.31v-1.822h6.003v1.822l-1.377.31v2.132h1.035l1.677-2.484c.42-.648.862-1.136 1.324-1.464.463-.328 1.039-.492 1.728-.492.345 0 .656.049.932.145.276.097.549.228.817.394l-.507 2.09-.388-.104a1.354 1.354 0 0 0-.284-.02c-.207 0-.427.079-.658.238s-.429.358-.595.6l-1.448 2.111 2.597 3.86 1.522.249v1.811zm12.708-7.379h-2.318l-.125-1.511h-1.914v6.768l1.604.311v1.811h-6.24v-1.811l1.604-.311v-6.768h-1.873l-.114 1.511h-2.318v-3.819h11.694v3.819zm11.508 1.894c0 1.683-.467 3.055-1.402 4.113-.935 1.06-2.224 1.589-3.866 1.589-1.662 0-2.961-.529-3.896-1.589-.935-1.058-1.402-2.43-1.402-4.113v-.218c0-1.669.467-3.037 1.402-4.103.935-1.066 2.227-1.598 3.876-1.598 1.656 0 2.951.531 3.886 1.593.935 1.063 1.402 2.432 1.402 4.108v.218z"/><path fill="#0066B2" d="M177.486 33.429c-.787 0-1.36.314-1.718.942-.359.628-.538 1.438-.538 2.432v.217c0 1.021.179 1.841.538 2.458.358.618.938.926 1.738.926.78 0 1.351-.31 1.713-.931.362-.621.544-1.439.544-2.453v-.217c0-.994-.183-1.804-.549-2.432s-.942-.942-1.728-.942m-102.133 0c-.786 0-1.359.314-1.718.942s-.538 1.438-.538 2.432v.217c0 1.021.179 1.841.538 2.458.359.618.938.926 1.739.926.779 0 1.35-.31 1.713-.931.362-.621.543-1.439.543-2.453v-.217c0-.994-.183-1.804-.549-2.432s-.941-.942-1.728-.942m50.435 6.727c.321.165.716.248 1.185.248.731 0 1.268-.286 1.609-.859.342-.572.512-1.349.512-2.329v-.217c0-1.055-.176-1.911-.527-2.566-.352-.655-.89-.983-1.615-.983-.455 0-.843.093-1.164.279a1.996 1.996 0 0 0-.761.797v4.905c.187.318.44.559.761.725m63.459 0c.321.165.716.248 1.185.248.732 0 1.268-.286 1.609-.859.342-.572.513-1.349.513-2.329v-.217c0-1.055-.176-1.911-.528-2.566s-.89-.983-1.615-.983c-.455 0-.843.093-1.164.279a1.996 1.996 0 0 0-.761.797v4.905c.187.318.44.559.761.725"/><path fill="#363233" d="M45.55 20.707l-4.592-3.095V7.435a.284.284 0 0 0-.129-.239L31.591 1.12l-.014-.008-.016-.009-.003-.001-.006-.003a.014.014 0 0 0-.006-.002l-.012-.006a.332.332 0 0 0-.098-.018l-.012.001a.299.299 0 0 0-.043.004l-.007.002a.208.208 0 0 0-.041.011l-.007.003-.008.004a.03.03 0 0 0-.008.004l-.012.005-.001.001-.015.009-.001.001a.088.088 0 0 1-.01.006l-.008.006-.002.001-5.171 3.903L18.455.047a.283.283 0 0 0-.327.011L9.395 6.586a.287.287 0 0 0-.115.229V8.84L.114 15.736a.286.286 0 0 0-.114.229v9.007l.001.005a.241.241 0 0 0 .01.07.295.295 0 0 0 .02.054l.011.018c.005.008.008.016.014.023l.01.011.022.023a.226.226 0 0 0 .029.025l.01.009 5.163 3.457v10.372l.001.012a.297.297 0 0 0 .006.043l.001.006c.004.016.01.031.017.046l.004.01a.39.39 0 0 0 .027.045l.003.003a.261.261 0 0 0 .043.045l.007.006.02.014 9.244 6.052a.286.286 0 0 0 .329-.01l5.319-4 7.691 5.063a.286.286 0 0 0 .327-.01l8.724-6.486.012-.009a.282.282 0 0 0 .095-.148h.001a.297.297 0 0 0 .008-.052l.001-.024v-3.083l8.393-6.372.012-.011.021-.02a.291.291 0 0 0 .026-.033l.011-.013.007-.013a.229.229 0 0 0 .01-.023.267.267 0 0 0 .014-.036l.005-.022a.202.202 0 0 0 .005-.043l.002-.013v-9.019a.285.285 0 0 0-.126-.237M31.719 1.889l8.667 5.7v8.842l-8.667-5.901V1.889zm0 9.278l8.667 5.901v8.26l-2.385-1.569-6.282-4.131v-8.461zm-.275 8.965l8.729 5.74-8.106 6.017-8.67-5.73 8.047-6.027zm-13.242 7.559l8.642 5.689-8.205 6.145-8.674-5.711 8.237-6.123zM9.753 33.26v-8.33l8.153-6.062v8.33L9.753 33.26zm8.725-6.072v-8.363l4.137 2.677v4.679a.22.22 0 0 0 .005.044l.003.013a.421.421 0 0 0 .011.038l.004.009a.222.222 0 0 0 .03.053.242.242 0 0 0 .025.031l.009.009a.31.31 0 0 0 .041.034l4.292 2.833v3.573l-8.557-5.63zm0-26.443L25.605 5.4l-1.593 1.202-5.534-3.672V.745zm-.417 2.595l9.053 6.007v8.12l-9.053-5.563V3.34zm8.831 14.661l-4.003 2.997-4.542-2.939-.007-.003-.02-.012-.016-.007-.015-.006a.36.36 0 0 0-.044-.012l-.016-.002-.034-.003-.017.001a.184.184 0 0 0-.041.005h-.006a.382.382 0 0 0-.058.02l-.035.019-.01.007-.007.004-4.151 3.083-4.28-2.697 8.2-6.047 9.102 5.592zM9.361 9.494l8.128-6.114v8.54l-8.128 5.995V9.494zM.572 16.107l8.316-6.256v8.417L.572 24.406v-8.299zm.211 8.854l8.384-6.188 4.28 2.698-4.151 3.086a.287.287 0 0 0-.115.229v5.798L.783 24.961zm14.025 19.772l-8.734-5.718 5.041-3.759 8.689 5.721-4.996 3.756zm13.341 1.053l-9.069-5.971 8.204-6.145 9.101 5.992-8.236 6.124zm8.449-6.668l-9.055-5.962v-3.571l4.376 2.892a.286.286 0 0 0 .328-.009l3.502-2.6.849.834v8.416zm.572-3.274v-5.262a.283.283 0 0 0-.086-.203l-.87-.856 3.613-2.682 5.059 3.145-7.716 5.858zm7.934-6.396l-4.783-2.973.518-.385.02-.016.007-.006.021-.022.006-.007a.23.23 0 0 0 .014-.019l.004-.005.003-.005.01-.018.006-.011.006-.014.004-.012a.143.143 0 0 0 .009-.027l.002-.01a.325.325 0 0 0 .003-.014c.002-.015.004-.03.004-.046v-7.557l4.146 2.795v8.352z"/></svg><svg width="30" height="30" viewBox="0 0 30 30" id="play" x="140" y="232"><path d="M15 7a8 8 0 1 1-8 8 8 8 0 0 1 8-8m0-2a10 10 0 1 0 10 10A10 10 0 0 0 15 5z"/><path d="M14 13.6l2.2 1.4-2.2 1.4v-2.8m-1-2.8a1 1 0 0 0-1 1v6.4a1 1 0 0 0 1 1l.5-.2 5.1-3.2a1 1 0 0 0 0-1.7L13.5 11l-.5-.2z"/></svg><svg width="30" height="30" viewBox="0 0 30 30" id="price" x="210" y="267"><path d="M25 12.8a2.9 2.9 0 0 0-1.3-2.2A2.9 2.9 0 0 0 25 8.5C25 6 20.5 4 15 4S5 6 5 8.5a2.9 2.9 0 0 0 1.3 2.2A2.9 2.9 0 0 0 5 12.8 2.9 2.9 0 0 0 6.3 15 2.9 2.9 0 0 0 5 17.2a2.9 2.9 0 0 0 1.3 2.2A2.9 2.9 0 0 0 5 21.5C5 24 9.5 26 15 26s10-2 10-4.5a2.9 2.9 0 0 0-1.3-2.2 2.9 2.9 0 0 0 1.3-2.1 2.9 2.9 0 0 0-1.3-2.2 2.9 2.9 0 0 0 1.3-2.2zM15 6c5.2 0 8 1.8 8 2.5S20.2 11 15 11 7 9.1 7 8.5 9.8 6 15 6zm0 6.9a18.3 18.3 0 0 0 6.8-1.2 2.2 2.2 0 0 1 1.2 1.1c0 .6-2.8 2.5-8 2.5s-8-1.8-8-2.5a2.2 2.2 0 0 1 1.2-1.1 18.3 18.3 0 0 0 6.8 1.2zm8 8.6c0 .6-2.8 2.5-8 2.5s-8-1.8-8-2.5a2.2 2.2 0 0 1 1.2-1.1 18.3 18.3 0 0 0 6.8 1.2 18.3 18.3 0 0 0 6.8-1.2 2.2 2.2 0 0 1 1.2 1.1zm0-4.4c0 .6-2.8 2.5-8 2.5s-8-1.8-8-2.5A2.2 2.2 0 0 1 8.2 16a18.3 18.3 0 0 0 6.8 1.3 18.3 18.3 0 0 0 6.8-1.2 2.2 2.2 0 0 1 1.2 1.1z"/></svg></svg>