<svg id="Слой_2" data-name="Слой 2" xmlns="http://www.w3.org/2000/svg" width="9.02"
          height="21.95" viewBox="0 0 9.02 21.95">
          <path id="phone-icon" style="fill:#b9b9b9"
            d="M8.63,17.57a10.77,10.77,0,0,1-1.8-2.4,1.36,1.36,0,0,0-1.1-.7l-2.4-.3a10.32,10.32,0,0,1,0-6.5l2.3-.3a1.52,1.52,0,0,0,1.2-.7,10.77,10.77,0,0,1,1.8-2.4,1.24,1.24,0,0,0,.1-1.7l-.1-.1L6.43.38a1.39,1.39,0,0,0-1.9,0,14.74,14.74,0,0,0-1,20.2,4.74,4.74,0,0,0,1,1,1.39,1.39,0,0,0,1.9,0l2.2-2.1a1.39,1.39,0,0,0,0-1.9C8.73,17.58,8.63,17.58,8.63,17.57Z">
          </path>
        </svg>